<?xml version="1.0" encoding="utf-8"?>
<!-- Generator: Adobe Illustrator 23.1.0, SVG Export Plug-In . SVG Version: 6.00 Build 0)  -->
<svg version="1.1" id="Layer_1" xmlns="http://www.w3.org/2000/svg" xmlns:xlink="http://www.w3.org/1999/xlink" x="0px" y="0px"
	 viewBox="0 0 800 600" enable-background="new 0 0 800 600" xml:space="preserve">
<g>
	<rect fill="#FFFFFF" width="800" height="600"/>
	<rect y="434.79" fill="#00A896" width="800" height="165.21"/>
	<rect x="0.5" y="435.143" fill="none" stroke="#717171" width="799" height="164.504"/>
	<g id="Rectangle_257_1_" transform="translate(0 366)">
		<rect y="68.79" fill="#13686C" width="800" height="20.884"/>
		<rect x="0.5" y="68.835" fill="#13686C" width="799" height="20.795"/>
	</g>
	<g>
		<path id="Path_1492" fill="#603A17" d="M574.819,394.005h-12.01l-1.611-104.23h17.205L574.819,394.005z"/>
		<path id="Path_1493" fill="#754D25" d="M567.983,323.299c0-6.813,2.555-13.628,3.407-21.294c1.155-4.078,0.747-8.44-1.147-12.232
			h-10.76l1.611,104.23h3.49C570.449,371.545,567.394,346.208,567.983,323.299z"/>
		<path id="Path_1491" fill="#F3AE83" d="M548.343,271.535c0,0-54.488,65.668-60.319,73.054c-5.831,7.386-20.423,5.73-24.793,5.73
			c-4.37,0-8.971,3.681-8.741,5.291c0.23,1.609,5.061,2.989,8.741,2.989c3.68,0,12.053-4.624,12.053-4.624l23.437,0.483
			l72.647-55.414L548.343,271.535z"/>
		<path fill="#E58250" d="M548.343,271.535c0,0-5.257,6.335-12.677,15.289c-2.198,10.993-6.592,25.013-15.393,38.08
			c-7.738,11.488-16.341,21.636-23.674,29.511l2.122,0.044l72.646-55.414L548.343,271.535z"/>
		<g id="Group_365" transform="translate(-3136.131 -1972.484)">
			<g id="Group_348" transform="translate(3188.131 2262.257)">
				<path id="Ellipse_73" opacity="0.31" fill="#010101" enable-background="new    " d="M337.567,211.266
					c186.215,0,337.172,2.287,337.172,5.108c0,2.821-150.957,5.107-337.172,5.107S0.396,219.196,0.396,216.374
					C0.396,213.553,151.352,211.266,337.567,211.266z"/>
				<path id="Path_1396" fill="#8D633A" d="M693.083,115.428h-689l-2.521-11.2h694.043L693.083,115.428z"/>
				<path id="Path_1397" fill="#754D25" d="M376.772,111.931c-58.066-1.7-114.87-4.259-172.938-1.7
					c-67.6,3.318-133.178-5.431-200.715-1.179l0.62,6.379h689.716l1.063-6.241c-69.124-0.029-137.279-0.051-206.664-1.514
					C451.248,106.822,413.38,111.931,376.772,111.931z"/>
				<path id="Path_1398" fill="#754D25" d="M78.119,216.375H56.312V115.427h11.021L78.119,216.375z"/>
				<path id="Path_1400" fill="#754D25" d="M604.594,216.375H626.4V115.427h-11.019L604.594,216.375z"/>
				<path id="Path_1402" fill="#603A17" d="M132.567,104.231h-12.013L111.961,0.001h14.746L132.567,104.231z"/>
				<path id="Path_1403" fill="#754D25" d="M122.472,44.598c-2.147-15.034,1.72-30.068-2.051-44.6h-8.711l8.594,104.229h4.081
					C128.001,84.518,125.606,64.199,122.472,44.598z"/>
				<path id="Path_1406" fill="#754D25" d="M622.758,33.233l-585.071,7.19l-7.949-25.994l602.771,2.755L622.758,33.233z"/>
				<path id="Path_1407" fill="#8D633A" d="M29.737,14.429l5.579,18.246h0.453c93.837-3.407,184.953-10.221,281.511-1.7
					c46.237,4.259,88.4-6.813,133.274-8.517c48.958-1.7,99.276,5.962,148.234,4.259c9.332-0.53,19.191-0.732,28.921-1.634l4.8-7.9
					L29.737,14.429z"/>
				<path id="Path_1413" fill="#8D633A" d="M626.16,82.636L50.813,89.995l-8.186-26.039l381.558,0.245l22.564,0.489l185.757-0.734
					L626.16,82.636z"/>
				<path id="Path_1414" fill="#754D25" d="M478.859,69.299c-31.833-2.556-63.667,3.407-95.5,5.111
					c-81.663,5.962-161.938,0-243.6-1.7c-31.946,0-62.063-0.052-93.63,1.5L49.292,90l577.925-7.364l2.685-10.713
					C580.649,76.551,530.185,74.904,478.859,69.299z"/>
			</g>
		</g>
		<g id="Group_367">
			<ellipse id="Ellipse_92" opacity="0.4" fill="#010101" enable-background="new    " cx="182.895" cy="534" rx="109.5" ry="9"/>
			<path id="Path_1453" fill="#EE8771" d="M201.551,500.433l-4.87,12.747l14.036,2.578l6.732-11.6L201.551,500.433z"/>
			<path id="Path_1455" fill="#EE8771" d="M156.567,500.433l4.87,12.747l-14.036,2.578l-6.732-11.6L156.567,500.433z"/>
			<path id="Path_1451" fill="#003049" d="M177.395,360.2c0,0,37.634,0.817,55.634,8.181c18,7.363,47.043,23.317,40.5,48.271
				c-6.543,24.952-25.771,47.452-33.135,54.815c-7.363,7.364-16.554,24-18.006,27.626c-1.451,3.626-4.115,9.44-4.115,9.44
				s-4.356,2.663-11.376-1.452c-7.019-4.115-7.262-5.81-7.262-5.81s7.746-30.257,13.555-40.664
				c5.81-10.408,15.733-18.4,18.154-23.722c2.421-5.32,9.05-21.3,9.05-21.3s-32.287-9.2-40.759-11.861
				c-7.25-2.097-14.706-3.396-22.238-3.873c-3.9-0.241-24.962,7.021-36.581,10.166c-11.619,3.146-22.269,5.567-22.269,5.567
				s10.408,22.511,15.007,26.384c4.599,3.873,15.976,23.9,18.153,29.5c2.178,5.6,6.778,29.801,6.778,29.801s-3.39,5.082-6.778,5.809
				c-3.389,0.726-10.892,1.452-10.892,1.452s-8.473-16.7-11.861-25.9c-3.389-9.2-11.376-14.523-25.899-32.192
				c-14.524-17.671-20.091-26.385-17.187-44.538c2.905-18.154,31.951-31.957,44.3-37.522
				C142.518,362.815,177.395,360.2,177.395,360.2z"/>
			<path id="Path_1454" fill="#003049" d="M162.499,509.379c-1.441-0.493-3.038-0.112-4.1,0.978
				c-1.676,1.862-6.145,2.234-7.448,2.234c-1.303,0-6.517-7.82-13.034-5.771c-6.517,2.048-7.82,8.936-7.82,8.936
				s-2.048,5.213-6.889,6.89c-2.886,1.005-5.89,1.631-8.937,1.861c-2.082-0.887-4.436-0.887-6.517,0
				c-3.538,1.49-2.234,9.5-2.234,9.5h47.668c0,0,17.5-7.262,17.875-9.5C171.438,522.269,162.499,509.379,162.499,509.379z"/>
			<path id="Path_1464" fill="#8E201F" d="M123.434,371.507c0,0,48.053-4.722,56.37-3.13c8.317,1.592,56.268,1.77,56.268,1.77
				l-39.812-12.918h-42.464L123.434,371.507z"/>
			<path id="Path_1456" fill="#D52A28" d="M182.835,212.719c0,0,37.081-1.5,47.547,4.188c10.466,5.687,24.521,47.846,27.212,68.18
				c2.691,20.334-12.56,26.315-18.839,24.521c-4.681-1.521-9.191-3.526-13.457-5.981c0,0,4.485,36.482,7.177,43.36
				c2.692,6.878,3.887,23.025,3.887,23.025s-45.752-6.578-56.518-6.878c-10.766-0.299-56.219,8.373-56.219,8.373
				s8.672-29.006,9.868-36.183c1.196-7.177,3.29-25.717,3.29-25.717s-14.952,4.484-23.026-7.477
				c-8.074-11.961-1.5-51.733,8.074-68.479C131.406,216.906,182.835,212.719,182.835,212.719z"/>
			<path id="Path_1462" fill="#A21E21" d="M220.982,243.716c0,0,2.871,25.119-4.306,34.389c-7.177,9.27,2.392,2.392,12.857,6.878
				c10.466,4.486,15.85,8.373,15.85,8.373c-6.834-5.655-12.26-12.821-15.85-20.932C224.151,259.565,220.982,243.716,220.982,243.716
				z"/>
			<path id="Path_1463" fill="#A21E21" d="M143.585,243.716c0,0-2.871,25.119,4.306,34.389c7.177,9.27-2.393,2.392-12.858,6.878
				c-10.466,4.486-2.385,3.289-2.385,3.289s-3-2.99,2.385-15.849C140.417,259.564,143.585,243.716,143.585,243.716z"/>
			<path id="Path_1458" fill="#F3AE83" d="M162.989,287.318c0,0,68.3,17.18,75.201,17.534c6.901,0.354,13.8-1.769,11.148-12.032
				c-2.652-10.263-6.9-11.855-12.74-12.917c-5.84-1.062-41.051-3.893-41.051-3.893L162.989,287.318z"/>
			<path id="Path_1460" fill="#E58250" d="M159.654,275.1c0,0-11.842-2.586-14.156-4.083c-2.314-1.497-7.078-2.722-9.255-2.178
				c-2.177,0.544-10.073,7.622-10.208,8.847c-0.135,1.225,1.089,3.131,1.089,3.131c-0.294,0.934-0.658,1.844-1.089,2.722
				c-0.68,1.361-0.68,2.722,1.089,3.267c1.768,0.545,6.81-4.843,6.81-4.843L159.654,275.1z"/>
			<path id="Path_1459" fill="#E58250" d="M176.185,290.45l7.36,1.447c0,0,18.734-8.725,23.406-10.577
				c3.507-1.32,7.083-2.449,10.712-3.383l-2.577-1.208h-12.242l-26.658,12.161L176.185,290.45z"/>
			<path id="Path_1457" fill="#F3AE83" d="M127.124,283.832c0,0-5.735,4.334-2.908,13.548c2.827,9.214,12.564,10.575,14.449,10.575
				c1.885,0,63.978-28.3,69.994-29.534c6.016-1.234,13.339,0.177,14.578,0c1.239-0.177,1.51-4.178-4.683-7.894
				c-6.193-3.716-13.625-5.131-29.019-2.477C174.141,270.704,127.124,283.832,127.124,283.832z"/>
			<path id="Path_1461" fill="#F3AE83" d="M127.324,286.112c1.207,0.521,2.5,0.812,3.813,0.858c1.43-0.143,5.146-3.811,5.146-3.811
				l23.494-8.054l-27.783,3.622L127.324,286.112z"/>
			<path id="Path_1465" fill="#07222F" d="M118.618,415.639l57.737-15.871c0,0,25.763,4.6,34.734,7.131
				c8.971,2.53,29.213,8.74,29.213,8.74s-8.741-10.581-20.012-14.031c-11.27-3.451-26.683-12.651-45.085-11.961
				c-18.401,0.689-23.923,9.66-34.5,14.031C130.128,408.049,118.618,415.639,118.618,415.639z"/>
			<path id="Path_1452" fill="#003049" d="M195.619,509.379c1.441-0.493,3.038-0.112,4.1,0.978c1.676,1.862,6.145,2.234,7.448,2.234
				c1.303,0,6.517-7.82,13.034-5.771c6.517,2.048,7.82,8.936,7.82,8.936s2.048,5.213,6.889,6.89c2.886,1.005,5.89,1.631,8.937,1.861
				c2.082-0.887,4.436-0.887,6.517,0c3.538,1.49,2.234,9.5,2.234,9.5h-47.666c0,0-17.5-7.262-17.875-9.5
				C186.682,522.269,195.619,509.379,195.619,509.379z"/>
			<path id="Path_1466" fill="#FFFFFF" d="M144.723,526.323c0,0-0.322-4.431,2.9-4.511c3.222-0.079,7.168,2.5,7.168,2.5l6.04-8.135
				l-5.638,12L144.723,526.323z"/>
			<path id="Path_1467" fill="#FFFFFF" d="M212.821,526.323c0,0,0.322-4.431-2.899-4.511c-3.222-0.079-7.168,2.5-7.168,2.5
				l-6.04-8.135l5.638,12L212.821,526.323z"/>
			<path id="Path_1486" fill="#07222F" d="M240.303,415.639c0,0-5.083,15.994-12.16,24.843
				c-7.077,8.848-14.156,15.788-19.328,28.855c-5.172,13.067-9.392,32.259-9.392,32.259l3.811,3.131c0,0,5.989-30.625,10.48-39.064
				c4.491-8.438,19.056-26.406,23.411-36.478C241.48,419.113,240.303,415.639,240.303,415.639z"/>
			<path id="Path_1487" fill="#07222F" d="M118.52,415.664c1.9,11.056,6.217,21.556,12.643,30.751
				c10.617,15.04,18.4,29.727,20.879,38.928c1.597,6.329,2.663,12.78,3.185,19.287l3.362-3.362
				c-1.42-14.206-5.187-28.078-11.148-41.051c-9.731-20.7-17.118-22.448-22.689-32.822
				C119.18,417.021,118.52,415.664,118.52,415.664z"/>
			<path id="Path_1488" fill="#D52A28" d="M207.227,512.612c2.717,3.827,6.071,7.16,9.917,9.852
				c6.282,4.35,11.114,5.638,19.571,5.718c5.241,0.038,10.48-0.246,15.687-0.85c-0.463-2.129-2.314-3.671-4.492-3.741
				c-3.866-0.241-4.306,0.865-4.306,0.865s-11.565-1.657-13.66-5.523c-2.094-3.866-2.088-10.241-8.128-11.933
				c-6.04-1.691-7.571-0.081-9.423,1.208C210.597,509.586,208.872,511.056,207.227,512.612z"/>
			<path id="Path_1489" fill="#D52A28" d="M150.915,512.584c-2.798,3.82-6.203,7.157-10.077,9.88
				c-6.282,4.349-11.114,5.638-19.571,5.718c-5.187,0.04-10.368-0.318-15.5-1.072c0.391-2.061,2.203-3.543,4.3-3.519
				c3.866-0.241,4.633,0.694,4.633,0.694s11.081-1.449,13.175-5.315c2.094-3.865,2.247-10.278,8.288-11.97
				c6.041-1.69,7.571-0.081,9.423,1.208C147.438,509.497,150.915,512.584,150.915,512.584z"/>
			<path id="Path_1484" fill="#D52A28" d="M208.571,129.948c0,0,17.942,9.2,17.482,19.322c-0.46,10.122-25.993,6.671-25.993,6.671
				L208.571,129.948"/>
			<path id="Path_1475" fill="#F3AE83" d="M205.474,149.323c0,0,4.777-5.485,9.555-2.3c4.778,3.185,0.177,15.394-3.893,16.81
				c-4.07,1.416-8.493-1.239-8.493-1.239L205.474,149.323z"/>
			<path id="Path_1476" fill="#F3AE83" d="M156.233,149.323c0,0-4.777-5.485-9.555-2.3c-4.778,3.185-0.177,15.394,3.893,16.81
				c4.07,1.416,8.493-1.239,8.493-1.239L156.233,149.323z"/>
			<path id="Path_1471" fill="#F3AE83" d="M158.05,216.437c0,0,8.459-15.191,8.459-27.631v-15.939l28.767,3.5
				c-0.143,8.225,0.64,16.44,2.333,24.491c2.721,11.662,5.768,12.591,5.768,12.591s-1.361,9.114-24.228,8.978
				C156.281,222.291,158.05,216.437,158.05,216.437z"/>
			<path id="Path_1472" fill="#F3AE83" d="M154.695,123.386c-2.535,4.543-3.621,9.752-3.11,14.928
				c1.323,13.663,3.948,33.617,8.321,40.663c7,11.274,14.773,12.44,19.438,12.44c4.665,0,15.161-1.166,21.381-12.44
				c6.22-11.274,10.107-55.591,10.107-55.591H154.695z"/>
			<path fill="#E58250" d="M166.509,172.867v15.939c0,2.705-0.401,5.54-1.026,8.32c3.928,2.713,8.688,4.865,14.022,5.016
				c5.851,0.166,11.877-3.026,17.065-6.99c-0.967-6.21-1.404-12.495-1.294-18.786L166.509,172.867z"/>
			<path id="Path_1477" fill="#FFFFFF" d="M161.033,182c0,0,5.853,11.433,17.422,10.753c11.569-0.68,15.789-4.356,17.558-6.125
				c0.911-0.867,1.732-1.825,2.45-2.858c0,0,0.136-12.658-5.581-17.014c-5.717-4.356-11.3-5.717-14.428-5.853
				c-3.128-0.136-10.889,4.22-12.386,5.853c-1.497,1.633-2.994,6.669-4.083,10.344C160.896,180.775,161.033,182,161.033,182z"/>
			<path id="Intersection_39" fill="#ECECEC" d="M161.327,182.529c6.093,0.643,15.579,1.237,23.116-0.118
				c4.705-0.848,9.266-2.36,13.546-4.492c0.302,1.937,0.461,3.894,0.475,5.854c-0.718,1.033-1.538,1.991-2.45,2.858
				c-1.771,1.769-5.99,5.444-17.56,6.125c-0.335,0.02-0.664,0.029-0.989,0.029C168.011,192.785,162.604,184.691,161.327,182.529z"/>
			<path id="Path_1480" fill="#FFFFFF" d="M191.872,167.214c0,0,10.675-16.87,13.439-19.491c1.497-1.529,3.685-2.162,5.766-1.668
				c0,0-1.859-0.524-4.909,3.336c-3.05,3.86-12.773,19.872-12.773,19.872L191.872,167.214z"/>
			<path id="Path_1481" fill="#FFFFFF" d="M169.076,167.214c0,0-10.675-16.87-13.439-19.491c-1.497-1.529-3.685-2.162-5.767-1.668
				c0,0,1.859-0.524,4.909,3.336c3.05,3.86,12.772,19.873,12.772,19.873L169.076,167.214z"/>
			<path id="Path_1482" fill="#FFFFFF" d="M196.924,178.128c2.079-1.64,3.826-3.662,5.146-5.957c1.394-2.59,2.523-5.314,3.371-8.131
				l0.728,1.031c0,0-3.288,10.389-5.862,13.058c-2.574,2.669-2.955,2.621-2.955,2.621L196.924,178.128z"/>
			<path id="Path_1483" fill="#FFFFFF" d="M163.168,178.128c-2.079-1.64-3.826-3.662-5.147-5.957
				c-1.394-2.59-2.523-5.314-3.371-8.131l-0.727,1.031c0,0,3.288,10.389,5.862,13.058c2.574,2.669,2.955,2.621,2.955,2.621
				L163.168,178.128z"/>
			<path id="Path_1485" fill="#F3AE83" d="M152.072,143.2c0,0,13.518-5.48,33.1-4.433c19.582,1.047,23.541,3.913,23.541,3.913
				l0.8-4.013c0,0-18.166-6.391-29.159-6.391c-10.993,0-28.78,5.827-28.78,5.827L152.072,143.2z"/>
			<g id="Group_366" transform="translate(-98.101 23.912)">
				<ellipse id="Ellipse_93" fill="#D52A28" cx="279.996" cy="82.588" rx="4.5" ry="2.5"/>
				<path id="Path_1473" fill="#537DBF" d="M249.563,114.419c0,0,16.4-5.177,30.443-3.821c9.281,1.024,18.438,2.965,27.336,5.794
					c0,0,4.226-19.724-1.118-25.764c-5.343-6.04-27.088-8.506-27.088-8.506c-5.799-0.032-11.546,1.1-16.9,3.328
					c-8.822,3.7-11.307,8.875-11.8,10.478C249.944,97.531,249.563,114.419,249.563,114.419z"/>
				<path id="Path_1474" fill="#F3AE83" d="M268.551,107.313c0,0,10.336-0.379,13.275,0c2.939,0.379,7.491,1.233,7.491,1.233
					s-0.095-7.586-9.672-8.913C270.068,98.306,268.551,107.313,268.551,107.313z"/>
			</g>
		</g>
		<ellipse id="Ellipse_92-2" opacity="0.4" fill="#010101" enable-background="new    " cx="637.896" cy="534" rx="109.5" ry="9"/>
		<path id="Path_1453-2" fill="#EE8771" d="M656.551,500.433l-4.87,12.747l14.035,2.578l6.732-11.6L656.551,500.433z"/>
		<path id="Path_1455-2" fill="#EE8771" d="M611.567,500.433l4.87,12.747l-14.036,2.578l-6.732-11.6L611.567,500.433z"/>
		<path id="Path_1451-2" fill="#D52A28" d="M632.396,360.2c0,0,37.634,0.817,55.634,8.181c18,7.363,47.043,23.317,40.5,48.271
			c-6.543,24.952-25.771,47.452-33.135,54.815c-7.363,7.364-16.554,24-18.006,27.626c-1.451,3.626-4.115,9.44-4.115,9.44
			s-4.356,2.663-11.376-1.452c-7.019-4.115-7.262-5.81-7.262-5.81s7.746-30.257,13.555-40.664
			c5.81-10.408,15.733-18.4,18.154-23.722c2.421-5.32,9.05-21.3,9.05-21.3s-32.287-9.2-40.759-11.861
			c-7.25-2.097-14.706-3.396-22.238-3.873c-3.9-0.241-24.962,7.021-36.581,10.166c-11.619,3.146-22.269,5.567-22.269,5.567
			s10.408,22.511,15.007,26.384c4.599,3.873,15.976,23.9,18.153,29.5c2.178,5.6,6.778,29.801,6.778,29.801s-3.39,5.082-6.778,5.809
			c-3.389,0.726-10.892,1.452-10.892,1.452s-8.473-16.7-11.861-25.9c-3.389-9.2-11.376-14.523-25.899-32.192
			c-14.524-17.671-20.091-26.385-17.187-44.538c2.905-18.154,31.951-31.957,44.3-37.522
			C597.518,362.815,632.396,360.2,632.396,360.2z"/>
		<path id="Path_1454-2" fill="#FEBE12" d="M617.499,509.379c-1.441-0.493-3.038-0.112-4.101,0.978
			c-1.676,1.862-6.146,2.234-7.448,2.234s-6.517-7.82-13.033-5.771c-6.518,2.048-7.82,8.936-7.82,8.936s-2.049,5.213-6.889,6.89
			c-2.887,1.005-5.891,1.631-8.938,1.861c-2.082-0.887-4.436-0.887-6.518,0c-3.537,1.49-2.233,9.5-2.233,9.5h47.668
			c0,0,17.5-7.262,17.875-9.5C626.438,522.269,617.499,509.379,617.499,509.379z"/>
		<path id="Path_1464-2" fill="#112836" d="M578.434,371.507c0,0,48.053-4.722,56.37-3.13c8.317,1.592,56.268,1.77,56.268,1.77
			l-39.812-12.918h-42.464L578.434,371.507z"/>
		<path id="Path_1456-2" fill="#FEBE12" d="M637.835,212.719c0,0,37.082-1.5,47.547,4.188c10.467,5.687,24.521,47.846,27.213,68.18
			c2.69,20.334-12.56,26.315-18.84,24.521c-4.681-1.521-9.19-3.526-13.457-5.981c0,0,4.485,36.482,7.178,43.36
			c2.691,6.878,3.887,23.025,3.887,23.025s-45.752-6.578-56.518-6.878c-10.767-0.299-56.22,8.373-56.22,8.373
			s8.672-29.006,9.868-36.183c0.563-3.38,7.412-32.152,2.63-37.681c-4.942-5.719-11.958,9.662-18.168,7.132
			c-6.21-2.53-21.162-20.474-27.601-32.2c-6.438-11.727,21.91-22.173,31.479-38.919C586.403,216.91,637.835,212.719,637.835,212.719
			z"/>
		<path id="Path_1465-2" fill="#A21E21" d="M573.618,415.639l57.737-15.871c0,0,25.763,4.6,34.733,7.131
			c8.972,2.53,29.213,8.74,29.213,8.74s-8.74-10.581-20.012-14.031c-11.271-3.451-26.683-12.651-45.085-11.961
			c-18.401,0.689-23.923,9.66-34.5,14.031C585.128,408.049,573.618,415.639,573.618,415.639z"/>
		<path id="Path_1452-2" fill="#FEBE12" d="M650.618,509.379c1.441-0.493,3.038-0.112,4.101,0.978
			c1.676,1.862,6.146,2.234,7.448,2.234c1.303,0,6.517-7.82,13.033-5.771c6.518,2.048,7.82,8.936,7.82,8.936s2.049,5.213,6.889,6.89
			c2.887,1.005,5.891,1.631,8.938,1.861c2.082-0.887,4.435-0.887,6.518,0c3.537,1.49,2.233,9.5,2.233,9.5h-47.666
			c0,0-17.5-7.262-17.875-9.5C641.682,522.269,650.618,509.379,650.618,509.379z"/>
		<path id="Path_1468-2" fill="none" stroke="#112836" d="M636.396,365.753l-2.2,15.601l-4.815,2.826"/>
		<path id="Path_1486-2" fill="#A21E21" d="M695.303,415.639c0,0-5.083,15.994-12.16,24.843
			c-7.077,8.848-14.156,15.788-19.328,28.855c-5.172,13.067-9.392,32.259-9.392,32.259l3.811,3.131c0,0,5.989-30.625,10.48-39.064
			c4.49-8.438,19.056-26.406,23.41-36.478C696.479,419.113,695.303,415.639,695.303,415.639z"/>
		<path id="Path_1487-2" fill="#A21E21" d="M573.519,415.664c1.899,11.056,6.217,21.556,12.644,30.751
			c10.616,15.04,18.399,29.727,20.879,38.928c1.597,6.329,2.662,12.78,3.185,19.287l3.362-3.362
			c-1.42-14.206-5.188-28.078-11.147-41.051c-9.731-20.7-17.118-22.448-22.69-32.822
			C574.18,417.021,573.519,415.664,573.519,415.664z"/>
		<path id="Path_1488-2" fill="#D52A28" d="M662.227,512.612c2.717,3.827,6.071,7.16,9.917,9.852
			c6.282,4.35,11.114,5.638,19.571,5.718c5.241,0.038,10.481-0.246,15.687-0.85c-0.463-2.129-2.313-3.671-4.491-3.741
			c-3.866-0.241-4.307,0.865-4.307,0.865s-11.565-1.657-13.66-5.523c-2.094-3.866-2.088-10.241-8.127-11.933
			c-6.041-1.691-7.571-0.081-9.424,1.208C665.597,509.586,663.872,511.056,662.227,512.612z"/>
		<path id="Path_1489-2" fill="#D52A28" d="M605.915,512.584c-2.799,3.82-6.203,7.157-10.077,9.88
			c-6.282,4.349-11.114,5.638-19.571,5.718c-5.187,0.04-10.368-0.318-15.5-1.072c0.391-2.061,2.203-3.543,4.3-3.519
			c3.866-0.241,4.634,0.694,4.634,0.694s11.08-1.449,13.175-5.315c2.094-3.865,2.247-10.278,8.288-11.97
			c6.041-1.69,7.57-0.081,9.423,1.208C602.438,509.497,605.915,512.584,605.915,512.584z"/>
		<path id="Path_1471-2" fill="#F3AE83" d="M613.05,216.437c0,0,8.459-15.191,8.459-27.631v-15.939l28.767,3.5
			c-0.143,8.225,0.64,16.44,2.333,24.491c2.721,11.662,5.768,12.591,5.768,12.591s-1.361,9.114-24.228,8.978
			C611.28,222.291,613.05,216.437,613.05,216.437z"/>
		<path id="Intersection_39-2" fill="#ECECEC" d="M616.327,182.529c6.094,0.643,15.579,1.237,23.116-0.118
			c4.705-0.848,9.267-2.36,13.546-4.492c0.302,1.937,0.461,3.894,0.475,5.854c-0.717,1.033-1.538,1.991-2.449,2.858
			c-1.771,1.769-5.99,5.444-17.56,6.125c-0.335,0.02-0.664,0.029-0.989,0.029C623.011,192.785,617.604,184.691,616.327,182.529z"/>
		<path id="Subtraction_22" fill="#F3AE83" d="M463.23,358.6c-1.922-0.017-3.83-0.317-5.664-0.892c-1.851-0.6-2.971-1.361-3.076-2.1
			c0.027-0.625,0.302-1.214,0.763-1.637c2.084-2.208,4.945-3.519,7.978-3.654c0.556,0,1.282,0.026,2.124,0.058h0.009
			c1.2,0.045,2.685,0.1,4.301,0.1c1.914,0.011,3.828-0.085,5.733-0.288v3.789h-0.112C474.94,354.166,466.833,358.6,463.23,358.6z"/>
		<path fill="#E58250" d="M651.373,193.805c-0.825-5.771-1.199-11.601-1.098-17.437l-28.767-3.5v15.939
			c0,1.707-0.164,3.467-0.439,5.232c4.266,3.823,9.47,6.819,15.325,6.819C642.208,200.857,647.268,197.765,651.373,193.805z"/>
		<path id="Path_1496" fill="#F3AE83" d="M488.341,374.772c0,0-3.018,6.109-4.676,8.07c-1.659,1.961-18.855,6.637-20.59,5.43
			c-1.734-1.206-3.922-6.712-3.771-8.221c0.151-1.509,2.489-4.978,2.489-4.978L488.341,374.772z"/>
		<path id="Path_1497" fill="#F3AE83" d="M682.023,298.958c0,0-0.513-4.995,9.986-9.105c10.498-4.11,17.148,4.102,17.148,4.102
			L713.016,386c-2.188,1.044-4.66,1.334-7.03,0.825c-3.738-0.91-9.424-5.955-9.424-5.955s-5.293-24.988-9.922-44.31
			C683.793,324.222,682.246,311.619,682.023,298.958z"/>
		<path id="Path_1498" fill="#F3AE83" d="M700.54,376.645c0,0-3.147,0.663-4.308,2.983c-1.16,2.32-0.828,8.782,0.663,13.09
			c1.491,4.309,1.491,10.273,2.485,12.261c0.994,1.988,4.805,2.485,5.8,1.491c0.995-0.994-1.385-6.534-1.5-7.694
			c-0.071-0.691,0.028-1.389,0.29-2.031c0,0,6.206,1.619,10.284,4.55c4.078,2.931,5.736,11.344,7.393,12.618
			c1.657,1.274,10.324-0.255,10.579-6.883c0.255-6.628,0-4.206,0-4.206s1.4-1.343,0-4.049c-1.399-2.706-8.412-13.54-13-15.325
			c-4.588-1.785-6.118-3.95-6.373-3.823c-0.255,0.127-3.059-2.167-3.059-2.167L700.54,376.645z"/>
		<path id="Path_1499" fill="#F99E23" d="M562.747,296.4c0,0,9.813,8.795,11.6,8.795c1.786,0,6.118-4.971,11.089-8.03
			c4.972-3.059,7.559,0.446,7.725,6.743c0.166,6.297-7.725,48.372-7.725,48.372s10.949-25.987,14.029-50.349
			c1.851-15.985,2.319-32.1,1.399-48.165c0,0-15.399,30.523-22.399,35.843C573.771,292.97,568.411,295.286,562.747,296.4z"/>
		<path id="Path_1500" fill="#F99E23" d="M676.472,251.523c0,0,2.24,16.242,5.881,21.842c3.641,5.6,11.551,4.194,16.688,6.017
			c5.136,1.823,10.77,5.965,11.433,8.285c0.663,2.32-0.663,8.948-0.663,8.948s-3.977-9.115-14.414-8.115
			c-5.99,0.446-11.291,4.043-13.918,9.445v5.956c0,0-1.657-1.988-2.32-2.154c-0.663-0.166-3.049-20.546-2.684-34.3
			C676.839,253.692,676.472,251.523,676.472,251.523z"/>
		<circle id="Ellipse_94" fill="#FFFFFF" cx="612.396" cy="522" r="5"/>
		<circle id="Ellipse_95" fill="#FFFFFF" cx="655.396" cy="522" r="5"/>
		<path id="Path_1475-2" fill="#F3AE83" d="M660.474,149.323c0,0,4.777-5.485,9.555-2.3c4.777,3.185,0.177,15.394-3.893,16.81
			c-4.07,1.416-8.493-1.239-8.493-1.239L660.474,149.323z"/>
		<path id="Path_1476-2" fill="#F3AE83" d="M611.233,149.323c0,0-4.777-5.485-9.555-2.3c-4.778,3.185-0.178,15.394,3.893,16.81
			c4.07,1.416,8.493-1.239,8.493-1.239L611.233,149.323z"/>
		<path id="Path_1472-2" fill="#F3AE83" d="M609.695,123.386c-2.535,4.543-3.621,9.752-3.11,14.928
			c1.323,13.663,3.948,33.617,8.321,40.663c7,11.274,14.773,12.44,19.438,12.44c4.665,0,15.161-1.166,21.381-12.44
			c6.22-11.274,10.106-55.591,10.106-55.591s-2.963-7.216-17-7.216C634.794,116.17,609.695,123.386,609.695,123.386z"/>
		<path id="Path_1477-2" fill="#FFFFFF" d="M616.033,182c0,0,5.853,11.433,17.423,10.753c11.568-0.68,15.789-4.356,17.558-6.125
			c0.911-0.867,1.732-1.825,2.45-2.858c0,0,0.136-12.658-5.581-17.014c-5.718-4.356-11.3-5.717-14.429-5.853
			c-3.127-0.136-10.889,4.22-12.386,5.853c-1.497,1.633-2.993,6.669-4.083,10.344C615.896,180.775,616.033,182,616.033,182z"/>
		<path id="Path_1482-2" fill="#FFFFFF" d="M651.924,178.128c2.079-1.64,3.825-3.662,5.147-5.957
			c1.394-2.59,2.522-5.314,3.371-8.131l0.727,1.031c0,0-3.288,10.389-5.862,13.058c-2.574,2.669-2.955,2.621-2.955,2.621
			L651.924,178.128z"/>
		<path id="Path_1483-2" fill="#FFFFFF" d="M618.169,178.128c-2.079-1.64-3.826-3.662-5.147-5.957
			c-1.394-2.59-2.523-5.314-3.371-8.131l-0.728,1.031c0,0,3.289,10.389,5.862,13.058c2.574,2.669,2.955,2.621,2.955,2.621
			L618.169,178.128z"/>
		<path id="Path_1501" fill="#11151C" d="M609.624,159.982c0,0,2.024-21.106,13.28-23.673c11.257-2.567,16.393-6.715,16.393-6.715
			l-2.173,6.715c0,0,6.912-4.147,9.084-8.69c1.435-3.278,2.432-6.731,2.963-10.27c0,0,3.356,6.912,2.567,10.27
			c-0.659,2.5-1.519,4.944-2.567,7.307c0,0,3.159,1.383,4.739-1.185c0.962-1.58,1.63-3.319,1.976-5.135
			c0,0,3.753,13.43,3.949,18.367c0.197,4.937,0.724,15.434,0.724,15.434s8.757-25.112,5.991-38.739
			c-2.765-13.627-14.022-13.825-14.022-13.825s2.566-2.962-0.79-6.715c-3.357-3.753-5.53-3.95-5.53-3.95
			c1.224,1.122,2.229,2.461,2.962,3.95c0.79,1.975-1.382,4.345-1.382,4.345s-10.846-9.282-29.411,0
			c-18.564,9.282-12.446,33.241-11.657,36.994C607.511,148.22,609.624,159.982,609.624,159.982z"/>
		<path id="Path_1480-2" fill="#FFFFFF" d="M646.872,167.214c0,0,10.675-16.87,13.438-19.491c1.497-1.529,3.685-2.162,5.767-1.668
			c0,0-1.859-0.524-4.909,3.336c-3.05,3.86-12.772,19.872-12.772,19.872L646.872,167.214z"/>
		<path id="Path_1481-2" fill="#FFFFFF" d="M624.076,167.214c0,0-10.675-16.87-13.438-19.491c-1.497-1.529-3.685-2.162-5.767-1.668
			c0,0,1.859-0.524,4.909,3.336c3.05,3.86,12.771,19.873,12.771,19.873L624.076,167.214z"/>
	</g>
	<g>
		<g enable-background="new    ">
			<path fill="#4C4C4C" d="M383.397,192.135v-16.885c-3.142,2.412-5.257,3.618-6.346,3.618c-0.52,0-0.98-0.207-1.382-0.621
				c-0.402-0.415-0.603-0.894-0.603-1.438c0-0.631,0.198-1.095,0.594-1.392c0.396-0.297,1.095-0.68,2.097-1.15
				c1.497-0.705,2.693-1.447,3.59-2.227c0.896-0.779,1.691-1.651,2.384-2.616c0.692-0.965,1.144-1.559,1.354-1.781
				c0.21-0.223,0.606-0.334,1.188-0.334c0.655,0,1.181,0.254,1.577,0.761c0.396,0.508,0.594,1.206,0.594,2.097v21.245
				c0,2.486-0.848,3.729-2.542,3.729c-0.755,0-1.361-0.254-1.818-0.761C383.625,193.874,383.397,193.126,383.397,192.135z"/>
			<path fill="#4C4C4C" d="M414.717,185.215v6.735c0,1.064-0.241,1.862-0.724,2.394s-1.12,0.798-1.911,0.798
				c-0.768,0-1.389-0.267-1.865-0.798s-0.714-1.329-0.714-2.394v-8.071c0-1.273-0.044-2.264-0.13-2.969
				c-0.087-0.705-0.322-1.283-0.705-1.734c-0.384-0.452-0.99-0.678-1.818-0.678c-1.658,0-2.75,0.569-3.275,1.707
				c-0.525,1.139-0.788,2.771-0.788,4.898v6.847c0,1.052-0.238,1.847-0.714,2.384c-0.477,0.539-1.104,0.808-1.884,0.808
				c-0.767,0-1.395-0.269-1.883-0.808c-0.489-0.537-0.733-1.332-0.733-2.384v-14.491c0-0.952,0.219-1.676,0.659-2.171
				c0.439-0.494,1.017-0.742,1.735-0.742c0.692,0,1.271,0.231,1.735,0.696c0.463,0.463,0.695,1.104,0.695,1.92v0.482
				c0.878-1.051,1.818-1.824,2.82-2.319c1.002-0.494,2.115-0.742,3.34-0.742c1.273,0,2.369,0.254,3.284,0.761
				c0.915,0.508,1.67,1.274,2.264,2.301c0.854-1.039,1.769-1.809,2.746-2.311c0.978-0.5,2.06-0.751,3.247-0.751
				c1.385,0,2.579,0.272,3.581,0.816c1.002,0.545,1.75,1.324,2.245,2.338c0.433,0.916,0.649,2.356,0.649,4.323v9.89
				c0,1.064-0.241,1.862-0.724,2.394s-1.119,0.798-1.911,0.798c-0.767,0-1.396-0.269-1.884-0.808
				c-0.488-0.537-0.732-1.332-0.732-2.384v-8.517c0-1.088-0.047-1.96-0.139-2.616c-0.094-0.655-0.344-1.206-0.752-1.651
				s-1.027-0.668-1.855-0.668c-0.668,0-1.303,0.198-1.902,0.594c-0.6,0.396-1.066,0.928-1.4,1.596
				C414.903,181.541,414.717,183.051,414.717,185.215z"/>
		</g>
		<polygon fill="#D52A28" points="478.599,257.771 513.348,224.806 475.2,198.078 476.094,213.77 325.353,212.684 326.439,193.623 
			288.291,220.351 323.04,253.316 324.359,230.151 477.28,234.606 		"/>
	</g>
	<g>
		<g id="Group_143" transform="translate(-396 -248)">
			<path id="Path_67" fill="#00A896" d="M843.211,348.697c-0.329-0.989-0.828-1.968-1.602-2.513
				c-0.773-0.545-1.86-0.511-2.369,0.295c-0.395,0.625-0.355,1.547-0.075,2.303c0.049,0.127,0.108,0.25,0.177,0.368
				c0.315,0.56,0.116,1.269-0.444,1.583c-0.128,0.072-0.269,0.119-0.414,0.138c-1.588,0.243-3.213,0.001-4.662-0.693
				c-0.264-0.891-0.592-1.762-0.983-2.606c0.405-0.938,1.085-1.732,1.95-2.275c0.347-0.229,0.814-0.133,1.043,0.214
				c0.045,0.069,0.079,0.145,0.1,0.224c0.017,0.062,0.036,0.123,0.056,0.183c0.114,0.438,0.365,0.829,0.716,1.114
				c0.456,0.283,1.055,0.143,1.338-0.313c0.027-0.044,0.051-0.089,0.07-0.137c0.205-0.589,0.204-1.23-0.002-1.819
				c-0.259-0.945-0.705-1.828-1.312-2.596c-0.372-0.532-0.899-0.936-1.51-1.158c-0.544-0.194-1.143,0.089-1.337,0.634
				c-0.007,0.02-0.014,0.04-0.02,0.06c-0.061,0.51,0.107,1.022,0.458,1.397c0.057,0.066,0.119,0.127,0.186,0.183
				c0.311,0.267,0.347,0.735,0.08,1.046c-0.061,0.071-0.136,0.13-0.219,0.174c-0.907,0.497-1.944,0.706-2.973,0.6
				c-0.681-1.035-1.461-2.003-2.328-2.888c0.128-1.347,0.634-2.631,1.462-3.702c0.347-0.468,1.007-0.566,1.475-0.219
				c0.093,0.069,0.174,0.153,0.24,0.249c0.052,0.073,0.105,0.144,0.161,0.213c0.36,0.522,0.878,0.916,1.477,1.124
				c0.737,0.154,1.459-0.318,1.613-1.054c0.015-0.07,0.024-0.142,0.027-0.214c0.069-0.8-0.355-1.655-0.875-2.395
				c-0.794-1.12-1.806-2.069-2.974-2.79c-0.794-0.489-1.7-0.872-2.544-0.802c-0.843,0.07-1.568,0.719-1.454,1.565
				c0.164,0.702,0.631,1.295,1.274,1.621c0.107,0.059,0.218,0.11,0.333,0.151c0.538,0.203,0.809,0.803,0.607,1.341
				c-0.046,0.123-0.116,0.236-0.204,0.334c-0.923,1.046-2.131,1.802-3.475,2.175c-0.99-0.679-2.042-1.263-3.142-1.745
				c-0.241-0.825-0.229-1.704,0.036-2.523c0.1-0.338,0.456-0.53,0.794-0.43c0.067,0.02,0.131,0.051,0.188,0.092
				c0.045,0.031,0.09,0.06,0.136,0.088c0.313,0.223,0.689,0.339,1.073,0.333c0.451-0.065,0.763-0.483,0.699-0.933
				c-0.006-0.043-0.016-0.085-0.029-0.127c-0.188-0.495-0.538-0.911-0.993-1.181c-0.684-0.473-1.456-0.803-2.27-0.971
				c-0.532-0.143-1.095-0.118-1.613,0.071c-0.459,0.17-0.694,0.68-0.525,1.139c0.007,0.018,0.014,0.035,0.021,0.052
				c0.239,0.365,0.627,0.606,1.06,0.659c0.073,0.011,0.147,0.017,0.221,0.017c0.348,0.004,0.627,0.289,0.623,0.637
				c-0.001,0.079-0.017,0.158-0.047,0.232c-0.321,0.825-0.888,1.532-1.624,2.025c-1.163-0.344-2.355-0.576-3.562-0.693
				c-0.767-1.113-1.203-2.422-1.258-3.773c-0.035-0.582,0.408-1.081,0.99-1.116c0.116-0.007,0.232,0.005,0.343,0.036
				c0.087,0.023,0.174,0.043,0.26,0.06c0.612,0.169,1.261,0.137,1.854-0.089c0.663-0.355,0.913-1.18,0.558-1.843
				c-0.034-0.064-0.073-0.124-0.117-0.182c-0.461-0.657-1.335-1.041-2.209-1.272c-1.328-0.347-2.713-0.424-4.072-0.225
				c-0.922,0.136-1.863,0.425-2.463,1.021c-0.601,0.596-0.739,1.56-0.107,2.133c0.577,0.432,1.316,0.587,2.018,0.423
				c0.12-0.023,0.238-0.056,0.352-0.099c0.543-0.19,1.136,0.096,1.326,0.639c0.043,0.124,0.063,0.254,0.058,0.385
				c-0.035,1.395-0.474,2.751-1.265,3.901c-1.384,0.134-2.749,0.42-4.071,0.851c-0.226-0.306-0.415-0.636-0.564-0.985
				c-0.141-0.323,0.008-0.699,0.331-0.84c0.065-0.028,0.133-0.045,0.203-0.051c0.054-0.005,0.106-0.011,0.161-0.02
				c0.383-0.031,0.746-0.183,1.037-0.435c0.304-0.34,0.275-0.861-0.065-1.165c-0.032-0.029-0.067-0.056-0.104-0.079
				c-0.462-0.258-0.998-0.352-1.52-0.266c-0.828,0.077-1.631,0.321-2.363,0.715c-0.5,0.232-0.915,0.614-1.19,1.091
				c-0.243,0.425-0.095,0.967,0.33,1.209c0.017,0.009,0.033,0.018,0.05,0.027c0.418,0.126,0.87,0.061,1.235-0.177
				c0.064-0.038,0.124-0.081,0.18-0.129c0.269-0.221,0.666-0.181,0.886,0.088c0.051,0.062,0.089,0.132,0.113,0.208
				c0.123,0.385,0.197,0.785,0.222,1.188c-1.504,0.591-2.927,1.37-4.236,2.319c-0.959-0.311-1.821-0.865-2.5-1.61
				c-0.32-0.338-0.306-0.872,0.032-1.193c0.068-0.064,0.145-0.116,0.23-0.155c0.065-0.031,0.128-0.063,0.19-0.097
				c0.461-0.211,0.844-0.564,1.091-1.008c0.224-0.559-0.048-1.193-0.607-1.417c-0.053-0.021-0.108-0.038-0.164-0.051
				c-0.621-0.165-1.353,0.049-2.008,0.356c-0.993,0.47-1.881,1.136-2.611,1.956c-0.517,0.514-0.862,1.176-0.987,1.894
				c-0.109,0.639,0.321,1.245,0.96,1.353c0.023,0.004,0.047,0.007,0.07,0.01c0.576-0.032,1.108-0.317,1.454-0.778
				c0.062-0.076,0.117-0.157,0.165-0.242c0.234-0.395,0.744-0.526,1.14-0.292c0.091,0.054,0.17,0.124,0.235,0.208
				c0.649,0.817,1.068,1.793,1.213,2.827c-1.078,1.045-2.031,2.212-2.837,3.478c-0.512-0.095-1.009-0.263-1.474-0.498
				c-0.362-0.181-0.508-0.621-0.327-0.983c0.036-0.072,0.084-0.137,0.141-0.194c0.044-0.044,0.086-0.09,0.126-0.136
				c0.314-0.309,0.521-0.711,0.59-1.146c0.016-0.522-0.393-0.959-0.915-0.975c-0.05-0.001-0.099,0.001-0.148,0.007
				c-0.596,0.114-1.136,0.426-1.532,0.887c-0.67,0.678-1.197,1.484-1.549,2.371c-0.268,0.572-0.352,1.214-0.242,1.836
				c0.101,0.553,0.631,0.92,1.185,0.819c0.02-0.004,0.041-0.008,0.061-0.013c0.46-0.197,0.81-0.587,0.955-1.066
				c0.028-0.08,0.049-0.162,0.063-0.246c0.074-0.392,0.452-0.65,0.844-0.576c0.089,0.017,0.175,0.05,0.252,0.099
				c0.463,0.293,0.879,0.652,1.236,1.067c-0.657,1.23-1.177,2.529-1.551,3.873c-1.229,0.562-2.593,0.765-3.933,0.584
				c-0.579-0.067-0.994-0.59-0.927-1.168c0.013-0.115,0.046-0.227,0.095-0.332c0.038-0.081,0.071-0.164,0.104-0.246
				c0.272-0.573,0.354-1.218,0.234-1.842c-0.235-0.715-1.004-1.104-1.719-0.869c-0.068,0.022-0.135,0.05-0.198,0.083
				c-0.728,0.34-1.257,1.135-1.637,1.955c-0.573,1.248-0.889,2.599-0.929,3.972c-0.026,0.933,0.095,1.908,0.578,2.603
				c0.483,0.695,1.407,0.999,2.082,0.477c0.526-0.494,0.807-1.195,0.767-1.915c-0.002-0.122-0.013-0.244-0.035-0.364
				c-0.094-0.567,0.29-1.102,0.857-1.196c0.13-0.021,0.263-0.018,0.391,0.01c1.37,0.277,2.63,0.946,3.626,1.927
				c-0.036,0.485-0.062,0.973-0.062,1.467c0.001,1.044,0.087,2.086,0.257,3.116c-0.496,0.271-1.026,0.474-1.576,0.603
				c-0.448,0.107-0.898-0.17-1.005-0.618c-0.021-0.089-0.028-0.181-0.019-0.272c0.006-0.071,0.009-0.142,0.011-0.213
				c0.048-0.5-0.066-1.002-0.324-1.432c-0.368-0.468-1.045-0.549-1.513-0.181c-0.045,0.035-0.086,0.074-0.125,0.115
				c-0.449,0.451-0.628,1.183-0.688,1.896c-0.088,1.083,0.042,2.172,0.384,3.203c0.186,0.696,0.582,1.317,1.135,1.779
				c0.493,0.409,1.225,0.34,1.633-0.153c0.015-0.018,0.029-0.037,0.044-0.056c0.258-0.509,0.277-1.107,0.052-1.631
				c-0.034-0.09-0.076-0.177-0.125-0.261c-0.223-0.396-0.082-0.898,0.314-1.121c0.091-0.051,0.19-0.084,0.293-0.098
				c0.61-0.082,1.229-0.075,1.837,0.022c0.314,1.247,0.753,2.459,1.312,3.617c-0.894,1.463-2.97,3.127-4.149,3.903
				c-0.486,0.321-1.14,0.187-1.461-0.299c-0.064-0.097-0.111-0.203-0.141-0.315c-0.023-0.087-0.05-0.172-0.079-0.256
				c-0.16-0.614-0.512-1.16-1.004-1.56c-0.639-0.397-1.479-0.199-1.876,0.44c-0.038,0.061-0.07,0.124-0.098,0.19
				c-0.338,0.729-0.234,1.677,0.003,2.549c0.363,1.324,0.989,2.562,1.841,3.639c0.58,0.732,1.299,1.401,2.116,1.623
				c0.817,0.222,1.72-0.14,1.902-0.974c0.085-0.716-0.15-1.432-0.643-1.959c-0.08-0.092-0.167-0.178-0.261-0.256
				c-0.436-0.374-0.486-1.031-0.112-1.467c0.086-0.1,0.19-0.182,0.306-0.243c1.324-0.689,3.965-1.695,5.721-1.674
				c0.666,0.868,1.405,1.677,2.209,2.419c-0.197,0.558-0.478,1.083-0.835,1.556c-0.257,0.346-0.746,0.417-1.092,0.16
				c-0.068-0.051-0.128-0.112-0.176-0.182c-0.038-0.054-0.078-0.106-0.12-0.157c-0.266-0.386-0.648-0.677-1.092-0.831
				c-0.544-0.114-1.078,0.235-1.192,0.779c-0.011,0.052-0.017,0.105-0.02,0.158c0.009,0.646,0.237,1.27,0.646,1.77
				c0.587,0.828,1.335,1.529,2.199,2.062c0.55,0.386,1.207,0.593,1.879,0.593c0.599-0.004,1.081-0.492,1.077-1.091
				c0-0.022-0.001-0.044-0.003-0.066c-0.122-0.519-0.466-0.957-0.941-1.198c-0.079-0.044-0.161-0.081-0.246-0.111
				c-0.397-0.149-0.598-0.593-0.449-0.99c0.034-0.091,0.086-0.175,0.151-0.247c0.417-0.461,0.905-0.853,1.446-1.16
				c1.212,0.944,2.534,1.738,3.936,2.366c0.208,0.98,0.158,1.998-0.145,2.953c-0.133,0.445-0.601,0.698-1.046,0.566
				c-0.088-0.026-0.172-0.067-0.247-0.121c-0.059-0.04-0.118-0.079-0.179-0.116c-0.412-0.293-0.907-0.447-1.413-0.439
				c-0.594,0.085-1.006,0.636-0.921,1.23c0.008,0.057,0.021,0.113,0.038,0.167c0.167,0.618,0.717,1.144,1.308,1.555
				c0.9,0.622,1.916,1.057,2.988,1.278c0.701,0.188,1.442,0.156,2.124-0.093c0.606-0.226,0.914-0.899,0.688-1.505
				c-0.008-0.022-0.017-0.043-0.026-0.064c-0.315-0.481-0.826-0.798-1.396-0.867c-0.096-0.016-0.193-0.023-0.29-0.022
				c-0.458-0.005-0.826-0.38-0.821-0.838c0.001-0.105,0.022-0.21,0.062-0.307c0.381-0.964,1.012-1.81,1.829-2.45
				c1.5,0.427,3.046,0.668,4.604,0.72c0.109,0.366,0.174,0.743,0.195,1.125c0.021,0.352-0.247,0.654-0.599,0.675
				c-0.07,0.004-0.14-0.003-0.208-0.022c-0.052-0.013-0.106-0.026-0.158-0.035c-0.37-0.102-0.764-0.083-1.122,0.053
				c-0.402,0.215-0.553,0.715-0.338,1.117c0.021,0.038,0.044,0.075,0.07,0.109c0.346,0.4,0.818,0.672,1.338,0.77
				c0.804,0.211,1.642,0.257,2.465,0.137c0.549-0.048,1.07-0.263,1.492-0.618c0.373-0.316,0.42-0.876,0.103-1.249
				c-0.012-0.014-0.025-0.028-0.038-0.042c-0.349-0.262-0.796-0.356-1.221-0.257c-0.073,0.014-0.144,0.034-0.213,0.06
				c-0.328,0.115-0.688-0.057-0.803-0.385c-0.026-0.075-0.038-0.154-0.035-0.234c0.017-0.406,0.084-0.809,0.2-1.199
				c1.287-0.031,2.568-0.191,3.823-0.479c1.397,0.934,2.482,2.265,3.116,3.822c0.274,0.634-0.017,1.371-0.652,1.646
				c-0.126,0.054-0.26,0.088-0.396,0.099c-0.106,0.01-0.213,0.023-0.315,0.039c-0.738,0.118-1.535,0.328-2.031,0.851
				c-0.595,0.665-0.539,1.686,0.126,2.281c0.064,0.057,0.132,0.109,0.204,0.155c0.78,0.545,1.911,0.618,2.979,0.522
				c1.622-0.151,3.197-0.628,4.631-1.401c0.974-0.526,1.904-1.229,2.332-2.137c0.428-0.909,0.191-2.038-0.745-2.422
				c-0.727-0.298-1.682-0.086-2.421,0.347c-0.124,0.074-0.242,0.159-0.352,0.253c-0.527,0.432-1.305,0.355-1.737-0.172
				c-0.099-0.121-0.174-0.259-0.221-0.407c-0.557-1.64-0.598-3.411-0.118-5.075c0.987-0.503,1.929-1.091,2.815-1.756
				c0.608,0.323,1.159,0.746,1.629,1.25c0.32,0.338,0.306,0.872-0.032,1.192c-0.068,0.064-0.145,0.117-0.23,0.155
				c-0.065,0.031-0.128,0.063-0.19,0.097c-0.462,0.211-0.844,0.564-1.091,1.008c-0.224,0.559,0.048,1.193,0.607,1.417
				c0.053,0.021,0.108,0.038,0.164,0.051c0.621,0.165,1.353-0.048,2.008-0.356c0.993-0.47,1.881-1.136,2.611-1.956
				c0.515-0.514,0.859-1.175,0.984-1.892c0.108-0.639-0.321-1.245-0.96-1.353c-0.023-0.004-0.047-0.007-0.071-0.01
				c-0.576,0.032-1.108,0.317-1.454,0.778c-0.062,0.076-0.117,0.156-0.165,0.241c-0.234,0.395-0.745,0.526-1.141,0.291
				c-0.09-0.053-0.17-0.124-0.234-0.207c-0.442-0.57-0.783-1.211-1.006-1.897c0.975-0.896,1.856-1.891,2.627-2.968
				c1.35-0.109,2.702,0.167,3.901,0.796c0.521,0.261,0.732,0.895,0.471,1.415c-0.052,0.103-0.12,0.198-0.203,0.279
				c-0.063,0.064-0.124,0.129-0.182,0.196c-0.453,0.445-0.751,1.023-0.851,1.65c-0.024,0.752,0.566,1.381,1.318,1.405
				c0.071,0.002,0.142-0.001,0.213-0.01c0.8-0.071,1.569-0.636,2.207-1.277c0.965-0.977,1.724-2.138,2.231-3.414
				c0.344-0.867,0.564-1.825,0.348-2.644c-0.216-0.819-0.981-1.42-1.794-1.16c-0.663,0.284-1.167,0.846-1.376,1.536
				c-0.04,0.116-0.07,0.234-0.091,0.355c-0.106,0.565-0.65,0.937-1.215,0.83c-0.129-0.024-0.253-0.073-0.364-0.143
				c-1.191-0.728-2.145-1.786-2.746-3.046c0.541-1.19,0.958-2.433,1.244-3.708c0.581-0.108,1.176-0.127,1.762-0.055
				c0.428,0.05,0.734,0.438,0.684,0.866c-0.01,0.084-0.033,0.166-0.069,0.242c-0.028,0.06-0.053,0.121-0.077,0.182
				c-0.201,0.424-0.262,0.901-0.173,1.361c0.174,0.528,0.742,0.816,1.27,0.642c0.05-0.017,0.099-0.037,0.146-0.061
				c0.555-0.331,0.981-0.84,1.209-1.444c0.423-0.922,0.657-1.919,0.686-2.934c0.06-0.67-0.089-1.341-0.426-1.923
				c-0.302-0.516-0.966-0.69-1.483-0.387c-0.019,0.011-0.037,0.023-0.055,0.035c-0.389,0.364-0.596,0.882-0.567,1.413
				c0.002,0.09,0.01,0.18,0.027,0.269c0.069,0.419-0.214,0.814-0.633,0.883c-0.096,0.016-0.194,0.014-0.289-0.007
				c-0.607-0.13-1.189-0.357-1.725-0.671c0.12-0.867,0.181-1.74,0.182-2.615c0-0.393-0.016-0.782-0.039-1.17
				c1.089-1.116,2.483-1.887,4.007-2.217c0.633-0.151,1.269,0.239,1.42,0.872c0.03,0.126,0.039,0.256,0.027,0.385
				c-0.008,0.1-0.013,0.2-0.015,0.299c-0.012,0.704,0.052,1.478,0.458,2.024c0.519,0.661,1.476,0.776,2.137,0.256
				c0.063-0.05,0.122-0.104,0.177-0.163c0.634-0.636,0.887-1.671,0.972-2.679C843.879,351.693,843.694,350.154,843.211,348.697z"/>
		</g>
		<g id="Group_143_1_" transform="translate(-396 -248)">
			<path id="Path_67_1_" fill="#00A896" d="M788.103,297.439c-0.164-0.495-0.414-0.984-0.801-1.256
				c-0.386-0.273-0.93-0.256-1.185,0.148c-0.198,0.313-0.177,0.773-0.037,1.151c0.025,0.064,0.054,0.125,0.089,0.184
				c0.157,0.28,0.058,0.634-0.222,0.792c-0.064,0.036-0.134,0.059-0.207,0.069c-0.794,0.121-1.606,0.001-2.331-0.346
				c-0.132-0.446-0.296-0.881-0.491-1.303c0.202-0.469,0.542-0.866,0.975-1.138c0.174-0.114,0.407-0.067,0.522,0.107
				c0.023,0.034,0.04,0.072,0.05,0.112c0.008,0.031,0.018,0.062,0.028,0.091c0.057,0.219,0.182,0.414,0.358,0.557
				c0.228,0.142,0.528,0.071,0.669-0.157c0.014-0.022,0.025-0.045,0.035-0.068c0.103-0.295,0.102-0.615-0.001-0.909
				c-0.129-0.472-0.353-0.914-0.656-1.298c-0.186-0.266-0.45-0.468-0.755-0.579c-0.272-0.097-0.571,0.045-0.669,0.317
				c-0.004,0.01-0.007,0.02-0.01,0.03c-0.031,0.255,0.053,0.511,0.229,0.699c0.028,0.033,0.059,0.064,0.093,0.091
				c0.155,0.133,0.173,0.368,0.04,0.523c-0.031,0.036-0.068,0.065-0.109,0.087c-0.454,0.249-0.972,0.353-1.487,0.3
				c-0.341-0.518-0.73-1.001-1.164-1.444c0.064-0.674,0.317-1.316,0.731-1.851c0.173-0.234,0.504-0.283,0.737-0.109
				c0.047,0.035,0.087,0.077,0.12,0.124c0.026,0.037,0.053,0.072,0.081,0.106c0.18,0.261,0.439,0.458,0.739,0.562
				c0.368,0.077,0.729-0.159,0.807-0.527c0.007-0.035,0.012-0.071,0.014-0.107c0.034-0.4-0.177-0.828-0.437-1.197
				c-0.397-0.56-0.903-1.035-1.487-1.395c-0.397-0.245-0.85-0.436-1.272-0.401c-0.422,0.035-0.784,0.359-0.727,0.783
				c0.082,0.351,0.315,0.648,0.637,0.811c0.053,0.03,0.109,0.055,0.166,0.075c0.269,0.101,0.405,0.401,0.303,0.67
				c-0.023,0.061-0.058,0.118-0.102,0.167c-0.462,0.523-1.065,0.901-1.738,1.088c-0.495-0.339-1.021-0.632-1.571-0.872
				c-0.121-0.413-0.115-0.852,0.018-1.261c0.05-0.169,0.228-0.265,0.397-0.215c0.034,0.01,0.065,0.026,0.094,0.046
				c0.022,0.016,0.045,0.03,0.068,0.044c0.157,0.111,0.345,0.17,0.537,0.166c0.225-0.032,0.382-0.241,0.349-0.467
				c-0.003-0.022-0.008-0.043-0.014-0.063c-0.094-0.247-0.269-0.456-0.497-0.591c-0.342-0.236-0.728-0.402-1.135-0.486
				c-0.266-0.072-0.548-0.059-0.806,0.035c-0.23,0.085-0.347,0.34-0.262,0.569c0.003,0.009,0.007,0.018,0.011,0.026
				c0.119,0.183,0.313,0.303,0.53,0.329c0.037,0.006,0.073,0.008,0.11,0.008c0.174,0.002,0.313,0.144,0.311,0.318
				c0,0.04-0.008,0.079-0.023,0.116c-0.16,0.413-0.444,0.766-0.812,1.012c-0.581-0.172-1.177-0.288-1.781-0.347
				c-0.384-0.557-0.602-1.211-0.629-1.886c-0.017-0.291,0.204-0.54,0.495-0.558c0.058-0.003,0.116,0.003,0.172,0.018
				c0.043,0.011,0.087,0.021,0.13,0.03c0.306,0.084,0.631,0.069,0.927-0.045c0.332-0.178,0.456-0.59,0.279-0.922
				c-0.017-0.032-0.037-0.062-0.058-0.091c-0.23-0.329-0.668-0.521-1.105-0.636c-0.664-0.174-1.357-0.212-2.036-0.113
				c-0.461,0.068-0.931,0.213-1.232,0.51c-0.3,0.298-0.37,0.78-0.053,1.067c0.289,0.216,0.658,0.294,1.009,0.212
				c0.06-0.011,0.119-0.028,0.176-0.049c0.271-0.095,0.568,0.048,0.663,0.319c0.022,0.062,0.031,0.127,0.029,0.192
				c-0.017,0.698-0.237,1.375-0.632,1.951c-0.692,0.067-1.374,0.21-2.035,0.426c-0.113-0.153-0.207-0.318-0.282-0.493
				c-0.07-0.162,0.004-0.35,0.166-0.42c0.032-0.014,0.067-0.023,0.102-0.025c0.027-0.003,0.053-0.006,0.08-0.01
				c0.191-0.016,0.373-0.092,0.518-0.217c0.152-0.17,0.137-0.431-0.032-0.582c-0.016-0.015-0.033-0.028-0.052-0.04
				c-0.231-0.129-0.499-0.176-0.76-0.133c-0.414,0.039-0.816,0.16-1.182,0.358c-0.25,0.116-0.458,0.307-0.595,0.545
				c-0.121,0.213-0.047,0.483,0.165,0.605c0.008,0.005,0.017,0.009,0.025,0.013c0.209,0.063,0.435,0.031,0.618-0.089
				c0.032-0.019,0.062-0.04,0.09-0.064c0.134-0.11,0.333-0.091,0.443,0.044c0.025,0.031,0.044,0.066,0.057,0.104
				c0.061,0.193,0.099,0.392,0.111,0.594c-0.752,0.295-1.464,0.685-2.118,1.159c-0.479-0.155-0.91-0.433-1.25-0.805
				c-0.16-0.169-0.153-0.436,0.016-0.596c0.034-0.032,0.073-0.058,0.115-0.077c0.032-0.015,0.064-0.032,0.095-0.049
				c0.231-0.106,0.422-0.282,0.545-0.504c0.112-0.28-0.024-0.597-0.304-0.709c-0.027-0.011-0.054-0.019-0.082-0.026
				c-0.31-0.083-0.677,0.024-1.004,0.178c-0.496,0.235-0.94,0.568-1.306,0.978c-0.258,0.257-0.431,0.588-0.494,0.947
				c-0.054,0.32,0.161,0.622,0.48,0.677c0.012,0.002,0.023,0.004,0.035,0.005c0.288-0.016,0.554-0.158,0.727-0.389
				c0.031-0.038,0.058-0.078,0.083-0.121c0.117-0.198,0.372-0.263,0.57-0.146c0.045,0.027,0.085,0.062,0.117,0.104
				c0.325,0.409,0.534,0.897,0.606,1.413c-0.539,0.522-1.015,1.106-1.419,1.739c-0.256-0.048-0.504-0.132-0.737-0.249
				c-0.181-0.091-0.254-0.311-0.164-0.491c0.018-0.036,0.042-0.069,0.07-0.097c0.022-0.022,0.043-0.045,0.063-0.068
				c0.157-0.155,0.26-0.355,0.295-0.573c0.008-0.261-0.197-0.479-0.458-0.488c-0.025-0.001-0.05,0-0.074,0.004
				c-0.298,0.057-0.568,0.213-0.766,0.443c-0.335,0.339-0.599,0.742-0.775,1.185c-0.134,0.286-0.176,0.607-0.121,0.918
				c0.051,0.277,0.316,0.46,0.592,0.409c0.01-0.002,0.02-0.004,0.03-0.007c0.23-0.098,0.405-0.294,0.477-0.533
				c0.014-0.04,0.024-0.081,0.032-0.123c0.037-0.196,0.226-0.325,0.422-0.288c0.045,0.008,0.087,0.025,0.126,0.049
				c0.231,0.146,0.44,0.326,0.618,0.534c-0.329,0.615-0.589,1.264-0.775,1.936c-0.615,0.281-1.297,0.382-1.967,0.292
				c-0.289-0.033-0.497-0.295-0.464-0.584c0.007-0.058,0.023-0.113,0.047-0.166c0.019-0.041,0.036-0.082,0.052-0.123
				c0.136-0.287,0.177-0.609,0.117-0.921c-0.117-0.357-0.502-0.552-0.86-0.435c-0.034,0.011-0.067,0.025-0.099,0.042
				c-0.364,0.17-0.629,0.567-0.818,0.977c-0.286,0.624-0.444,1.3-0.464,1.986c-0.013,0.466,0.048,0.954,0.289,1.302
				c0.241,0.348,0.703,0.5,1.041,0.239c0.263-0.247,0.404-0.597,0.383-0.958c-0.001-0.061-0.007-0.122-0.018-0.182
				c-0.047-0.283,0.145-0.551,0.429-0.598c0.065-0.011,0.131-0.009,0.196,0.005c0.685,0.138,1.315,0.473,1.813,0.964
				c-0.018,0.242-0.031,0.487-0.031,0.734c0,0.522,0.043,1.043,0.128,1.558c-0.248,0.135-0.513,0.237-0.788,0.302
				c-0.224,0.053-0.449-0.085-0.503-0.309c-0.011-0.045-0.014-0.091-0.009-0.136c0.003-0.035,0.005-0.071,0.005-0.106
				c0.024-0.25-0.033-0.501-0.162-0.716c-0.184-0.234-0.523-0.274-0.757-0.091c-0.022,0.017-0.043,0.037-0.062,0.058
				c-0.224,0.225-0.314,0.592-0.344,0.948c-0.044,0.541,0.021,1.086,0.192,1.601c0.093,0.348,0.291,0.658,0.567,0.889
				c0.247,0.204,0.612,0.17,0.817-0.076c0.008-0.009,0.015-0.018,0.022-0.028c0.129-0.255,0.139-0.553,0.026-0.816
				c-0.017-0.045-0.038-0.089-0.063-0.13c-0.111-0.198-0.041-0.449,0.157-0.56c0.045-0.025,0.095-0.042,0.146-0.049
				c0.305-0.041,0.614-0.038,0.918,0.011c0.157,0.624,0.377,1.23,0.656,1.809c-0.447,0.731-1.485,1.563-2.075,1.952
				c-0.243,0.16-0.57,0.093-0.731-0.15c-0.032-0.048-0.056-0.102-0.07-0.158c-0.012-0.043-0.025-0.086-0.039-0.128
				c-0.08-0.307-0.256-0.58-0.502-0.78c-0.32-0.198-0.74-0.1-0.938,0.22c-0.019,0.03-0.035,0.062-0.049,0.095
				c-0.169,0.364-0.117,0.838,0.001,1.275c0.182,0.662,0.495,1.281,0.92,1.819c0.29,0.366,0.649,0.7,1.058,0.812
				c0.409,0.111,0.86-0.07,0.951-0.487c0.043-0.358-0.075-0.716-0.321-0.979c-0.04-0.046-0.084-0.089-0.13-0.128
				c-0.218-0.187-0.243-0.516-0.056-0.734c0.043-0.05,0.095-0.091,0.153-0.122c0.662-0.345,1.983-0.847,2.861-0.837
				c0.333,0.434,0.703,0.838,1.104,1.21c-0.098,0.279-0.239,0.542-0.417,0.778c-0.129,0.173-0.373,0.209-0.546,0.08
				c-0.034-0.025-0.064-0.056-0.088-0.091c-0.019-0.027-0.039-0.053-0.06-0.079c-0.133-0.193-0.324-0.339-0.546-0.415
				c-0.272-0.057-0.539,0.118-0.596,0.39c-0.005,0.026-0.009,0.052-0.01,0.079c0.005,0.323,0.118,0.635,0.323,0.885
				c0.293,0.414,0.667,0.765,1.099,1.031c0.275,0.193,0.603,0.297,0.94,0.296c0.299-0.002,0.54-0.246,0.539-0.545
				c0-0.011,0-0.022-0.001-0.033c-0.061-0.259-0.233-0.479-0.471-0.599c-0.039-0.022-0.08-0.041-0.123-0.056
				c-0.199-0.075-0.299-0.296-0.224-0.495c0.017-0.046,0.043-0.088,0.076-0.124c0.208-0.231,0.453-0.426,0.723-0.58
				c0.606,0.472,1.267,0.869,1.968,1.183c0.104,0.49,0.079,0.999-0.072,1.477c-0.066,0.222-0.3,0.349-0.523,0.283
				c-0.044-0.013-0.086-0.034-0.124-0.06c-0.029-0.02-0.059-0.04-0.09-0.058c-0.206-0.146-0.454-0.223-0.707-0.219
				c-0.297,0.043-0.503,0.318-0.46,0.615c0.004,0.028,0.01,0.056,0.019,0.084c0.083,0.309,0.358,0.572,0.654,0.778
				c0.45,0.311,0.958,0.528,1.494,0.639c0.35,0.094,0.721,0.078,1.062-0.047c0.303-0.113,0.457-0.45,0.344-0.752
				c-0.004-0.011-0.008-0.021-0.013-0.032c-0.157-0.241-0.413-0.399-0.698-0.434c-0.048-0.008-0.097-0.012-0.145-0.011
				c-0.229-0.002-0.413-0.19-0.411-0.419c0.001-0.053,0.011-0.105,0.031-0.154c0.19-0.482,0.506-0.905,0.914-1.225
				c0.75,0.214,1.523,0.334,2.302,0.36c0.054,0.183,0.087,0.372,0.098,0.562c0.011,0.176-0.124,0.327-0.299,0.338
				c-0.035,0.002-0.07-0.002-0.104-0.011c-0.026-0.007-0.053-0.013-0.079-0.018c-0.185-0.051-0.382-0.042-0.561,0.027
				c-0.201,0.108-0.276,0.358-0.169,0.558c0.01,0.019,0.022,0.037,0.035,0.055c0.173,0.2,0.409,0.336,0.669,0.385
				c0.402,0.105,0.821,0.128,1.232,0.068c0.275-0.024,0.535-0.132,0.746-0.309c0.187-0.158,0.21-0.438,0.052-0.625
				c-0.006-0.007-0.012-0.014-0.019-0.021c-0.175-0.131-0.398-0.178-0.611-0.128c-0.036,0.007-0.072,0.017-0.106,0.03
				c-0.164,0.058-0.344-0.029-0.401-0.193c-0.013-0.038-0.019-0.077-0.018-0.117c0.008-0.203,0.042-0.404,0.1-0.599
				c0.643-0.015,1.284-0.096,1.911-0.239c0.698,0.467,1.241,1.133,1.558,1.911c0.137,0.317-0.009,0.686-0.326,0.823
				c-0.063,0.027-0.13,0.044-0.198,0.049c-0.053,0.005-0.106,0.011-0.158,0.02c-0.369,0.059-0.767,0.164-1.015,0.426
				c-0.298,0.332-0.269,0.843,0.063,1.141c0.032,0.029,0.066,0.054,0.102,0.078c0.39,0.273,0.955,0.309,1.489,0.261
				c0.811-0.076,1.599-0.314,2.315-0.701c0.487-0.263,0.952-0.614,1.166-1.069c0.214-0.454,0.096-1.019-0.372-1.211
				c-0.363-0.149-0.841-0.043-1.211,0.173c-0.062,0.037-0.121,0.079-0.176,0.126c-0.264,0.216-0.653,0.178-0.869-0.086
				c-0.049-0.06-0.087-0.129-0.111-0.204c-0.278-0.82-0.299-1.706-0.059-2.538c0.494-0.251,0.965-0.545,1.407-0.878
				c0.304,0.162,0.579,0.373,0.814,0.625c0.16,0.169,0.153,0.436-0.016,0.596c-0.034,0.032-0.073,0.058-0.115,0.078
				c-0.032,0.015-0.064,0.032-0.095,0.049c-0.231,0.106-0.422,0.282-0.545,0.504c-0.112,0.28,0.024,0.597,0.304,0.709
				c0.027,0.011,0.054,0.019,0.082,0.026c0.31,0.083,0.677-0.024,1.004-0.178c0.496-0.235,0.94-0.568,1.306-0.978
				c0.258-0.257,0.43-0.588,0.492-0.946c0.054-0.319-0.161-0.622-0.48-0.677c-0.012-0.002-0.024-0.004-0.035-0.005
				c-0.288,0.016-0.554,0.158-0.727,0.389c-0.031,0.038-0.058,0.078-0.083,0.121c-0.117,0.198-0.373,0.263-0.57,0.146
				c-0.045-0.027-0.085-0.062-0.117-0.103c-0.221-0.285-0.391-0.606-0.503-0.949c0.488-0.448,0.928-0.945,1.313-1.484
				c0.675-0.054,1.351,0.084,1.951,0.398c0.261,0.13,0.366,0.447,0.236,0.708c-0.026,0.052-0.06,0.099-0.101,0.139
				c-0.032,0.032-0.062,0.064-0.091,0.098c-0.226,0.223-0.375,0.512-0.426,0.825c-0.012,0.376,0.283,0.69,0.659,0.702
				c0.036,0.001,0.071-0.001,0.107-0.005c0.4-0.035,0.785-0.318,1.103-0.638c0.483-0.489,0.862-1.069,1.115-1.707
				c0.172-0.434,0.282-0.913,0.174-1.322c-0.108-0.409-0.491-0.71-0.897-0.58c-0.331,0.142-0.583,0.423-0.688,0.768
				c-0.02,0.058-0.035,0.117-0.045,0.177c-0.053,0.282-0.325,0.468-0.607,0.415c-0.065-0.012-0.126-0.036-0.182-0.072
				c-0.596-0.364-1.073-0.893-1.373-1.523c0.27-0.595,0.479-1.216,0.622-1.854c0.291-0.054,0.588-0.063,0.881-0.027
				c0.214,0.025,0.367,0.219,0.342,0.433c-0.005,0.042-0.017,0.083-0.035,0.121c-0.014,0.03-0.027,0.061-0.038,0.091
				c-0.101,0.212-0.131,0.45-0.087,0.68c0.087,0.264,0.371,0.408,0.635,0.321c0.025-0.008,0.05-0.019,0.073-0.031
				c0.277-0.165,0.49-0.42,0.605-0.722c0.212-0.461,0.328-0.96,0.343-1.467c0.03-0.335-0.045-0.671-0.213-0.962
				c-0.151-0.258-0.483-0.345-0.741-0.194c-0.009,0.005-0.019,0.011-0.028,0.017c-0.194,0.182-0.298,0.441-0.284,0.707
				c0.001,0.045,0.005,0.09,0.013,0.134c0.035,0.209-0.107,0.407-0.317,0.442c-0.048,0.008-0.097,0.007-0.144-0.004
				c-0.303-0.065-0.595-0.178-0.862-0.336c0.06-0.433,0.09-0.87,0.091-1.308c0-0.196-0.008-0.391-0.019-0.585
				c0.545-0.558,1.242-0.944,2.004-1.108c0.317-0.076,0.634,0.12,0.71,0.436c0.015,0.063,0.02,0.128,0.013,0.193
				c-0.004,0.05-0.007,0.1-0.008,0.149c-0.006,0.352,0.026,0.739,0.229,1.012c0.26,0.33,0.738,0.388,1.069,0.128
				c0.032-0.025,0.061-0.052,0.088-0.082c0.317-0.318,0.443-0.836,0.486-1.339C788.437,298.937,788.345,298.167,788.103,297.439z"/>
		</g>
		<g id="Group_143_2_" transform="translate(-396 -248)">
			<path id="Path_67_2_" fill="#00A896" d="M761.985,333.207c-0.082-0.247-0.207-0.492-0.4-0.628
				c-0.193-0.136-0.465-0.128-0.592,0.074c-0.099,0.156-0.089,0.387-0.019,0.576c0.012,0.032,0.027,0.063,0.044,0.092
				c0.079,0.14,0.029,0.317-0.111,0.396c-0.032,0.018-0.067,0.03-0.104,0.035c-0.397,0.061-0.803,0-1.166-0.173
				c-0.066-0.223-0.148-0.441-0.246-0.651c0.101-0.235,0.271-0.433,0.488-0.569c0.087-0.057,0.204-0.033,0.261,0.054
				c0.011,0.017,0.02,0.036,0.025,0.056c0.004,0.016,0.009,0.031,0.014,0.046c0.028,0.11,0.091,0.207,0.179,0.279
				c0.114,0.071,0.264,0.036,0.335-0.078c0.007-0.011,0.013-0.022,0.018-0.034c0.051-0.147,0.051-0.308-0.001-0.455
				c-0.065-0.236-0.176-0.457-0.328-0.649c-0.093-0.133-0.225-0.234-0.377-0.289c-0.136-0.049-0.286,0.022-0.334,0.158
				c-0.002,0.005-0.003,0.01-0.005,0.015c-0.015,0.128,0.027,0.255,0.115,0.349c0.014,0.016,0.03,0.032,0.047,0.046
				c0.078,0.067,0.087,0.184,0.02,0.262c-0.015,0.018-0.034,0.033-0.055,0.043c-0.227,0.124-0.486,0.177-0.743,0.15
				c-0.17-0.259-0.365-0.501-0.582-0.722c0.032-0.337,0.159-0.658,0.365-0.926c0.087-0.117,0.252-0.141,0.369-0.055
				c0.023,0.017,0.044,0.038,0.06,0.062c0.013,0.018,0.026,0.036,0.04,0.053c0.09,0.131,0.22,0.229,0.369,0.281
				c0.184,0.039,0.365-0.079,0.403-0.264c0.004-0.018,0.006-0.035,0.007-0.053c0.017-0.2-0.089-0.414-0.219-0.599
				c-0.199-0.28-0.451-0.517-0.744-0.697c-0.199-0.122-0.425-0.218-0.636-0.2c-0.211,0.018-0.392,0.18-0.364,0.391
				c0.041,0.175,0.158,0.324,0.319,0.405c0.027,0.015,0.054,0.027,0.083,0.038c0.134,0.051,0.202,0.201,0.152,0.335
				c-0.012,0.031-0.029,0.059-0.051,0.083c-0.231,0.262-0.533,0.451-0.869,0.544c-0.247-0.17-0.511-0.316-0.786-0.436
				c-0.06-0.206-0.057-0.426,0.009-0.631c0.025-0.084,0.114-0.133,0.198-0.107c0.017,0.005,0.033,0.013,0.047,0.023
				c0.011,0.008,0.023,0.015,0.034,0.022c0.078,0.056,0.172,0.085,0.268,0.083c0.113-0.016,0.191-0.121,0.175-0.233
				c-0.002-0.011-0.004-0.021-0.007-0.032c-0.047-0.124-0.135-0.228-0.248-0.295c-0.171-0.118-0.364-0.201-0.567-0.243
				c-0.133-0.036-0.274-0.03-0.403,0.018c-0.115,0.042-0.174,0.17-0.131,0.285c0.002,0.004,0.003,0.009,0.005,0.013
				c0.06,0.091,0.157,0.152,0.265,0.165c0.018,0.003,0.037,0.004,0.055,0.004c0.087,0.001,0.157,0.072,0.156,0.159
				c0,0.02-0.004,0.04-0.012,0.058c-0.08,0.206-0.222,0.383-0.406,0.506c-0.291-0.086-0.589-0.144-0.89-0.173
				c-0.192-0.278-0.301-0.605-0.314-0.943c-0.009-0.145,0.102-0.27,0.247-0.279c0.029-0.002,0.058,0.001,0.086,0.009
				c0.022,0.006,0.043,0.011,0.065,0.015c0.153,0.042,0.315,0.034,0.464-0.022c0.166-0.089,0.228-0.295,0.139-0.461
				c-0.008-0.016-0.018-0.031-0.029-0.045c-0.115-0.164-0.334-0.26-0.552-0.318c-0.332-0.087-0.678-0.106-1.018-0.056
				c-0.231,0.034-0.466,0.106-0.616,0.255c-0.15,0.149-0.185,0.39-0.027,0.533c0.144,0.108,0.329,0.147,0.505,0.106
				c0.03-0.006,0.059-0.014,0.088-0.025c0.136-0.047,0.284,0.024,0.331,0.16c0.011,0.031,0.016,0.064,0.014,0.096
				c-0.009,0.349-0.119,0.688-0.316,0.975c-0.346,0.034-0.687,0.105-1.018,0.213c-0.056-0.076-0.104-0.159-0.141-0.246
				c-0.035-0.081,0.002-0.175,0.083-0.21c0.016-0.007,0.033-0.011,0.051-0.013c0.013-0.001,0.027-0.003,0.04-0.005
				c0.096-0.008,0.187-0.046,0.259-0.109c0.076-0.085,0.069-0.215-0.016-0.291c-0.008-0.007-0.017-0.014-0.026-0.02
				c-0.116-0.064-0.249-0.088-0.38-0.067c-0.207,0.019-0.408,0.08-0.591,0.179c-0.125,0.058-0.229,0.153-0.297,0.273
				c-0.061,0.106-0.024,0.242,0.083,0.302c0.004,0.002,0.008,0.005,0.012,0.007c0.104,0.032,0.218,0.015,0.309-0.044
				c0.016-0.01,0.031-0.02,0.045-0.032c0.067-0.055,0.166-0.045,0.222,0.022c0.013,0.015,0.022,0.033,0.028,0.052
				c0.031,0.096,0.049,0.196,0.056,0.297c-0.376,0.148-0.732,0.342-1.059,0.58c-0.24-0.078-0.455-0.216-0.625-0.402
				c-0.08-0.085-0.076-0.218,0.008-0.298c0.017-0.016,0.036-0.029,0.057-0.039c0.016-0.008,0.032-0.016,0.048-0.024
				c0.115-0.053,0.211-0.141,0.273-0.252c0.056-0.14-0.012-0.298-0.152-0.354c-0.013-0.005-0.027-0.01-0.041-0.013
				c-0.155-0.041-0.338,0.012-0.502,0.089c-0.248,0.118-0.47,0.284-0.653,0.489c-0.129,0.129-0.215,0.294-0.247,0.473
				c-0.027,0.16,0.08,0.311,0.24,0.338c0.006,0.001,0.012,0.002,0.018,0.002c0.144-0.008,0.277-0.079,0.364-0.195
				c0.015-0.019,0.029-0.039,0.041-0.06c0.058-0.099,0.186-0.132,0.285-0.073c0.023,0.013,0.043,0.031,0.059,0.052
				c0.162,0.204,0.267,0.448,0.303,0.707c-0.27,0.261-0.508,0.553-0.709,0.87c-0.128-0.024-0.252-0.066-0.369-0.125
				c-0.09-0.045-0.127-0.155-0.082-0.246c0.009-0.018,0.021-0.034,0.035-0.048c0.011-0.011,0.021-0.022,0.032-0.034
				c0.078-0.077,0.13-0.178,0.148-0.286c0.004-0.131-0.098-0.24-0.229-0.244c-0.012,0-0.025,0-0.037,0.002
				c-0.149,0.029-0.284,0.107-0.383,0.222c-0.168,0.17-0.299,0.371-0.387,0.593c-0.067,0.143-0.088,0.303-0.06,0.459
				c0.025,0.138,0.158,0.23,0.296,0.205c0.005-0.001,0.01-0.002,0.015-0.003c0.115-0.049,0.202-0.147,0.239-0.267
				c0.007-0.02,0.012-0.041,0.016-0.061c0.018-0.098,0.113-0.163,0.211-0.144c0.022,0.004,0.044,0.013,0.063,0.025
				c0.116,0.073,0.22,0.163,0.309,0.267c-0.164,0.307-0.294,0.632-0.388,0.968c-0.307,0.141-0.648,0.191-0.983,0.146
				c-0.145-0.017-0.248-0.147-0.232-0.292c0.003-0.029,0.011-0.057,0.024-0.083c0.009-0.02,0.018-0.041,0.026-0.062
				c0.068-0.143,0.089-0.305,0.059-0.46c-0.059-0.179-0.251-0.276-0.43-0.217c-0.017,0.006-0.034,0.013-0.05,0.021
				c-0.182,0.085-0.314,0.284-0.409,0.489c-0.143,0.312-0.222,0.65-0.232,0.993c-0.007,0.233,0.024,0.477,0.144,0.651
				c0.121,0.174,0.352,0.25,0.521,0.119c0.132-0.123,0.202-0.299,0.192-0.479c0-0.031-0.003-0.061-0.009-0.091
				c-0.023-0.142,0.073-0.276,0.214-0.299c0.032-0.005,0.066-0.005,0.098,0.003c0.343,0.069,0.658,0.237,0.907,0.482
				c-0.009,0.121-0.015,0.243-0.015,0.367c0,0.261,0.022,0.521,0.064,0.779c-0.124,0.068-0.256,0.118-0.394,0.151
				c-0.112,0.027-0.225-0.042-0.251-0.155c-0.005-0.022-0.007-0.045-0.005-0.068c0.001-0.018,0.002-0.035,0.003-0.053
				c0.012-0.125-0.017-0.25-0.081-0.358c-0.092-0.117-0.261-0.137-0.378-0.045c-0.011,0.009-0.022,0.018-0.031,0.029
				c-0.112,0.113-0.157,0.296-0.172,0.474c-0.022,0.271,0.011,0.543,0.096,0.801c0.047,0.174,0.146,0.329,0.284,0.445
				c0.123,0.102,0.306,0.085,0.408-0.038c0.004-0.004,0.007-0.009,0.011-0.014c0.065-0.127,0.069-0.277,0.013-0.408
				c-0.009-0.023-0.019-0.044-0.031-0.065c-0.056-0.099-0.02-0.224,0.079-0.28c0.023-0.013,0.047-0.021,0.073-0.025
				c0.152-0.021,0.307-0.019,0.459,0.005c0.078,0.312,0.188,0.615,0.328,0.904c-0.224,0.366-0.742,0.782-1.037,0.976
				c-0.122,0.08-0.285,0.047-0.365-0.075c-0.016-0.024-0.028-0.051-0.035-0.079c-0.006-0.022-0.012-0.043-0.02-0.064
				c-0.04-0.153-0.128-0.29-0.251-0.39c-0.16-0.099-0.37-0.05-0.469,0.11c-0.009,0.015-0.018,0.031-0.025,0.048
				c-0.085,0.182-0.059,0.419,0.001,0.637c0.091,0.331,0.247,0.64,0.46,0.91c0.145,0.183,0.325,0.35,0.529,0.406
				c0.204,0.056,0.43-0.035,0.476-0.243c0.021-0.179-0.037-0.358-0.161-0.49c-0.02-0.023-0.042-0.044-0.065-0.064
				c-0.109-0.094-0.121-0.258-0.028-0.367c0.021-0.025,0.047-0.046,0.077-0.061c0.331-0.172,0.991-0.424,1.43-0.419
				c0.167,0.217,0.351,0.419,0.552,0.605c-0.049,0.14-0.12,0.271-0.209,0.389c-0.064,0.086-0.187,0.104-0.273,0.04
				c-0.017-0.013-0.032-0.028-0.044-0.046c-0.01-0.013-0.02-0.027-0.03-0.039c-0.067-0.097-0.162-0.169-0.273-0.208
				c-0.136-0.028-0.269,0.059-0.298,0.195c-0.003,0.013-0.004,0.026-0.005,0.039c0.002,0.162,0.059,0.317,0.161,0.442
				c0.147,0.207,0.334,0.382,0.55,0.515c0.138,0.097,0.302,0.148,0.47,0.148c0.15-0.001,0.27-0.123,0.269-0.273
				c0-0.005,0-0.011-0.001-0.017c-0.03-0.13-0.116-0.239-0.235-0.3c-0.02-0.011-0.04-0.02-0.061-0.028
				c-0.099-0.037-0.15-0.148-0.112-0.247c0.009-0.023,0.021-0.044,0.038-0.062c0.104-0.115,0.226-0.213,0.361-0.29
				c0.303,0.236,0.633,0.435,0.984,0.592c0.052,0.245,0.039,0.5-0.036,0.738c-0.033,0.111-0.15,0.175-0.261,0.141
				c-0.022-0.007-0.043-0.017-0.062-0.03c-0.015-0.01-0.03-0.02-0.045-0.029c-0.103-0.073-0.227-0.112-0.353-0.11
				c-0.148,0.021-0.252,0.159-0.23,0.307c0.002,0.014,0.005,0.028,0.009,0.042c0.042,0.155,0.179,0.286,0.327,0.389
				c0.225,0.155,0.479,0.264,0.747,0.319c0.175,0.047,0.361,0.039,0.531-0.023c0.151-0.056,0.228-0.225,0.172-0.376
				c-0.002-0.005-0.004-0.011-0.006-0.016c-0.079-0.12-0.206-0.2-0.349-0.217c-0.024-0.004-0.048-0.006-0.073-0.006
				c-0.115-0.001-0.207-0.095-0.205-0.21c0-0.026,0.006-0.052,0.016-0.077c0.095-0.241,0.253-0.452,0.457-0.612
				c0.375,0.107,0.761,0.167,1.151,0.18c0.027,0.091,0.044,0.186,0.049,0.281c0.005,0.088-0.062,0.164-0.15,0.169
				c-0.018,0.001-0.035-0.001-0.052-0.005c-0.013-0.003-0.027-0.007-0.039-0.009c-0.093-0.026-0.191-0.021-0.281,0.013
				c-0.1,0.054-0.138,0.179-0.084,0.279c0.005,0.01,0.011,0.019,0.018,0.027c0.087,0.1,0.204,0.168,0.334,0.193
				c0.201,0.053,0.411,0.064,0.616,0.034c0.137-0.012,0.268-0.066,0.373-0.155c0.093-0.079,0.105-0.219,0.026-0.312
				c-0.003-0.004-0.006-0.007-0.01-0.01c-0.087-0.065-0.199-0.089-0.305-0.064c-0.018,0.004-0.036,0.008-0.053,0.015
				c-0.082,0.029-0.172-0.014-0.201-0.096c-0.007-0.019-0.01-0.039-0.009-0.058c0.004-0.102,0.021-0.202,0.05-0.3
				c0.322-0.008,0.642-0.048,0.956-0.12c0.349,0.234,0.621,0.566,0.779,0.955c0.069,0.159-0.004,0.343-0.163,0.411
				c-0.031,0.014-0.065,0.022-0.099,0.025c-0.027,0.003-0.053,0.006-0.079,0.01c-0.185,0.029-0.384,0.082-0.508,0.213
				c-0.149,0.166-0.135,0.422,0.031,0.57c0.016,0.014,0.033,0.027,0.051,0.039c0.195,0.136,0.478,0.155,0.745,0.13
				c0.406-0.038,0.799-0.157,1.158-0.35c0.243-0.131,0.476-0.307,0.583-0.534c0.107-0.227,0.048-0.51-0.186-0.606
				c-0.182-0.074-0.421-0.021-0.605,0.087c-0.031,0.019-0.06,0.04-0.088,0.063c-0.132,0.108-0.326,0.089-0.434-0.043
				c-0.025-0.03-0.043-0.065-0.055-0.102c-0.139-0.41-0.15-0.853-0.029-1.269c0.247-0.126,0.482-0.273,0.704-0.439
				c0.152,0.081,0.29,0.186,0.407,0.312c0.08,0.085,0.077,0.218-0.008,0.298c-0.017,0.016-0.036,0.029-0.058,0.039
				c-0.016,0.008-0.032,0.016-0.048,0.024c-0.115,0.053-0.211,0.141-0.273,0.252c-0.056,0.14,0.012,0.298,0.152,0.354
				c0.013,0.005,0.027,0.01,0.041,0.013c0.155,0.041,0.338-0.012,0.502-0.089c0.248-0.118,0.47-0.284,0.653-0.489
				c0.129-0.129,0.215-0.294,0.246-0.473c0.027-0.16-0.08-0.311-0.24-0.338c-0.006-0.001-0.012-0.002-0.018-0.002
				c-0.144,0.008-0.277,0.079-0.363,0.195c-0.015,0.019-0.029,0.039-0.041,0.06c-0.059,0.099-0.186,0.131-0.285,0.073
				c-0.023-0.013-0.042-0.031-0.059-0.052c-0.111-0.142-0.196-0.303-0.252-0.474c0.244-0.224,0.464-0.473,0.657-0.742
				c0.337-0.027,0.676,0.042,0.975,0.199c0.13,0.065,0.183,0.224,0.118,0.354c-0.013,0.026-0.03,0.049-0.051,0.07
				c-0.016,0.016-0.031,0.032-0.046,0.049c-0.113,0.111-0.188,0.256-0.213,0.413c-0.006,0.188,0.142,0.345,0.33,0.351
				c0.018,0.001,0.036,0,0.053-0.003c0.2-0.018,0.392-0.159,0.552-0.319c0.241-0.244,0.431-0.535,0.558-0.854
				c0.086-0.217,0.141-0.456,0.087-0.661c-0.054-0.205-0.245-0.355-0.448-0.29c-0.166,0.071-0.292,0.211-0.344,0.384
				c-0.01,0.029-0.018,0.059-0.023,0.089c-0.027,0.141-0.163,0.234-0.304,0.208c-0.032-0.006-0.063-0.018-0.091-0.036
				c-0.298-0.182-0.536-0.446-0.687-0.762c0.135-0.297,0.239-0.608,0.311-0.927c0.145-0.027,0.294-0.032,0.441-0.014
				c0.107,0.013,0.184,0.11,0.171,0.216c-0.002,0.021-0.008,0.041-0.017,0.061c-0.007,0.015-0.013,0.03-0.019,0.046
				c-0.05,0.106-0.065,0.225-0.043,0.34c0.043,0.132,0.186,0.204,0.318,0.161c0.013-0.004,0.025-0.009,0.037-0.015
				c0.139-0.083,0.245-0.21,0.302-0.361c0.106-0.23,0.164-0.48,0.172-0.733c0.015-0.167-0.022-0.335-0.106-0.481
				c-0.076-0.129-0.242-0.172-0.371-0.097c-0.005,0.003-0.009,0.006-0.014,0.009c-0.097,0.091-0.149,0.22-0.142,0.353
				c0,0.023,0.003,0.045,0.007,0.067c0.017,0.105-0.054,0.204-0.158,0.221c-0.024,0.004-0.048,0.003-0.072-0.002
				c-0.152-0.033-0.297-0.089-0.431-0.168c0.03-0.217,0.045-0.435,0.046-0.654c0-0.098-0.004-0.196-0.01-0.293
				c0.272-0.279,0.621-0.472,1.002-0.554c0.158-0.038,0.317,0.06,0.355,0.218c0.008,0.032,0.01,0.064,0.007,0.096
				c-0.002,0.025-0.003,0.05-0.004,0.075c-0.003,0.176,0.013,0.369,0.115,0.506c0.13,0.165,0.369,0.194,0.534,0.064
				c0.016-0.012,0.031-0.026,0.044-0.041c0.158-0.159,0.222-0.418,0.243-0.67C762.152,333.956,762.106,333.571,761.985,333.207z"/>
		</g>
	</g>
</g>
</svg>
