<svg xmlns="http://www.w3.org/2000/svg" id="Layer_1" x="0" y="0" version="1.1" viewBox="0 0 841.9 595.3" xml:space="preserve"><defs/><rect width="841.9" height="595.3" fill="#00A1B5"/><path fill="#FFF" d="M768.8 176.1c-4.3-4.3-11.2-4.3-15.5 0-4.3-4.3-11.2-4.3-15.5 0-4.3 4.3-4.3 11.2 0 15.5l15.5 15.5 15.5-15.5c4.3-4.3 4.3-11.2 0-15.5z"/><path fill="#FFF" d="M633.4 42.8c-4.3-4.3-11.2-4.3-15.5 0-4.3-4.3-11.2-4.3-15.5 0-4.3 4.3-4.3 11.2 0 15.5L618 73.7l15.5-15.5c4.2-4.3 4.2-11.2-.1-15.4z"/><path fill="#FFF" d="M666.7 100.8c-1.7-1.7-4.5-1.7-6.2 0-1.7-1.7-4.5-1.7-6.2 0-1.7 1.7-1.7 4.5 0 6.2l6.2 6.2 6.2-6.2c1.7-1.7 1.7-4.5 0-6.2z"/><path fill="#FFF" d="M404.2 235.4c-1.7-1.7-4.5-1.7-6.2 0-1.7-1.7-4.5-1.7-6.2 0-1.7 1.7-1.7 4.5 0 6.2l6.2 6.2 6.2-6.2c1.7-1.7 1.7-4.5 0-6.2z"/><path fill="#FFF" d="M740.9 236c-1.7-1.7-4.5-1.7-6.2 0-1.7-1.7-4.5-1.7-6.2 0-1.7 1.7-1.7 4.5 0 6.2l6.2 6.2 6.2-6.2c1.7-1.7 1.7-4.5 0-6.2z"/><path fill="#FFF" d="M455.1 98.3c-4.3-4.3-11.2-4.3-15.5 0-4.3-4.3-11.2-4.3-15.5 0-4.3 4.3-4.3 11.2 0 15.5l15.5 15.5 15.5-15.5c4.2-4.3 4.2-11.2 0-15.5z"/><path fill="#ECC59A" d="M446.9 378.3V171.7c0-9 7.3-16.4 16.4-16.4 9 0 16.4 7.3 16.4 16.4v206.6h-32.8z"/><path fill="#ECC59A" d="M512.3 378.3V171.7c0-9 7.3-16.4 16.4-16.4 9 0 16.4 7.3 16.4 16.4v206.6h-32.8z"/><path fill="#E3B78F" d="M545 424.3V213.5c0-9 7.3-16.4 16.4-16.4 9 0 16.4 7.3 16.4 16.4v210.8H545z"/><path fill="#E3B78F" d="M479.6 378.3V151.2c0-9 7.3-16.4 16.4-16.4 9 0 16.4 7.3 16.4 16.4v227.1h-32.8z"/><path fill="#FFDAAB" d="M463.1 595.3V399.1s-43.3-6.3-43.3-57.7l-35.2-65.8s29.8-22.5 49.6 5.4l24.1 37.7s1.7-.2 4.6-.4c62.4-3.5 114.7 46.8 114.7 109.3v167.7H463.1z"/><rect width="122" height="76.1" x="459" y="439" fill="#F1F2F2"/><rect width="134" height="125.9" x="446.9" y="469.4" fill="#FEE200"/><rect width="35.8" height="76.1" x="545.1" y="439" fill="#E6E7E8"/><rect width="40.9" height="125.9" x="540" y="469.4" fill="#F1C411"/><circle cx="540" cy="507.4" r="11.4"/><path fill="#ECC59A" d="M716.1 378.3V171.7c0-9-7.3-16.4-16.4-16.4-9 0-16.4 7.3-16.4 16.4v206.6h32.8z"/><path fill="#ECC59A" d="M650.7 378.3V171.7c0-9-7.3-16.4-16.4-16.4-9 0-16.4 7.3-16.4 16.4v206.6h32.8z"/><path fill="#E3B78F" d="M618 424.3V213.5c0-9-7.3-16.4-16.4-16.4-9 0-16.4 7.3-16.4 16.4v210.8H618z"/><path fill="#E3B78F" d="M683.4 378.3V151.2c0-9-7.3-16.4-16.4-16.4-9 0-16.4 7.3-16.4 16.4v227.1h32.8z"/><path fill="#FFDAAB" d="M699.9 595.3V399.1s43.3-6.3 43.3-57.7l35.2-65.8s-29.8-22.5-49.6 5.4l-24.1 37.7s-1.7-.2-4.6-.4c-62.4-3.5-114.7 46.8-114.7 109.3v167.7h114.5z"/><rect width="122" height="76.1" x="580.9" y="439" fill="#F1F2F2"/><rect width="35.8" height="76.1" x="667" y="439" fill="#E6E7E8"/><rect width="134" height="125.9" x="580.9" y="469.4" fill="#FEE200"/><circle cx="621.8" cy="507.4" r="11.4"/><rect width="40.9" height="125.9" x="674.1" y="469.4" fill="#F1C411"/><path fill="#1C75BC" d="M564.1 194c-10.2 3.8-19.1 4.8-25.4 4.8-5.4 0-9.8-4.4-9.8-9.8 0-6.4 1-15.2 4.8-25.4l-10-.2s3 28-11.4 42.4l-26.1 26.1 4.2 4.2 1.3 1.3 4.2 4.2 26.1-26.1c14.4-14.4 42.4-11.4 42.4-11.4l-.3-10.1z"/><path fill="#F15B40" d="M580.2 210.1c-10.2 3.8-19.1 4.8-25.4 4.8-5.4 0-9.8-4.4-9.8-9.8 0-6.4 1-15.2 4.8-25.4l-10-.2s3 28-11.4 42.4L502.3 248l4.2 4.2 1.3 1.3 4.2 4.2 26.1-26.1c14.4-14.4 42.4-11.4 42.4-11.4l-.3-10.1z"/><path fill="#BF3B2F" d="M552 66.6c-40.7-8.1-74.7 37.8-65.6 65.6 6.7 20.5 27.8 29.7 38.4 33.2 3.3 1.1 5.6 3.9 6 7.3 1.5 11.9 14.3 24.6 15 25.3.7.7 13.1 11.6 25.8 14.2 3.1.6 5.6 3 6.6 6 3.2 10.3 12.4 32.4 33.5 39.2 27.8 9.1 73.8-25 65.6-65.6-8-39.9-46.9-75.7-48.2-77-1.4-1.4-37.2-40.2-77.1-48.2z"/><ellipse cx="540.1" cy="86.9" fill="#FFF" rx="20.1" ry="9.2"/><g fill="#FFF"><path d="M102.5 189.9c2.2 0 4 .8 5.5 2.3 1.5 1.5 2.2 3.4 2.2 5.6v11.8c0 .2-.1.3-.3.3h-8.2c-.2 0-.3-.1-.3-.3v-11.8c0-.2-.1-.3-.3-.3h-7.7c-.2 0-.3.1-.3.3V241c0 .2.1.3.3.3h7.7c.2 0 .3-.1.3-.3v-15.3c0-.2.1-.3.3-.3h8.2c.2 0 .3.1.3.3v15.2c0 2.2-.7 4-2.2 5.6-1.5 1.5-3.3 2.3-5.4 2.3h.1-10.8.1c-1.1 0-2.1-.2-3.1-.6-1-.4-1.8-1-2.5-1.7s-1.3-1.5-1.7-2.5c-.4-.9-.6-2-.6-3.1v-43.1c0-1.1.2-2.1.6-3 .4-1 1-1.8 1.7-2.5s1.5-1.3 2.5-1.7c.9-.4 2-.6 3.1-.6h-.1 10.6v-.1z"/><path d="M148.4 190c.2 0 .3.1.3.3v57.9c0 .2-.1.3-.3.3h-8.6c-.2 0-.3-.1-.3-.3v-25.5c0-.2-.1-.3-.3-.3h-8.9c-.1 0-.2.1-.3.3v25.5c0 .2-.1.3-.3.3H121c-.2 0-.3-.1-.3-.3v-57.9c0-.2.1-.3.3-.3h8.7c.2 0 .3.1.3.3v24.2c0 .2.1.3.3.3h8.9c.2 0 .3-.1.3-.3v-24.2c0-.2.1-.3.3-.3h8.6z"/><path d="M179.3 190c1 0 2 .2 3 .6 1 .4 1.8 1 2.5 1.7s1.3 1.5 1.7 2.5c.4 1 .6 2 .6 3v50.7c0 .2-.1.3-.3.3h-8.6c-.2 0-.3-.1-.3-.3v-23.6h-9.3v23.6c0 .2-.1.3-.3.3h-8.6c-.2 0-.3-.1-.3-.3v-50.7c0-1.1.2-2.1.6-3 .4-.9.9-1.8 1.7-2.5.7-.7 1.6-1.3 2.5-1.7.9-.4 2-.7 3.1-.7h12zm-1.3 27.4v-19.5c0-.2-.1-.3-.3-.3v-.1H169v.1c-.2 0-.3.1-.3.3v19.5h9.3z"/><path d="M226.6 209.7c0 1.3-.3 2.5-.8 3.3-.6.9-1.2 1.6-1.9 2.1s-1.4.9-2.2 1.1c-.7.2-1.3.4-1.6.4.3 0 .9 0 1.6.1.7.1 1.4.3 2.2.8.7.4 1.4 1.1 1.9 2 .6.9.8 2.2.8 3.9v24.9c0 .2-.1.3-.3.3h-8.6c-.2 0-.3-.1-.3-.3v-21.5c-.1-1.3-.3-2.4-.7-3.4-.3-.8-.8-1.6-1.5-2.3-.7-.7-1.6-1.1-2.8-1.1h-4.9l-.3.3v28.1c0 .2-.1.3-.2.3h-8.8c-.2 0-.3-.1-.3-.3v-58.3c0-.2.1-.3.3-.3h20.4c1.1 0 2.1.2 3 .6.9.4 1.8.9 2.5 1.6.7.7 1.3 1.4 1.7 2.3.4.9.7 1.9.8 2.9v12.5zm-9.2-12c0-.2-.1-.3-.3-.3h-9.6c-.2 0-.3.1-.3.3V213c0 .2.1.3.3.3h4.8c.4 0 .9 0 1.5-.1s1.1-.3 1.7-.8c.5-.4 1-1.1 1.3-1.9.4-.9.5-2.1.5-3.6v-9.2z"/><path d="M256.6 189.9c.2 0 .3.1.3.3v6.8c0 .2-.1.3-.3.3H250V241h6.5c.2 0 .3.1.3.3v7c0 .2-.1.3-.3.3H234c-.2 0-.3-.1-.3-.3v-7c0-.2.1-.3.3-.3h6.7v-43.6H234c-.2 0-.3-.1-.3-.3v-6.8c0-.2.1-.3.3-.3h22.6z"/><path d="M289.5 189.9c.2 0 .3.1.3.3v6.8c0 .2-.1.3-.3.3h-9v51.1c0 .2-.1.3-.3.3h-8.6c-.2 0-.3-.1-.3-.3v-51.1h-9.2c-.2 0-.3-.1-.3-.3v-6.8c0-.2.1-.3.3-.3h27.4z"/><path d="M322.5 190c.2 0 .3.1.3.3v24c0 .2-.3.8-.8 1.6-.5.9-1.1 1.9-1.9 3-.8 1.1-1.7 2.3-2.7 3.5-1 1.2-2.1 2.3-3.1 3.2v23c0 .2-.1.3-.3.3h-8.5c-.2 0-.3-.1-.3-.3v-23c-1.1-.8-2.1-1.8-3.1-3s-1.9-2.4-2.7-3.5c-.8-1.1-1.4-2.1-1.9-3-.5-.9-.8-1.4-.8-1.7v-24c0-.2.1-.3.3-.3h7.8c.2 0 .3.1.3.3V213c0 .3.2.8.5 1.3.4.5.8 1.1 1.3 1.6s1 1 1.5 1.4c.5.4 1 .6 1.3.6.3 0 .8-.2 1.3-.6.5-.4 1-.9 1.5-1.5s.9-1.1 1.3-1.6.5-.9.5-1.1v-22.7c0-.2.1-.3.3-.3h7.9z"/><path d="M214.7 301.1v18.3c0 1.1-.2 2.1-.6 3-.4.9-1 1.8-1.7 2.5s-1.6 1.2-2.5 1.6c-1 .4-2 .6-3 .6H196c-1.1 0-2.1-.2-3.1-.6-.9-.4-1.8-.9-2.5-1.6-.7-.7-1.2-1.5-1.7-2.5-.4-.9-.6-2-.6-3v-23.7c0-.9.3-1.3.9-1.3l6 .1-5.6-4.2c-.9-.7-1.3-1.6-1.3-2.7v-11.2c0-1.1.2-2.1.6-3 .4-.9 1-1.8 1.7-2.5s1.5-1.2 2.5-1.6c1-.4 2-.6 3.1-.6h9.2c1.1 0 2.1.2 3.1.6 1 .4 1.8.9 2.5 1.6.7.7 1.2 1.5 1.7 2.5.4.9.6 1.9.6 3V287c0 .2-.1.3-.3.3h-8.2c-.2 0-.2-.1-.2-.3v-10.9c0-.2-.1-.3-.3-.3h-6.7c-.2 0-.3.1-.3.2v12.1l7.5 6.1 14.1.1v6.7h-4zm-8.8 0l-8.7-.1c-.1 0-.2.1-.2.3v18.1c0 .2.1.3.3.3h8.3l.3-.3v-18.3z"/><path d="M90.4 394c0 1.1-.2 2.3-.5 3.6-.4 1.3-1 2.5-1.9 3.6-.9 1.1-2.2 2.1-3.8 2.8-1.6.8-3.7 1.2-6.2 1.2H63.8c-.2 0-.3-.1-.3-.3v-58.2c0-.2.1-.3.3-.3H77c2.5 0 4.6.4 6.3 1.2 1.7.8 3.1 1.8 4.1 2.9 1 1.2 1.8 2.4 2.2 3.8.4 1.3.7 2.5.7 3.6V394zm-9.3-.2V358c0-1.4-.4-2.4-1.3-3-.9-.6-1.9-.9-2.9-.9H73c-.2 0-.3.1-.3.3v43.1c0 .2.1.3.3.3h4.8c2.2-.2 3.3-1.5 3.3-4z"/><path d="M121.1 346.5c1.1 0 2.1.2 3 .6 1 .4 1.8 1 2.5 1.7s1.3 1.5 1.7 2.5c.4 1 .6 2 .6 3v43.1c0 1.1-.2 2.1-.6 3.1-.4.9-1 1.8-1.7 2.5s-1.6 1.3-2.5 1.7c-1 .4-2 .6-3 .6h.1-12.7.1c-1.1 0-2.1-.2-3.1-.6-.9-.4-1.8-1-2.5-1.7s-1.3-1.5-1.7-2.5-.6-2-.6-3.1v-43.1c0-1.1.2-2.1.6-3 .4-1 1-1.8 1.7-2.5s1.5-1.3 2.5-1.7c.9-.4 2-.6 3.1-.6h12.5zm-1.3 7.8c0-.2-.1-.3-.3-.3h-9.4c-.2 0-.3.1-.3.3v43.2c0 .1.1.2.3.3h9.4c.2-.1.3-.2.3-.3v-43.2z"/><path d="M160.3 346.5c1.1 0 2.1.2 3 .6 1 .4 1.8 1 2.5 1.7s1.3 1.5 1.7 2.5c.4 1 .6 2 .6 3.1V405c0 .2-.1.3-.3.3h-8.7c-.2 0-.3-.1-.3-.3v-50.8c0-.2-.1-.3-.3-.3H149c-.2 0-.3.1-.3.3V405c0 .2-.1.3-.3.3h-8.7c-.2 0-.3-.1-.3-.3v-50.6c0-1.1.2-2.2.6-3.1.4-1 1-1.8 1.7-2.5s1.5-1.3 2.5-1.7c.9-.4 2-.6 3.1-.6h-.1 13.1z"/><path d="M198.6 346.6c1 0 2 .2 3 .6 1 .4 1.8 1 2.5 1.7s1.3 1.5 1.7 2.5c.4 1 .6 2 .6 3v50.7c0 .2-.1.3-.3.3h-8.6c-.2 0-.3-.1-.3-.3v-23.6H188v23.6c0 .2-.1.3-.3.3H179c-.2 0-.3-.1-.3-.3v-50.7c0-1.1.2-2.1.6-3 .4-.9.9-1.8 1.7-2.5.7-.7 1.6-1.3 2.5-1.7.9-.4 2-.7 3.1-.7h12zm-1.4 27.4v-19.5c0-.2-.1-.3-.3-.3v-.1h-8.8v.1c-.2 0-.3.1-.3.3V374h9.4z"/><path d="M240.8 346.5c.2 0 .3.1.3.3v6.8c0 .2-.1.3-.3.3h-9V405c0 .2-.1.3-.3.3h-8.6c-.2 0-.3-.1-.3-.3v-51h-9.2c-.2 0-.3-.1-.3-.3v-6.8c0-.2.1-.3.3-.3h27.4z"/><path d="M268.6 346.5c.2 0 .3.1.3.3v6.8c0 .2-.1.3-.3.3H262v43.6h6.5c.2 0 .3.1.3.3v7c0 .2-.1.3-.3.3H246c-.2 0-.3-.1-.3-.3v-7c0-.2.1-.3.3-.3h6.7V354H246c-.2 0-.3-.1-.3-.3v-6.8c0-.2.1-.3.3-.3h22.6z"/><path d="M296.8 346.5c1.1 0 2.1.2 3 .6 1 .4 1.8 1 2.5 1.7s1.3 1.5 1.7 2.5c.4 1 .6 2 .6 3v43.1c0 1.1-.2 2.1-.6 3.1-.4.9-1 1.8-1.7 2.5s-1.6 1.3-2.5 1.7c-1 .4-2 .6-3 .6h.1-12.7.1c-1.1 0-2.1-.2-3.1-.6-.9-.4-1.8-1-2.5-1.7s-1.3-1.5-1.7-2.5-.6-2-.6-3.1v-43.1c0-1.1.2-2.1.6-3 .4-1 1-1.8 1.7-2.5s1.5-1.3 2.5-1.7c.9-.4 2-.6 3.1-.6h12.5zm-1.3 7.8c0-.2-.1-.3-.3-.3h-9.4c-.2 0-.3.1-.3.3v43.2c0 .1.1.2.3.3h9.4c.2-.1.3-.2.3-.3v-43.2z"/><path d="M335.9 346.5c1.1 0 2.1.2 3 .6 1 .4 1.8 1 2.5 1.7s1.3 1.5 1.7 2.5c.4 1 .6 2 .6 3.1V405c0 .2-.1.3-.3.3h-8.7c-.2 0-.3-.1-.3-.3v-50.8c0-.2-.1-.3-.3-.3h-9.7c-.2 0-.3.1-.3.3V405c0 .2-.1.3-.3.3h-8.7c-.2 0-.3-.1-.3-.3v-50.6c0-1.1.2-2.2.6-3.1.4-1 1-1.8 1.7-2.5s1.5-1.3 2.5-1.7c.9-.4 2-.6 3.1-.6h13.2z"/><path d="M71.5 433.2c.1 0 .1 0 0 0l.1 1.2s0 .1-.1.1h-3.4s-.1 0-.1-.1v-9.7h1.6v8.4h1.9z"/><path d="M75.8 427.6c.4 0 .7.1.9.4.2.3.4.6.4.9v4.3c0 .4-.1.7-.4.9s-.6.4-.9.4h-2c-.4 0-.7-.1-.9-.4-.2-.3-.4-.6-.4-.9v-4.3c0-.4.1-.7.4-.9.2-.3.5-.4.9-.4h2zm-.2 1.2s0-.1 0 0H74v4.5l.1.1h1.5v-4.6z"/><path d="M79.9 427.6h2v1.1h-1.8v5.6h-1.4v-5.5c0-.2 0-.4.1-.5.1-.2.2-.3.3-.4.1-.1.3-.2.4-.3h.4z"/><path d="M86.3 427.6c.2 0 .3 0 .5.1s.3.2.4.3c.1.1.2.3.3.4.1.2.1.3.1.5v2.6h-3.1v1.8h1.6v-.9s0-.1.1-.1h1.3v.8c0 .2 0 .4-.1.5-.1.2-.2.3-.3.4-.1.1-.2.2-.4.3-.2.1-.3.1-.5.1h-2c-.4 0-.7-.1-.9-.4-.3-.3-.4-.6-.4-.9v-4.3c0-.2 0-.3.1-.5s.2-.3.3-.4c.1-.1.3-.2.4-.3.2-.1.3-.1.5-.1h2.1zm-1.8 3h1.7v-1.9h-1.6v1.9z"/><path d="M88.9 428.9c0-.4.1-.7.4-.9.2-.3.6-.4.9-.4h1.1c.2 0 .4 0 .5.1.1.1.3.2.3.3s.2.2.2.3c0 .1.1.2.1.3v-.3c0-.1.1-.2.1-.3.1-.1.2-.2.4-.3.2-.1.4-.1.6-.1h1.1c.2 0 .3 0 .5.1s.3.2.4.3c.1.1.2.3.3.4.1.2.1.3.1.5v5.5h-1.6v-5.5c0-.1 0-.1-.1-.1h-.7c-.1 0-.3 0-.4.1-.1.1-.2.2-.2.4v5.1h-1.3v-5.1c0-.2-.1-.3-.2-.4-.1-.1-.3-.1-.4-.1h-.8c-.1 0-.1 0-.1.1v5.5h-1.2v-5.5z"/><path d="M102.4 424.6s0 .1 0 0l.1 1.4s0 .1-.1.1H101s-.1 0-.1-.1v-1.4h1.5zm0 3l.1 6.9s0 .1-.1.1H101s-.1 0-.1-.1v-6.8h1.5z"/><path d="M107.4 427.6c.4 0 .7.1.9.4.2.3.4.6.4.9v4.3c0 .4-.1.7-.4.9s-.6.4-.9.4h-1.9v2.7h-1.6v-9.6h3.5zm-.2 1.3c0-.1 0-.1 0 0l-1.7-.1h-.1v4.4h1.7v-4.3z"/><path d="M111.8 429.8c.4.2.9.4 1.2.6.3.2.6.3.9.4s.4.2.5.2c.3.2.4.4.4.7v1.5c0 .2 0 .3-.1.5s-.2.3-.3.4c-.1.1-.3.2-.4.3-.2.1-.3.1-.5.1h-2c-.2 0-.3 0-.5-.1s-.3-.2-.4-.3c-.1-.1-.2-.3-.3-.4-.1-.2-.1-.3-.1-.5v-1h1.4v1.1h1.6V432c-.5-.3-1-.5-1.4-.7-.2-.1-.3-.2-.5-.3-.2-.1-.3-.2-.4-.2-.1-.1-.2-.1-.3-.2l-.1-.1c-.1 0-.1-.1-.1-.1v-1.9c0-.3.1-.6.2-.8.2-.2.4-.3.8-.3h2.3c.3 0 .6.1.8.3.2.2.3.5.3.8v.8h-1.4v-.8h-1.5v1l-.1.3c-.1-.1-.1 0 0 0z"/><path d="M117.4 434.5c-.2 0-.3 0-.5-.1s-.3-.2-.4-.3c-.1-.1-.2-.3-.3-.4s-.1-.3-.1-.5v-5.5h1.4v5.6h1.7v-5.6h1.4v5.5c0 .2 0 .4-.1.5s-.2.3-.3.4c-.1.1-.3.2-.4.3-.2.1-.3.1-.5.1h-1.9z"/><path d="M122.3 428.9c0-.4.1-.7.4-.9.2-.3.6-.4.9-.4h1.1c.2 0 .4 0 .5.1.1.1.3.2.3.3s.2.2.2.3c0 .1.1.2.1.3v-.3c0-.1.1-.2.1-.3.1-.1.2-.2.4-.3.2-.1.4-.1.6-.1h1.1c.2 0 .3 0 .5.1s.3.2.4.3c.1.1.2.3.3.4.1.2.1.3.1.5v5.5h-1.4v-5.5c0-.1 0-.1-.1-.1h-.7c-.1 0-.3 0-.4.1-.1.1-.2.2-.2.4v5.1h-1.3v-5.1c0-.2-.1-.3-.2-.4-.1-.1-.3-.1-.4-.1h-.8c-.1 0-.1 0-.1.1v5.5h-1.6v-5.5z"/><path d="M135.5 434.5c-.4 0-.7-.1-.9-.4s-.4-.6-.4-.9v-4.3c0-.4.1-.7.4-.9.2-.3.6-.4.9-.4h1.9v-3.2h1.6v10.1h-3.5zm.2-1.2s0 .1 0 0l1.7.1h.1v-4.5h-1.7v4.4z"/><path d="M143.6 427.6c.4 0 .7.1.9.4.2.3.4.6.4.9v4.3c0 .4-.1.7-.4.9s-.6.4-.9.4h-2c-.4 0-.7-.1-.9-.4-.2-.3-.4-.6-.4-.9v-4.3c0-.4.1-.7.4-.9.2-.3.5-.4.9-.4h2zm-.2 1.2s0-.1 0 0h-1.6v4.5l.1.1h1.5v-4.6z"/><path d="M147.8 424.3s.1 0 0 0l.1 10.1s0 .1-.1.1h-1.4s-.1 0-.1-.1v-10.1h1.5z"/><path d="M152.6 427.6c.4 0 .7.1.9.4.2.3.4.6.4.9v4.3c0 .4-.1.7-.4.9s-.6.4-.9.4h-2c-.4 0-.7-.1-.9-.4-.2-.3-.4-.6-.4-.9v-4.3c0-.4.1-.7.4-.9.2-.3.5-.4.9-.4h2zm-.2 1.2s0-.1 0 0h-1.6v4.5l.1.1h1.5v-4.6z"/><path d="M156.7 427.6h2v1.1h-1.8v5.6h-1.4v-5.5c0-.2 0-.4.1-.5.1-.2.2-.3.3-.4.1-.1.3-.2.4-.3h.4z"/><path d="M164.7 429.8c.4.2.9.4 1.2.6.3.2.6.3.9.4s.4.2.5.2c.3.2.4.4.4.7v1.5c0 .2 0 .3-.1.5s-.2.3-.3.4c-.1.1-.3.2-.4.3-.2.1-.3.1-.5.1h-2c-.2 0-.3 0-.5-.1s-.3-.2-.4-.3c-.1-.1-.2-.3-.3-.4-.1-.2-.1-.3-.1-.5v-1h1.4v1.1h1.6V432c-.5-.3-1-.5-1.4-.7-.2-.1-.3-.2-.5-.3-.2-.1-.3-.2-.4-.2-.1-.1-.2-.1-.3-.2l-.1-.1c-.1 0-.1-.1-.1-.1v-1.9c0-.3.1-.6.2-.8.2-.2.4-.3.8-.3h2.3c.3 0 .6.1.8.3.2.2.3.5.3.8v.8h-1.4v-.8h-1.5v1l-.1.3c0-.1 0 0 0 0z"/><path d="M170.7 424.6s0 .1 0 0l.1 1.4s0 .1-.1.1h-1.4s-.1 0-.1-.1v-1.4h1.5zm0 3l.1 6.9s0 .1-.1.1h-1.4s-.1 0-.1-.1v-6.8h1.5z"/><path d="M172.8 425.9h1.5v1.6h1v1.3h-1v5.7s0 .1-.1.1h-1.4s-.1 0-.1-.1v-5.7h-1v-1.3h1v-1.6z"/><path d="M182.7 430.6v-1.8h-1.5v.8s0 .1-.1.1h-1.3v-.8c0-.2 0-.3.1-.5s.2-.3.3-.4c.1-.1.2-.2.4-.3.2-.1.3-.1.5-.1h1.9c.2 0 .3 0 .5.1s.3.2.4.3c.1.1.2.3.3.4.1.2.1.3.1.5v5.6H181c-.2 0-.3 0-.5-.1s-.3-.2-.4-.3c-.1-.1-.2-.3-.3-.4-.1-.2-.1-.3-.1-.5v-1.3c0-.2 0-.3.1-.5s.2-.3.3-.4c.1-.1.2-.2.4-.3.2-.1.3-.1.5-.1h1.7zm0 1H181v1.8h1.7v-1.8z"/><path d="M185.7 428.9c0-.4.1-.7.4-.9.2-.3.6-.4.9-.4h1.1c.2 0 .4 0 .5.1.1.1.3.2.3.3s.2.2.2.3c0 .1.1.2.1.3v-.3c0-.1.1-.2.1-.3.1-.1.2-.2.4-.3.2-.1.4-.1.6-.1h1.1c.2 0 .3 0 .5.1s.3.2.4.3c.1.1.2.3.3.4.1.2.1.3.1.5v5.5h-1.6v-5.5c0-.1 0-.1-.1-.1h-.7c-.1 0-.3 0-.4.1-.1.1-.2.2-.2.4v5.1h-1.3v-5.1c0-.2-.1-.3-.2-.4-.1-.1-.3-.1-.4-.1h-.8c-.1 0-.1 0-.1.1v5.5h-1.6v-5.5z"/><path d="M197.6 427.6c.2 0 .3 0 .5.1s.3.2.4.3c.1.1.2.3.3.4.1.2.1.3.1.5v2.6h-3.1v1.8h1.6v-.9s0-.1.1-.1h1.3v.8c0 .2 0 .4-.1.5-.1.2-.2.3-.3.4-.1.1-.2.2-.4.3-.2.1-.3.1-.5.1h-2c-.4 0-.7-.1-.9-.4-.3-.3-.4-.6-.4-.9v-4.3c0-.2 0-.3.1-.5s.2-.3.3-.4c.1-.1.3-.2.4-.3.2-.1.3-.1.5-.1h2.1zm-1.9 3h1.7v-1.9h-1.6v1.9z"/><path d="M200.8 425.9h1.5v1.6h1v1.3h-1v5.7s0 .1-.1.1h-1.4s-.1 0-.1-.1v-5.7h-1v-1.3h1v-1.6z"/><path d="M204.9 433l.1 2.7s0 .1-.1.1l-.9-1.2h-.8s-.1 0-.1-.1V433h1.8z"/><path d="M212.4 430.6v-1.8h-1.5v.8s0 .1-.1.1h-1.3v-.8c0-.2 0-.3.1-.5s.2-.3.3-.4c.1-.1.2-.2.4-.3.2-.1.3-.1.5-.1h1.9c.2 0 .3 0 .5.1s.3.2.4.3c.1.1.2.3.3.4.1.2.1.3.1.5v5.6h-3.3c-.2 0-.3 0-.5-.1s-.3-.2-.4-.3c-.1-.1-.2-.3-.3-.4-.1-.2-.1-.3-.1-.5v-1.3c0-.2 0-.3.1-.5s.2-.3.3-.4c.1-.1.2-.2.4-.3.2-.1.3-.1.5-.1h1.7zm0 1h-1.7v1.8h1.7v-1.8z"/><path d="M218.7 427.6c.4 0 .7.1.9.4.2.3.4.6.4.9v4.3c0 .4-.1.7-.4.9s-.6.4-.9.4h-1.9v2.7h-1.6v-9.6h3.5zm-.1 1.3c0-.1 0-.1 0 0l-1.7-.1h-.1v4.4h1.7v-4.3z"/><path d="M224.8 427.6c.2 0 .3 0 .5.1s.3.2.4.3c.1.1.2.3.3.4.1.2.1.3.1.5v2.6H223v1.8h1.6v-.9s0-.1.1-.1h1.3v.8c0 .2 0 .4-.1.5-.1.2-.2.3-.3.4-.1.1-.2.2-.4.3-.2.1-.3.1-.5.1h-2c-.4 0-.7-.1-.9-.4-.3-.3-.4-.6-.4-.9v-4.3c0-.2 0-.3.1-.5s.2-.3.3-.4c.1-.1.3-.2.4-.3.2-.1.3-.1.5-.1h2.1zm-1.8 3h1.7v-1.9H223v1.9z"/><path d="M228.8 427.6h2v1.1H229v5.6h-1.4v-5.5c0-.2 0-.4.1-.5.1-.2.2-.3.3-.4.1-.1.3-.2.4-.3h.4z"/><path d="M233.4 424.6c.1 0 .1.1 0 0l.1 1.4s0 .1-.1.1H232s-.1 0-.1-.1v-1.4h1.5zm0 3c.1 0 .1 0 0 0l.1 6.9s0 .1-.1.1H232s-.1 0-.1-.1v-6.8h1.5z"/><path d="M238.1 430.6v-1.8h-1.5v.8s0 .1-.1.1h-1.3v-.8c0-.2 0-.3.1-.5s.2-.3.3-.4c.1-.1.2-.2.4-.3.2-.1.3-.1.5-.1h1.9c.2 0 .3 0 .5.1s.3.2.4.3c.1.1.2.3.3.4.1.2.1.3.1.5v5.6h-3.3c-.2 0-.3 0-.5-.1s-.3-.2-.4-.3c-.1-.1-.2-.3-.3-.4-.1-.2-.1-.3-.1-.5v-1.3c0-.2 0-.3.1-.5s.2-.3.3-.4c.1-.1.2-.2.4-.3.2-.1.3-.1.5-.1h1.7zm0 1h-1.7v1.8h1.7v-1.8z"/><path d="M241.1 428.9c0-.4.1-.7.4-.9.2-.3.6-.4.9-.4h1.1c.2 0 .4 0 .5.1.1.1.3.2.3.3s.2.2.2.3c0 .1.1.2.1.3v-.3c0-.1.1-.2.1-.3.1-.1.2-.2.4-.3.2-.1.4-.1.6-.1h1.1c.2 0 .3 0 .5.1s.3.2.4.3c.1.1.2.3.3.4.1.2.1.3.1.5v5.5h-1.6v-5.5c0-.1 0-.1-.1-.1h-.7c-.1 0-.3 0-.4.1-.1.1-.2.2-.2.4v5.1h-1.3v-5.1c0-.2-.1-.3-.2-.4-.1-.1-.3-.1-.4-.1h-.8c-.1 0-.1 0-.1.1v5.5h-1.6v-5.5z"/><path d="M256.4 427.6c.4 0 .7.1.9.4.2.3.4.6.4.9v4.3c0 .4-.1.7-.4.9s-.6.4-.9.4h-1.9v2.7h-1.6v-9.6h3.5zm-.2 1.3c0-.1 0-.1 0 0l-1.7-.1h-.1v4.4h1.7v-4.3z"/><path d="M260.6 424.3s.1 0 0 0l.1 3.3h1.9c.2 0 .3 0 .5.1s.3.2.4.3c.1.1.2.3.3.4.1.2.1.3.1.5v5.5h-1.4v-5.6h-1.7v5.6h-1.4v-10.1h1.2z"/><path d="M268.5 430.6v-1.8H267v.8s0 .1-.1.1h-1.3v-.8c0-.2 0-.3.1-.5s.2-.3.3-.4c.1-.1.2-.2.4-.3.2-.1.3-.1.5-.1h1.9c.2 0 .3 0 .5.1s.3.2.4.3c.1.1.2.3.3.4.1.2.1.3.1.5v5.6h-3.3c-.2 0-.3 0-.5-.1s-.3-.2-.4-.3c-.1-.1-.2-.3-.3-.4-.1-.2-.1-.3-.1-.5v-1.3c0-.2 0-.3.1-.5s.2-.3.3-.4c.1-.1.2-.2.4-.3.2-.1.3-.1.5-.1h1.7zm0 1h-1.7v1.8h1.7v-1.8z"/><path d="M274.7 427.6c.2 0 .3 0 .5.1s.3.2.4.3c.1.1.2.3.3.4.1.2.1.3.1.5v2.6h-3.1v1.8h1.6v-.9s0-.1.1-.1h1.3v.8c0 .2 0 .4-.1.5-.1.2-.2.3-.3.4-.1.1-.2.2-.4.3-.2.1-.3.1-.5.1h-2c-.4 0-.7-.1-.9-.4-.3-.3-.4-.6-.4-.9v-4.3c0-.2 0-.3.1-.5s.2-.3.3-.4c.1-.1.3-.2.4-.3.2-.1.3-.1.5-.1h2.1zm-1.8 3h1.7v-1.9H273v1.9z"/><path d="M278.7 434.5c-.4 0-.7-.1-.9-.4s-.4-.6-.4-.9v-4.3c0-.4.1-.7.4-.9.2-.3.6-.4.9-.4h1.9v-3.2h1.6v10.1h-3.5zm.1-1.2s.1.1 0 0l1.7.1h.1v-4.5h-1.7v4.4z"/><path d="M284.9 427.6h2v1.1h-1.8v5.6h-1.4v-5.5c0-.2 0-.4.1-.5.1-.2.2-.3.3-.4.1-.1.3-.2.4-.3h.4z"/><path d="M289.2 434.5c-.2 0-.3 0-.5-.1s-.3-.2-.4-.3c-.1-.1-.2-.3-.3-.4s-.1-.3-.1-.5v-5.5h1.4v5.6h1.7v-5.6h1.4v5.5c0 .2 0 .4-.1.5s-.2.3-.3.4c-.1.1-.3.2-.4.3-.2.1-.3.1-.5.1h-1.9z"/><path d="M294.1 428.9c0-.4.1-.7.4-.9.2-.3.6-.4.9-.4h1.1c.2 0 .4 0 .5.1.1.1.3.2.3.3s.2.2.2.3c0 .1.1.2.1.3v-.3c0-.1.1-.2.1-.3.1-.1.2-.2.4-.3.2-.1.4-.1.6-.1h1.1c.2 0 .3 0 .5.1s.3.2.4.3c.1.1.2.3.3.4.1.2.1.3.1.5v5.5h-1.6v-5.5c0-.1 0-.1-.1-.1h-.7c-.1 0-.3 0-.4.1-.1.1-.2.2-.2.4v5.1h-1.3v-5.1c0-.2-.1-.3-.2-.4-.1-.1-.3-.1-.4-.1h-.8c-.1 0-.1 0-.1.1v5.5h-1.6v-5.5z"/><path d="M306.6 425.9h1.5v1.6h1v1.3h-1v5.7s0 .1-.1.1h-1.4s-.1 0-.1-.1v-5.7h-1v-1.3h1v-1.6z"/><path d="M311.4 427.6h2v1.1h-1.8v5.6h-1.4v-5.5c0-.2 0-.4.1-.5.1-.2.2-.3.3-.4.1-.1.3-.2.4-.3h.4z"/><path d="M317.5 430.6v-1.8H316v.8s0 .1-.1.1h-1.3v-.8c0-.2 0-.3.1-.5s.2-.3.3-.4c.1-.1.2-.2.4-.3.2-.1.3-.1.5-.1h1.9c.2 0 .3 0 .5.1s.3.2.4.3c.1.1.2.3.3.4.1.2.1.3.1.5v5.6h-3.3c-.2 0-.3 0-.5-.1s-.3-.2-.4-.3c-.1-.1-.2-.3-.3-.4-.1-.2-.1-.3-.1-.5v-1.3c0-.2 0-.3.1-.5s.2-.3.3-.4c.1-.1.2-.2.4-.3.2-.1.3-.1.5-.1h1.7zm0 1h-1.7v1.8h1.7v-1.8z"/><path d="M323.5 427.6c.4 0 .7.1.9.4.2.3.4.6.4.9v1h-1.4v-1.1H322v4.4h1.4V432s0-.1.1-.1h1.3v1.3c0 .4-.1.7-.4.9-.2.3-.5.4-.9.4h-1.8c-.4 0-.7-.1-.9-.4-.3-.3-.4-.6-.4-.9v-4.3c0-.2 0-.3.1-.5s.2-.3.3-.4c.1-.1.3-.2.4-.3.2-.1.3-.1.5-.1h1.8z"/><path d="M326.8 425.9h1.5v1.6h1v1.3h-1v5.7s0 .1-.1.1h-1.4s-.1 0-.1-.1v-5.7h-1v-1.3h1v-1.6z"/><path d="M333.2 430.6v-1.8h-1.5v.8s0 .1-.1.1h-1.3v-.8c0-.2 0-.3.1-.5s.2-.3.3-.4c.1-.1.2-.2.4-.3.2-.1.3-.1.5-.1h1.9c.2 0 .3 0 .5.1s.3.2.4.3c.1.1.2.3.3.4.1.2.1.3.1.5v5.6h-3.3c-.2 0-.3 0-.5-.1s-.3-.2-.4-.3c-.1-.1-.2-.3-.3-.4-.1-.2-.1-.3-.1-.5v-1.3c0-.2 0-.3.1-.5s.2-.3.3-.4c.1-.1.2-.2.4-.3.2-.1.3-.1.5-.1h1.7zm0 1h-1.7v1.8h1.7v-1.8z"/><path d="M339.9 430.3c.1 0 .1 0 0 0l.1.9v.1h-4v-.9h3.9z"/><path d="M65.8 442.7h1.5v1.6h1v1.3h-1v5.7s0 .1-.1.1h-1.4s-.1 0-.1-.1v-5.7h-1v-1.3h1v-1.6z"/><path d="M72.4 444.4c.4 0 .7.1.9.4.2.3.4.6.4.9v4.3c0 .4-.1.7-.4.9s-.6.4-.9.4h-2c-.4 0-.7-.1-.9-.4-.2-.3-.4-.6-.4-.9v-4.3c0-.4.1-.7.4-.9.2-.3.5-.4.9-.4h2zm-.2 1.2s0-.1 0 0h-1.6v4.5l.1.1h1.5v-4.6z"/><path d="M76.8 446.6c.4.2.9.4 1.2.6.3.2.6.3.9.4s.4.2.5.2c.3.2.4.4.4.7v1.5c0 .2 0 .3-.1.5s-.2.3-.3.4c-.1.1-.3.2-.4.3-.2.1-.3.1-.5.1h-2c-.2 0-.3 0-.5-.1s-.3-.2-.4-.3c-.1-.1-.2-.3-.3-.4-.1-.2-.1-.3-.1-.5v-1h1.4v1.1h1.6v-1.3c-.5-.3-1-.5-1.4-.7-.2-.1-.3-.2-.5-.3-.2-.1-.3-.2-.4-.2-.1-.1-.2-.1-.3-.2l-.1-.1c-.1 0-.1-.1-.1-.1v-1.9c0-.3.1-.6.2-.8.2-.2.4-.3.8-.3h2.3c.3 0 .6.1.8.3.2.2.3.5.3.8v.8h-1.4v-.8h-1.5v1l-.1.3c-.1-.1-.1 0 0 0z"/><path d="M87.5 444.4c.4 0 .7.1.9.4.2.3.4.6.4.9v1h-1.4v-1.1H86v4.4h1.4v-1.2s0-.1.1-.1h1.3v1.3c0 .4-.1.7-.4.9-.2.3-.5.4-.9.4h-1.8c-.4 0-.7-.1-.9-.4-.3-.3-.4-.6-.4-.9v-4.3c0-.2 0-.3.1-.5s.2-.3.3-.4c.1-.1.3-.2.4-.3.2-.1.3-.1.5-.1h1.8z"/><path d="M91.5 451.3c-.2 0-.3 0-.5-.1s-.3-.2-.4-.3c-.1-.1-.2-.3-.3-.4s-.1-.3-.1-.5v-5.5h1.4v5.6h1.7v-5.6h1.4v5.5c0 .2 0 .4-.1.5s-.2.3-.3.4c-.1.1-.3.2-.4.3-.2.1-.3.1-.5.1h-1.9z"/><path d="M102.9 444.4c.2 0 .3 0 .5.1s.3.2.4.3c.1.1.2.3.3.4.1.2.1.3.1.5v2.6h-3.1v1.8h1.6v-.9s0-.1.1-.1h1.3v.8c0 .2 0 .4-.1.5-.1.2-.2.3-.3.4-.1.1-.2.2-.4.3-.2.1-.3.1-.5.1h-2c-.4 0-.7-.1-.9-.4-.3-.3-.4-.6-.4-.9v-4.3c0-.2 0-.3.1-.5s.2-.3.3-.4c.1-.1.3-.2.4-.3.2-.1.3-.1.5-.1h2.1zm-1.8 3h1.7v-1.9h-1.6v1.9z"/><path d="M108.7 447.4v-1.8h-1.5v.8s0 .1-.1.1h-1.3v-.8c0-.2 0-.3.1-.5s.2-.3.3-.4c.1-.1.2-.2.4-.3.2-.1.3-.1.5-.1h1.9c.2 0 .3 0 .5.1s.3.2.4.3c.1.1.2.3.3.4.1.2.1.3.1.5v5.6H107c-.2 0-.3 0-.5-.1s-.3-.2-.4-.3c-.1-.1-.2-.3-.3-.4-.1-.2-.1-.3-.1-.5v-1.3c0-.2 0-.3.1-.5s.2-.3.3-.4c.1-.1.2-.2.4-.3.2-.1.3-.1.5-.1h1.7zm0 1H107v1.8h1.7v-1.8z"/><path d="M111.7 445.7c0-.4.1-.7.4-.9.2-.3.6-.4.9-.4h1.1c.2 0 .4 0 .5.1.1.1.3.2.3.3s.2.2.2.3c0 .1.1.2.1.3v-.3c0-.1.1-.2.1-.3.1-.1.2-.2.4-.3.2-.1.4-.1.6-.1h1.1c.2 0 .3 0 .5.1s.3.2.4.3c.1.1.2.3.3.4.1.2.1.3.1.5v5.5h-1.6v-5.5c0-.1 0-.1-.1-.1h-.7c-.1 0-.3 0-.4.1-.1.1-.2.2-.2.4v5.1h-1.3v-5.1c0-.2-.1-.3-.2-.4-.1-.1-.3-.1-.4-.1h-.8c-.1 0-.1 0-.1.1v5.5h-1.6v-5.5z"/><path d="M121.5 449.8l.1 2.7s0 .1-.1.1l-.9-1.2h-.8s-.1 0-.1-.1v-1.4h1.8z"/><path d="M127.3 441.1c.1 0 .1 0 0 0l.1 3.3h1.9c.2 0 .3 0 .5.1s.3.2.4.3c.1.1.2.3.3.4.1.2.1.3.1.5v5.5h-1.4v-5.6h-1.7v5.6H126v-10.1h1.3z"/><path d="M135.2 447.4v-1.8h-1.5v.8s0 .1-.1.1h-1.3v-.8c0-.2 0-.3.1-.5s.2-.3.3-.4c.1-.1.2-.2.4-.3.2-.1.3-.1.5-.1h1.9c.2 0 .3 0 .5.1s.3.2.4.3c.1.1.2.3.3.4.1.2.1.3.1.5v5.6h-3.3c-.2 0-.3 0-.5-.1s-.3-.2-.4-.3c-.1-.1-.2-.3-.3-.4-.1-.2-.1-.3-.1-.5v-1.3c0-.2 0-.3.1-.5s.2-.3.3-.4c.1-.1.2-.2.4-.3.2-.1.3-.1.5-.1h1.7zm0 1h-1.7v1.8h1.7v-1.8z"/><path d="M139.8 446.6c.4.2.9.4 1.2.6.3.2.6.3.9.4s.4.2.5.2c.3.2.4.4.4.7v1.5c0 .2 0 .3-.1.5s-.2.3-.3.4c-.1.1-.3.2-.4.3-.2.1-.3.1-.5.1h-2c-.2 0-.3 0-.5-.1s-.3-.2-.4-.3c-.1-.1-.2-.3-.3-.4-.1-.2-.1-.3-.1-.5v-1h1.4v1.1h1.6v-1.3c-.5-.3-1-.5-1.4-.7-.2-.1-.3-.2-.5-.3-.2-.1-.3-.2-.4-.2-.1-.1-.2-.1-.3-.2l-.1-.1c-.1 0-.1-.1-.1-.1v-1.9c0-.3.1-.6.2-.8.2-.2.4-.3.8-.3h2.3c.3 0 .6.1.8.3.2.2.3.5.3.8v.8h-1.4v-.8h-1.5v1l-.1.3c-.1-.1-.1 0 0 0z"/><path d="M150.8 444.4c.2 0 .3 0 .5.1s.3.2.4.3c.1.1.2.3.3.4.1.2.1.3.1.5v5.5h-1.4v-5.6H149v5.6h-1.4v-5.5c0-.2 0-.4.1-.5.1-.2.2-.3.3-.4.1-.1.3-.2.4-.3.2-.1.3-.1.5-.1h1.9z"/><path d="M156.8 444.4c.4 0 .7.1.9.4.2.3.4.6.4.9v4.3c0 .4-.1.7-.4.9s-.6.4-.9.4h-2c-.4 0-.7-.1-.9-.4-.2-.3-.4-.6-.4-.9v-4.3c0-.4.1-.7.4-.9.2-.3.5-.4.9-.4h2zm-.1 1.2s-.1-.1 0 0h-1.6v4.5l.1.1h1.5v-4.6z"/><path d="M162.9 445.7c0-.4.1-.7.4-.9.2-.3.6-.4.9-.4h1.1c.2 0 .4 0 .5.1.1.1.3.2.3.3s.2.2.2.3c0 .1.1.2.1.3v-.3c0-.1.1-.2.1-.3.1-.1.2-.2.4-.3.2-.1.4-.1.6-.1h1.1c.2 0 .3 0 .5.1s.3.2.4.3c.1.1.2.3.3.4.1.2.1.3.1.5v5.5h-1.6v-5.5c0-.1 0-.1-.1-.1h-.7c-.1 0-.3 0-.4.1-.1.1-.2.2-.2.4v5.1h-1.3v-5.1c0-.2-.1-.3-.2-.4-.1-.1-.3-.1-.4-.1h-.8c-.1 0-.1 0-.1.1v5.5h-1.6v-5.5z"/><path d="M174.7 444.4c.4 0 .7.1.9.4.2.3.4.6.4.9v4.3c0 .4-.1.7-.4.9s-.6.4-.9.4h-2c-.4 0-.7-.1-.9-.4-.2-.3-.4-.6-.4-.9v-4.3c0-.4.1-.7.4-.9.2-.3.5-.4.9-.4h2zm-.2 1.2s0-.1 0 0h-1.6v4.5l.1.1h1.5v-4.6z"/><path d="M177.5 444.4h1.4v4.6c0 .1 0 .1.1.2s.2.2.2.3l.3.3c.1.1.1.1.2.1s.1 0 .2-.1l.3-.3c.1-.1.2-.2.2-.3.1-.1.1-.2.1-.2v-4.5h1.4v5c0 .1-.1.3-.3.5s-.3.4-.5.7c-.2.2-.4.4-.7.6-.2.2-.5.3-.7.3s-.4-.1-.7-.3c-.2-.2-.5-.4-.7-.6-.2-.2-.4-.4-.6-.7-.2-.2-.3-.4-.3-.5v-5.1z"/><path d="M186.7 444.4c.2 0 .3 0 .5.1s.3.2.4.3c.1.1.2.3.3.4.1.2.1.3.1.5v2.6h-3.1v1.8h1.6v-.9s0-.1.1-.1h1.3v.8c0 .2 0 .4-.1.5-.1.2-.2.3-.3.4-.1.1-.2.2-.4.3-.2.1-.3.1-.5.1h-2c-.4 0-.7-.1-.9-.4-.3-.3-.4-.6-.4-.9v-4.3c0-.2 0-.3.1-.5s.2-.3.3-.4c.1-.1.3-.2.4-.3.2-.1.3-.1.5-.1h2.1zm-1.8 3h1.7v-1.9H185v1.9z"/><path d="M189.9 442.7h1.5v1.6h1v1.3h-1v5.7s0 .1-.1.1H190s-.1 0-.1-.1v-5.7h-1v-1.3h1v-1.6z"/><path d="M198.3 446.6c.4.2.9.4 1.2.6.3.2.6.3.9.4s.4.2.5.2c.3.2.4.4.4.7v1.5c0 .2 0 .3-.1.5s-.2.3-.3.4c-.1.1-.3.2-.4.3-.2.1-.3.1-.5.1h-2c-.2 0-.3 0-.5-.1s-.3-.2-.4-.3c-.1-.1-.2-.3-.3-.4-.1-.2-.1-.3-.1-.5v-1h1.4v1.1h1.6v-1.3c-.5-.3-1-.5-1.4-.7-.2-.1-.3-.2-.5-.3-.2-.1-.3-.2-.4-.2-.1-.1-.2-.1-.3-.2l-.1-.1c-.1 0-.1-.1-.1-.1v-1.9c0-.3.1-.6.2-.8.2-.2.4-.3.8-.3h2.3c.3 0 .6.1.8.3.2.2.3.5.3.8v.8h-1.4v-.8h-1.5v1l-.1.3c0-.1 0 0 0 0z"/><path d="M206 444.4c.2 0 .3 0 .5.1s.3.2.4.3c.1.1.2.3.3.4.1.2.1.3.1.5v2.6h-3.1v1.8h1.6v-.9s0-.1.1-.1h1.3v.8c0 .2 0 .4-.1.5-.1.2-.2.3-.3.4-.1.1-.2.2-.4.3-.2.1-.3.1-.5.1h-2c-.4 0-.7-.1-.9-.4-.3-.3-.4-.6-.4-.9v-4.3c0-.2 0-.3.1-.5s.2-.3.3-.4c.1-.1.3-.2.4-.3.2-.1.3-.1.5-.1h2.1zm-1.8 3h1.7v-1.9h-1.6v1.9z"/><path d="M212.1 444.4c.2 0 .3 0 .5.1s.3.2.4.3c.1.1.2.3.3.4.1.2.1.3.1.5v5.5H212v-5.6h-1.7v5.6h-1.4v-5.5c0-.2 0-.4.1-.5.1-.2.2-.3.3-.4.1-.1.3-.2.4-.3.2-.1.3-.1.5-.1h1.9z"/><path d="M216.5 446.6c.4.2.9.4 1.2.6.3.2.6.3.9.4s.4.2.5.2c.3.2.4.4.4.7v1.5c0 .2 0 .3-.1.5s-.2.3-.3.4c-.1.1-.3.2-.4.3-.2.1-.3.1-.5.1h-2c-.2 0-.3 0-.5-.1s-.3-.2-.4-.3c-.1-.1-.2-.3-.3-.4-.1-.2-.1-.3-.1-.5v-1h1.4v1.1h1.6v-1.3c-.5-.3-1-.5-1.4-.7-.2-.1-.3-.2-.5-.3-.2-.1-.3-.2-.4-.2-.1-.1-.2-.1-.3-.2l-.1-.1c-.1 0-.1-.1-.1-.1v-1.9c0-.3.1-.6.2-.8.2-.2.4-.3.8-.3h2.3c.3 0 .6.1.8.3.2.2.3.5.3.8v.8H218v-.8h-1.5v1.3c-.1-.1 0 0 0 0z"/><path d="M224.2 444.4c.2 0 .3 0 .5.1s.3.2.4.3c.1.1.2.3.3.4.1.2.1.3.1.5v2.6h-3.1v1.8h1.6v-.9s0-.1.1-.1h1.3v.8c0 .2 0 .4-.1.5-.1.2-.2.3-.3.4-.1.1-.2.2-.4.3-.2.1-.3.1-.5.1h-2c-.4 0-.7-.1-.9-.4-.3-.3-.4-.6-.4-.9v-4.3c0-.2 0-.3.1-.5s.2-.3.3-.4c.1-.1.3-.2.4-.3.2-.1.3-.1.5-.1h2.1zm-1.9 3h1.7v-1.9h-1.6v1.9z"/><path d="M228.2 444.4h2v1.1h-1.8v5.6H227v-5.5c0-.2 0-.4.1-.5.1-.2.2-.3.3-.4.1-.1.3-.2.4-.3h.4z"/><path d="M232.8 441.4s.1.1 0 0l.1 1.4s0 .1-.1.1h-1.4s-.1 0-.1-.1v-1.4h1.5zm0 3s.1 0 0 0l.1 6.9s0 .1-.1.1h-1.4s-.1 0-.1-.1v-6.8h1.5z"/><path d="M235 442.7h1.5v1.6h1v1.3h-1v5.7s0 .1-.1.1H235s-.1 0-.1-.1v-5.7h-1v-1.3h1v-1.6z"/><path d="M244.8 444.4c.4 0 .7.1.9.4.2.3.4.6.4.9v1h-1.4v-1.1h-1.4v4.4h1.4v-1.2s0-.1.1-.1h1.3v1.3c0 .4-.1.7-.4.9-.2.3-.5.4-.9.4H243c-.4 0-.7-.1-.9-.4-.3-.3-.4-.6-.4-.9v-4.3c0-.2 0-.3.1-.5s.2-.3.3-.4c.1-.1.3-.2.4-.3.2-.1.3-.1.5-.1h1.8z"/><path d="M250.7 444.4c.4 0 .7.1.9.4.2.3.4.6.4.9v4.3c0 .4-.1.7-.4.9s-.6.4-.9.4h-2c-.4 0-.7-.1-.9-.4-.2-.3-.4-.6-.4-.9v-4.3c0-.4.1-.7.4-.9.2-.3.5-.4.9-.4h2zm-.1 1.2s-.1-.1 0 0H249v4.5l.1.1h1.5v-4.6z"/><path d="M256.9 444.4c.2 0 .3 0 .5.1s.3.2.4.3c.1.1.2.3.3.4.1.2.1.3.1.5v5.5h-1.4v-5.6H255v5.6h-1.4v-5.5c0-.2 0-.4.1-.5.1-.2.2-.3.3-.4.1-.1.3-.2.4-.3.2-.1.3-.1.5-.1h2z"/><path d="M259.6 444.4s.1 0 0 0h1.4v4.6c0 .1 0 .1.1.2s.2.2.2.3l.3.3c.1.1.1.1.2.1s.1 0 .2-.1l.3-.3c.1-.1.2-.2.2-.3.1-.1.1-.2.1-.2v-4.5h1.4v5c0 .1-.1.3-.3.5s-.3.4-.5.7c-.2.2-.4.4-.7.6-.2.2-.5.3-.7.3s-.4-.1-.7-.3c-.2-.2-.5-.4-.7-.6-.2-.2-.4-.4-.6-.7-.2-.2-.3-.4-.3-.5v-5.1z"/><path d="M268.9 444.4c.2 0 .3 0 .5.1s.3.2.4.3c.1.1.2.3.3.4.1.2.1.3.1.5v2.6h-3.1v1.8h1.6v-.9s0-.1.1-.1h1.3v.8c0 .2 0 .4-.1.5-.1.2-.2.3-.3.4-.1.1-.2.2-.4.3-.2.1-.3.1-.5.1h-2c-.4 0-.7-.1-.9-.4-.3-.3-.4-.6-.4-.9v-4.3c0-.2 0-.3.1-.5s.2-.3.3-.4c.1-.1.3-.2.4-.3.2-.1.3-.1.5-.1h2.1zm-1.9 3h1.7v-1.9h-1.6v1.9z"/><path d="M274.9 444.4c.2 0 .3 0 .5.1s.3.2.4.3c.1.1.2.3.3.4.1.2.1.3.1.5v5.5h-1.4v-5.6h-1.7v5.6h-1.4v-5.5c0-.2 0-.4.1-.5.1-.2.2-.3.3-.4.1-.1.3-.2.4-.3.2-.1.3-.1.5-.1h1.9z"/><path d="M279.2 441.4c.1 0 .1.1 0 0l.1 1.4s0 .1-.1.1h-1.4s-.1 0-.1-.1v-1.4h1.5zm0 3c.1 0 .1 0 0 0l.1 6.9s0 .1-.1.1h-1.4s-.1 0-.1-.1v-6.8h1.5z"/><path d="M282.1 444.4h2v1.1h-1.8v5.6h-1.4v-5.5c0-.2 0-.4.1-.5.1-.2.2-.3.3-.4.1-.1.3-.2.4-.3h.4z"/><path d="M288.6 444.4c.2 0 .3 0 .5.1s.3.2.4.3c.1.1.2.3.3.4.1.2.1.3.1.5v2.6h-3.1v1.8h1.6v-.9s0-.1.1-.1h1.3v.8c0 .2 0 .4-.1.5-.1.2-.2.3-.3.4-.1.1-.2.2-.4.3-.2.1-.3.1-.5.1h-2c-.4 0-.7-.1-.9-.4-.3-.3-.4-.6-.4-.9v-4.3c0-.2 0-.3.1-.5s.2-.3.3-.4c.1-.1.3-.2.4-.3.2-.1.3-.1.5-.1h2.1zm-1.9 3h1.7v-1.9h-1.6v1.9z"/><path d="M292.4 449.9l.1 1.4s0 .1-.1.1h-1.6s-.1 0-.1-.1V450h1.7z"/><path d="M300 441.4c.4 0 .7.1.9.4s.4.6.4.9v2h-1.5v-2.1h-1.3v7.3h1.3v-2.6s0-.1.1-.1h1.4v2.6c0 .4-.1.7-.4.9s-.5.4-.9.4h-1.8c-.2 0-.4 0-.5-.1-.2-.1-.3-.2-.4-.3-.1-.1-.2-.3-.3-.4-.1-.2-.1-.3-.1-.5v-7.2c0-.2 0-.3.1-.5s.2-.3.3-.4c.1-.1.3-.2.4-.3.2-.1.3-.1.5-.1h1.8v.1z"/><path d="M304.1 451.3c-.2 0-.3 0-.5-.1s-.3-.2-.4-.3c-.1-.1-.2-.3-.3-.4s-.1-.3-.1-.5v-5.5h1.4v5.6h1.7v-5.6h1.4v5.5c0 .2 0 .4-.1.5s-.2.3-.3.4c-.1.1-.3.2-.4.3-.2.1-.3.1-.5.1h-1.9z"/><path d="M315.4 447.4v-1.8h-1.5v.8s0 .1-.1.1h-1.3v-.8c0-.2 0-.3.1-.5s.2-.3.3-.4c.1-.1.2-.2.4-.3.2-.1.3-.1.5-.1h1.9c.2 0 .3 0 .5.1s.3.2.4.3c.1.1.2.3.3.4.1.2.1.3.1.5v5.6h-3.3c-.2 0-.3 0-.5-.1s-.3-.2-.4-.3c-.1-.1-.2-.3-.3-.4-.1-.2-.1-.3-.1-.5v-1.3c0-.2 0-.3.1-.5s.2-.3.3-.4c.1-.1.2-.2.4-.3.2-.1.3-.1.5-.1h1.7zm0 1h-1.7v1.8h1.7v-1.8z"/><path d="M321.6 444.4c.2 0 .3 0 .5.1s.3.2.4.3c.1.1.2.3.3.4.1.2.1.3.1.5v2.6h-3.1v1.8h1.6v-.9s0-.1.1-.1h1.3v.8c0 .2 0 .4-.1.5-.1.2-.2.3-.3.4-.1.1-.2.2-.4.3-.2.1-.3.1-.5.1h-2c-.4 0-.7-.1-.9-.4-.3-.3-.4-.6-.4-.9v-4.3c0-.2 0-.3.1-.5s.2-.3.3-.4c.1-.1.3-.2.4-.3.2-.1.3-.1.5-.1h2.1zm-1.8 3h1.7v-1.9h-1.6v1.9z"/><path d="M324.9 442.7h1.5v1.6h1v1.3h-1v5.7s0 .1-.1.1h-1.4s-.1 0-.1-.1v-5.7h-1v-1.3h1v-1.6z"/><path d="M331.7 444.4c.2 0 .3 0 .5.1s.3.2.4.3c.1.1.2.3.3.4.1.2.1.3.1.5v2.6h-3.1v1.8h1.6v-.9s0-.1.1-.1h1.3v.8c0 .2 0 .4-.1.5-.1.2-.2.3-.3.4-.1.1-.2.2-.4.3-.2.1-.3.1-.5.1h-2c-.4 0-.7-.1-.9-.4-.3-.3-.4-.6-.4-.9v-4.3c0-.2 0-.3.1-.5s.2-.3.3-.4c.1-.1.3-.2.4-.3.2-.1.3-.1.5-.1h2.1zm-1.8 3h1.7v-1.9H330v1.9z"/><path d="M335.7 444.4h2v1.1h-1.8v5.6h-1.4v-5.5c0-.2 0-.4.1-.5.1-.2.2-.3.3-.4.1-.1.3-.2.4-.3h.4z"/><path d="M342.5 447.1c.1 0 .1 0 0 0l.1.9v.1h-4v-.9h3.9z"/><path d="M71.4 461.2c.2 0 .3 0 .5.1s.3.2.4.3c.1.1.2.3.3.4.1.2.1.3.1.5v5.5h-1.4v-5.6h-1.7v5.6H68v-5.5c0-.2 0-.4.1-.5.1-.2.2-.3.3-.4.1-.1.3-.2.4-.3.2-.1.3-.1.5-.1h2.1z"/><path d="M77.4 461.2c.4 0 .7.1.9.4.2.3.4.6.4.9v4.3c0 .4-.1.7-.4.9s-.6.4-.9.4h-2c-.4 0-.7-.1-.9-.4-.2-.3-.4-.6-.4-.9v-4.3c0-.4.1-.7.4-.9.2-.3.5-.4.9-.4h2zm-.2 1.2s0-.1 0 0h-1.6v4.5l.1.1h1.5v-4.6z"/><path d="M86.8 461.2c.4 0 .7.1.9.4.2.3.4.6.4.9v4.3c0 .4-.1.7-.4.9s-.6.4-.9.4h-1.9v2.7h-1.6v-9.6h3.5zm-.1 1.3c0-.1-.1-.1 0 0l-1.7-.1h-.1v4.4h1.7v-4.3z"/><path d="M92.9 461.2c.2 0 .3 0 .5.1s.3.2.4.3c.1.1.2.3.3.4.1.2.1.3.1.5v2.6h-3.1v1.8h1.6v-.9s0-.1.1-.1h1.3v.8c0 .2 0 .4-.1.5-.1.2-.2.3-.3.4-.1.1-.2.2-.4.3-.2.1-.3.1-.5.1h-2c-.4 0-.7-.1-.9-.4-.3-.3-.4-.6-.4-.9v-4.3c0-.2 0-.3.1-.5s.2-.3.3-.4c.1-.1.3-.2.4-.3.2-.1.3-.1.5-.1h2.1zm-1.8 3h1.7v-1.9h-1.6v1.9z"/><path d="M96.9 461.2h2v1.1h-1.8v5.6h-1.4v-5.5c0-.2 0-.4.1-.5.1-.2.2-.3.3-.4.1-.1.3-.2.4-.3h.4z"/><path d="M101.6 463.4c.4.2.9.4 1.2.6.3.2.6.3.9.4s.4.2.5.2c.3.2.4.4.4.7v1.5c0 .2 0 .3-.1.5s-.2.3-.3.4c-.1.1-.3.2-.4.3-.2.1-.3.1-.5.1h-2c-.2 0-.3 0-.5-.1s-.3-.2-.4-.3c-.1-.1-.2-.3-.3-.4-.1-.2-.1-.3-.1-.5v-1h1.4v1.1h1.6v-1.3c-.5-.3-1-.5-1.4-.7-.2-.1-.3-.2-.5-.3-.2-.1-.3-.2-.4-.2-.1-.1-.2-.1-.3-.2l-.1-.1c-.1 0-.1-.1-.1-.1v-1.9c0-.3.1-.6.2-.8.2-.2.4-.3.8-.3h2.3c.3 0 .6.1.8.3.2.2.3.5.3.8v.8H103v-.8h-1.5v1l.1.3c-.1-.1-.1 0 0 0z"/><path d="M107.5 458.2s0 .1 0 0l.1 1.4s0 .1-.1.1h-1.4s-.1 0-.1-.1v-1.4h1.5zm0 3l.1 6.9s0 .1-.1.1h-1.4s-.1 0-.1-.1v-6.8h1.5z"/><path d="M110.4 468.1c-.2 0-.3 0-.5-.1s-.3-.2-.4-.3c-.1-.1-.2-.3-.3-.4s-.1-.3-.1-.5v-5.5h1.4v5.6h1.7v-5.6h1.4v5.5c0 .2 0 .4-.1.5s-.2.3-.3.4c-.1.1-.3.2-.4.3-.2.1-.3.1-.5.1h-1.9z"/><path d="M116.8 463.4c.4.2.9.4 1.2.6.3.2.6.3.9.4s.4.2.5.2c.3.2.4.4.4.7v1.5c0 .2 0 .3-.1.5s-.2.3-.3.4c-.1.1-.3.2-.4.3-.2.1-.3.1-.5.1h-2c-.2 0-.3 0-.5-.1s-.3-.2-.4-.3c-.1-.1-.2-.3-.3-.4-.1-.2-.1-.3-.1-.5v-1h1.4v1.1h1.6v-1.3c-.5-.3-1-.5-1.4-.7-.2-.1-.3-.2-.5-.3-.2-.1-.3-.2-.4-.2-.1-.1-.2-.1-.3-.2l-.1-.1c-.1 0-.1-.1-.1-.1v-1.9c0-.3.1-.6.2-.8.2-.2.4-.3.8-.3h2.3c.3 0 .6.1.8.3.2.2.3.5.3.8v.8h-1.4v-.8h-1.5v1l-.1.3c0-.1 0 0 0 0z"/><path d="M126.1 458.2s0 .1 0 0l.1 1.4s0 .1-.1.1h-1.4s-.1 0-.1-.1v-1.4h1.5zm0 3l.1 6.9s0 .1-.1.1h-1.4s-.1 0-.1-.1v-6.8h1.5z"/><path d="M131 461.2c.2 0 .3 0 .5.1s.3.2.4.3c.1.1.2.3.3.4.1.2.1.3.1.5v5.5h-1.4v-5.6h-1.7v5.6h-1.4v-5.5c0-.2 0-.4.1-.5.1-.2.2-.3.3-.4.1-.1.3-.2.4-.3.2-.1.3-.1.5-.1h1.9z"/><path d="M133.8 461.2h1.4v4.6c0 .1 0 .1.1.2s.2.2.2.3l.3.3c.1.1.1.1.2.1s.1 0 .2-.1l.3-.3c.1-.1.2-.2.2-.3.1-.1.1-.2.1-.2v-4.5h1.4v5c0 .1-.1.3-.3.5s-.3.4-.5.7c-.2.2-.4.4-.7.6-.2.2-.5.3-.7.3s-.4-.1-.7-.3c-.2-.2-.5-.4-.7-.6-.2-.2-.4-.4-.6-.7-.2-.2-.3-.4-.3-.5v-5.1z"/><path d="M143 461.2c.2 0 .3 0 .5.1s.3.2.4.3c.1.1.2.3.3.4.1.2.1.3.1.5v2.6h-3.1v1.8h1.6v-.9s0-.1.1-.1h1.3v.8c0 .2 0 .4-.1.5-.1.2-.2.3-.3.4-.1.1-.2.2-.4.3-.2.1-.3.1-.5.1h-2c-.4 0-.7-.1-.9-.4-.3-.3-.4-.6-.4-.9v-4.3c0-.2 0-.3.1-.5s.2-.3.3-.4c.1-.1.3-.2.4-.3.2-.1.3-.1.5-.1h2.1zm-1.8 3h1.7v-1.9h-1.6v1.9z"/><path d="M149.1 461.2c.2 0 .3 0 .5.1s.3.2.4.3c.1.1.2.3.3.4.1.2.1.3.1.5v5.5H149v-5.6h-1.7v5.6h-1.4v-5.5c0-.2 0-.4.1-.5.1-.2.2-.3.3-.4.1-.1.3-.2.4-.3.2-.1.3-.1.5-.1h1.9z"/><path d="M153.4 458.2s0 .1 0 0l.1 1.4s0 .1-.1.1H152s-.1 0-.1-.1v-1.4h1.5zm0 3l.1 6.9s0 .1-.1.1H152s-.1 0-.1-.1v-6.8h1.5z"/><path d="M156.3 461.2h2v1.1h-1.8v5.6H155v-5.5c0-.2 0-.4.1-.5.1-.2.2-.3.3-.4.1-.1.3-.2.4-.3h.5z"/><path d="M162.7 461.2c.2 0 .3 0 .5.1s.3.2.4.3c.1.1.2.3.3.4.1.2.1.3.1.5v2.6h-3.1v1.8h1.6v-.9s0-.1.1-.1h1.3v.8c0 .2 0 .4-.1.5-.1.2-.2.3-.3.4-.1.1-.2.2-.4.3-.2.1-.3.1-.5.1h-2c-.4 0-.7-.1-.9-.4-.3-.3-.4-.6-.4-.9v-4.3c0-.2 0-.3.1-.5s.2-.3.3-.4c.1-.1.3-.2.4-.3.2-.1.3-.1.5-.1h2.1zm-1.8 3h1.7v-1.9H161v1.9z"/><path d="M170.2 458.2s0 .1 0 0l.1 1.4s0 .1-.1.1h-1.4s-.1 0-.1-.1v-1.4h1.5zm0 3l.1 6.9s0 .1-.1.1h-1.4s-.1 0-.1-.1v-6.8h1.5z"/><path d="M173.1 468.1c-.2 0-.3 0-.5-.1s-.3-.2-.4-.3c-.1-.1-.2-.3-.3-.4s-.1-.3-.1-.5v-5.5h1.4v5.6h1.7v-5.6h1.4v5.5c0 .2 0 .4-.1.5s-.2.3-.3.4c-.1.1-.3.2-.4.3-.2.1-.3.1-.5.1h-1.9z"/><path d="M179.5 463.4c.4.2.9.4 1.2.6.3.2.6.3.9.4s.4.2.5.2c.3.2.4.4.4.7v1.5c0 .2 0 .3-.1.5s-.2.3-.3.4c-.1.1-.3.2-.4.3-.2.1-.3.1-.5.1h-2c-.2 0-.3 0-.5-.1s-.3-.2-.4-.3c-.1-.1-.2-.3-.3-.4-.1-.2-.1-.3-.1-.5v-1h1.4v1.1h1.6v-1.3c-.5-.3-1-.5-1.4-.7-.2-.1-.3-.2-.5-.3-.2-.1-.3-.2-.4-.2-.1-.1-.2-.1-.3-.2l-.1-.1c-.1 0-.1-.1-.1-.1v-1.9c0-.3.1-.6.2-.8.2-.2.4-.3.8-.3h2.3c.3 0 .6.1.8.3.2.2.3.5.3.8v.8H181v-.8h-1.5v1.3c0-.1 0 0 0 0z"/><path d="M185.2 466.6l.1 2.7s0 .1-.1.1l-.9-1.2h-.8s-.1 0-.1-.1v-1.4h1.8z"/><path d="M192.8 470.9l-.1-2.8h-1.9c-.4 0-.7-.1-.9-.4-.2-.3-.4-.6-.4-.9v-4.3c0-.4.1-.7.4-.9s.6-.4.9-.4h2.1c.4 0 .7.1.9.4.2.3.4.6.4.9v8.3h-1.4zm-1.8-4h1.8v-4.4h-1.7v4.4z"/><path d="M197 468.1c-.2 0-.3 0-.5-.1s-.3-.2-.4-.3c-.1-.1-.2-.3-.3-.4s-.1-.3-.1-.5v-5.5h1.4v5.6h1.7v-5.6h1.4v5.5c0 .2 0 .4-.1.5s-.2.3-.3.4c-.1.1-.3.2-.4.3-.2.1-.3.1-.5.1H197z"/><path d="M205 464.2v-1.8h-1.5v.8s0 .1-.1.1H202v-.8c0-.2 0-.3.1-.5s.2-.3.3-.4c.1-.1.2-.2.4-.3.2-.1.3-.1.5-.1h1.9c.2 0 .3 0 .5.1s.3.2.4.3c.1.1.2.3.3.4.1.2.1.3.1.5v5.6h-3.3c-.2 0-.3 0-.5-.1s-.3-.2-.4-.3c-.1-.1-.2-.3-.3-.4-.1-.2-.1-.3-.1-.5v-1.3c0-.2 0-.3.1-.5s.2-.3.3-.4c.1-.1.2-.2.4-.3.2-.1.3-.1.5-.1h1.8zm0 1h-1.7v1.8h1.7v-1.8z"/><path d="M211.2 461.2c.2 0 .3 0 .5.1s.3.2.4.3c.1.1.2.3.3.4.1.2.1.3.1.5v2.6h-3.1v1.8h1.6v-.9s0-.1.1-.1h1.3v.8c0 .2 0 .4-.1.5-.1.2-.2.3-.3.4-.1.1-.2.2-.4.3-.2.1-.3.1-.5.1h-2c-.4 0-.7-.1-.9-.4-.3-.3-.4-.6-.4-.9v-4.3c0-.2 0-.3.1-.5s.2-.3.3-.4c.1-.1.3-.2.4-.3.2-.1.3-.1.5-.1h2.1zm-1.8 3h1.7v-1.9h-1.6v1.9z"/><path d="M215.5 463.4c.4.2.9.4 1.2.6.3.2.6.3.9.4s.4.2.5.2c.3.2.4.4.4.7v1.5c0 .2 0 .3-.1.5s-.2.3-.3.4c-.1.1-.3.2-.4.3-.2.1-.3.1-.5.1h-2c-.2 0-.3 0-.5-.1s-.3-.2-.4-.3c-.1-.1-.2-.3-.3-.4-.1-.2-.1-.3-.1-.5v-1h1.4v1.1h1.6v-1.3c-.5-.3-1-.5-1.4-.7-.2-.1-.3-.2-.5-.3-.2-.1-.3-.2-.4-.2-.1-.1-.2-.1-.3-.2l-.1-.1c-.1 0-.1-.1-.1-.1v-1.9c0-.3.1-.6.2-.8.2-.2.4-.3.8-.3h2.3c.3 0 .6.1.8.3.2.2.3.5.3.8v.8H217v-.8h-1.5v1.3c0-.1 0 0 0 0z"/><path d="M220.5 459.5h1.5v1.6h1v1.3h-1v5.7s0 .1-.1.1h-1.4s-.1 0-.1-.1v-5.7h-1v-1.3h1v-1.6z"/><path d="M225.5 458.2s.1.1 0 0l.1 1.4s0 .1-.1.1h-1.4s-.1 0-.1-.1v-1.4h1.5zm0 3s.1 0 0 0l.1 6.9s0 .1-.1.1h-1.4s-.1 0-.1-.1v-6.8h1.5z"/><path d="M230.3 461.2c.4 0 .7.1.9.4.2.3.4.6.4.9v4.3c0 .4-.1.7-.4.9s-.6.4-.9.4h-2c-.4 0-.7-.1-.9-.4-.2-.3-.4-.6-.4-.9v-4.3c0-.4.1-.7.4-.9.2-.3.5-.4.9-.4h2zm-.2 1.2s0-.1 0 0h-1.6v4.5l.1.1h1.5v-4.6z"/><path d="M237.9 458.2s0 .1 0 0l.1 1.4s0 .1-.1.1h-1.4s-.1 0-.1-.1v-1.4h1.5zm0 3l.1 6.9s0 .1-.1.1h-1.4s-.1 0-.1-.1v-6.8h1.5z"/><path d="M242.8 461.2c.2 0 .3 0 .5.1s.3.2.4.3c.1.1.2.3.3.4.1.2.1.3.1.5v5.5h-1.4v-5.6H241v5.6h-1.4v-5.5c0-.2 0-.4.1-.5.1-.2.2-.3.3-.4.1-.1.3-.2.4-.3.2-.1.3-.1.5-.1h1.9z"/><path d="M247.2 463.4c.4.2.9.4 1.2.6.3.2.6.3.9.4s.4.2.5.2c.3.2.4.4.4.7v1.5c0 .2 0 .3-.1.5s-.2.3-.3.4c-.1.1-.3.2-.4.3-.2.1-.3.1-.5.1h-2c-.2 0-.3 0-.5-.1s-.3-.2-.4-.3c-.1-.1-.2-.3-.3-.4-.1-.2-.1-.3-.1-.5v-1h1.4v1.1h1.6v-1.3c-.5-.3-1-.5-1.4-.7-.2-.1-.3-.2-.5-.3-.2-.1-.3-.2-.4-.2-.1-.1-.2-.1-.3-.2l-.1-.1c-.1 0-.1-.1-.1-.1v-1.9c0-.3.1-.6.2-.8.2-.2.4-.3.8-.3h2.3c.3 0 .6.1.8.3.2.2.3.5.3.8v.8h-1.4v-.8h-1.5v1l-.1.3c0-.1 0 0 0 0z"/><path d="M252.2 459.5h1.5v1.6h1v1.3h-1v5.7s0 .1-.1.1h-1.4s-.1 0-.1-.1v-5.7h-1v-1.3h1v-1.6z"/><path d="M257 461.2h2v1.1h-1.8v5.6h-1.4v-5.5c0-.2 0-.4.1-.5.1-.2.2-.3.3-.4.1-.1.3-.2.4-.3h.4z"/><path d="M261.4 468.1c-.2 0-.3 0-.5-.1s-.3-.2-.4-.3c-.1-.1-.2-.3-.3-.4s-.1-.3-.1-.5v-5.5h1.4v5.6h1.7v-5.6h1.4v5.5c0 .2 0 .4-.1.5s-.2.3-.3.4c-.1.1-.3.2-.4.3-.2.1-.3.1-.5.1h-1.9z"/><path d="M269.3 461.2c.4 0 .7.1.9.4.2.3.4.6.4.9v1h-1.4v-1.1h-1.4v4.4h1.4v-1.2s0-.1.1-.1h1.3v1.3c0 .4-.1.7-.4.9-.2.3-.5.4-.9.4h-1.8c-.4 0-.7-.1-.9-.4-.3-.3-.4-.6-.4-.9v-4.3c0-.2 0-.3.1-.5s.2-.3.3-.4c.1-.1.3-.2.4-.3.2-.1.3-.1.5-.1h1.8z"/><path d="M272.6 459.5h1.5v1.6h1v1.3h-1v5.7s0 .1-.1.1h-1.4s-.1 0-.1-.1v-5.7h-1v-1.3h1v-1.6z"/><path d="M277.6 458.2s.1.1 0 0l.1 1.4s0 .1-.1.1h-1.4s-.1 0-.1-.1v-1.4h1.5zm0 3s.1 0 0 0l.1 6.9s0 .1-.1.1h-1.4s-.1 0-.1-.1v-6.8h1.5z"/><path d="M282.4 461.2c.4 0 .7.1.9.4.2.3.4.6.4.9v4.3c0 .4-.1.7-.4.9s-.6.4-.9.4h-2c-.4 0-.7-.1-.9-.4-.2-.3-.4-.6-.4-.9v-4.3c0-.4.1-.7.4-.9.2-.3.5-.4.9-.4h2zm-.2 1.2s0-.1 0 0h-1.6v4.5l.1.1h1.5v-4.6z"/><path d="M286.5 461.2h2v1.1h-1.8v5.6h-1.4v-5.5c0-.2 0-.4.1-.5.1-.2.2-.3.3-.4.1-.1.3-.2.4-.3h.4z"/><path d="M294.4 458.2c.1 0 .1.1 0 0l.1 1.4s0 .1-.1.1H293s-.1 0-.1-.1v-1.4h1.5zm0 3c.1 0 .1 0 0 0l.1 6.9s0 .1-.1.1H293s-.1 0-.1-.1v-6.8h1.5z"/><path d="M299.4 461.2c.2 0 .3 0 .5.1s.3.2.4.3c.1.1.2.3.3.4.1.2.1.3.1.5v5.5h-1.4v-5.6h-1.7v5.6H296v-5.5c0-.2 0-.4.1-.5.1-.2.2-.3.3-.4.1-.1.3-.2.4-.3.2-.1.3-.1.5-.1h2.1z"/><path d="M302.7 459.5s.1 0 0 0h1.5v1.6h1v1.3h-1v5.7s0 .1-.1.1h-1.4s-.1 0-.1-.1v-5.7h-1v-1.3h1v-1.6z"/><path d="M309.5 461.2c.2 0 .3 0 .5.1s.3.2.4.3c.1.1.2.3.3.4.1.2.1.3.1.5v2.6h-3.1v1.8h1.6v-.9s0-.1.1-.1h1.3v.8c0 .2 0 .4-.1.5-.1.2-.2.3-.3.4-.1.1-.2.2-.4.3-.2.1-.3.1-.5.1h-2c-.4 0-.7-.1-.9-.4-.3-.3-.4-.6-.4-.9v-4.3c0-.2 0-.3.1-.5s.2-.3.3-.4c.1-.1.3-.2.4-.3.2-.1.3-.1.5-.1h2.1zm-1.8 3h1.7v-1.9h-1.6v1.9z"/><path d="M313.7 457.9l.1 10.1s0 .1-.1.1h-1.4s-.1 0-.1-.1v-10.1h1.5z"/><path d="M316.7 457.9l.1 10.1s0 .1-.1.1h-1.4s-.1 0-.1-.1v-10.1h1.5z"/><path d="M321.6 461.2c.2 0 .3 0 .5.1s.3.2.4.3c.1.1.2.3.3.4.1.2.1.3.1.5v2.6h-3.1v1.8h1.6v-.9s0-.1.1-.1h1.3v.8c0 .2 0 .4-.1.5-.1.2-.2.3-.3.4-.1.1-.2.2-.4.3-.2.1-.3.1-.5.1h-2c-.4 0-.7-.1-.9-.4-.3-.3-.4-.6-.4-.9v-4.3c0-.2 0-.3.1-.5s.2-.3.3-.4c.1-.1.3-.2.4-.3.2-.1.3-.1.5-.1h2.1zm-1.9 3h1.7v-1.9h-1.6v1.9z"/><path d="M324.2 462.5c0-.2 0-.3.1-.5s.2-.3.3-.4c.1-.1.2-.2.4-.3.2-.1.3-.1.5-.1h1.8c.2 0 .3 0 .5.1s.3.2.4.3c.1.1.2.3.3.4.1.2.1.3.1.5v7.1c0 .2 0 .4-.1.5-.1.2-.2.3-.3.4-.1.1-.3.2-.4.3s-.3.1-.5.1h-1.8c-.2 0-.3 0-.5-.1s-.3-.2-.4-.3c-.1-.1-.2-.3-.3-.4-.1-.2-.1-.3-.1-.5v-.7h1.3s.1 0 .1.1v.6h1.4v-1.5h-1.6c-.3 0-.6-.2-.9-.4-.2-.2-.4-.5-.4-.9v-4.3zm2.9 0c0-.1 0-.1 0 0l-1.4-.1v4.5h1.4v-4.4z"/><path d="M333.4 461.2c.2 0 .3 0 .5.1s.3.2.4.3c.1.1.2.3.3.4.1.2.1.3.1.5v2.6h-3.1v1.8h1.6v-.9s0-.1.1-.1h1.3v.8c0 .2 0 .4-.1.5-.1.2-.2.3-.3.4-.1.1-.2.2-.4.3-.2.1-.3.1-.5.1h-2c-.4 0-.7-.1-.9-.4-.3-.3-.4-.6-.4-.9v-4.3c0-.2 0-.3.1-.5s.2-.3.3-.4c.1-.1.3-.2.4-.3.2-.1.3-.1.5-.1h2.1zm-1.9 3h1.7v-1.9h-1.6v1.9z"/><path d="M339.8 463.9l.1.9v.1h-4v-.9h3.9z"/><path d="M79.9 474.7c.1 0 .1 0 0 0l.1 3.3h1.8c.2 0 .3 0 .5.1s.3.2.4.3c.1.1.2.3.3.4.1.2.1.3.1.5v4.3c0 .4-.1.7-.4.9-.2.3-.6.4-.9.4h-2c-.2 0-.4 0-.5-.1-.2-.1-.3-.2-.4-.3-.1-.1-.2-.3-.3-.4-.1-.2-.1-.3-.1-.5v-8.8h1.4zm1.8 4.6c0-.1 0-.1 0 0h-1.8v4.4h1.7v-4.4z"/><path d="M87.8 481v-1.8h-1.5v.8s0 .1-.1.1h-1.3v-.8c0-.2 0-.3.1-.5s.2-.3.3-.4c.1-.1.2-.2.4-.3.2-.1.3-.1.5-.1h1.9c.2 0 .3 0 .5.1s.3.2.4.3c.1.1.2.3.3.4.1.2.1.3.1.5v5.6h-3.3c-.2 0-.3 0-.5-.1s-.3-.2-.4-.3c-.1-.1-.2-.3-.3-.4-.1-.2-.1-.3-.1-.5v-1.3c0-.2 0-.3.1-.5s.2-.3.3-.4c.1-.1.2-.2.4-.3.2-.1.3-.1.5-.1h1.7zm0 1h-1.7v1.8h1.7V482z"/><path d="M91.3 476.3h1.5v1.6h1v1.3h-1v5.7s0 .1-.1.1h-1.4s-.1 0-.1-.1v-5.7h-1v-1.3h1v-1.6z"/><path d="M101.2 481v-1.8h-1.5v.8s0 .1-.1.1h-1.3v-.8c0-.2 0-.3.1-.5s.2-.3.3-.4c.1-.1.2-.2.4-.3.2-.1.3-.1.5-.1h1.9c.2 0 .3 0 .5.1s.3.2.4.3c.1.1.2.3.3.4.1.2.1.3.1.5v5.6h-3.3c-.2 0-.3 0-.5-.1s-.3-.2-.4-.3c-.1-.1-.2-.3-.3-.4-.1-.2-.1-.3-.1-.5v-1.3c0-.2 0-.3.1-.5s.2-.3.3-.4c.1-.1.2-.2.4-.3.2-.1.3-.1.5-.1h1.7zm0 1h-1.7v1.8h1.7V482z"/><path d="M107.5 478c.2 0 .3 0 .5.1s.3.2.4.3c.1.1.2.3.3.4.1.2.1.3.1.5v5.5h-1.4v-5.6h-1.7v5.6h-1.4v-5.5c0-.2 0-.4.1-.5.1-.2.2-.3.3-.4.1-.1.3-.2.4-.3.2-.1.3-.1.5-.1h1.9z"/><path d="M115.1 474.7l.1 3.3h1.9c.2 0 .3 0 .5.1s.3.2.4.3c.1.1.2.3.3.4.1.2.1.3.1.5v5.5H117v-5.6h-1.7v5.6h-1.4v-10.1h1.2z"/><path d="M121.3 475c.1 0 .1.1 0 0l.1 1.4s0 .1-.1.1h-1.4s-.1 0-.1-.1V475h1.5zm0 3c.1 0 .1 0 0 0l.1 6.9s0 .1-.1.1H120s-.1 0-.1-.1V478h1.4z"/><path d="M124.5 480.2c.4.2.9.4 1.2.6.3.2.6.3.9.4s.4.2.5.2c.3.2.4.4.4.7v1.5c0 .2 0 .3-.1.5s-.2.3-.3.4c-.1.1-.3.2-.4.3-.2.1-.3.1-.5.1h-2c-.2 0-.3 0-.5-.1s-.3-.2-.4-.3c-.1-.1-.2-.3-.3-.4-.1-.2-.1-.3-.1-.5v-1h1.4v1.1h1.6v-1.3c-.5-.3-1-.5-1.4-.7-.2-.1-.3-.2-.5-.3-.2-.1-.3-.2-.4-.2-.1-.1-.2-.1-.3-.2l-.1-.1c-.1 0-.1-.1-.1-.1v-1.9c0-.3.1-.6.2-.8.2-.2.4-.3.8-.3h2.3c.3 0 .6.1.8.3.2.2.3.5.3.8v.8H126v-.8h-1.5v1.3c0-.1 0 0 0 0z"/><path d="M130.1 483.5s.1 0 0 0l.1 1.4s0 .1-.1.1h-1.6s-.1 0-.1-.1v-1.3h1.7z"/><path d="M141.8 484.8c0 .1 0 .1 0 0h-1.6v-8c0-.1 0-.2-.1-.3-.1-.1-.2-.2-.4-.2h-.3c-.2 0-.3 0-.4.1-.1.1-.2.2-.2.4v8h-1.4v-8c0-.2-.1-.3-.2-.4-.1-.1-.3-.1-.4-.1h-.3c-.2 0-.3.1-.4.2-.1.1-.1.2-.1.3v8h-1.6v-8.4c0-.4.1-.7.4-.9.2-.3.6-.4.9-.4h1.2c.2 0 .4 0 .5.1l.3.3c.1.1.1.2.2.3 0 .1.1.2.1.3 0-.1 0-.2.1-.3s.1-.2.2-.3l.3-.3c.1-.1.3-.1.5-.1h1.2c.4 0 .7.1.9.4.2.3.4.6.4.9v8.4z"/><path d="M146.7 478c.2 0 .3 0 .5.1s.3.2.4.3c.1.1.2.3.3.4.1.2.1.3.1.5v2.6h-3.1v1.8h1.6v-.9s0-.1.1-.1h1.3v.8c0 .2 0 .4-.1.5-.1.2-.2.3-.3.4-.1.1-.2.2-.4.3-.2.1-.3.1-.5.1h-2c-.4 0-.7-.1-.9-.4-.3-.3-.4-.6-.4-.9v-4.3c0-.2 0-.3.1-.5s.2-.3.3-.4c.1-.1.3-.2.4-.3.2-.1.3-.1.5-.1h2.1zm-1.9 3h1.7v-1.9h-1.6v1.9z"/><path d="M152.4 481v-1.8h-1.5v.8s0 .1-.1.1h-1.3v-.8c0-.2 0-.3.1-.5s.2-.3.3-.4c.1-.1.2-.2.4-.3.2-.1.3-.1.5-.1h1.9c.2 0 .3 0 .5.1s.3.2.4.3c.1.1.2.3.3.4.1.2.1.3.1.5v5.6h-3.3c-.2 0-.3 0-.5-.1s-.3-.2-.4-.3c-.1-.1-.2-.3-.3-.4-.1-.2-.1-.3-.1-.5v-1.3c0-.2 0-.3.1-.5s.2-.3.3-.4c.1-.1.2-.2.4-.3.2-.1.3-.1.5-.1h1.7zm0 1h-1.7v1.8h1.7V482z"/><path d="M161.8 481v-1.8h-1.5v.8s0 .1-.1.1h-1.3v-.8c0-.2 0-.3.1-.5s.2-.3.3-.4c.1-.1.2-.2.4-.3.2-.1.3-.1.5-.1h1.9c.2 0 .3 0 .5.1s.3.2.4.3c.1.1.2.3.3.4.1.2.1.3.1.5v5.6h-3.3c-.2 0-.3 0-.5-.1s-.3-.2-.4-.3c-.1-.1-.2-.3-.3-.4-.1-.2-.1-.3-.1-.5v-1.3c0-.2 0-.3.1-.5s.2-.3.3-.4c.1-.1.2-.2.4-.3.2-.1.3-.1.5-.1h1.7zm0 1h-1.7v1.8h1.7V482z"/><path d="M166.2 474.7s.1 0 0 0l.1 10.1s0 .1-.1.1h-1.4s-.1 0-.1-.1v-10.1h1.5z"/><path d="M169.3 475s.1.1 0 0l.1 1.4s0 .1-.1.1h-1.4s-.1 0-.1-.1V475h1.5zm0 3s.1 0 0 0l.1 6.9s0 .1-.1.1H168s-.1 0-.1-.1V478h1.4z"/><path d="M174.2 487.7c-.1 0-.1 0 0 0l-.1-2.8h-1.9c-.4 0-.7-.1-.9-.4-.2-.3-.4-.6-.4-.9v-4.3c0-.4.1-.7.4-.9s.6-.4.9-.4h2.1c.4 0 .7.1.9.4.2.3.4.6.4.9v8.3h-1.4zm-1.8-4h1.8v-4.4h-1.7v4.4z"/><path d="M178.4 484.9c-.2 0-.3 0-.5-.1s-.3-.2-.4-.3c-.1-.1-.2-.3-.3-.4s-.1-.3-.1-.5V478h1.4v5.6h1.7V478h1.4v5.5c0 .2 0 .4-.1.5s-.2.3-.3.4c-.1.1-.3.2-.4.3-.2.1-.3.1-.5.1h-1.9z"/><path d="M186.3 481v-1.8h-1.5v.8s0 .1-.1.1h-1.3v-.8c0-.2 0-.3.1-.5s.2-.3.3-.4c.1-.1.2-.2.4-.3.2-.1.3-.1.5-.1h1.9c.2 0 .3 0 .5.1s.3.2.4.3c.1.1.2.3.3.4.1.2.1.3.1.5v5.6h-3.3c-.2 0-.3 0-.5-.1s-.3-.2-.4-.3c-.1-.1-.2-.3-.3-.4-.1-.2-.1-.3-.1-.5v-1.3c0-.2 0-.3.1-.5s.2-.3.3-.4c.1-.1.2-.2.4-.3.2-.1.3-.1.5-.1h1.7zm0 1h-1.7v1.8h1.7V482z"/><path d="M192.7 478c.2 0 .3 0 .5.1s.3.2.4.3c.1.1.2.3.3.4.1.2.1.3.1.5v5.5h-1.4v-5.6h-1.7v5.6h-1.4v-5.5c0-.2 0-.4.1-.5.1-.2.2-.3.3-.4.1-.1.3-.2.4-.3.2-.1.3-.1.5-.1h1.9z"/><path d="M196.7 484.9c-.4 0-.7-.1-.9-.4s-.4-.6-.4-.9v-4.3c0-.4.1-.7.4-.9.2-.3.6-.4.9-.4h1.9v-3.2h1.6v10.1h-3.5zm.2-1.2s0 .1 0 0l1.7.1h.1v-4.5H197v4.4z"/><path d="M204.9 478c.4 0 .7.1.9.4.2.3.4.6.4.9v4.3c0 .4-.1.7-.4.9s-.6.4-.9.4h-2c-.4 0-.7-.1-.9-.4-.2-.3-.4-.6-.4-.9v-4.3c0-.4.1-.7.4-.9.2-.3.5-.4.9-.4h2zm-.2 1.2s0-.1 0 0h-1.6v4.5l.1.1h1.5v-4.6z"/><path d="M214.3 478c.4 0 .7.1.9.4.2.3.4.6.4.9v4.3c0 .4-.1.7-.4.9s-.6.4-.9.4h-1.9v2.7h-1.5V478h3.4zm-.1 1.3c0-.1-.1-.1 0 0l-1.7-.1h-.1v4.4h1.7v-4.3z"/><path d="M218.4 478h2v1.1h-1.8v5.6h-1.4v-5.5c0-.2 0-.4.1-.5.1-.2.2-.3.3-.4.1-.1.3-.2.4-.3h.4z"/><path d="M224.7 478c.4 0 .7.1.9.4.2.3.4.6.4.9v4.3c0 .4-.1.7-.4.9s-.6.4-.9.4h-2c-.4 0-.7-.1-.9-.4-.2-.3-.4-.6-.4-.9v-4.3c0-.4.1-.7.4-.9.2-.3.5-.4.9-.4h2zm-.2 1.2s0-.1 0 0h-1.6v4.5l.1.1h1.5v-4.6z"/><path d="M228.7 484.9c-.4 0-.7-.1-.9-.4s-.4-.6-.4-.9v-4.3c0-.4.1-.7.4-.9.2-.3.6-.4.9-.4h1.9v-3.2h1.6v10.1h-3.5zm.2-1.2s0 .1 0 0l1.7.1h.1v-4.5H229v4.4z"/><path d="M236.9 478c.2 0 .3 0 .5.1s.3.2.4.3c.1.1.2.3.3.4.1.2.1.3.1.5v2.6h-3.1v1.8h1.6v-.9s0-.1.1-.1h1.3v.8c0 .2 0 .4-.1.5-.1.2-.2.3-.3.4-.1.1-.2.2-.4.3-.2.1-.3.1-.5.1h-2c-.4 0-.7-.1-.9-.4-.3-.3-.4-.6-.4-.9v-4.3c0-.2 0-.3.1-.5s.2-.3.3-.4c.1-.1.3-.2.4-.3.2-.1.3-.1.5-.1h2.1zm-1.8 3h1.7v-1.9h-1.6v1.9z"/><path d="M241.2 480.2c.4.2.9.4 1.2.6.3.2.6.3.9.4s.4.2.5.2c.3.2.4.4.4.7v1.5c0 .2 0 .3-.1.5s-.2.3-.3.4c-.1.1-.3.2-.4.3-.2.1-.3.1-.5.1h-2c-.2 0-.3 0-.5-.1s-.3-.2-.4-.3c-.1-.1-.2-.3-.3-.4-.1-.2-.1-.3-.1-.5v-1h1.4v1.1h1.6v-1.3c-.5-.3-1-.5-1.4-.7-.2-.1-.3-.2-.5-.3-.2-.1-.3-.2-.4-.2-.1-.1-.2-.1-.3-.2l-.1-.1c-.1 0-.1-.1-.1-.1v-1.9c0-.3.1-.6.2-.8.2-.2.4-.3.8-.3h2.3c.3 0 .6.1.8.3.2.2.3.5.3.8v.8h-1.4v-.8h-1.5v1l-.1.3c0-.1 0 0 0 0z"/><path d="M247.2 480.2c.4.2.9.4 1.2.6.3.2.6.3.9.4s.4.2.5.2c.3.2.4.4.4.7v1.5c0 .2 0 .3-.1.5s-.2.3-.3.4c-.1.1-.3.2-.4.3-.2.1-.3.1-.5.1h-2c-.2 0-.3 0-.5-.1s-.3-.2-.4-.3c-.1-.1-.2-.3-.3-.4-.1-.2-.1-.3-.1-.5v-1h1.4v1.1h1.6v-1.3c-.5-.3-1-.5-1.4-.7-.2-.1-.3-.2-.5-.3-.2-.1-.3-.2-.4-.2-.1-.1-.2-.1-.3-.2l-.1-.1c-.1 0-.1-.1-.1-.1v-1.9c0-.3.1-.6.2-.8.2-.2.4-.3.8-.3h2.3c.3 0 .6.1.8.3.2.2.3.5.3.8v.8h-1.4v-.8h-1.5v1l-.1.3c0-.1 0 0 0 0z"/><path d="M254.9 478c.2 0 .3 0 .5.1s.3.2.4.3c.1.1.2.3.3.4.1.2.1.3.1.5v2.6h-3.1v1.8h1.6v-.9s0-.1.1-.1h1.3v.8c0 .2 0 .4-.1.5-.1.2-.2.3-.3.4-.1.1-.2.2-.4.3-.2.1-.3.1-.5.1h-2c-.4 0-.7-.1-.9-.4-.3-.3-.4-.6-.4-.9v-4.3c0-.2 0-.3.1-.5s.2-.3.3-.4c.1-.1.3-.2.4-.3.2-.1.3-.1.5-.1h2.1zm-1.8 3h1.7v-1.9h-1.6v1.9z"/><path d="M258.2 476.3h1.5v1.6h1v1.3h-1v5.7s0 .1-.1.1h-1.4s-.1 0-.1-.1v-5.7h-1v-1.3h1v-1.6z"/><path d="M268.1 481v-1.8h-1.5v.8s0 .1-.1.1h-1.3v-.8c0-.2 0-.3.1-.5s.2-.3.3-.4c.1-.1.2-.2.4-.3.2-.1.3-.1.5-.1h1.9c.2 0 .3 0 .5.1s.3.2.4.3c.1.1.2.3.3.4.1.2.1.3.1.5v5.6h-3.3c-.2 0-.3 0-.5-.1s-.3-.2-.4-.3c-.1-.1-.2-.3-.3-.4-.1-.2-.1-.3-.1-.5v-1.3c0-.2 0-.3.1-.5s.2-.3.3-.4c.1-.1.2-.2.4-.3.2-.1.3-.1.5-.1h1.7zm0 1h-1.7v1.8h1.7V482z"/><path d="M271.6 476.3h1.5v1.6h1v1.3h-1v5.7s0 .1-.1.1h-1.4s-.1 0-.1-.1v-5.7h-1v-1.3h1v-1.6z"/><path d="M275.7 483.4l.1 2.7s0 .1-.1.1l-.9-1.2h-.8s-.1 0-.1-.1v-1.4h1.8z"/><path d="M283.4 478c.2 0 .3 0 .5.1s.3.2.4.3c.1.1.2.3.3.4.1.2.1.3.1.5v2.6h-3.1v1.8h1.6v-.9s0-.1.1-.1h1.3v.8c0 .2 0 .4-.1.5-.1.2-.2.3-.3.4-.1.1-.2.2-.4.3-.2.1-.3.1-.5.1h-2c-.4 0-.7-.1-.9-.4-.3-.3-.4-.6-.4-.9v-4.3c0-.2 0-.3.1-.5s.2-.3.3-.4c.1-.1.3-.2.4-.3.2-.1.3-.1.5-.1h2.1zm-1.9 3h1.7v-1.9h-1.6v1.9z"/><path d="M287.6 480.2c.4.2.9.4 1.2.6.3.2.6.3.9.4s.4.2.5.2c.3.2.4.4.4.7v1.5c0 .2 0 .3-.1.5s-.2.3-.3.4c-.1.1-.3.2-.4.3-.2.1-.3.1-.5.1h-2c-.2 0-.3 0-.5-.1s-.3-.2-.4-.3c-.1-.1-.2-.3-.3-.4-.1-.2-.1-.3-.1-.5v-1h1.4v1.1h1.6v-1.3c-.5-.3-1-.5-1.4-.7-.2-.1-.3-.2-.5-.3-.2-.1-.3-.2-.4-.2-.1-.1-.2-.1-.3-.2l-.1-.1c-.1 0-.1-.1-.1-.1v-1.9c0-.3.1-.6.2-.8.2-.2.4-.3.8-.3h2.3c.3 0 .6.1.8.3.2.2.3.5.3.8v.8h-1.4v-.8h-1.5v1l-.1.3c0-.1 0 0 0 0z"/><path d="M292.6 476.3h1.5v1.6h1v1.3h-1v5.7s0 .1-.1.1h-1.4s-.1 0-.1-.1v-5.7h-1v-1.3h1v-1.6z"/><path d="M300.9 475c.1 0 .1.1 0 0l.1 1.4s0 .1-.1.1h-1.4s-.1 0-.1-.1V475h1.5zm0 3c.1 0 .1 0 0 0l.1 6.9s0 .1-.1.1h-1.4s-.1 0-.1-.1V478h1.5z"/><path d="M302.5 479.3c0-.2 0-.3.1-.5s.2-.3.3-.4c.1-.1.2-.2.4-.3.2-.1.3-.1.5-.1h1.8c.2 0 .3 0 .5.1s.3.2.4.3c.1.1.2.3.3.4.1.2.1.3.1.5v7.1c0 .2 0 .4-.1.5-.1.2-.2.3-.3.4-.1.1-.3.2-.4.3s-.3.1-.5.1h-1.8c-.2 0-.3 0-.5-.1s-.3-.2-.4-.3c-.1-.1-.2-.3-.3-.4-.1-.2-.1-.3-.1-.5v-.6h1.3s.1 0 .1.1v.6h1.4V485h-1.6c-.3 0-.6-.2-.9-.4-.2-.2-.4-.5-.4-.9v-4.4zm2.9 0c0-.1 0-.1 0 0l-1.4-.1v4.5h1.4v-4.4z"/><path d="M311.7 478c.2 0 .3 0 .5.1s.3.2.4.3c.1.1.2.3.3.4.1.2.1.3.1.5v5.5h-1.4v-5.6h-1.7v5.6h-1.4v-5.5c0-.2 0-.4.1-.5.1-.2.2-.3.3-.4.1-.1.3-.2.4-.3.2-.1.3-.1.5-.1h1.9z"/><path d="M317.7 478c.4 0 .7.1.9.4.2.3.4.6.4.9v4.3c0 .4-.1.7-.4.9s-.6.4-.9.4h-2c-.4 0-.7-.1-.9-.4-.2-.3-.4-.6-.4-.9v-4.3c0-.4.1-.7.4-.9.2-.3.5-.4.9-.4h2zm-.2 1.2s0-.1 0 0h-1.6v4.5l.1.1h1.5v-4.6z"/><path d="M321 476.3s.1 0 0 0h1.5v1.6h1v1.3h-1v5.7s0 .1-.1.1H321s-.1 0-.1-.1v-5.7h-1v-1.3h1v-1.6z"/><path d="M327.5 481v-1.8H326v.8s0 .1-.1.1h-1.3v-.8c0-.2 0-.3.1-.5s.2-.3.3-.4c.1-.1.2-.2.4-.3.2-.1.3-.1.5-.1h1.9c.2 0 .3 0 .5.1s.3.2.4.3c.1.1.2.3.3.4.1.2.1.3.1.5v5.6h-3.3c-.2 0-.3 0-.5-.1s-.3-.2-.4-.3c-.1-.1-.2-.3-.3-.4-.1-.2-.1-.3-.1-.5v-1.3c0-.2 0-.3.1-.5s.2-.3.3-.4c.1-.1.2-.2.4-.3.2-.1.3-.1.5-.1h1.7zm0 1h-1.7v1.8h1.7V482z"/><path d="M147.4 491.5l.1 10.1s0 .1-.1.1H146s-.1 0-.1-.1v-10.1h1.5z"/><path d="M150.5 491.8s0 .1 0 0l.1 1.4s0 .1-.1.1h-1.4s-.1 0-.1-.1v-1.4h1.5zm0 3l.1 6.9s0 .1-.1.1h-1.4s-.1 0-.1-.1v-6.8h1.5z"/><path d="M153.5 491.5s.1 0 0 0l.1 3.3h1.8c.2 0 .3 0 .5.1s.3.2.4.3c.1.1.2.3.3.4.1.2.1.3.1.5v4.3c0 .4-.1.7-.4.9-.2.3-.6.4-.9.4h-2c-.2 0-.4 0-.5-.1-.2-.1-.3-.2-.4-.3-.1-.1-.2-.3-.3-.4-.1-.2-.1-.3-.1-.5v-8.8h1.4zm1.8 4.6c0-.1 0-.1 0 0h-1.8v4.4h1.7v-4.4z"/><path d="M159.6 494.8h2v1.1h-1.8v5.6h-1.4V496c0-.2 0-.4.1-.5.1-.2.2-.3.3-.4.1-.1.3-.2.4-.3h.4z"/><path d="M164.2 491.8s0 .1 0 0l.1 1.4s0 .1-.1.1h-1.4s-.1 0-.1-.1v-1.4h1.5zm0 3l.1 6.9s0 .1-.1.1h-1.4s-.1 0-.1-.1v-6.8h1.5z"/><path d="M167.4 497c.4.2.9.4 1.2.6.3.2.6.3.9.4s.4.2.5.2c.3.2.4.4.4.7v1.5c0 .2 0 .3-.1.5s-.2.3-.3.4c-.1.1-.3.2-.4.3-.2.1-.3.1-.5.1h-2c-.2 0-.3 0-.5-.1s-.3-.2-.4-.3c-.1-.1-.2-.3-.3-.4-.1-.2-.1-.3-.1-.5v-1h1.4v1.1h1.6v-1.3c-.5-.3-1-.5-1.4-.7-.2-.1-.3-.2-.5-.3-.2-.1-.3-.2-.4-.2-.1-.1-.2-.1-.3-.2l-.1-.1c-.1 0-.1-.1-.1-.1v-1.9c0-.3.1-.6.2-.8.2-.2.4-.3.8-.3h2.3c.3 0 .6.1.8.3.2.2.3.5.3.8v.8H169v-.8h-1.5v1l-.1.3c0-.1 0 0 0 0z"/><path d="M176.7 497c.4.2.9.4 1.2.6.3.2.6.3.9.4s.4.2.5.2c.3.2.4.4.4.7v1.5c0 .2 0 .3-.1.5s-.2.3-.3.4c-.1.1-.3.2-.4.3-.2.1-.3.1-.5.1h-2c-.2 0-.3 0-.5-.1s-.3-.2-.4-.3c-.1-.1-.2-.3-.3-.4-.1-.2-.1-.3-.1-.5v-1h1.4v1.1h1.6v-1.3c-.5-.3-1-.5-1.4-.7-.2-.1-.3-.2-.5-.3-.2-.1-.3-.2-.4-.2-.1-.1-.2-.1-.3-.2l-.1-.1c-.1 0-.1-.1-.1-.1v-1.9c0-.3.1-.6.2-.8.2-.2.4-.3.8-.3h2.3c.3 0 .6.1.8.3.2.2.3.5.3.8v.8h-1.4v-.8h-1.5v1l-.1.3c0-.1 0 0 0 0z"/><path d="M182.6 491.8c.1 0 .1.1 0 0l.1 1.4s0 .1-.1.1h-1.4s-.1 0-.1-.1v-1.4h1.5zm0 3c.1 0 .1 0 0 0l.1 6.9s0 .1-.1.1h-1.4s-.1 0-.1-.1v-6.8h1.5z"/><path d="M184.2 496.1c0-.2 0-.3.1-.5s.2-.3.3-.4c.1-.1.2-.2.4-.3.2-.1.3-.1.5-.1h1.8c.2 0 .3 0 .5.1s.3.2.4.3c.1.1.2.3.3.4.1.2.1.3.1.5v7.1c0 .2 0 .4-.1.5-.1.2-.2.3-.3.4-.1.1-.3.2-.4.3s-.3.1-.5.1h-1.8c-.2 0-.3 0-.5-.1s-.3-.2-.4-.3c-.1-.1-.2-.3-.3-.4-.1-.2-.1-.3-.1-.5v-.6h1.3s.1 0 .1.1v.6h1.4v-1.5h-1.6c-.3 0-.6-.2-.9-.4-.2-.2-.4-.5-.4-.9v-4.4zm2.9 0c0-.1 0-.1 0 0l-1.4-.1v4.5h1.4v-4.4z"/><path d="M193.4 494.8c.2 0 .3 0 .5.1s.3.2.4.3c.1.1.2.3.3.4.1.2.1.3.1.5v5.5h-1.4V496h-1.7v5.6h-1.4v-5.5c0-.2 0-.4.1-.5.1-.2.2-.3.3-.4.1-.1.3-.2.4-.3.2-.1.3-.1.5-.1h1.9z"/><path d="M197.7 491.8c.1 0 .1.1 0 0l.1 1.4s0 .1-.1.1h-1.4s-.1 0-.1-.1v-1.4h1.5zm0 3c.1 0 .1 0 0 0l.1 6.9s0 .1-.1.1h-1.4s-.1 0-.1-.1v-6.8h1.5z"/><path d="M203 494.8v1.1h-1.7v5.8h-1.4v-5.8h-.5v-1.2h.5v-1.6c0-.4.1-.7.4-.9.3-.3.6-.4.9-.4h1.6c.2 0 .3 0 .5.1s.3.2.4.3c.1.1.2.3.3.4s.1.3.1.5v.7h-1.2v-.8h-1.3v1.7l1.4.1z"/><path d="M207.4 494.8c.2 0 .3 0 .5.1s.3.2.4.3c.1.1.2.3.3.4.1.2.1.3.1.5v2.6h-3.1v1.8h1.6v-.9s0-.1.1-.1h1.3v.8c0 .2 0 .4-.1.5-.1.2-.2.3-.3.4-.1.1-.2.2-.4.3-.2.1-.3.1-.5.1h-2c-.4 0-.7-.1-.9-.4-.3-.3-.4-.6-.4-.9V496c0-.2 0-.3.1-.5s.2-.3.3-.4c.1-.1.3-.2.4-.3.2-.1.3-.1.5-.1h2.1zm-1.9 3h1.7v-1.9h-1.6v1.9z"/><path d="M211.4 494.8h2v1.1h-1.8v5.6h-1.4V496c0-.2 0-.4.1-.5.1-.2.2-.3.3-.4.1-.1.3-.2.4-.3h.4z"/><path d="M215.7 501.7c-.2 0-.3 0-.5-.1s-.3-.2-.4-.3c-.1-.1-.2-.3-.3-.4s-.1-.3-.1-.5v-5.5h1.4v5.6h1.7v-5.6h1.4v5.5c0 .2 0 .4-.1.5s-.2.3-.3.4c-.1.1-.3.2-.4.3-.2.1-.3.1-.5.1h-1.9z"/><path d="M220.6 496.1c0-.4.1-.7.4-.9.2-.3.6-.4.9-.4h1.1c.2 0 .4 0 .5.1.1.1.3.2.3.3s.2.2.2.3c0 .1.1.2.1.3v-.3c0-.1.1-.2.1-.3.1-.1.2-.2.4-.3.2-.1.4-.1.6-.1h1.1c.2 0 .3 0 .5.1s.3.2.4.3c.1.1.2.3.3.4.1.2.1.3.1.5v5.5H226v-5.5c0-.1 0-.1-.1-.1h-.7c-.1 0-.3 0-.4.1-.1.1-.2.2-.2.4v5.1h-1.3v-5.1c0-.2-.1-.3-.2-.4-.1-.1-.3-.1-.4-.1h-.8c-.1 0-.1 0-.1.1v5.5h-1.6v-5.5z"/><path d="M232.4 504.5l-.1-2.8h-1.9c-.4 0-.7-.1-.9-.4-.2-.3-.4-.6-.4-.9v-4.3c0-.4.1-.7.4-.9s.6-.4.9-.4h2.1c.4 0 .7.1.9.4.2.3.4.6.4.9v8.3h-1.4zm-1.7-4h1.8v-4.4h-1.7v4.4z"/><path d="M236.6 501.7c-.2 0-.3 0-.5-.1s-.3-.2-.4-.3c-.1-.1-.2-.3-.3-.4s-.1-.3-.1-.5v-5.5h1.4v5.6h1.7v-5.6h1.4v5.5c0 .2 0 .4-.1.5s-.2.3-.3.4c-.1.1-.3.2-.4.3-.2.1-.3.1-.5.1h-1.9z"/><path d="M244.8 494.8c.2 0 .3 0 .5.1s.3.2.4.3c.1.1.2.3.3.4.1.2.1.3.1.5v2.6H243v1.8h1.6v-.9s0-.1.1-.1h1.3v.8c0 .2 0 .4-.1.5-.1.2-.2.3-.3.4-.1.1-.2.2-.4.3-.2.1-.3.1-.5.1h-2c-.4 0-.7-.1-.9-.4-.3-.3-.4-.6-.4-.9V496c0-.2 0-.3.1-.5s.2-.3.3-.4c.1-.1.3-.2.4-.3.2-.1.3-.1.5-.1h2.1zm-1.8 3h1.7v-1.9H243v1.9z"/><path d="M251.3 493.1h1.5v1.6h1v1.3h-1v5.7s0 .1-.1.1h-1.4s-.1 0-.1-.1V496h-1v-1.3h1v-1.6z"/><path d="M258.1 494.8c.2 0 .3 0 .5.1s.3.2.4.3c.1.1.2.3.3.4.1.2.1.3.1.5v2.6h-3.1v1.8h1.6v-.9s0-.1.1-.1h1.3v.8c0 .2 0 .4-.1.5-.1.2-.2.3-.3.4-.1.1-.2.2-.4.3-.2.1-.3.1-.5.1h-2c-.4 0-.7-.1-.9-.4-.3-.3-.4-.6-.4-.9V496c0-.2 0-.3.1-.5s.2-.3.3-.4c.1-.1.3-.2.4-.3.2-.1.3-.1.5-.1h2.1zm-1.8 3h1.7v-1.9h-1.6v1.9z"/><path d="M262 500.3l.1 1.4s0 .1-.1.1h-1.6s-.1 0-.1-.1v-1.3h1.7z"/></g></svg>