<svg xmlns="http://www.w3.org/2000/svg" id="Layer_1" x="0" y="0" version="1.1" viewBox="0 0 800 600" xml:space="preserve"><defs/><rect width="800" height="600" fill="#FFF"/><rect width="800" height="165.21" y="434.79" fill="#00A896"/><rect width="799" height="164.504" x=".5" y="435.143" fill="none" stroke="#717171"/><g id="Rectangle_257_1_" fill="#13686C" transform="translate(0 366)"><rect width="800" height="20.884" y="68.79"/><rect width="799" height="20.795" x=".5" y="68.835"/></g><path id="Path_1492" fill="#603A17" d="M574.819 394.005h-12.01l-1.611-104.23h17.205l-3.584 104.23z"/><path id="Path_1493" fill="#754D25" d="M567.983 323.299c0-6.813 2.555-13.628 3.407-21.294a17.003 17.003 0 00-1.147-12.232h-10.76l1.611 104.23h3.49c5.865-22.458 2.81-47.795 3.399-70.704z"/><path id="Path_1491" fill="#F3AE83" d="M548.343 271.535s-54.488 65.668-60.319 73.054c-5.831 7.386-20.423 5.73-24.793 5.73-4.37 0-8.971 3.681-8.741 5.291.23 1.609 5.061 2.989 8.741 2.989 3.68 0 12.053-4.624 12.053-4.624l23.437.483 72.647-55.414-23.025-27.509z"/><path fill="#E58250" d="M548.343 271.535s-5.257 6.335-12.677 15.289c-2.198 10.993-6.592 25.013-15.393 38.08-7.738 11.488-16.341 21.636-23.674 29.511l2.122.044 72.646-55.414-23.024-27.51z"/><g id="Group_365" transform="translate(-3136.131 -1972.484)"><g id="Group_348" transform="translate(3188.131 2262.257)"><path id="Ellipse_73" fill="#010101" d="M337.567 211.266c186.215 0 337.172 2.287 337.172 5.108 0 2.821-150.957 5.107-337.172 5.107S.396 219.196.396 216.374c0-2.821 150.956-5.108 337.171-5.108z" opacity=".31"/><path id="Path_1396" fill="#8D633A" d="M693.083 115.428h-689l-2.521-11.2h694.043l-2.522 11.2z"/><path id="Path_1397" fill="#754D25" d="M376.772 111.931c-58.066-1.7-114.87-4.259-172.938-1.7-67.6 3.318-133.178-5.431-200.715-1.179l.62 6.379h689.716l1.063-6.241c-69.124-.029-137.279-.051-206.664-1.514-36.606-.854-74.474 4.255-111.082 4.255z"/><path id="Path_1398" fill="#754D25" d="M78.119 216.375H56.312V115.427h11.021l10.786 100.948z"/><path id="Path_1400" fill="#754D25" d="M604.594 216.375H626.4V115.427h-11.019l-10.787 100.948z"/><path id="Path_1402" fill="#603A17" d="M132.567 104.231h-12.013L111.961.001h14.746l5.86 104.23z"/><path id="Path_1403" fill="#754D25" d="M122.472 44.598c-2.147-15.034 1.72-30.068-2.051-44.6h-8.711l8.594 104.229h4.081c3.616-19.709 1.221-40.028-1.913-59.629z"/><path id="Path_1406" fill="#754D25" d="M622.758 33.233l-585.071 7.19-7.949-25.994 602.771 2.755-9.751 16.049z"/><path id="Path_1407" fill="#8D633A" d="M29.737 14.429l5.579 18.246h.453c93.837-3.407 184.953-10.221 281.511-1.7 46.237 4.259 88.4-6.813 133.274-8.517 48.958-1.7 99.276 5.962 148.234 4.259 9.332-.53 19.191-.732 28.921-1.634l4.8-7.9-602.772-2.754z"/><path id="Path_1413" fill="#8D633A" d="M626.16 82.636L50.813 89.995l-8.186-26.039 381.558.245 22.564.489 185.757-.734-6.346 18.68z"/><path id="Path_1414" fill="#754D25" d="M478.859 69.299c-31.833-2.556-63.667 3.407-95.5 5.111-81.663 5.962-161.938 0-243.6-1.7-31.946 0-62.063-.052-93.63 1.5L49.292 90l577.925-7.364 2.685-10.713c-49.253 4.628-99.717 2.981-151.043-2.624z"/></g></g><g id="Group_367"><ellipse id="Ellipse_92" cx="182.895" cy="534" fill="#010101" opacity=".4" rx="109.5" ry="9"/><path id="Path_1453" fill="#EE8771" d="M201.551 500.433l-4.87 12.747 14.036 2.578 6.732-11.6-15.898-3.725z"/><path id="Path_1455" fill="#EE8771" d="M156.567 500.433l4.87 12.747-14.036 2.578-6.732-11.6 15.898-3.725z"/><path id="Path_1451" fill="#003049" d="M177.395 360.2s37.634.817 55.634 8.181c18 7.363 47.043 23.317 40.5 48.271-6.543 24.952-25.771 47.452-33.135 54.815-7.363 7.364-16.554 24-18.006 27.626-1.451 3.626-4.115 9.44-4.115 9.44s-4.356 2.663-11.376-1.452c-7.019-4.115-7.262-5.81-7.262-5.81s7.746-30.257 13.555-40.664c5.81-10.408 15.733-18.4 18.154-23.722 2.421-5.32 9.05-21.3 9.05-21.3s-32.287-9.2-40.759-11.861a103.596 103.596 0 00-22.238-3.873c-3.9-.241-24.962 7.021-36.581 10.166-11.619 3.146-22.269 5.567-22.269 5.567s10.408 22.511 15.007 26.384c4.599 3.873 15.976 23.9 18.153 29.5 2.178 5.6 6.778 29.801 6.778 29.801s-3.39 5.082-6.778 5.809c-3.389.726-10.892 1.452-10.892 1.452s-8.473-16.7-11.861-25.9c-3.389-9.2-11.376-14.523-25.899-32.192-14.524-17.671-20.091-26.385-17.187-44.538 2.905-18.154 31.951-31.957 44.3-37.522 12.35-5.563 47.227-8.178 47.227-8.178z"/><path id="Path_1454" fill="#003049" d="M162.499 509.379a3.943 3.943 0 00-4.1.978c-1.676 1.862-6.145 2.234-7.448 2.234-1.303 0-6.517-7.82-13.034-5.771-6.517 2.048-7.82 8.936-7.82 8.936s-2.048 5.213-6.889 6.89a35.241 35.241 0 01-8.937 1.861 8.313 8.313 0 00-6.517 0c-3.538 1.49-2.234 9.5-2.234 9.5h47.668s17.5-7.262 17.875-9.5c.375-2.238-8.564-15.128-8.564-15.128z"/><path id="Path_1464" fill="#8E201F" d="M123.434 371.507s48.053-4.722 56.37-3.13c8.317 1.592 56.268 1.77 56.268 1.77l-39.812-12.918h-42.464l-30.362 14.278z"/><path id="Path_1456" fill="#D52A28" d="M182.835 212.719s37.081-1.5 47.547 4.188c10.466 5.687 24.521 47.846 27.212 68.18 2.691 20.334-12.56 26.315-18.839 24.521a70.92 70.92 0 01-13.457-5.981s4.485 36.482 7.177 43.36c2.692 6.878 3.887 23.025 3.887 23.025s-45.752-6.578-56.518-6.878c-10.766-.299-56.219 8.373-56.219 8.373s8.672-29.006 9.868-36.183c1.196-7.177 3.29-25.717 3.29-25.717s-14.952 4.484-23.026-7.477-1.5-51.733 8.074-68.479c9.575-16.745 61.004-20.932 61.004-20.932z"/><path id="Path_1462" fill="#A21E21" d="M220.982 243.716s2.871 25.119-4.306 34.389c-7.177 9.27 2.392 2.392 12.857 6.878 10.466 4.486 15.85 8.373 15.85 8.373a57.239 57.239 0 01-15.85-20.932c-5.382-12.859-8.551-28.708-8.551-28.708z"/><path id="Path_1463" fill="#A21E21" d="M143.585 243.716s-2.871 25.119 4.306 34.389c7.177 9.27-2.393 2.392-12.858 6.878-10.466 4.486-2.385 3.289-2.385 3.289s-3-2.99 2.385-15.849c5.384-12.859 8.552-28.707 8.552-28.707z"/><path id="Path_1458" fill="#F3AE83" d="M162.989 287.318s68.3 17.18 75.201 17.534c6.901.354 13.8-1.769 11.148-12.032-2.652-10.263-6.9-11.855-12.74-12.917-5.84-1.062-41.051-3.893-41.051-3.893l-32.558 11.308z"/><path id="Path_1460" fill="#E58250" d="M159.654 275.1s-11.842-2.586-14.156-4.083c-2.314-1.497-7.078-2.722-9.255-2.178-2.177.544-10.073 7.622-10.208 8.847-.135 1.225 1.089 3.131 1.089 3.131a19.386 19.386 0 01-1.089 2.722c-.68 1.361-.68 2.722 1.089 3.267 1.768.545 6.81-4.843 6.81-4.843l25.72-6.863z"/><path id="Path_1459" fill="#E58250" d="M176.185 290.45l7.36 1.447s18.734-8.725 23.406-10.577a103.983 103.983 0 0110.712-3.383l-2.577-1.208h-12.242l-26.658 12.161-.001 1.56z"/><path id="Path_1457" fill="#F3AE83" d="M127.124 283.832s-5.735 4.334-2.908 13.548c2.827 9.214 12.564 10.575 14.449 10.575 1.885 0 63.978-28.3 69.994-29.534 6.016-1.234 13.339.177 14.578 0 1.239-.177 1.51-4.178-4.683-7.894s-13.625-5.131-29.019-2.477c-15.394 2.654-62.411 15.782-62.411 15.782z"/><path id="Path_1461" fill="#F3AE83" d="M127.324 286.112c1.207.521 2.5.812 3.813.858 1.43-.143 5.146-3.811 5.146-3.811l23.494-8.054-27.783 3.622-4.67 7.385z"/><path id="Path_1465" fill="#07222F" d="M118.618 415.639l57.737-15.871s25.763 4.6 34.734 7.131c8.971 2.53 29.213 8.74 29.213 8.74s-8.741-10.581-20.012-14.031c-11.27-3.451-26.683-12.651-45.085-11.961-18.401.689-23.923 9.66-34.5 14.031-10.577 4.371-22.087 11.961-22.087 11.961z"/><path id="Path_1452" fill="#003049" d="M195.619 509.379a3.943 3.943 0 014.1.978c1.676 1.862 6.145 2.234 7.448 2.234 1.303 0 6.517-7.82 13.034-5.771 6.517 2.048 7.82 8.936 7.82 8.936s2.048 5.213 6.889 6.89a35.241 35.241 0 008.937 1.861 8.313 8.313 0 016.517 0c3.538 1.49 2.234 9.5 2.234 9.5h-47.666s-17.5-7.262-17.875-9.5c-.375-2.238 8.562-15.128 8.562-15.128z"/><path id="Path_1466" fill="#FFF" d="M144.723 526.323s-.322-4.431 2.9-4.511c3.222-.079 7.168 2.5 7.168 2.5l6.04-8.135-5.638 12-10.47-1.854z"/><path id="Path_1467" fill="#FFF" d="M212.821 526.323s.322-4.431-2.899-4.511c-3.222-.079-7.168 2.5-7.168 2.5l-6.04-8.135 5.638 12 10.469-1.854z"/><path id="Path_1486" fill="#07222F" d="M240.303 415.639s-5.083 15.994-12.16 24.843c-7.077 8.848-14.156 15.788-19.328 28.855-5.172 13.067-9.392 32.259-9.392 32.259l3.811 3.131s5.989-30.625 10.48-39.064c4.491-8.438 19.056-26.406 23.411-36.478 4.355-10.072 3.178-13.546 3.178-13.546z"/><path id="Path_1487" fill="#07222F" d="M118.52 415.664a76.217 76.217 0 0012.643 30.751c10.617 15.04 18.4 29.727 20.879 38.928a117.103 117.103 0 013.185 19.287l3.362-3.362a129.065 129.065 0 00-11.148-41.051c-9.731-20.7-17.118-22.448-22.689-32.822-5.572-10.374-6.232-11.731-6.232-11.731z"/><path id="Path_1488" fill="#D52A28" d="M207.227 512.612a40.988 40.988 0 009.917 9.852c6.282 4.35 11.114 5.638 19.571 5.718 5.241.038 10.48-.246 15.687-.85a4.753 4.753 0 00-4.492-3.741c-3.866-.241-4.306.865-4.306.865s-11.565-1.657-13.66-5.523c-2.094-3.866-2.088-10.241-8.128-11.933-6.04-1.691-7.571-.081-9.423 1.208a65.852 65.852 0 00-5.166 4.404z"/><path id="Path_1489" fill="#D52A28" d="M150.915 512.584a43.491 43.491 0 01-10.077 9.88c-6.282 4.349-11.114 5.638-19.571 5.718a101.25 101.25 0 01-15.5-1.072 4.325 4.325 0 014.3-3.519c3.866-.241 4.633.694 4.633.694s11.081-1.449 13.175-5.315c2.094-3.865 2.247-10.278 8.288-11.97 6.041-1.69 7.571-.081 9.423 1.208 1.852 1.289 5.329 4.376 5.329 4.376z"/><path id="Path_1484" fill="#D52A28" d="M208.571 129.948s17.942 9.2 17.482 19.322c-.46 10.122-25.993 6.671-25.993 6.671l8.511-25.993"/><path id="Path_1475" fill="#F3AE83" d="M205.474 149.323s4.777-5.485 9.555-2.3c4.778 3.185.177 15.394-3.893 16.81-4.07 1.416-8.493-1.239-8.493-1.239l2.831-13.271z"/><path id="Path_1476" fill="#F3AE83" d="M156.233 149.323s-4.777-5.485-9.555-2.3c-4.778 3.185-.177 15.394 3.893 16.81 4.07 1.416 8.493-1.239 8.493-1.239l-2.831-13.271z"/><path id="Path_1471" fill="#F3AE83" d="M158.05 216.437s8.459-15.191 8.459-27.631v-15.939l28.767 3.5c-.143 8.225.64 16.44 2.333 24.491 2.721 11.662 5.768 12.591 5.768 12.591s-1.361 9.114-24.228 8.978c-22.868-.136-21.099-5.99-21.099-5.99z"/><path id="Path_1472" fill="#F3AE83" d="M154.695 123.386a25.496 25.496 0 00-3.11 14.928c1.323 13.663 3.948 33.617 8.321 40.663 7 11.274 14.773 12.44 19.438 12.44 4.665 0 15.161-1.166 21.381-12.44 6.22-11.274 10.107-55.591 10.107-55.591h-56.137z"/><path fill="#E58250" d="M166.509 172.867v15.939c0 2.705-.401 5.54-1.026 8.32 3.928 2.713 8.688 4.865 14.022 5.016 5.851.166 11.877-3.026 17.065-6.99a109.641 109.641 0 01-1.294-18.786l-28.767-3.499z"/><path id="Path_1477" fill="#FFF" d="M161.033 182s5.853 11.433 17.422 10.753c11.569-.68 15.789-4.356 17.558-6.125a18.603 18.603 0 002.45-2.858s.136-12.658-5.581-17.014c-5.717-4.356-11.3-5.717-14.428-5.853-3.128-.136-10.889 4.22-12.386 5.853-1.497 1.633-2.994 6.669-4.083 10.344s-.952 4.9-.952 4.9z"/><path id="Intersection_39" fill="#ECECEC" d="M161.327 182.529c6.093.643 15.579 1.237 23.116-.118a50.45 50.45 0 0013.546-4.492c.302 1.937.461 3.894.475 5.854a18.548 18.548 0 01-2.45 2.858c-1.771 1.769-5.99 5.444-17.56 6.125-.335.02-.664.029-.989.029-9.454 0-14.861-8.094-16.138-10.256z"/><path id="Path_1480" fill="#FFF" d="M191.872 167.214s10.675-16.87 13.439-19.491a6.098 6.098 0 015.766-1.668s-1.859-.524-4.909 3.336-12.773 19.872-12.773 19.872l-1.523-2.049z"/><path id="Path_1481" fill="#FFF" d="M169.076 167.214s-10.675-16.87-13.439-19.491a6.1 6.1 0 00-5.767-1.668s1.859-.524 4.909 3.336 12.772 19.873 12.772 19.873l1.525-2.05z"/><path id="Path_1482" fill="#FFF" d="M196.924 178.128a20.791 20.791 0 005.146-5.957 43.786 43.786 0 003.371-8.131l.728 1.031s-3.288 10.389-5.862 13.058c-2.574 2.669-2.955 2.621-2.955 2.621l-.428-2.622z"/><path id="Path_1483" fill="#FFF" d="M163.168 178.128a20.81 20.81 0 01-5.147-5.957 43.786 43.786 0 01-3.371-8.131l-.727 1.031s3.288 10.389 5.862 13.058c2.574 2.669 2.955 2.621 2.955 2.621l.428-2.622z"/><path id="Path_1485" fill="#F3AE83" d="M152.072 143.2s13.518-5.48 33.1-4.433c19.582 1.047 23.541 3.913 23.541 3.913l.8-4.013s-18.166-6.391-29.159-6.391c-10.993 0-28.78 5.827-28.78 5.827l.498 5.097z"/><g id="Group_366" transform="translate(-98.101 23.912)"><ellipse id="Ellipse_93" cx="279.996" cy="82.588" fill="#D52A28" rx="4.5" ry="2.5"/><path id="Path_1473" fill="#537DBF" d="M249.563 114.419s16.4-5.177 30.443-3.821a141.403 141.403 0 0127.336 5.794s4.226-19.724-1.118-25.764c-5.343-6.04-27.088-8.506-27.088-8.506a43.366 43.366 0 00-16.9 3.328c-8.822 3.7-11.307 8.875-11.8 10.478-.492 1.603-.873 18.491-.873 18.491z"/><path id="Path_1474" fill="#F3AE83" d="M268.551 107.313s10.336-.379 13.275 0 7.491 1.233 7.491 1.233-.095-7.586-9.672-8.913-11.094 7.68-11.094 7.68z"/></g></g><ellipse id="Ellipse_92-2" cx="637.896" cy="534" fill="#010101" opacity=".4" rx="109.5" ry="9"/><path id="Path_1453-2" fill="#EE8771" d="M656.551 500.433l-4.87 12.747 14.035 2.578 6.732-11.6-15.897-3.725z"/><path id="Path_1455-2" fill="#EE8771" d="M611.567 500.433l4.87 12.747-14.036 2.578-6.732-11.6 15.898-3.725z"/><path id="Path_1451-2" fill="#D52A28" d="M632.396 360.2s37.634.817 55.634 8.181c18 7.363 47.043 23.317 40.5 48.271-6.543 24.952-25.771 47.452-33.135 54.815-7.363 7.364-16.554 24-18.006 27.626-1.451 3.626-4.115 9.44-4.115 9.44s-4.356 2.663-11.376-1.452c-7.019-4.115-7.262-5.81-7.262-5.81s7.746-30.257 13.555-40.664c5.81-10.408 15.733-18.4 18.154-23.722 2.421-5.32 9.05-21.3 9.05-21.3s-32.287-9.2-40.759-11.861a103.596 103.596 0 00-22.238-3.873c-3.9-.241-24.962 7.021-36.581 10.166-11.619 3.146-22.269 5.567-22.269 5.567s10.408 22.511 15.007 26.384c4.599 3.873 15.976 23.9 18.153 29.5 2.178 5.6 6.778 29.801 6.778 29.801s-3.39 5.082-6.778 5.809c-3.389.726-10.892 1.452-10.892 1.452s-8.473-16.7-11.861-25.9c-3.389-9.2-11.376-14.523-25.899-32.192-14.524-17.671-20.091-26.385-17.187-44.538 2.905-18.154 31.951-31.957 44.3-37.522 12.349-5.563 47.227-8.178 47.227-8.178z"/><path id="Path_1454-2" fill="#FEBE12" d="M617.499 509.379a3.946 3.946 0 00-4.101.978c-1.676 1.862-6.146 2.234-7.448 2.234s-6.517-7.82-13.033-5.771c-6.518 2.048-7.82 8.936-7.82 8.936s-2.049 5.213-6.889 6.89a35.258 35.258 0 01-8.938 1.861 8.315 8.315 0 00-6.518 0c-3.537 1.49-2.233 9.5-2.233 9.5h47.668s17.5-7.262 17.875-9.5c.376-2.238-8.563-15.128-8.563-15.128z"/><path id="Path_1464-2" fill="#112836" d="M578.434 371.507s48.053-4.722 56.37-3.13c8.317 1.592 56.268 1.77 56.268 1.77l-39.812-12.918h-42.464l-30.362 14.278z"/><path id="Path_1456-2" fill="#FEBE12" d="M637.835 212.719s37.082-1.5 47.547 4.188c10.467 5.687 24.521 47.846 27.213 68.18 2.69 20.334-12.56 26.315-18.84 24.521a70.948 70.948 0 01-13.457-5.981s4.485 36.482 7.178 43.36c2.691 6.878 3.887 23.025 3.887 23.025s-45.752-6.578-56.518-6.878c-10.767-.299-56.22 8.373-56.22 8.373s8.672-29.006 9.868-36.183c.563-3.38 7.412-32.152 2.63-37.681-4.942-5.719-11.958 9.662-18.168 7.132-6.21-2.53-21.162-20.474-27.601-32.2-6.438-11.727 21.91-22.173 31.479-38.919 9.57-16.746 61.002-20.937 61.002-20.937z"/><path id="Path_1465-2" fill="#A21E21" d="M573.618 415.639l57.737-15.871s25.763 4.6 34.733 7.131c8.972 2.53 29.213 8.74 29.213 8.74s-8.74-10.581-20.012-14.031c-11.271-3.451-26.683-12.651-45.085-11.961-18.401.689-23.923 9.66-34.5 14.031-10.576 4.371-22.086 11.961-22.086 11.961z"/><path id="Path_1452-2" fill="#FEBE12" d="M650.618 509.379a3.946 3.946 0 014.101.978c1.676 1.862 6.146 2.234 7.448 2.234 1.303 0 6.517-7.82 13.033-5.771 6.518 2.048 7.82 8.936 7.82 8.936s2.049 5.213 6.889 6.89a35.258 35.258 0 008.938 1.861 8.315 8.315 0 016.518 0c3.537 1.49 2.233 9.5 2.233 9.5h-47.666s-17.5-7.262-17.875-9.5c-.375-2.238 8.561-15.128 8.561-15.128z"/><path id="Path_1468-2" fill="none" stroke="#112836" d="M636.396 365.753l-2.2 15.601-4.815 2.826"/><path id="Path_1486-2" fill="#A21E21" d="M695.303 415.639s-5.083 15.994-12.16 24.843c-7.077 8.848-14.156 15.788-19.328 28.855-5.172 13.067-9.392 32.259-9.392 32.259l3.811 3.131s5.989-30.625 10.48-39.064c4.49-8.438 19.056-26.406 23.41-36.478 4.355-10.072 3.179-13.546 3.179-13.546z"/><path id="Path_1487-2" fill="#A21E21" d="M573.519 415.664a76.19 76.19 0 0012.644 30.751c10.616 15.04 18.399 29.727 20.879 38.928a117.21 117.21 0 013.185 19.287l3.362-3.362a129.116 129.116 0 00-11.147-41.051c-9.731-20.7-17.118-22.448-22.69-32.822-5.572-10.374-6.233-11.731-6.233-11.731z"/><path id="Path_1488-2" fill="#D52A28" d="M662.227 512.612a40.988 40.988 0 009.917 9.852c6.282 4.35 11.114 5.638 19.571 5.718 5.241.038 10.481-.246 15.687-.85a4.752 4.752 0 00-4.491-3.741c-3.866-.241-4.307.865-4.307.865s-11.565-1.657-13.66-5.523c-2.094-3.866-2.088-10.241-8.127-11.933-6.041-1.691-7.571-.081-9.424 1.208a65.852 65.852 0 00-5.166 4.404z"/><path id="Path_1489-2" fill="#D52A28" d="M605.915 512.584a43.51 43.51 0 01-10.077 9.88c-6.282 4.349-11.114 5.638-19.571 5.718a101.25 101.25 0 01-15.5-1.072 4.325 4.325 0 014.3-3.519c3.866-.241 4.634.694 4.634.694s11.08-1.449 13.175-5.315c2.094-3.865 2.247-10.278 8.288-11.97 6.041-1.69 7.57-.081 9.423 1.208 1.851 1.289 5.328 4.376 5.328 4.376z"/><path id="Path_1471-2" fill="#F3AE83" d="M613.05 216.437s8.459-15.191 8.459-27.631v-15.939l28.767 3.5c-.143 8.225.64 16.44 2.333 24.491 2.721 11.662 5.768 12.591 5.768 12.591s-1.361 9.114-24.228 8.978c-22.869-.136-21.099-5.99-21.099-5.99z"/><path id="Intersection_39-2" fill="#ECECEC" d="M616.327 182.529c6.094.643 15.579 1.237 23.116-.118a50.438 50.438 0 0013.546-4.492c.302 1.937.461 3.894.475 5.854a18.541 18.541 0 01-2.449 2.858c-1.771 1.769-5.99 5.444-17.56 6.125-.335.02-.664.029-.989.029-9.455 0-14.862-8.094-16.139-10.256z"/><path id="Subtraction_22" fill="#F3AE83" d="M463.23 358.6a19.506 19.506 0 01-5.664-.892c-1.851-.6-2.971-1.361-3.076-2.1a2.361 2.361 0 01.763-1.637 11.685 11.685 0 017.978-3.654c.556 0 1.282.026 2.124.058h.009c1.2.045 2.685.1 4.301.1a51.32 51.32 0 005.733-.288v3.789h-.112c-.346.19-8.453 4.624-12.056 4.624z"/><path fill="#E58250" d="M651.373 193.805a109.79 109.79 0 01-1.098-17.437l-28.767-3.5v15.939c0 1.707-.164 3.467-.439 5.232 4.266 3.823 9.47 6.819 15.325 6.819 5.814-.001 10.874-3.093 14.979-7.053z"/><path id="Path_1496" fill="#F3AE83" d="M488.341 374.772s-3.018 6.109-4.676 8.07c-1.659 1.961-18.855 6.637-20.59 5.43-1.734-1.206-3.922-6.712-3.771-8.221.151-1.509 2.489-4.978 2.489-4.978l26.548-.301z"/><path id="Path_1497" fill="#F3AE83" d="M682.023 298.958s-.513-4.995 9.986-9.105c10.498-4.11 17.148 4.102 17.148 4.102L713.016 386a10.974 10.974 0 01-7.03.825c-3.738-.91-9.424-5.955-9.424-5.955s-5.293-24.988-9.922-44.31a181.45 181.45 0 01-4.617-37.602z"/><path id="Path_1498" fill="#F3AE83" d="M700.54 376.645s-3.147.663-4.308 2.983c-1.16 2.32-.828 8.782.663 13.09 1.491 4.309 1.491 10.273 2.485 12.261.994 1.988 4.805 2.485 5.8 1.491.995-.994-1.385-6.534-1.5-7.694a4.232 4.232 0 01.29-2.031s6.206 1.619 10.284 4.55 5.736 11.344 7.393 12.618c1.657 1.274 10.324-.255 10.579-6.883.255-6.628 0-4.206 0-4.206s1.4-1.343 0-4.049c-1.399-2.706-8.412-13.54-13-15.325-4.588-1.785-6.118-3.95-6.373-3.823-.255.127-3.059-2.167-3.059-2.167l-9.254-.815z"/><path id="Path_1499" fill="#F99E23" d="M562.747 296.4s9.813 8.795 11.6 8.795c1.786 0 6.118-4.971 11.089-8.03 4.972-3.059 7.559.446 7.725 6.743.166 6.297-7.725 48.372-7.725 48.372s10.949-25.987 14.029-50.349a279.704 279.704 0 001.399-48.165s-15.399 30.523-22.399 35.843a40.388 40.388 0 01-15.718 6.791z"/><path id="Path_1500" fill="#F99E23" d="M676.472 251.523s2.24 16.242 5.881 21.842c3.641 5.6 11.551 4.194 16.688 6.017 5.136 1.823 10.77 5.965 11.433 8.285.663 2.32-.663 8.948-.663 8.948s-3.977-9.115-14.414-8.115a16.869 16.869 0 00-13.918 9.445v5.956s-1.657-1.988-2.32-2.154c-.663-.166-3.049-20.546-2.684-34.3.364-13.755-.003-15.924-.003-15.924z"/><circle id="Ellipse_94" cx="612.396" cy="522" r="5" fill="#FFF"/><circle id="Ellipse_95" cx="655.396" cy="522" r="5" fill="#FFF"/><path id="Path_1475-2" fill="#F3AE83" d="M660.474 149.323s4.777-5.485 9.555-2.3c4.777 3.185.177 15.394-3.893 16.81-4.07 1.416-8.493-1.239-8.493-1.239l2.831-13.271z"/><path id="Path_1476-2" fill="#F3AE83" d="M611.233 149.323s-4.777-5.485-9.555-2.3c-4.778 3.185-.178 15.394 3.893 16.81 4.07 1.416 8.493-1.239 8.493-1.239l-2.831-13.271z"/><path id="Path_1472-2" fill="#F3AE83" d="M609.695 123.386a25.496 25.496 0 00-3.11 14.928c1.323 13.663 3.948 33.617 8.321 40.663 7 11.274 14.773 12.44 19.438 12.44 4.665 0 15.161-1.166 21.381-12.44 6.22-11.274 10.106-55.591 10.106-55.591s-2.963-7.216-17-7.216c-14.037 0-39.136 7.216-39.136 7.216z"/><path id="Path_1477-2" fill="#FFF" d="M616.033 182s5.853 11.433 17.423 10.753c11.568-.68 15.789-4.356 17.558-6.125a18.603 18.603 0 002.45-2.858s.136-12.658-5.581-17.014c-5.718-4.356-11.3-5.717-14.429-5.853-3.127-.136-10.889 4.22-12.386 5.853-1.497 1.633-2.993 6.669-4.083 10.344-1.089 3.675-.952 4.9-.952 4.9z"/><path id="Path_1482-2" fill="#FFF" d="M651.924 178.128a20.825 20.825 0 005.147-5.957 43.854 43.854 0 003.371-8.131l.727 1.031s-3.288 10.389-5.862 13.058c-2.574 2.669-2.955 2.621-2.955 2.621l-.428-2.622z"/><path id="Path_1483-2" fill="#FFF" d="M618.169 178.128a20.81 20.81 0 01-5.147-5.957 43.786 43.786 0 01-3.371-8.131l-.728 1.031s3.289 10.389 5.862 13.058c2.574 2.669 2.955 2.621 2.955 2.621l.429-2.622z"/><path id="Path_1501" fill="#11151C" d="M609.624 159.982s2.024-21.106 13.28-23.673c11.257-2.567 16.393-6.715 16.393-6.715l-2.173 6.715s6.912-4.147 9.084-8.69a40.652 40.652 0 002.963-10.27s3.356 6.912 2.567 10.27a48.557 48.557 0 01-2.567 7.307s3.159 1.383 4.739-1.185a15.42 15.42 0 001.976-5.135s3.753 13.43 3.949 18.367c.197 4.937.724 15.434.724 15.434s8.757-25.112 5.991-38.739c-2.765-13.627-14.022-13.825-14.022-13.825s2.566-2.962-.79-6.715c-3.357-3.753-5.53-3.95-5.53-3.95a13.37 13.37 0 012.962 3.95c.79 1.975-1.382 4.345-1.382 4.345s-10.846-9.282-29.411 0c-18.564 9.282-12.446 33.241-11.657 36.994.791 3.753 2.904 15.515 2.904 15.515z"/><path id="Path_1480-2" fill="#FFF" d="M646.872 167.214s10.675-16.87 13.438-19.491a6.1 6.1 0 015.767-1.668s-1.859-.524-4.909 3.336-12.772 19.872-12.772 19.872l-1.524-2.049z"/><path id="Path_1481-2" fill="#FFF" d="M624.076 167.214s-10.675-16.87-13.438-19.491a6.1 6.1 0 00-5.767-1.668s1.859-.524 4.909 3.336 12.771 19.873 12.771 19.873l1.525-2.05z"/><g fill="#4C4C4C"><path d="M383.397 192.135V175.25c-3.142 2.412-5.257 3.618-6.346 3.618-.52 0-.98-.207-1.382-.621-.402-.415-.603-.894-.603-1.438 0-.631.198-1.095.594-1.392.396-.297 1.095-.68 2.097-1.15 1.497-.705 2.693-1.447 3.59-2.227a15.218 15.218 0 002.384-2.616c.692-.965 1.144-1.559 1.354-1.781.21-.223.606-.334 1.188-.334.655 0 1.181.254 1.577.761.396.508.594 1.206.594 2.097v21.245c0 2.486-.848 3.729-2.542 3.729-.755 0-1.361-.254-1.818-.761-.459-.506-.687-1.254-.687-2.245z"/><path d="M414.717 185.215v6.735c0 1.064-.241 1.862-.724 2.394s-1.12.798-1.911.798c-.768 0-1.389-.267-1.865-.798s-.714-1.329-.714-2.394v-8.071c0-1.273-.044-2.264-.13-2.969-.087-.705-.322-1.283-.705-1.734-.384-.452-.99-.678-1.818-.678-1.658 0-2.75.569-3.275 1.707-.525 1.139-.788 2.771-.788 4.898v6.847c0 1.052-.238 1.847-.714 2.384-.477.539-1.104.808-1.884.808-.767 0-1.395-.269-1.883-.808-.489-.537-.733-1.332-.733-2.384v-14.491c0-.952.219-1.676.659-2.171.439-.494 1.017-.742 1.735-.742.692 0 1.271.231 1.735.696.463.463.695 1.104.695 1.92v.482c.878-1.051 1.818-1.824 2.82-2.319 1.002-.494 2.115-.742 3.34-.742 1.273 0 2.369.254 3.284.761.915.508 1.67 1.274 2.264 2.301.854-1.039 1.769-1.809 2.746-2.311.978-.5 2.06-.751 3.247-.751 1.385 0 2.579.272 3.581.816a5.201 5.201 0 012.245 2.338c.433.916.649 2.356.649 4.323v9.89c0 1.064-.241 1.862-.724 2.394s-1.119.798-1.911.798c-.767 0-1.396-.269-1.884-.808-.488-.537-.732-1.332-.732-2.384v-8.517c0-1.088-.047-1.96-.139-2.616-.094-.655-.344-1.206-.752-1.651s-1.027-.668-1.855-.668c-.668 0-1.303.198-1.902.594-.6.396-1.066.928-1.4 1.596-.371.853-.557 2.363-.557 4.527z"/></g><polygon fill="#D52A28" points="478.599,257.771 513.348,224.806 475.2,198.078 476.094,213.77 325.353,212.684 326.439,193.623 288.291,220.351 323.04,253.316 324.359,230.151 477.28,234.606"/><g transform="translate(-396 -248)"><g id="Group_143"><path id="Path_67" fill="#00A896" d="M843.211 348.697c-.329-.989-.828-1.968-1.602-2.513-.773-.545-1.86-.511-2.369.295-.395.625-.355 1.547-.075 2.303.049.127.108.25.177.368a1.162 1.162 0 01-.858 1.721 7.995 7.995 0 01-4.662-.693 19.121 19.121 0 00-.983-2.606 5.05 5.05 0 011.95-2.275.753.753 0 011.143.438c.017.062.036.123.056.183.114.438.365.829.716 1.114a.972.972 0 001.408-.45 2.76 2.76 0 00-.002-1.819 7.297 7.297 0 00-1.312-2.596 3.157 3.157 0 00-1.51-1.158 1.046 1.046 0 00-1.357.694c-.061.51.107 1.022.458 1.397.057.066.119.127.186.183a.742.742 0 01-.139 1.22 5.1 5.1 0 01-2.973.6 19.24 19.24 0 00-2.328-2.888 7.16 7.16 0 011.462-3.702 1.054 1.054 0 011.715.03c.052.073.105.144.161.213.36.522.878.916 1.477 1.124a1.363 1.363 0 001.64-1.268c.069-.8-.355-1.655-.875-2.395a10.238 10.238 0 00-2.974-2.79c-.794-.489-1.7-.872-2.544-.802-.843.07-1.568.719-1.454 1.565a2.441 2.441 0 001.274 1.621c.107.059.218.11.333.151a1.041 1.041 0 01.403 1.675 7.206 7.206 0 01-3.475 2.175 19.125 19.125 0 00-3.142-1.745 4.289 4.289 0 01.036-2.523.639.639 0 01.982-.338c.045.031.09.06.136.088a1.8 1.8 0 001.073.333.825.825 0 00.67-1.06 2.338 2.338 0 00-.993-1.181 6.19 6.19 0 00-2.27-.971 2.677 2.677 0 00-1.613.071.888.888 0 00-.504 1.191c.239.365.627.606 1.06.659.073.011.147.017.221.017a.63.63 0 01.576.869 4.326 4.326 0 01-1.624 2.025 19.026 19.026 0 00-3.562-.693 7.164 7.164 0 01-1.258-3.773 1.054 1.054 0 011.333-1.08c.087.023.174.043.26.06a2.978 2.978 0 001.854-.089 1.362 1.362 0 00.441-2.025c-.461-.657-1.335-1.041-2.209-1.272a10.24 10.24 0 00-4.072-.225c-.922.136-1.863.425-2.463 1.021-.601.596-.739 1.56-.107 2.133a2.441 2.441 0 002.018.423c.12-.023.238-.056.352-.099a1.04 1.04 0 011.384 1.024 7.203 7.203 0 01-1.265 3.901 19.06 19.06 0 00-4.071.851 4.886 4.886 0 01-.564-.985.639.639 0 01.534-.891c.054-.005.106-.011.161-.02a1.806 1.806 0 001.037-.435.825.825 0 00-.169-1.244 2.338 2.338 0 00-1.52-.266 6.196 6.196 0 00-2.363.715c-.5.232-.915.614-1.19 1.091a.886.886 0 00.33 1.209l.05.027c.418.126.87.061 1.235-.177a1.28 1.28 0 00.18-.129.629.629 0 01.999.296c.123.385.197.785.222 1.188a19.146 19.146 0 00-4.236 2.319 5.803 5.803 0 01-2.5-1.61.845.845 0 01.262-1.348 3.76 3.76 0 00.19-.097 2.384 2.384 0 001.091-1.008 1.09 1.09 0 00-.771-1.468c-.621-.165-1.353.049-2.008.356a8.186 8.186 0 00-2.611 1.956 3.524 3.524 0 00-.987 1.894 1.172 1.172 0 00.96 1.353l.07.01a1.953 1.953 0 001.454-.778c.062-.076.117-.157.165-.242a.832.832 0 011.375-.084 5.851 5.851 0 011.213 2.827 19.226 19.226 0 00-2.837 3.478 5.492 5.492 0 01-1.474-.498.732.732 0 01-.186-1.177 2.67 2.67 0 00.126-.136c.314-.309.521-.711.59-1.146a.945.945 0 00-1.063-.968 2.683 2.683 0 00-1.532.887 7.098 7.098 0 00-1.549 2.371 3.07 3.07 0 00-.242 1.836c.101.553.631.92 1.185.819l.061-.013c.46-.197.81-.587.955-1.066a1.48 1.48 0 00.063-.246.723.723 0 011.096-.477 5.53 5.53 0 011.236 1.067 19.074 19.074 0 00-1.551 3.873 7.156 7.156 0 01-3.933.584 1.054 1.054 0 01-.832-1.5c.038-.081.071-.164.104-.246a2.981 2.981 0 00.234-1.842 1.361 1.361 0 00-1.917-.786c-.728.34-1.257 1.135-1.637 1.955a10.234 10.234 0 00-.929 3.972c-.026.933.095 1.908.578 2.603.483.695 1.407.999 2.082.477a2.442 2.442 0 00.767-1.915 2.221 2.221 0 00-.035-.364 1.04 1.04 0 011.248-1.186 7.2 7.2 0 013.626 1.927c-.036.485-.062.973-.062 1.467.001 1.044.087 2.086.257 3.116a6.276 6.276 0 01-1.576.603.834.834 0 01-1.024-.89c.006-.071.009-.142.011-.213a2.348 2.348 0 00-.324-1.432 1.077 1.077 0 00-1.638-.066c-.449.451-.628 1.183-.688 1.896a8.09 8.09 0 00.384 3.203 3.492 3.492 0 001.135 1.779 1.16 1.16 0 001.633-.153l.044-.056a1.927 1.927 0 00.052-1.631 1.735 1.735 0 00-.125-.261.823.823 0 01.607-1.219 6.318 6.318 0 011.837.022 18.98 18.98 0 001.312 3.617c-.894 1.463-2.97 3.127-4.149 3.903a1.054 1.054 0 01-1.602-.614 3.617 3.617 0 00-.079-.256 2.978 2.978 0 00-1.004-1.56 1.363 1.363 0 00-1.974.63c-.338.729-.234 1.677.003 2.549a10.222 10.222 0 001.841 3.639c.58.732 1.299 1.401 2.116 1.623.817.222 1.72-.14 1.902-.974a2.444 2.444 0 00-.643-1.959 2.254 2.254 0 00-.261-.256 1.04 1.04 0 01.194-1.71c1.324-.689 3.965-1.695 5.721-1.674a19.177 19.177 0 002.209 2.419 5.771 5.771 0 01-.835 1.556.78.78 0 01-1.268-.022 2.604 2.604 0 00-.12-.157 2.201 2.201 0 00-1.092-.831 1.007 1.007 0 00-1.212.937c.009.646.237 1.27.646 1.77a7.561 7.561 0 002.199 2.062c.55.386 1.207.593 1.879.593a1.084 1.084 0 001.074-1.157 1.806 1.806 0 00-.941-1.198 1.597 1.597 0 00-.246-.111.77.77 0 01-.298-1.237 5.83 5.83 0 011.446-1.16 19.135 19.135 0 003.936 2.366c.208.98.158 1.998-.145 2.953a.842.842 0 01-1.293.445 4.207 4.207 0 00-.179-.116 2.373 2.373 0 00-1.413-.439 1.087 1.087 0 00-.883 1.397c.167.618.717 1.144 1.308 1.555a8.15 8.15 0 002.988 1.278 3.527 3.527 0 002.124-.093 1.17 1.17 0 00.688-1.505l-.026-.064a1.949 1.949 0 00-1.396-.867 1.66 1.66 0 00-.29-.022.83.83 0 01-.759-1.145 5.838 5.838 0 011.829-2.45c1.5.427 3.046.668 4.604.72.109.366.174.743.195 1.125a.638.638 0 01-.807.653 2.236 2.236 0 00-.158-.035 1.81 1.81 0 00-1.122.053.825.825 0 00-.268 1.226c.346.4.818.672 1.338.77a6.19 6.19 0 002.465.137 2.679 2.679 0 001.492-.618.886.886 0 00.103-1.249l-.038-.042a1.476 1.476 0 00-1.221-.257 1.294 1.294 0 00-.213.06.63.63 0 01-.838-.619 4.93 4.93 0 01.2-1.199 19.155 19.155 0 003.823-.479 8.414 8.414 0 013.116 3.822 1.252 1.252 0 01-1.048 1.745 5.21 5.21 0 00-.315.039c-.738.118-1.535.328-2.031.851a1.615 1.615 0 00.33 2.436c.78.545 1.911.618 2.979.522a12.13 12.13 0 004.631-1.401c.974-.526 1.904-1.229 2.332-2.137.428-.909.191-2.038-.745-2.422-.727-.298-1.682-.086-2.421.347a2.57 2.57 0 00-.352.253 1.235 1.235 0 01-1.958-.579 8.476 8.476 0 01-.118-5.075 19.256 19.256 0 002.815-1.756 6.217 6.217 0 011.629 1.25.843.843 0 01-.262 1.347 3.76 3.76 0 00-.19.097 2.38 2.38 0 00-1.091 1.008 1.09 1.09 0 00.771 1.468c.621.165 1.353-.048 2.008-.356a8.186 8.186 0 002.611-1.956 3.53 3.53 0 00.984-1.892 1.173 1.173 0 00-.96-1.353l-.071-.01a1.953 1.953 0 00-1.454.778 1.712 1.712 0 00-.165.241.832.832 0 01-1.375.084 6.248 6.248 0 01-1.006-1.897 19.253 19.253 0 002.627-2.968 7.156 7.156 0 013.901.796 1.054 1.054 0 01.268 1.694 4.18 4.18 0 00-.182.196 2.967 2.967 0 00-.851 1.65 1.362 1.362 0 001.531 1.395c.8-.071 1.569-.636 2.207-1.277a10.239 10.239 0 002.231-3.414c.344-.867.564-1.825.348-2.644-.216-.819-.981-1.42-1.794-1.16a2.442 2.442 0 00-1.376 1.536c-.04.116-.07.234-.091.355a1.04 1.04 0 01-1.579.687 7.206 7.206 0 01-2.746-3.046 19.02 19.02 0 001.244-3.708 5.787 5.787 0 011.762-.055.78.78 0 01.615 1.108c-.028.06-.053.121-.077.182a2.202 2.202 0 00-.173 1.361 1.006 1.006 0 001.416.581c.555-.331.981-.84 1.209-1.444a7.552 7.552 0 00.686-2.934 3.256 3.256 0 00-.426-1.923 1.084 1.084 0 00-1.483-.387l-.055.035a1.801 1.801 0 00-.567 1.413c.002.09.01.18.027.269a.768.768 0 01-.922.876 5.827 5.827 0 01-1.725-.671c.12-.867.181-1.74.182-2.615 0-.393-.016-.782-.039-1.17a7.95 7.95 0 014.007-2.217 1.178 1.178 0 011.447 1.257c-.008.1-.013.2-.015.299-.012.704.052 1.478.458 2.024a1.521 1.521 0 002.314.093c.634-.636.887-1.671.972-2.679a11.236 11.236 0 00-.533-4.524z"/></g><g id="Group_143_1_"><path id="Path_67_1_" fill="#00A896" d="M788.103 297.439c-.164-.495-.414-.984-.801-1.256-.386-.273-.93-.256-1.185.148-.198.313-.177.773-.037 1.151.025.064.054.125.089.184a.582.582 0 01-.429.861 4.002 4.002 0 01-2.331-.346 9.6 9.6 0 00-.491-1.303c.202-.469.542-.866.975-1.138a.377.377 0 01.572.219c.008.031.018.062.028.091.057.219.182.414.358.557a.485.485 0 00.704-.225 1.376 1.376 0 00-.001-.909 3.652 3.652 0 00-.656-1.298 1.58 1.58 0 00-.755-.579.524.524 0 00-.669.317l-.01.03a.87.87 0 00.229.699.667.667 0 00.093.091.372.372 0 01-.069.61 2.547 2.547 0 01-1.487.3 9.62 9.62 0 00-1.164-1.444 3.576 3.576 0 01.731-1.851.526.526 0 01.857.015c.026.037.053.072.081.106.18.261.439.458.739.562a.683.683 0 00.821-.634c.034-.4-.177-.828-.437-1.197a5.112 5.112 0 00-1.487-1.395c-.397-.245-.85-.436-1.272-.401-.422.035-.784.359-.727.783.082.351.315.648.637.811.053.03.109.055.166.075a.519.519 0 01.201.837 3.607 3.607 0 01-1.738 1.088 9.523 9.523 0 00-1.571-.872 2.135 2.135 0 01.018-1.261.32.32 0 01.491-.169c.022.016.045.03.068.044.157.111.345.17.537.166a.412.412 0 00.335-.53 1.17 1.17 0 00-.497-.591 3.105 3.105 0 00-1.135-.486 1.337 1.337 0 00-.806.035.443.443 0 00-.251.595.736.736 0 00.53.329.679.679 0 00.11.008.314.314 0 01.288.434c-.16.413-.444.766-.812 1.012a9.539 9.539 0 00-1.781-.347 3.575 3.575 0 01-.629-1.886.528.528 0 01.667-.54c.043.011.087.021.13.03.306.084.631.069.927-.045a.681.681 0 00.221-1.013c-.23-.329-.668-.521-1.105-.636a5.12 5.12 0 00-2.036-.113c-.461.068-.931.213-1.232.51-.3.298-.37.78-.053 1.067.289.216.658.294 1.009.212.06-.011.119-.028.176-.049a.52.52 0 01.692.511 3.604 3.604 0 01-.632 1.951 9.496 9.496 0 00-2.035.426 2.457 2.457 0 01-.282-.493.32.32 0 01.268-.445l.08-.01a.91.91 0 00.518-.217.412.412 0 00-.084-.622 1.17 1.17 0 00-.76-.133c-.414.039-.816.16-1.182.358-.25.116-.458.307-.595.545a.444.444 0 00.165.605l.025.013a.738.738 0 00.618-.089.637.637 0 00.09-.064.315.315 0 01.5.148c.061.193.099.392.111.594a9.56 9.56 0 00-2.118 1.159 2.908 2.908 0 01-1.25-.805.422.422 0 01.131-.673c.032-.015.064-.032.095-.049.231-.106.422-.282.545-.504a.545.545 0 00-.386-.735c-.31-.083-.677.024-1.004.178-.496.235-.94.568-1.306.978a1.77 1.77 0 00-.494.947.588.588 0 00.48.677l.035.005a.975.975 0 00.727-.389.924.924 0 00.083-.121.416.416 0 01.687-.042c.325.409.534.897.606 1.413a9.64 9.64 0 00-1.419 1.739 2.787 2.787 0 01-.737-.249.367.367 0 01-.094-.588c.022-.022.043-.045.063-.068.157-.155.26-.355.295-.573a.474.474 0 00-.532-.484 1.344 1.344 0 00-.766.443 3.553 3.553 0 00-.775 1.185 1.535 1.535 0 00-.121.918c.051.277.316.46.592.409l.03-.007a.845.845 0 00.477-.533.854.854 0 00.032-.123.361.361 0 01.548-.239c.231.146.44.326.618.534a9.445 9.445 0 00-.775 1.936 3.585 3.585 0 01-1.967.292.528.528 0 01-.417-.75c.019-.041.036-.082.052-.123.136-.287.177-.609.117-.921a.682.682 0 00-.959-.393c-.364.17-.629.567-.818.977a5.128 5.128 0 00-.464 1.986c-.013.466.048.954.289 1.302.241.348.703.5 1.041.239.263-.247.404-.597.383-.958a1.111 1.111 0 00-.018-.182.52.52 0 01.625-.593 3.593 3.593 0 011.813.964 9.89 9.89 0 00-.031.734c0 .522.043 1.043.128 1.558a3.178 3.178 0 01-.788.302.418.418 0 01-.512-.445c.003-.035.005-.071.005-.106a1.174 1.174 0 00-.162-.716.54.54 0 00-.819-.033c-.224.225-.314.592-.344.948a4.043 4.043 0 00.192 1.601c.093.348.291.658.567.889a.581.581 0 00.839-.104.963.963 0 00.026-.816.78.78 0 00-.063-.13.411.411 0 01.303-.609c.305-.041.614-.038.918.011.157.624.377 1.23.656 1.809-.447.731-1.485 1.563-2.075 1.952a.528.528 0 01-.801-.308 2.708 2.708 0 00-.039-.128 1.49 1.49 0 00-.502-.78.681.681 0 00-.987.315c-.169.364-.117.838.001 1.275.182.662.495 1.281.92 1.819.29.366.649.7 1.058.812.409.111.86-.07.951-.487a1.22 1.22 0 00-.321-.979 1.208 1.208 0 00-.13-.128.52.52 0 01.097-.856c.662-.345 1.983-.847 2.861-.837.333.434.703.838 1.104 1.21a2.877 2.877 0 01-.417.778.39.39 0 01-.634-.011 1.493 1.493 0 00-.06-.079 1.094 1.094 0 00-.546-.415.504.504 0 00-.606.469c.005.323.118.635.323.885.293.414.667.765 1.099 1.031.275.193.603.297.94.296a.543.543 0 00.539-.545l-.001-.033a.902.902 0 00-.471-.599.76.76 0 00-.123-.056.384.384 0 01-.148-.619c.208-.231.453-.426.723-.58a9.568 9.568 0 001.968 1.183c.104.49.079.999-.072 1.477a.42.42 0 01-.647.223 1.383 1.383 0 00-.09-.058 1.191 1.191 0 00-.707-.219.543.543 0 00-.441.699c.083.309.358.572.654.778.45.311.958.528 1.494.639.35.094.721.078 1.062-.047a.585.585 0 00.331-.784.974.974 0 00-.698-.434.787.787 0 00-.145-.011.415.415 0 01-.38-.573c.19-.482.506-.905.914-1.225.75.214 1.523.334 2.302.36.054.183.087.372.098.562a.32.32 0 01-.403.327 1.123 1.123 0 00-.079-.018.898.898 0 00-.561.027.413.413 0 00-.134.613c.173.2.409.336.669.385.402.105.821.128 1.232.068.275-.024.535-.132.746-.309a.444.444 0 00.033-.646.737.737 0 00-.611-.128.641.641 0 00-.106.03.314.314 0 01-.419-.31c.008-.203.042-.404.1-.599a9.609 9.609 0 001.911-.239 4.213 4.213 0 011.558 1.911.626.626 0 01-.524.872 2.066 2.066 0 00-.158.02c-.369.059-.767.164-1.015.426a.808.808 0 00.165 1.219c.39.273.955.309 1.489.261a6.058 6.058 0 002.315-.701c.487-.263.952-.614 1.166-1.069.214-.454.096-1.019-.372-1.211-.363-.149-.841-.043-1.211.173a1.282 1.282 0 00-.176.126.617.617 0 01-.98-.29 4.243 4.243 0 01-.059-2.538 9.46 9.46 0 001.407-.878c.304.162.579.373.814.625a.422.422 0 01-.131.674 1.704 1.704 0 00-.095.049 1.189 1.189 0 00-.545.504.545.545 0 00.386.735c.31.083.677-.024 1.004-.178.496-.235.94-.568 1.306-.978a1.76 1.76 0 00.492-.946.588.588 0 00-.48-.677l-.035-.005a.975.975 0 00-.727.389.924.924 0 00-.083.121.416.416 0 01-.687.043 3.138 3.138 0 01-.503-.949 9.548 9.548 0 001.313-1.484 3.59 3.59 0 011.951.398.528.528 0 01.135.847 1.676 1.676 0 00-.091.098 1.497 1.497 0 00-.426.825.68.68 0 00.766.697c.4-.035.785-.318 1.103-.638a5.108 5.108 0 001.115-1.707c.172-.434.282-.913.174-1.322-.108-.409-.491-.71-.897-.58a1.224 1.224 0 00-.688.768c-.02.058-.035.117-.045.177a.52.52 0 01-.789.343 3.596 3.596 0 01-1.373-1.523c.27-.595.479-1.216.622-1.854.291-.054.588-.063.881-.027a.39.39 0 01.307.554c-.014.03-.027.061-.038.091a1.1 1.1 0 00-.087.68.503.503 0 00.708.29c.277-.165.49-.42.605-.722.212-.461.328-.96.343-1.467a1.633 1.633 0 00-.213-.962.542.542 0 00-.769-.177.905.905 0 00-.284.707c.001.045.005.09.013.134a.385.385 0 01-.461.438 2.88 2.88 0 01-.862-.336 9.69 9.69 0 00.072-1.893 3.97 3.97 0 012.004-1.108.59.59 0 01.723.629c-.004.05-.007.1-.008.149-.006.352.026.739.229 1.012a.762.762 0 001.157.046c.317-.318.443-.836.486-1.339a5.534 5.534 0 00-.263-2.258z"/></g><g id="Group_143_2_"><path id="Path_67_2_" fill="#00A896" d="M761.985 333.207c-.082-.247-.207-.492-.4-.628-.193-.136-.465-.128-.592.074-.099.156-.089.387-.019.576a.598.598 0 00.044.092.29.29 0 01-.215.431c-.397.061-.803 0-1.166-.173a4.682 4.682 0 00-.246-.651c.101-.235.271-.433.488-.569a.189.189 0 01.286.11.618.618 0 00.014.046c.028.11.091.207.179.279a.243.243 0 00.353-.112.69.69 0 00-.001-.455 1.826 1.826 0 00-.328-.649.787.787 0 00-.377-.289.26.26 0 00-.334.158l-.005.015a.435.435 0 00.115.349.41.41 0 00.047.046.186.186 0 01-.035.305 1.273 1.273 0 01-.743.15 4.754 4.754 0 00-.582-.722 1.8 1.8 0 01.365-.926.265.265 0 01.429.007l.04.053c.09.131.22.229.369.281a.34.34 0 00.41-.317c.017-.2-.089-.414-.219-.599a2.55 2.55 0 00-.744-.697c-.199-.122-.425-.218-.636-.2-.211.018-.392.18-.364.391a.61.61 0 00.319.405.622.622 0 00.083.038.261.261 0 01.101.418 1.798 1.798 0 01-.869.544 4.71 4.71 0 00-.786-.436 1.077 1.077 0 01.009-.631.159.159 0 01.245-.084l.034.022a.443.443 0 00.268.083.206.206 0 00.168-.265.584.584 0 00-.248-.295 1.554 1.554 0 00-.567-.243.66.66 0 00-.403.018.221.221 0 00-.131.285l.005.013a.372.372 0 00.32.169.157.157 0 01.144.217 1.08 1.08 0 01-.406.506 4.747 4.747 0 00-.89-.173 1.78 1.78 0 01-.314-.943.264.264 0 01.333-.27.762.762 0 00.065.015.752.752 0 00.464-.022.34.34 0 00.11-.506c-.115-.164-.334-.26-.552-.318a2.55 2.55 0 00-1.018-.056c-.231.034-.466.106-.616.255-.15.149-.185.39-.027.533a.611.611 0 00.593.081.26.26 0 01.345.256 1.806 1.806 0 01-.316.975 4.79 4.79 0 00-1.018.213 1.225 1.225 0 01-.141-.246.16.16 0 01.134-.223.546.546 0 00.04-.005.45.45 0 00.259-.109.206.206 0 00-.042-.311.591.591 0 00-.38-.067c-.207.019-.408.08-.591.179a.66.66 0 00-.297.273.22.22 0 00.083.302l.012.007a.37.37 0 00.354-.076.158.158 0 01.25.074c.031.096.049.196.056.297a4.761 4.761 0 00-1.059.58 1.454 1.454 0 01-.625-.402.211.211 0 01.065-.337l.048-.024a.6.6 0 00.273-.252.272.272 0 00-.193-.367c-.155-.041-.338.012-.502.089-.248.118-.47.284-.653.489a.89.89 0 00-.247.473.293.293 0 00.258.34.488.488 0 00.405-.255.207.207 0 01.344-.021c.162.204.267.448.303.707-.27.261-.508.553-.709.87a1.386 1.386 0 01-.369-.125.184.184 0 01-.047-.294l.032-.034a.524.524 0 00.148-.286.236.236 0 00-.229-.244c-.012 0-.025 0-.037.002a.675.675 0 00-.383.222 1.77 1.77 0 00-.387.593.763.763 0 00-.06.459c.025.138.158.23.296.205l.015-.003a.426.426 0 00.239-.267.457.457 0 00.016-.061.18.18 0 01.274-.119c.116.073.22.163.309.267a4.8 4.8 0 00-.388.968 1.785 1.785 0 01-.983.146.264.264 0 01-.208-.375l.026-.062a.745.745 0 00.059-.46.34.34 0 00-.48-.196c-.182.085-.314.284-.409.489-.143.312-.222.65-.232.993-.007.233.024.477.144.651.121.174.352.25.521.119a.609.609 0 00.192-.479.46.46 0 00-.009-.091.26.26 0 01.312-.296 1.8 1.8 0 01.907.482 4.845 4.845 0 00.049 1.146 1.582 1.582 0 01-.394.151.207.207 0 01-.251-.155c-.005-.022-.007-.045-.005-.068l.003-.053a.591.591 0 00-.081-.358.269.269 0 00-.378-.045c-.011.009-.022.018-.031.029-.112.113-.157.296-.172.474-.022.271.011.543.096.801a.881.881 0 00.284.445.29.29 0 00.408-.038l.011-.014a.481.481 0 00.013-.408.485.485 0 00-.031-.065.206.206 0 01.152-.305 1.57 1.57 0 01.459.005c.078.312.188.615.328.904-.224.366-.742.782-1.037.976a.263.263 0 01-.4-.154.68.68 0 00-.02-.064.747.747 0 00-.251-.39.34.34 0 00-.494.158c-.085.182-.059.419.001.637.091.331.247.64.46.91.145.183.325.35.529.406.204.056.43-.035.476-.243a.61.61 0 00-.161-.49.655.655 0 00-.065-.064.26.26 0 01.049-.428c.331-.172.991-.424 1.43-.419.167.217.351.419.552.605-.049.14-.12.271-.209.389a.196.196 0 01-.317-.006l-.03-.039a.553.553 0 00-.273-.208.253.253 0 00-.303.234.712.712 0 00.161.442c.147.207.334.382.55.515a.816.816 0 00.47.148.27.27 0 00.269-.273l-.001-.017a.451.451 0 00-.235-.3.478.478 0 00-.061-.028.191.191 0 01-.074-.309c.104-.115.226-.213.361-.29.303.236.633.435.984.592.052.245.039.5-.036.738a.209.209 0 01-.323.111l-.045-.029a.596.596 0 00-.353-.11.27.27 0 00-.221.349c.042.155.179.286.327.389.225.155.479.264.747.319a.883.883 0 00.531-.023.293.293 0 00.172-.376l-.006-.016a.487.487 0 00-.349-.217.44.44 0 00-.073-.006.206.206 0 01-.189-.287c.095-.241.253-.452.457-.612a4.77 4.77 0 001.151.18c.027.091.044.186.049.281a.16.16 0 01-.202.164l-.039-.009a.45.45 0 00-.281.013.206.206 0 00-.066.306.59.59 0 00.334.193c.201.053.411.064.616.034a.668.668 0 00.373-.155.222.222 0 00.016-.322.37.37 0 00-.305-.064c-.018.004-.036.008-.053.015a.158.158 0 01-.21-.154c.004-.102.021-.202.05-.3a4.81 4.81 0 00.956-.12c.349.234.621.566.779.955a.311.311 0 01-.262.436 1.891 1.891 0 00-.079.01c-.185.029-.384.082-.508.213a.403.403 0 00.082.609c.195.136.478.155.745.13a3.042 3.042 0 001.158-.35c.243-.131.476-.307.583-.534.107-.227.048-.51-.186-.606-.182-.074-.421-.021-.605.087a.782.782 0 00-.088.063.308.308 0 01-.489-.145 2.114 2.114 0 01-.029-1.269c.247-.126.482-.273.704-.439.152.081.29.186.407.312a.21.21 0 01-.066.337l-.048.024a.6.6 0 00-.273.252.272.272 0 00.193.367c.155.041.338-.012.502-.089.248-.118.47-.284.653-.489a.882.882 0 00.246-.473.293.293 0 00-.258-.34.485.485 0 00-.363.195.489.489 0 00-.041.06.208.208 0 01-.344.021 1.557 1.557 0 01-.252-.474c.244-.224.464-.473.657-.742.337-.027.676.042.975.199a.264.264 0 01.067.424 1.065 1.065 0 00-.046.049.744.744 0 00-.213.413.34.34 0 00.383.348c.2-.018.392-.159.552-.319.241-.244.431-.535.558-.854.086-.217.141-.456.087-.661-.054-.205-.245-.355-.448-.29a.608.608 0 00-.344.384.554.554 0 00-.023.089.262.262 0 01-.395.172 1.801 1.801 0 01-.687-.762c.135-.297.239-.608.311-.927a1.45 1.45 0 01.441-.014.195.195 0 01.154.277.632.632 0 00-.019.046.553.553 0 00-.043.34.253.253 0 00.355.146.713.713 0 00.302-.361c.106-.23.164-.48.172-.733a.818.818 0 00-.106-.481.272.272 0 00-.371-.097l-.014.009a.451.451 0 00-.135.42.192.192 0 01-.23.219 1.453 1.453 0 01-.431-.168 4.934 4.934 0 00.036-.947 1.983 1.983 0 011.002-.554.295.295 0 01.362.314l-.004.075c-.003.176.013.369.115.506a.38.38 0 00.578.023c.158-.159.222-.418.243-.67a2.998 2.998 0 00-.143-1.133z"/></g></g></svg>