<svg xmlns="http://www.w3.org/2000/svg" xmlns:xlink="http://www.w3.org/1999/xlink" id="Layer_1" x="0" y="0" version="1.1" viewBox="0 0 800 600" xml:space="preserve"><defs/><defs><rect id="SVGID_1_" width="800" height="600"/></defs><clipPath id="SVGID_2_"><use overflow="visible" xlink:href="#SVGID_1_"/></clipPath><g id="Covid_14" clip-path="url(#SVGID_2_)"><rect width="800" height="600" fill="#AC267F"/><g id="Group_738" transform="translate(45 -25.289)"><path id="Path_1939" fill="#FFF" d="M197.539 82.07v325.783l498.238 15.154V82.07H197.539z" opacity=".3"/><rect id="Rectangle_342" width="11" height="325" x="289" y="82.289" fill="#AC267F"/><rect id="Rectangle_343" width="11" height="345" x="574" y="82.289" fill="#AC267F"/><rect id="Rectangle_344" width="499" height="4" x="197" y="92.289" fill="#AC267F"/><rect id="Rectangle_351" width="499" height="4" x="197" y="128.289" fill="#AC267F"/><rect id="Rectangle_347" width="499" height="4" x="197" y="110.289" fill="#AC267F"/><rect id="Rectangle_349" width="499" height="4" x="197" y="146.289" fill="#AC267F"/><rect id="Rectangle_345" width="499" height="4" x="197" y="101.289" fill="#AC267F"/><rect id="Rectangle_350" width="499" height="4" x="197" y="137.289" fill="#AC267F"/><rect id="Rectangle_346" width="499" height="4" x="197" y="119.289" fill="#AC267F"/><rect id="Rectangle_348" width="499" height="4" x="197" y="155.289" fill="#AC267F"/></g><rect id="Rectangle_341" width="800" height="86" y="514" fill="#93226D"/><path id="Path_115" fill="#AC267F" d="M797.551 306.403c-1.562-4.7-3.938-9.352-7.611-11.944-3.674-2.593-8.836-2.429-11.262 1.4-1.876 2.973-1.685 7.352-.352 10.944.232.604.513 1.189.839 1.749a5.527 5.527 0 01-4.077 8.184 38.034 38.034 0 01-22.156-3.292 89.867 89.867 0 00-4.675-12.386 24.017 24.017 0 019.279-10.811 3.576 3.576 0 015.431 2.084c.08.293.168.584.266.867.699 2.018 1.685 4.159 3.404 5.294a4.617 4.617 0 006.693-2.136c1.146-2.47.794-5.686-.01-8.645a34.672 34.672 0 00-6.241-12.339c-1.964-2.479-4.405-4.75-7.175-5.5-2.771-.75-5.833.473-6.449 3.3-.479 2.193.593 4.779 2.179 6.643.271.313.567.603.887.867a3.528 3.528 0 01-.66 5.8 24.248 24.248 0 01-14.13 2.852 91.293 91.293 0 00-11.066-13.728 33.99 33.99 0 016.946-17.595 5.012 5.012 0 018.151.142c.246.347.5.688.767 1.014 1.886 2.325 4.209 4.672 7.021 5.341 4.063.969 7.468-2.221 7.794-6.024.326-3.803-1.68-7.867-4.157-11.379a48.586 48.586 0 00-14.131-13.258c-3.776-2.323-8.078-4.143-12.086-3.81-4.008.333-7.456 3.417-6.913 7.437.423 3.117 3.072 6.01 6.056 7.707.506.281 1.035.521 1.581.716a4.946 4.946 0 011.914 7.958 34.246 34.246 0 01-16.522 10.339 90.783 90.783 0 00-14.931-8.293 20.384 20.384 0 01.158-11.987 3.034 3.034 0 014.667-1.607c.214.147.431.286.646.418a8.57 8.57 0 005.1 1.583 3.92 3.92 0 003.186-5.041c-.601-2.231-2.586-4.129-4.719-5.613a29.484 29.484 0 00-10.789-4.615c-2.628-.541-5.454-.685-7.664.336-2.21 1.021-3.533 3.488-2.392 5.662a7.04 7.04 0 005.039 3.131c.347.055.696.081 1.047.08a2.993 2.993 0 012.737 4.129 20.531 20.531 0 01-7.718 9.623 90.37 90.37 0 00-16.926-3.294 34.005 34.005 0 01-5.977-17.928 5.011 5.011 0 016.336-5.131c.411.106.825.2 1.236.284 2.941.57 6.229.872 8.813-.423 3.732-1.869 4.292-6.5 2.101-9.626-2.192-3.126-6.349-4.946-10.5-6.045a48.622 48.622 0 00-19.354-1.071c-4.384.645-8.85 2.018-11.708 4.852-2.857 2.834-3.512 7.411-.513 10.141 2.326 2.117 6.215 2.628 9.59 2.014a10.9 10.9 0 001.673-.468 4.943 4.943 0 016.577 4.864 34.222 34.222 0 01-6.01 18.54 90.536 90.536 0 00-19.346 4.044 23.219 23.219 0 01-2.683-4.684 3.033 3.033 0 012.541-4.23c.255-.024.513-.054.763-.095a8.581 8.581 0 004.926-2.066 3.92 3.92 0 00-.801-5.908c-1.899-1.323-4.634-1.5-7.227-1.267a29.42 29.42 0 00-11.23 3.4c-2.36 1.276-4.617 2.98-5.657 5.185-1.04 2.205-.463 4.944 1.81 5.875a7.016 7.016 0 005.87-.841c.301-.18.586-.385.853-.612a2.996 2.996 0 014.75 1.406 23.508 23.508 0 011.057 5.648 90.84 90.84 0 00-20.123 11.024 27.629 27.629 0 01-11.883-7.65 4.01 4.01 0 011.243-6.4c.31-.147.611-.3.904-.463 2.101-1.163 4.267-2.668 5.184-4.79a5.179 5.179 0 00-3.663-6.976c-2.952-.785-6.434.232-9.543 1.694a38.894 38.894 0 00-12.409 9.285c-2.357 2.652-4.386 5.788-4.679 8.995-.293 3.207 1.656 6.35 4.899 6.478 2.516.1 5.161-1.586 6.913-3.7.291-.36.553-.744.782-1.146a3.956 3.956 0 016.534-.4 27.79 27.79 0 015.762 13.433 91.434 91.434 0 00-13.478 16.529 26.118 26.118 0 01-7-2.368 3.479 3.479 0 01-.887-5.591c.208-.21.409-.425.601-.645 1.363-1.572 2.686-3.443 2.807-5.447a4.495 4.495 0 00-5.06-4.6c-2.643.236-5.179 2.1-7.281 4.214a33.724 33.724 0 00-7.362 11.266c-1.132 2.862-1.859 6.022-1.146 8.723.714 2.701 3.234 4.686 5.92 3.829 2.08-.664 3.739-2.824 4.537-5.067a7.25 7.25 0 00.3-1.17 3.432 3.432 0 015.209-2.266 26.257 26.257 0 015.875 5.069 90.486 90.486 0 00-7.369 18.408 34.026 34.026 0 01-18.693 2.774 5.014 5.014 0 01-3.954-7.131c.18-.387.347-.777.5-1.172 1.071-2.8 1.939-5.98 1.115-8.751-1.192-4-5.658-5.358-9.112-3.739-3.455 1.619-5.975 5.391-7.778 9.289a48.552 48.552 0 00-4.415 18.871c-.125 4.432.449 9.068 2.744 12.372 2.295 3.305 6.688 4.748 9.899 2.267 2.491-1.924 3.67-5.665 3.649-9.095a10.671 10.671 0 00-.17-1.728 4.945 4.945 0 015.931-5.634 34.24 34.24 0 0117.235 9.158c-.175 2.3-.293 4.625-.293 6.974a91.595 91.595 0 001.217 14.808 29.771 29.771 0 01-7.487 2.862 3.967 3.967 0 01-4.867-4.229c.028-.339.047-.672.05-1 .04-2.368-.175-4.971-1.538-6.807a5.12 5.12 0 00-7.785-.311c-2.132 2.139-2.985 5.622-3.268 9.009a38.462 38.462 0 001.821 15.222c1.108 3.327 2.789 6.617 5.389 8.453 2.599 1.836 6.253 1.72 7.969-.993 1.331-2.1 1.193-5.2.248-7.747a8.07 8.07 0 00-.601-1.237 3.91 3.91 0 012.888-5.792 29.91 29.91 0 018.725.1 90.17 90.17 0 006.237 17.183c-4.249 6.953-14.113 14.86-19.725 18.55a5.012 5.012 0 01-7.611-2.922 20.35 20.35 0 00-.373-1.215c-.977-2.831-2.359-5.828-4.771-7.421-3.485-2.3-7.776-.466-9.385 3s-1.113 7.969.012 12.117a48.663 48.663 0 008.751 17.294c2.751 3.477 6.171 6.657 10.057 7.714 3.885 1.058 8.174-.662 9.037-4.625.669-3.075-.834-6.7-3.054-9.311a10.32 10.32 0 00-1.241-1.215 4.945 4.945 0 01.925-8.131c6.286-3.278 18.838-8.056 27.186-7.955a91.596 91.596 0 0010.5 11.5 27.53 27.53 0 01-3.968 7.399 3.7 3.7 0 01-6.025-.1 13.72 13.72 0 00-.566-.749c-1.395-1.721-3.11-3.453-5.19-3.947a4.786 4.786 0 00-5.762 4.452c-.241 2.81 1.243 5.815 3.072 8.411a35.887 35.887 0 0010.45 9.8c2.791 1.718 5.971 3.063 8.934 2.814 2.963-.247 5.509-2.525 5.106-5.5-.313-2.3-2.271-4.44-4.476-5.699a7.905 7.905 0 00-1.168-.529 3.654 3.654 0 01-1.416-5.88 27.66 27.66 0 016.872-5.511 90.89 90.89 0 0018.711 11.237 27.546 27.546 0 01-.692 14.033 4 4 0 01-6.145 2.118 15.618 15.618 0 00-.852-.551c-2.047-1.229-4.429-2.352-6.719-2.087a5.164 5.164 0 00-4.195 6.638c.794 2.939 3.406 5.436 6.219 7.392a38.689 38.689 0 0014.209 6.078c3.462.711 7.18.9 10.094-.443 2.914-1.345 4.653-4.593 3.15-7.456-1.167-2.22-3.94-3.665-6.637-4.122a8.501 8.501 0 00-1.38-.106 3.94 3.94 0 01-3.6-5.437 27.735 27.735 0 018.689-11.645 90.805 90.805 0 0021.883 3.419c.518 1.74.829 3.534.929 5.347a3.033 3.033 0 01-3.836 3.105c-.248-.064-.5-.123-.749-.172a8.577 8.577 0 00-5.336.255 3.916 3.916 0 00-1.269 5.826c1.33 1.891 3.844 3 6.356 3.661 3.822 1 7.808 1.221 11.717.647 2.654-.392 5.36-1.222 7.087-2.938 1.728-1.716 2.127-4.486.31-6.137a7.032 7.032 0 00-5.808-1.223 6.464 6.464 0 00-1.014.284 2.999 2.999 0 01-3.984-2.946 23.5 23.5 0 01.95-5.7 91.333 91.333 0 0018.167-2.272 39.981 39.981 0 0114.811 18.164 5.944 5.944 0 01-4.98 8.29c-.503.047-1.003.109-1.5.186-3.507.559-7.3 1.556-9.652 4.046-3.399 3.601-2.148 8.99 1.565 11.58s9.082 2.94 14.159 2.479a57.717 57.717 0 0022.007-6.66c4.627-2.5 9.049-5.84 11.081-10.157 2.032-4.316.912-9.687-3.54-11.512-3.453-1.416-8-.409-11.507 1.647a12.2 12.2 0 00-1.673 1.2 5.864 5.864 0 01-9.308-2.753c-2.51-7.96-2.992-16.344-.56-24.12a91.049 91.049 0 0013.376-8.347 29.452 29.452 0 017.74 5.94 4.01 4.01 0 01-1.243 6.399c-.31.147-.612.3-.908.463-2.094 1.163-4.263 2.668-5.183 4.79a5.178 5.178 0 003.665 6.976c2.951.784 6.433-.232 9.543-1.694a38.922 38.922 0 0012.416-9.284c2.354-2.652 4.386-5.788 4.679-8.995.293-3.207-1.656-6.348-4.9-6.478-2.515-.101-5.164 1.583-6.912 3.7-.291.36-.554.744-.784 1.146a3.955 3.955 0 01-6.532.401 29.595 29.595 0 01-4.783-9.015 91.614 91.614 0 0012.483-14.105 33.985 33.985 0 0118.534 3.786 5.012 5.012 0 011.276 8.052 19.9 19.9 0 00-.865.931c-1.964 2.263-3.869 4.958-4.041 7.844-.246 4.166 3.486 6.968 7.286 6.63 3.8-.339 7.456-3.023 10.488-6.069a48.639 48.639 0 0010.6-16.224c1.63-4.122 2.68-8.677 1.652-12.566-1.028-3.89-4.663-6.747-8.524-5.514-3 .957-5.384 4.066-6.539 7.3a10.959 10.959 0 00-.43 1.683 4.946 4.946 0 01-7.5 3.266 34.253 34.253 0 01-13.05-14.476 90.026 90.026 0 005.91-17.625 27.506 27.506 0 018.378-.26 3.7 3.7 0 012.919 5.268 13.79 13.79 0 00-.364.865c-.792 2.066-1.432 4.419-.825 6.466a4.786 4.786 0 006.735 2.761c2.552-1.2 4.412-3.982 5.745-6.863a35.95 35.95 0 003.261-13.943c.092-3.272-.333-6.7-2.025-9.141-1.691-2.441-4.941-3.507-7.311-1.673-1.839 1.423-2.711 4.185-2.7 6.719.006.428.049.855.128 1.276a3.653 3.653 0 01-4.382 4.164 27.774 27.774 0 01-8.2-3.19c.57-4.118.86-8.272.867-12.429 0-1.869-.076-3.718-.188-5.559a37.782 37.782 0 0119.046-10.535 5.601 5.601 0 016.875 5.977 21.87 21.87 0 00-.07 1.42c-.055 3.346.248 7.021 2.177 9.616 2.779 3.746 7.986 3.462 11 .441 3.014-3.02 4.214-7.942 4.618-12.728a54.301 54.301 0 00-2.576-21.508z"/><path id="Path_1941" fill="#AC267F" d="M293.163 242.471a8.094 8.094 0 00-2.625-4.119 2.689 2.689 0 00-3.884.483 4.477 4.477 0 00-.121 3.774c.08.208.177.408.289.6a1.904 1.904 0 01-1.407 2.822 13.121 13.121 0 01-7.64-1.135 31.133 31.133 0 00-1.612-4.271 8.28 8.28 0 013.2-3.728 1.232 1.232 0 011.873.719c.028.1.058.2.091.3a3.487 3.487 0 001.174 1.825 1.592 1.592 0 002.308-.738 4.534 4.534 0 000-2.981 11.946 11.946 0 00-2.152-4.255 5.168 5.168 0 00-2.474-1.9 1.715 1.715 0 00-2.192 1.04c-.012.032-.022.065-.032.098-.1.837.175 1.676.751 2.291.094.108.196.209.306.3a1.217 1.217 0 01-.228 2 8.361 8.361 0 01-4.873.984 31.51 31.51 0 00-3.815-4.733 11.722 11.722 0 012.4-6.067 1.728 1.728 0 012.811.049c.085.12.173.237.264.35a4.888 4.888 0 002.421 1.842 2.232 2.232 0 002.688-2.078 6.333 6.333 0 00-1.433-3.924 16.763 16.763 0 00-4.874-4.572 7.251 7.251 0 00-4.168-1.314 2.402 2.402 0 00-2.384 2.566 3.998 3.998 0 002.088 2.658c.175.097.357.18.545.247a1.705 1.705 0 01.66 2.744 11.817 11.817 0 01-5.7 3.565 31.267 31.267 0 00-5.151-2.856 7.033 7.033 0 01.055-4.133 1.045 1.045 0 011.609-.554c.073.051.148.1.223.144a2.952 2.952 0 001.759.546 1.352 1.352 0 001.101-1.738 3.843 3.843 0 00-1.627-1.936 10.16 10.16 0 00-3.72-1.592 4.386 4.386 0 00-2.643.116 1.456 1.456 0 00-.825 1.954 2.424 2.424 0 001.737 1.079c.119.019.24.028.361.028a1.032 1.032 0 01.944 1.423 7.08 7.08 0 01-2.662 3.318 31.26 31.26 0 00-5.837-1.136 11.729 11.729 0 01-2.061-6.182 1.728 1.728 0 012.186-1.769c.142.037.284.07.426.1a4.885 4.885 0 003.039-.146 2.235 2.235 0 00.724-3.319 6.349 6.349 0 00-3.62-2.085 16.782 16.782 0 00-6.674-.369 7.243 7.243 0 00-4.037 1.673 2.4 2.4 0 00-.177 3.5 4.003 4.003 0 003.307.694c.196-.038.389-.092.577-.161a1.699 1.699 0 012.268 1.677 11.802 11.802 0 01-2.072 6.393 31.27 31.27 0 00-6.671 1.394 8.031 8.031 0 01-.925-1.615 1.044 1.044 0 01.876-1.459c.088-.008.177-.019.263-.033.628-.05 1.224-.3 1.7-.712a1.352 1.352 0 00-.274-2.037 3.84 3.84 0 00-2.492-.437 10.127 10.127 0 00-3.873 1.172 4.39 4.39 0 00-1.962 1.781 1.456 1.456 0 00.624 2.026 2.42 2.42 0 002.024-.29c.104-.062.202-.133.294-.211a1.034 1.034 0 011.639.485c.2.632.323 1.286.364 1.948a31.33 31.33 0 00-6.942 3.8 9.533 9.533 0 01-4.1-2.638 1.383 1.383 0 01.429-2.208c.107-.051.211-.1.312-.16a3.903 3.903 0 001.787-1.652 1.785 1.785 0 00-1.263-2.406 5.07 5.07 0 00-3.291.584 13.404 13.404 0 00-4.279 3.205 5.786 5.786 0 00-1.614 3.1 1.923 1.923 0 001.697 2.237 3.2 3.2 0 002.384-1.275c.101-.126.191-.26.27-.4a1.365 1.365 0 012.253-.139 9.582 9.582 0 011.987 4.632 31.583 31.583 0 00-4.648 5.7 9.013 9.013 0 01-2.415-.817 1.2 1.2 0 01-.306-1.928c.072-.073.141-.146.207-.222a3.398 3.398 0 00.968-1.878 1.551 1.551 0 00-1.745-1.587 4.406 4.406 0 00-2.511 1.453 11.632 11.632 0 00-2.539 3.885 5.025 5.025 0 00-.4 3.008 1.669 1.669 0 002.041 1.32 2.775 2.775 0 001.565-1.747 2.49 2.49 0 00.1-.4 1.183 1.183 0 011.799-.781 9.07 9.07 0 012.026 1.747 31.235 31.235 0 00-2.541 6.348 11.736 11.736 0 01-6.446.957 1.73 1.73 0 01-1.364-2.459c.062-.133.119-.267.171-.4a4.889 4.889 0 00.385-3.018 2.232 2.232 0 00-3.142-1.289 6.346 6.346 0 00-2.682 3.2 16.75 16.75 0 00-1.522 6.507 7.24 7.24 0 00.946 4.266 2.4 2.4 0 003.413.782 4 4 0 001.258-3.136 3.776 3.776 0 00-.059-.6 1.7 1.7 0 012.047-1.943 11.81 11.81 0 015.943 3.158c-.06.795-.1 1.595-.1 2.4a31.53 31.53 0 00.42 5.106c-.812.443-1.681.775-2.582.987a1.367 1.367 0 01-1.678-1.459 4.5 4.5 0 00.017-.346 3.868 3.868 0 00-.531-2.347 1.766 1.766 0 00-2.686-.108 5.017 5.017 0 00-1.127 3.107 13.272 13.272 0 00.628 5.249 5.744 5.744 0 001.858 2.915 1.9 1.9 0 002.748-.342 3.16 3.16 0 00.086-2.671 2.792 2.792 0 00-.205-.427 1.347 1.347 0 011-2 10.356 10.356 0 013.009.036 31.056 31.056 0 002.151 5.926c-1.465 2.4-4.867 5.124-6.8 6.4a1.73 1.73 0 01-2.625-1.008 6.362 6.362 0 00-.129-.419 4.884 4.884 0 00-1.645-2.559 2.234 2.234 0 00-3.236 1.034 6.34 6.34 0 000 4.178 16.785 16.785 0 003.018 5.964 7.233 7.233 0 003.468 2.66 2.4 2.4 0 003.116-1.595 3.999 3.999 0 00-1.053-3.211 3.604 3.604 0 00-.428-.419 1.705 1.705 0 01.319-2.801c2.17-1.13 6.5-2.777 9.377-2.744a31.547 31.547 0 003.619 3.965 9.5 9.5 0 01-1.368 2.551 1.278 1.278 0 01-2.077-.036 3.294 3.294 0 00-.2-.258 3.6 3.6 0 00-1.79-1.361 1.65 1.65 0 00-1.987 1.535 4.693 4.693 0 001.059 2.9 12.357 12.357 0 003.6 3.379 5.35 5.35 0 003.081.971 1.78 1.78 0 001.766-1.789l-.004-.111a2.963 2.963 0 00-1.544-1.964 2.778 2.778 0 00-.4-.183 1.26 1.26 0 01-.488-2.028 9.56 9.56 0 012.37-1.9 31.391 31.391 0 006.454 3.878 9.504 9.504 0 01-.239 4.839 1.379 1.379 0 01-2.119.73c-.1-.067-.194-.13-.293-.19a3.896 3.896 0 00-2.317-.72 1.78 1.78 0 00-1.446 2.289 5.063 5.063 0 002.143 2.549 13.367 13.367 0 004.9 2.1 5.774 5.774 0 003.481-.153 1.917 1.917 0 001.086-2.57 3.186 3.186 0 00-2.288-1.421 2.91 2.91 0 00-.476-.037 1.359 1.359 0 01-1.242-1.875 9.565 9.565 0 013-4.015c2.458.7 4.992 1.096 7.546 1.179.178.6.286 1.218.32 1.843a1.045 1.045 0 01-1.323 1.071 4.791 4.791 0 00-.258-.059 2.963 2.963 0 00-1.84.088 1.351 1.351 0 00-.438 2.009 3.838 3.838 0 002.191 1.262c1.318.345 2.693.421 4.041.223a4.388 4.388 0 002.444-1.013 1.456 1.456 0 00.107-2.116 2.426 2.426 0 00-2-.421 2.252 2.252 0 00-.35.1 1.033 1.033 0 01-1.374-1.015 8.086 8.086 0 01.328-1.964 31.47 31.47 0 006.265-.784 13.792 13.792 0 015.107 6.264 2.049 2.049 0 01-1.717 2.859 8.863 8.863 0 00-.516.064c-1.23.1-2.396.59-3.328 1.4a2.65 2.65 0 00.539 3.992 7.516 7.516 0 004.882.855 19.907 19.907 0 007.589-2.3 8.591 8.591 0 003.821-3.5 2.852 2.852 0 00-1.22-3.97 4.746 4.746 0 00-3.968.568c-.204.121-.396.26-.577.414a2.023 2.023 0 01-3.209-.949 13.87 13.87 0 01-.193-8.317 31.35 31.35 0 004.613-2.878c.997.53 1.899 1.222 2.669 2.048a1.383 1.383 0 01-.429 2.208c-.107.051-.211.1-.313.16a3.91 3.91 0 00-1.785 1.653 1.786 1.786 0 001.264 2.407 5.076 5.076 0 003.291-.584 13.433 13.433 0 004.279-3.205 5.796 5.796 0 001.614-3.1 1.924 1.924 0 00-1.576-2.218c-.038-.006-.076-.012-.114-.016a3.202 3.202 0 00-2.384 1.275c-.101.126-.191.26-.271.4a1.363 1.363 0 01-2.252.139 10.202 10.202 0 01-1.649-3.108 31.605 31.605 0 004.3-4.864 11.72 11.72 0 016.392 1.306 1.728 1.728 0 01.44 2.777 7.59 7.59 0 00-.3.321 4.887 4.887 0 00-1.394 2.7 2.234 2.234 0 002.513 2.286 6.352 6.352 0 003.617-2.093 16.763 16.763 0 003.656-5.595 7.247 7.247 0 00.57-4.333 2.4 2.4 0 00-2.94-1.9 4.002 4.002 0 00-2.255 2.517c-.065.19-.114.383-.148.58a1.706 1.706 0 01-2.587 1.126 11.808 11.808 0 01-4.5-4.992 31.003 31.003 0 002.038-6.078 9.491 9.491 0 012.889-.09 1.276 1.276 0 011.006 1.817c-.046.1-.087.2-.126.3a3.615 3.615 0 00-.284 2.23 1.65 1.65 0 002.322.953 4.686 4.686 0 001.981-2.367 12.375 12.375 0 001.125-4.808 5.36 5.36 0 00-.7-3.152 1.777 1.777 0 00-2.521-.577 2.958 2.958 0 00-.93 2.317c.002.148.017.295.044.44a1.26 1.26 0 01-1.511 1.436 9.559 9.559 0 01-2.827-1.1c.197-1.42.297-2.852.3-4.286 0-.645-.026-1.282-.064-1.917a13.028 13.028 0 016.572-3.642 1.932 1.932 0 012.371 2.061 7.337 7.337 0 00-.024.49 5.459 5.459 0 00.751 3.316 2.493 2.493 0 003.792.151 7.089 7.089 0 001.592-4.389 18.687 18.687 0 00-.888-7.415z"/><path id="Path_1942" fill="#AC267F" d="M446.517 171.858a5.082 5.082 0 00-1.647-2.58 1.688 1.688 0 00-2.376.221l-.061.079a2.806 2.806 0 00-.075 2.368c.05.131.11.257.181.378a1.2 1.2 0 01-.882 1.771 8.232 8.232 0 01-4.794-.712 19.284 19.284 0 00-1.013-2.68 5.2 5.2 0 012.009-2.339.773.773 0 011.175.451c.017.063.036.126.057.188.118.45.376.852.737 1.145a.998.998 0 001.448-.462 2.844 2.844 0 000-1.871 7.51 7.51 0 00-1.352-2.67 3.249 3.249 0 00-1.554-1.187 1.077 1.077 0 00-1.4.714 1.786 1.786 0 00.472 1.437c.059.068.122.131.191.188a.765.765 0 01-.143 1.255 5.248 5.248 0 01-3.058.617 19.81 19.81 0 00-2.393-2.97 7.344 7.344 0 011.5-3.807 1.084 1.084 0 011.763.03c.053.075.108.149.166.219.37.537.902.942 1.52 1.156a1.399 1.399 0 001.685-1.3 3.973 3.973 0 00-.9-2.462 10.488 10.488 0 00-3.058-2.869 4.55 4.55 0 00-2.615-.824 1.51 1.51 0 00-1.5 1.61 2.508 2.508 0 001.311 1.668c.109.061.224.113.342.155a1.069 1.069 0 01.414 1.722 7.408 7.408 0 01-3.575 2.237 19.67 19.67 0 00-3.23-1.794 4.42 4.42 0 01.033-2.594.656.656 0 011.01-.348c.046.032.093.062.14.091.321.229.706.349 1.1.343a.849.849 0 00.69-1.091 2.409 2.409 0 00-1.022-1.214 6.369 6.369 0 00-2.334-1 2.743 2.743 0 00-1.657.073.912.912 0 00-.518 1.225c.246.376.645.624 1.09.678.075.012.151.018.228.017a.648.648 0 01.592.893 4.443 4.443 0 01-1.67 2.082 19.515 19.515 0 00-3.662-.713 7.358 7.358 0 01-1.293-3.879 1.085 1.085 0 011.372-1.11c.089.023.179.044.267.061.63.173 1.298.141 1.907-.092a1.4 1.4 0 00.454-2.084 3.983 3.983 0 00-2.271-1.308 10.501 10.501 0 00-4.187-.232 4.546 4.546 0 00-2.533 1.05 1.509 1.509 0 00-.171 2.127c.018.023.039.045.06.067a2.514 2.514 0 002.075.436c.123-.023.244-.057.362-.1a1.069 1.069 0 011.423 1.052 7.403 7.403 0 01-1.3 4.012 19.641 19.641 0 00-4.187.875 4.989 4.989 0 01-.579-1.014.655.655 0 01.55-.915c.055-.005.11-.012.165-.02.398-.03.776-.188 1.078-.451a.85.85 0 00-.172-1.278 2.407 2.407 0 00-1.564-.274 6.347 6.347 0 00-2.43.735 2.76 2.76 0 00-1.225 1.122.914.914 0 00.345 1.246c.016.009.031.018.048.025.429.13.895.064 1.27-.182.065-.039.127-.083.186-.132a.648.648 0 011.027.299c.126.396.203.807.23 1.222a19.618 19.618 0 00-4.356 2.384 5.972 5.972 0 01-2.57-1.655.87.87 0 01.268-1.385c.067-.032.132-.065.2-.1a2.449 2.449 0 001.121-1.037 1.121 1.121 0 00-.793-1.51 3.185 3.185 0 00-2.065.367 8.406 8.406 0 00-2.685 2.011 3.641 3.641 0 00-1.014 1.946c-.11.657.332 1.279.988 1.39l.072.01a2.012 2.012 0 001.5-.8c.063-.078.119-.161.169-.248a.855.855 0 011.414-.087 6.01 6.01 0 011.247 2.907 19.764 19.764 0 00-2.916 3.576 5.693 5.693 0 01-1.517-.512.754.754 0 01-.191-1.21c.045-.046.088-.092.13-.14.322-.318.535-.731.606-1.179a.97.97 0 00-1.095-1 2.759 2.759 0 00-1.576.912 7.313 7.313 0 00-1.593 2.438 3.158 3.158 0 00-.248 1.887c.104.569.649.946 1.219.841.021-.003.042-.008.063-.013a1.74 1.74 0 00.982-1.1c.028-.083.05-.167.065-.253a.743.743 0 011.127-.49c.476.302.904.672 1.272 1.1a19.588 19.588 0 00-1.595 3.983 7.36 7.36 0 01-4.044.6 1.084 1.084 0 01-.855-1.543c.039-.084.074-.168.107-.254.279-.59.363-1.253.24-1.894a1.4 1.4 0 00-1.972-.809 3.98 3.98 0 00-1.683 2.01 10.498 10.498 0 00-.955 4.083 4.54 4.54 0 00.594 2.677 1.51 1.51 0 002.065.539l.077-.048a2.505 2.505 0 00.79-1.968 2.358 2.358 0 00-.037-.374 1.07 1.07 0 011.284-1.219 7.41 7.41 0 013.729 1.982c-.038.5-.063 1-.063 1.509.001 1.072.089 2.143.263 3.2a6.472 6.472 0 01-1.619.619.858.858 0 01-1.053-.915c.006-.073.01-.145.01-.217a2.421 2.421 0 00-.332-1.473 1.11 1.11 0 00-1.685-.068 3.148 3.148 0 00-.707 1.949 8.344 8.344 0 00.393 3.294c.192.715.6 1.354 1.166 1.829.508.42 1.26.349 1.681-.158l.044-.057a1.986 1.986 0 00.054-1.676 1.652 1.652 0 00-.129-.268.846.846 0 01.625-1.253 6.457 6.457 0 011.888.022 19.491 19.491 0 001.35 3.718 16.086 16.086 0 01-4.268 4.014 1.085 1.085 0 01-1.648-.632 4.46 4.46 0 00-.081-.263 3.061 3.061 0 00-1.032-1.606 1.402 1.402 0 00-2.031.648 3.97 3.97 0 000 2.622 10.496 10.496 0 001.891 3.764 4.54 4.54 0 002.176 1.669 1.508 1.508 0 001.955-1 2.512 2.512 0 00-.661-2.015 2.295 2.295 0 00-.268-.263 1.07 1.07 0 01.199-1.759 15.336 15.336 0 015.885-1.722 19.684 19.684 0 002.271 2.488 5.922 5.922 0 01-.858 1.602.8.8 0 01-1.3-.023 2.462 2.462 0 00-.123-.162 2.255 2.255 0 00-1.123-.854 1.036 1.036 0 00-1.247.963c.011.665.245 1.306.665 1.82a7.74 7.74 0 002.262 2.12c.565.397 1.241.61 1.933.609a1.116 1.116 0 001.108-1.123l-.002-.067a1.86 1.86 0 00-.97-1.232 1.75 1.75 0 00-.253-.115.793.793 0 01-.306-1.273 5.992 5.992 0 011.487-1.193 19.634 19.634 0 004.047 2.428 5.969 5.969 0 01-.15 3.036.865.865 0 01-1.33.458 3.376 3.376 0 00-.184-.119 2.442 2.442 0 00-1.454-.452 1.117 1.117 0 00-.908 1.436 3.17 3.17 0 001.345 1.6 8.368 8.368 0 003.074 1.315 3.614 3.614 0 002.184-.1 1.2 1.2 0 00.683-1.613 1.998 1.998 0 00-1.437-.892 1.877 1.877 0 00-.3-.023.853.853 0 01-.779-1.177 5.998 5.998 0 011.88-2.519c1.542.439 3.132.688 4.734.74.112.376.179.765.2 1.157a.656.656 0 01-.83.672 2.234 2.234 0 00-.162-.037 1.853 1.853 0 00-1.154.055.85.85 0 00-.276 1.26c.355.412.84.691 1.375.792a6.373 6.373 0 002.535.14 2.751 2.751 0 001.534-.636.912.912 0 00.066-1.328 1.519 1.519 0 00-1.256-.264 1.396 1.396 0 00-.219.061.647.647 0 01-.862-.637c.021-.415.092-.827.212-1.225a19.797 19.797 0 003.932-.492 8.66 8.66 0 013.2 3.93 1.286 1.286 0 01-1.077 1.794 4.94 4.94 0 00-.324.04 3.623 3.623 0 00-2.088.875 1.662 1.662 0 00.339 2.506c.932.52 2.012.708 3.063.536a12.49 12.49 0 004.763-1.441 5.392 5.392 0 002.4-2.2 1.79 1.79 0 00-.766-2.491 2.98 2.98 0 00-2.49.356 2.668 2.668 0 00-.361.26 1.27 1.27 0 01-2.014-.6 8.712 8.712 0 01-.121-5.219 19.763 19.763 0 002.895-1.806 6.414 6.414 0 011.675 1.285.869.869 0 01-.268 1.385 6.212 6.212 0 00-.2.1c-.475.217-.867.58-1.121 1.037a1.12 1.12 0 00.793 1.51 3.187 3.187 0 002.065-.367 8.406 8.406 0 002.685-2.011 3.642 3.642 0 001.012-1.946 1.208 1.208 0 00-1.059-1.401 2.012 2.012 0 00-1.5.8c-.063.078-.12.161-.17.248a.857.857 0 01-1.413.087 6.397 6.397 0 01-1.035-1.95 19.783 19.783 0 002.7-3.052 7.356 7.356 0 014.011.819 1.084 1.084 0 01.276 1.742 3.856 3.856 0 00-.188.2 3.069 3.069 0 00-.874 1.7 1.4 1.4 0 001.577 1.434 3.987 3.987 0 002.27-1.313 10.55 10.55 0 002.294-3.511 4.536 4.536 0 00.356-2.719 1.509 1.509 0 00-1.757-1.212c-.029.005-.058.012-.087.019a2.514 2.514 0 00-1.415 1.579c-.041.119-.071.24-.093.364a1.071 1.071 0 01-1.624.707 7.408 7.408 0 01-2.824-3.132 19.502 19.502 0 001.279-3.814 5.96 5.96 0 011.813-.056.798.798 0 01.632 1.139 3.373 3.373 0 00-.079.187 2.273 2.273 0 00-.178 1.4 1.036 1.036 0 001.457.6 2.941 2.941 0 001.243-1.485 7.753 7.753 0 00.706-3.017 3.37 3.37 0 00-.439-1.978 1.113 1.113 0 00-1.525-.397c-.02.011-.038.023-.057.035a1.863 1.863 0 00-.583 1.454c.002.092.011.185.028.276a.792.792 0 01-.948.9 5.982 5.982 0 01-1.773-.69c.123-.891.186-1.79.188-2.689 0-.4-.016-.8-.04-1.2a8.177 8.177 0 014.121-2.28 1.213 1.213 0 011.488 1.293c-.008.1-.014.205-.015.307a3.42 3.42 0 00.471 2.081 1.565 1.565 0 002.379.1 4.448 4.448 0 001-2.754 11.863 11.863 0 00-.561-4.659z"/><path id="Path_1947" fill="#AC267F" d="M399.517 55.858a5.082 5.082 0 00-1.647-2.58 1.688 1.688 0 00-2.436.3 2.803 2.803 0 00-.076 2.368c.05.13.11.257.181.378a1.2 1.2 0 01-.882 1.771 8.237 8.237 0 01-4.795-.712 19.406 19.406 0 00-1.012-2.68 5.205 5.205 0 012.008-2.339.774.774 0 011.176.451c.017.063.035.126.057.188.117.45.376.852.737 1.145a.998.998 0 001.448-.462 2.844 2.844 0 000-1.871 7.51 7.51 0 00-1.352-2.67 3.244 3.244 0 00-1.554-1.187 1.077 1.077 0 00-1.4.713 1.79 1.79 0 00.472 1.437c.059.068.123.131.191.188a.765.765 0 01-.143 1.255 5.246 5.246 0 01-3.057.617 19.76 19.76 0 00-2.395-2.97 7.353 7.353 0 011.5-3.807 1.084 1.084 0 011.763.031c.053.075.108.149.166.219.371.537.902.942 1.52 1.156a1.401 1.401 0 001.685-1.3 3.973 3.973 0 00-.9-2.462 10.488 10.488 0 00-3.058-2.869 4.548 4.548 0 00-2.614-.824 1.51 1.51 0 00-1.5 1.61 2.507 2.507 0 001.31 1.668c.109.061.224.113.342.155a1.068 1.068 0 01.414 1.722 7.408 7.408 0 01-3.575 2.237 19.67 19.67 0 00-3.23-1.794 4.411 4.411 0 01.033-2.594.656.656 0 011.009-.348c.047.032.094.062.141.091.32.229.706.349 1.1.343a.849.849 0 00.69-1.091 2.409 2.409 0 00-1.022-1.214 6.369 6.369 0 00-2.334-1 2.746 2.746 0 00-1.658.073.913.913 0 00-.517 1.225c.246.376.645.624 1.09.678.075.012.151.018.228.017a.649.649 0 01.592.893 4.443 4.443 0 01-1.67 2.082 19.58 19.58 0 00-3.662-.713 7.367 7.367 0 01-1.293-3.879 1.085 1.085 0 011.372-1.11c.089.023.179.044.267.061a3.065 3.065 0 001.907-.092 1.4 1.4 0 00.454-2.083 3.983 3.983 0 00-2.271-1.308 10.5 10.5 0 00-4.187-.232 4.54 4.54 0 00-2.533 1.05 1.51 1.51 0 00-.172 2.127c.019.023.04.045.06.067a2.514 2.514 0 002.075.436c.124-.023.245-.057.362-.1a1.069 1.069 0 011.423 1.052 7.403 7.403 0 01-1.3 4.012 19.62 19.62 0 00-4.186.875 4.946 4.946 0 01-.58-1.014.655.655 0 01.549-.915c.056-.005.111-.012.166-.02.398-.03.776-.188 1.078-.451a.848.848 0 00-.173-1.277 2.403 2.403 0 00-1.563-.274 6.362 6.362 0 00-2.431.735 2.75 2.75 0 00-1.223 1.122.912.912 0 00.344 1.246c.016.009.031.018.048.025.429.13.893.063 1.27-.182.065-.039.128-.083.185-.132a.648.648 0 011.029.299c.125.396.202.807.229 1.222a19.589 19.589 0 00-4.355 2.384 5.979 5.979 0 01-2.572-1.655.87.87 0 01.269-1.385l.2-.1a2.449 2.449 0 001.121-1.037 1.121 1.121 0 00-.794-1.51 3.184 3.184 0 00-2.064.367 8.42 8.42 0 00-2.686 2.011 3.638 3.638 0 00-1.012 1.946 1.205 1.205 0 001.059 1.4 2.012 2.012 0 001.5-.8c.063-.078.119-.161.169-.248a.855.855 0 011.414-.087 6.01 6.01 0 011.247 2.907 19.764 19.764 0 00-2.916 3.576 5.693 5.693 0 01-1.517-.512.754.754 0 01-.191-1.21c.045-.046.088-.092.13-.14.322-.318.535-.731.606-1.179a.97.97 0 00-1.095-1 2.758 2.758 0 00-1.575.912 7.3 7.3 0 00-1.594 2.438 3.158 3.158 0 00-.248 1.887c.104.569.65.946 1.219.841.022-.003.041-.008.063-.013.475-.203.834-.606.982-1.1.028-.082.05-.167.065-.253a.743.743 0 011.127-.49c.477.302.904.673 1.272 1.1a19.505 19.505 0 00-1.594 3.983 7.365 7.365 0 01-4.045.6 1.084 1.084 0 01-.855-1.543c.039-.084.074-.168.107-.254.279-.59.363-1.253.24-1.894a1.4 1.4 0 00-1.972-.809 3.98 3.98 0 00-1.683 2.01 10.516 10.516 0 00-.955 4.083 4.54 4.54 0 00.594 2.677 1.51 1.51 0 002.142.491 2.505 2.505 0 00.79-1.968 2.358 2.358 0 00-.037-.374 1.07 1.07 0 011.283-1.219 7.415 7.415 0 013.729 1.982c-.039.5-.063 1-.063 1.509.001 1.072.089 2.143.263 3.2a6.501 6.501 0 01-1.619.619.858.858 0 01-1.053-.915c.006-.073.01-.145.01-.217a2.421 2.421 0 00-.332-1.473 1.11 1.11 0 00-1.685-.069 3.148 3.148 0 00-.707 1.949 8.327 8.327 0 00.394 3.294 3.6 3.6 0 001.166 1.829 1.194 1.194 0 001.725-.215 1.985 1.985 0 00.055-1.676 1.744 1.744 0 00-.13-.268.846.846 0 01.625-1.253 6.458 6.458 0 011.888.022 19.491 19.491 0 001.35 3.718 16.086 16.086 0 01-4.268 4.014 1.085 1.085 0 01-1.648-.632 4.46 4.46 0 00-.081-.263 3.067 3.067 0 00-1.032-1.606 1.4 1.4 0 00-2.03.648 3.982 3.982 0 000 2.622 10.52 10.52 0 001.891 3.764 4.544 4.544 0 002.176 1.669 1.508 1.508 0 001.955-1 2.512 2.512 0 00-.661-2.015 2.157 2.157 0 00-.269-.263 1.07 1.07 0 01.201-1.759 15.326 15.326 0 015.883-1.722 19.691 19.691 0 002.272 2.488 5.922 5.922 0 01-.858 1.602.8.8 0 01-1.299-.023 2.462 2.462 0 00-.123-.162 2.274 2.274 0 00-1.123-.854 1.037 1.037 0 00-1.248.963c.01.665.244 1.306.666 1.82a7.772 7.772 0 002.26 2.12c.566.397 1.242.61 1.934.609a1.117 1.117 0 001.108-1.123l-.002-.066a1.861 1.861 0 00-.969-1.232 1.705 1.705 0 00-.254-.115.792.792 0 01-.306-1.273 5.992 5.992 0 011.487-1.193 19.634 19.634 0 004.047 2.428 5.969 5.969 0 01-.15 3.036.865.865 0 01-1.33.458 3.376 3.376 0 00-.184-.119 2.442 2.442 0 00-1.454-.452 1.117 1.117 0 00-.908 1.436c.255.67.729 1.234 1.345 1.6a8.368 8.368 0 003.074 1.315 3.614 3.614 0 002.184-.1 1.199 1.199 0 00.683-1.612 1.998 1.998 0 00-1.437-.892 1.877 1.877 0 00-.3-.023.853.853 0 01-.779-1.177 5.996 5.996 0 011.879-2.519 19.63 19.63 0 004.736.74c.111.376.178.765.199 1.157a.656.656 0 01-.83.672 2.234 2.234 0 00-.162-.037 1.853 1.853 0 00-1.154.055.85.85 0 00-.276 1.26c.355.412.84.691 1.375.792a6.355 6.355 0 002.535.14 2.745 2.745 0 001.533-.636.912.912 0 00.068-1.328 1.519 1.519 0 00-1.256-.264 1.396 1.396 0 00-.219.061.647.647 0 01-.862-.637 5.1 5.1 0 01.213-1.225 19.786 19.786 0 003.93-.492 8.65 8.65 0 013.201 3.93 1.286 1.286 0 01-1.078 1.794c-.107.01-.216.023-.323.04a3.63 3.63 0 00-2.088.875 1.662 1.662 0 00.339 2.506c.932.52 2.012.709 3.064.536a12.486 12.486 0 004.762-1.441 5.392 5.392 0 002.4-2.2 1.79 1.79 0 00-.767-2.491 2.98 2.98 0 00-2.49.356 2.57 2.57 0 00-.362.26 1.268 1.268 0 01-2.013-.6 8.712 8.712 0 01-.121-5.219 19.71 19.71 0 002.895-1.806 6.409 6.409 0 011.675 1.285.87.87 0 01-.268 1.385 6.212 6.212 0 00-.2.1 2.444 2.444 0 00-1.121 1.037 1.121 1.121 0 00.793 1.51 3.18 3.18 0 002.065-.367 8.42 8.42 0 002.685-2.011 3.638 3.638 0 001.012-1.946 1.208 1.208 0 00-1.059-1.401 2.013 2.013 0 00-1.5.8c-.063.078-.12.161-.17.248a.857.857 0 01-1.413.087 6.375 6.375 0 01-1.035-1.95 19.783 19.783 0 002.7-3.052 7.358 7.358 0 014.011.819 1.083 1.083 0 01.276 1.742 4.342 4.342 0 00-.188.2 3.069 3.069 0 00-.874 1.7 1.4 1.4 0 001.577 1.434 3.987 3.987 0 002.27-1.313 10.55 10.55 0 002.294-3.511 4.536 4.536 0 00.356-2.719 1.51 1.51 0 00-1.756-1.212l-.088.018a2.514 2.514 0 00-1.415 1.579c-.04.119-.071.24-.093.364a1.07 1.07 0 01-1.625.707 7.412 7.412 0 01-2.823-3.132 19.433 19.433 0 001.278-3.814 5.967 5.967 0 011.814-.056.799.799 0 01.632 1.139 2.312 2.312 0 00-.078.187c-.207.436-.27.926-.179 1.4a1.037 1.037 0 001.457.6 2.936 2.936 0 001.243-1.485 7.753 7.753 0 00.706-3.017 3.37 3.37 0 00-.439-1.978 1.113 1.113 0 00-1.525-.397c-.02.011-.038.023-.057.035a1.859 1.859 0 00-.582 1.454c.001.093.01.185.027.276a.792.792 0 01-.947.9 5.978 5.978 0 01-1.774-.69c.124-.891.186-1.79.189-2.689 0-.4-.017-.8-.041-1.2a8.177 8.177 0 014.121-2.28 1.213 1.213 0 011.488 1.294c-.008.1-.014.205-.015.307a3.42 3.42 0 00.471 2.081 1.565 1.565 0 002.379.101 4.45 4.45 0 001-2.754 11.855 11.855 0 00-.56-4.663z"/><path id="Path_1944" fill="#AC267F" d="M576.703 145.425a7.598 7.598 0 00-2.466-3.87 2.526 2.526 0 00-3.649.453 4.201 4.201 0 00-.119 3.549c.075.196.167.386.273.567a1.79 1.79 0 01-1.322 2.652 12.324 12.324 0 01-7.178-1.067 29.184 29.184 0 00-1.515-4.013 7.773 7.773 0 013.006-3.5 1.157 1.157 0 011.758.675c.025.095.054.189.086.281.175.674.56 1.275 1.1 1.715a1.5 1.5 0 002.168-.692 4.254 4.254 0 000-2.8 11.235 11.235 0 00-2.021-4 4.861 4.861 0 00-2.325-1.783 1.613 1.613 0 00-2.089 1.069 2.68 2.68 0 00.706 2.152c.088.102.184.195.287.281a1.142 1.142 0 01-.214 1.879 7.86 7.86 0 01-4.578.924 29.696 29.696 0 00-3.584-4.447 11.008 11.008 0 012.25-5.7 1.623 1.623 0 012.64.046c.08.113.162.223.248.328a4.582 4.582 0 002.275 1.73 2.1 2.1 0 002.524-1.952 5.95 5.95 0 00-1.347-3.687 15.771 15.771 0 00-4.58-4.3 6.815 6.815 0 00-3.916-1.234 2.259 2.259 0 00-2.24 2.41 3.76 3.76 0 001.962 2.5c.164.091.336.169.513.232a1.6 1.6 0 01.62 2.578 11.098 11.098 0 01-5.353 3.35 29.416 29.416 0 00-4.838-2.687 6.61 6.61 0 01.051-3.884.984.984 0 011.512-.521c.069.047.14.093.209.136a2.779 2.779 0 001.653.513 1.27 1.27 0 001.032-1.633 3.617 3.617 0 00-1.529-1.819 9.544 9.544 0 00-3.5-1.5 4.118 4.118 0 00-2.482.109 1.37 1.37 0 00-.807 1.759l.031.076c.368.563.965.934 1.632 1.015.112.018.226.026.339.026a.97.97 0 01.888 1.339 6.656 6.656 0 01-2.5 3.118 29.344 29.344 0 00-5.484-1.067 11.005 11.005 0 01-1.935-5.809 1.623 1.623 0 012.063-1.664c.133.034.267.066.4.092.941.26 1.942.211 2.854-.137a2.099 2.099 0 00.679-3.119 5.965 5.965 0 00-3.399-1.959 15.764 15.764 0 00-6.27-.347 6.804 6.804 0 00-3.793 1.572 2.26 2.26 0 00-.166 3.286 3.762 3.762 0 003.107.652c.185-.036.365-.087.542-.152a1.6 1.6 0 012.131 1.577 11.087 11.087 0 01-1.947 6.007 29.348 29.348 0 00-6.267 1.31 7.494 7.494 0 01-.869-1.518.983.983 0 01.824-1.371c.083-.008.166-.018.247-.031a2.783 2.783 0 001.6-.669 1.268 1.268 0 00-.259-1.914 3.609 3.609 0 00-2.342-.41 9.547 9.547 0 00-3.64 1.1 4.128 4.128 0 00-1.833 1.68 1.368 1.368 0 00.518 1.864l.067.036a2.273 2.273 0 001.9-.273c.098-.059.19-.126.276-.2a.969.969 0 011.539.456c.188.594.303 1.208.342 1.83a29.404 29.404 0 00-6.522 3.57 8.956 8.956 0 01-3.85-2.479 1.3 1.3 0 01.401-2.074c.1-.047.199-.1.293-.15a3.665 3.665 0 001.679-1.552 1.677 1.677 0 00-1.188-2.261 4.771 4.771 0 00-3.092.549 12.625 12.625 0 00-4.021 3.011 5.446 5.446 0 00-1.517 2.914 1.807 1.807 0 001.587 2.101 3.01 3.01 0 002.24-1.2c.094-.117.179-.241.253-.371a1.281 1.281 0 012.117-.13 9.001 9.001 0 011.867 4.352 29.681 29.681 0 00-4.367 5.355 8.43 8.43 0 01-2.269-.767 1.127 1.127 0 01-.287-1.812c.066-.068.132-.138.193-.209a3.19 3.19 0 00.91-1.765 1.456 1.456 0 00-1.638-1.491 4.143 4.143 0 00-2.359 1.365 10.928 10.928 0 00-2.385 3.65 4.723 4.723 0 00-.371 2.826 1.568 1.568 0 001.825 1.26c.031-.006.062-.012.093-.02a2.608 2.608 0 001.475-1.633 2.41 2.41 0 00.101-.379 1.111 1.111 0 011.688-.734 8.495 8.495 0 011.9 1.642 29.258 29.258 0 00-2.388 5.971 11.026 11.026 0 01-6.058.9 1.626 1.626 0 01-1.28-2.31c.058-.125.111-.252.16-.38a4.593 4.593 0 00.361-2.835 2.099 2.099 0 00-2.952-1.21 5.965 5.965 0 00-2.52 3.01 15.746 15.746 0 00-1.431 6.114 6.806 6.806 0 00.89 4.008 2.26 2.26 0 003.207.734 3.757 3.757 0 001.182-2.946 3.384 3.384 0 00-.055-.56 1.6 1.6 0 011.922-1.825 11.107 11.107 0 015.584 2.967 29.16 29.16 0 00-.101 2.26 29.69 29.69 0 00.395 4.8 9.644 9.644 0 01-2.426.927 1.285 1.285 0 01-1.577-1.371c.009-.109.015-.217.016-.325a3.632 3.632 0 00-.5-2.205 1.659 1.659 0 00-2.521-.1 4.71 4.71 0 00-1.06 2.919 12.479 12.479 0 00.59 4.932 5.399 5.399 0 001.746 2.739 1.787 1.787 0 002.582-.322 2.967 2.967 0 00.08-2.51 2.72 2.72 0 00-.192-.4 1.267 1.267 0 01.935-1.877 9.705 9.705 0 012.827.034 29.245 29.245 0 002.02 5.567c-1.377 2.253-4.572 4.815-6.391 6.01a1.624 1.624 0 01-2.466-.946 7.2 7.2 0 00-.121-.394 4.59 4.59 0 00-1.546-2.4 2.102 2.102 0 00-3.041.97 5.952 5.952 0 000 3.926 15.76 15.76 0 002.835 5.6 6.805 6.805 0 003.258 2.5 2.258 2.258 0 002.928-1.5 3.761 3.761 0 00-.988-3.017 3.543 3.543 0 00-.4-.394 1.6 1.6 0 01.3-2.634c2.039-1.061 6.106-2.609 8.81-2.578a29.551 29.551 0 003.4 3.725 8.891 8.891 0 01-1.286 2.4 1.2 1.2 0 01-1.952-.034 3.97 3.97 0 00-.184-.243 3.378 3.378 0 00-1.681-1.279 1.551 1.551 0 00-1.867 1.443 4.401 4.401 0 001 2.725 11.627 11.627 0 003.386 3.175 5.029 5.029 0 002.895.912 1.668 1.668 0 001.654-1.781 2.782 2.782 0 00-1.45-1.845 2.686 2.686 0 00-.378-.172 1.185 1.185 0 01-.459-1.905 9 9 0 012.227-1.786 29.386 29.386 0 006.064 3.643 8.916 8.916 0 01-.224 4.547 1.3 1.3 0 01-1.991.686 4.586 4.586 0 00-.275-.178 3.666 3.666 0 00-2.178-.676 1.672 1.672 0 00-1.358 2.151 4.75 4.75 0 002.015 2.4 12.545 12.545 0 004.6 1.969c1.079.29 2.222.24 3.271-.144a1.8 1.8 0 001.021-2.416 3 3 0 00-2.149-1.335 2.795 2.795 0 00-.447-.034 1.277 1.277 0 01-1.167-1.762 8.978 8.978 0 012.815-3.773 29.446 29.446 0 007.09 1.108c.167.564.268 1.145.3 1.732a.984.984 0 01-1.243 1.006 4.068 4.068 0 00-.243-.056 2.773 2.773 0 00-1.729.083 1.268 1.268 0 00-.412 1.886 3.61 3.61 0 002.059 1.186 9.534 9.534 0 003.801.21 4.126 4.126 0 002.3-.952 1.366 1.366 0 00.155-1.927c-.019-.021-.036-.042-.056-.061a2.279 2.279 0 00-1.881-.4 1.973 1.973 0 00-.328.092.97.97 0 01-1.291-.954c.026-.625.13-1.245.309-1.845a29.617 29.617 0 005.886-.737 12.966 12.966 0 014.8 5.885 1.925 1.925 0 01-1.62 2.673 9.544 9.544 0 00-.484.06 5.443 5.443 0 00-3.127 1.311 2.49 2.49 0 00.506 3.752 7.07 7.07 0 004.587.8 18.709 18.709 0 007.13-2.158 8.071 8.071 0 003.59-3.291 2.68 2.68 0 00-1.146-3.73 4.465 4.465 0 00-3.729.534c-.19.114-.372.244-.542.389a1.9 1.9 0 01-3.015-.891 13.038 13.038 0 01-.182-7.816 29.517 29.517 0 004.334-2.7 9.576 9.576 0 012.508 1.924 1.3 1.3 0 01-.401 2.074c-.1.047-.2.1-.294.15a3.665 3.665 0 00-1.679 1.552 1.678 1.678 0 001.188 2.261 4.774 4.774 0 003.093-.549 12.61 12.61 0 004.021-3.011 5.448 5.448 0 001.516-2.914 1.806 1.806 0 00-1.587-2.1 3.008 3.008 0 00-2.239 1.2c-.095.117-.18.241-.255.371a1.282 1.282 0 01-2.115.13 9.588 9.588 0 01-1.551-2.92 29.683 29.683 0 004.045-4.57 11.02 11.02 0 016.005 1.227 1.624 1.624 0 01.413 2.609 6.032 6.032 0 00-.28.3 4.596 4.596 0 00-1.31 2.541 2.102 2.102 0 002.361 2.148 5.968 5.968 0 003.4-1.966 15.751 15.751 0 003.434-5.256 6.8 6.8 0 00.535-4.071 2.259 2.259 0 00-2.63-1.814c-.044.008-.088.018-.132.028a3.764 3.764 0 00-2.119 2.364c-.06.178-.107.36-.139.545a1.6 1.6 0 01-2.431 1.058 11.105 11.105 0 01-4.228-4.69 29.228 29.228 0 001.915-5.711 8.95 8.95 0 012.714-.084 1.2 1.2 0 01.946 1.707 3.953 3.953 0 00-.117.28 3.399 3.399 0 00-.268 2.095 1.553 1.553 0 002.183.894 4.399 4.399 0 001.86-2.224 11.644 11.644 0 001.058-4.518 5.043 5.043 0 00-.656-2.962 1.669 1.669 0 00-2.369-.542 2.779 2.779 0 00-.874 2.177c.002.139.016.277.041.413a1.183 1.183 0 01-1.42 1.348 8.975 8.975 0 01-2.656-1.034c.185-1.335.279-2.68.281-4.027 0-.606-.024-1.2-.061-1.8a12.243 12.243 0 016.172-3.415 1.815 1.815 0 012.227 1.936 6.464 6.464 0 00-.022.46 5.125 5.125 0 00.704 3.116 2.343 2.343 0 003.563.143 6.667 6.667 0 001.5-4.124 17.552 17.552 0 00-.837-6.963z"/><path id="Path_1949" fill="#AC267F" d="M732.703 31.425a7.598 7.598 0 00-2.466-3.87 2.526 2.526 0 00-3.649.453 4.201 4.201 0 00-.119 3.549c.075.196.167.385.273.567a1.79 1.79 0 01-1.322 2.652 12.324 12.324 0 01-7.178-1.067 29.184 29.184 0 00-1.515-4.013 7.773 7.773 0 013.006-3.5 1.157 1.157 0 011.758.675c.025.095.054.189.086.281.175.674.56 1.275 1.1 1.715a1.5 1.5 0 002.168-.692 4.254 4.254 0 000-2.8 11.235 11.235 0 00-2.021-4 4.861 4.861 0 00-2.325-1.783 1.613 1.613 0 00-2.089 1.069 2.68 2.68 0 00.706 2.152c.088.102.184.195.287.281a1.142 1.142 0 01-.214 1.879 7.86 7.86 0 01-4.578.924 29.696 29.696 0 00-3.584-4.447 11.008 11.008 0 012.25-5.7 1.623 1.623 0 012.64.046c.08.113.162.223.248.328a4.582 4.582 0 002.275 1.73 2.1 2.1 0 002.524-1.952 5.952 5.952 0 00-1.347-3.687 15.771 15.771 0 00-4.58-4.3 6.815 6.815 0 00-3.916-1.234 2.258 2.258 0 00-2.24 2.41 3.76 3.76 0 001.962 2.5c.164.091.336.169.513.232a1.601 1.601 0 01.62 2.578 11.1 11.1 0 01-5.352 3.35 29.416 29.416 0 00-4.838-2.687 6.61 6.61 0 01.051-3.884.984.984 0 011.512-.521c.069.047.14.093.209.136a2.772 2.772 0 001.653.513 1.27 1.27 0 001.032-1.633 3.617 3.617 0 00-1.529-1.819 9.544 9.544 0 00-3.5-1.5 4.118 4.118 0 00-2.482.109 1.37 1.37 0 00-.807 1.759l.031.076c.368.563.965.934 1.632 1.015.112.018.226.026.339.026a.97.97 0 01.888 1.339 6.656 6.656 0 01-2.5 3.118 29.344 29.344 0 00-5.484-1.067 11.005 11.005 0 01-1.935-5.809 1.623 1.623 0 012.063-1.664c.133.034.267.066.4.092.941.26 1.942.211 2.854-.137a2.099 2.099 0 00.679-3.119 5.965 5.965 0 00-3.399-1.959 15.764 15.764 0 00-6.27-.347 6.804 6.804 0 00-3.793 1.572 2.26 2.26 0 00-.166 3.286 3.762 3.762 0 003.107.652c.185-.036.365-.087.542-.152a1.6 1.6 0 012.131 1.577 11.087 11.087 0 01-1.947 6.007 29.37 29.37 0 00-6.268 1.31 7.494 7.494 0 01-.869-1.518.983.983 0 01.824-1.371c.083-.008.166-.018.247-.031a2.783 2.783 0 001.6-.669 1.268 1.268 0 00-.259-1.914 3.609 3.609 0 00-2.342-.41 9.547 9.547 0 00-3.64 1.1 4.128 4.128 0 00-1.833 1.68 1.368 1.368 0 00.585 1.9 2.273 2.273 0 001.9-.273c.098-.059.19-.126.276-.2a.969.969 0 011.539.456c.188.594.303 1.208.342 1.83a29.404 29.404 0 00-6.522 3.57 8.956 8.956 0 01-3.85-2.479 1.3 1.3 0 01.401-2.074c.1-.047.199-.1.293-.15a3.665 3.665 0 001.679-1.552 1.677 1.677 0 00-1.188-2.261 4.771 4.771 0 00-3.092.549 12.614 12.614 0 00-4.021 3.011 5.446 5.446 0 00-1.517 2.914 1.807 1.807 0 001.587 2.101 3.01 3.01 0 002.24-1.2c.094-.117.179-.241.253-.371a1.281 1.281 0 012.117-.13 9.001 9.001 0 011.867 4.352 29.681 29.681 0 00-4.367 5.355 8.43 8.43 0 01-2.269-.767 1.127 1.127 0 01-.287-1.812c.067-.068.132-.138.193-.209a3.186 3.186 0 00.91-1.765 1.455 1.455 0 00-1.638-1.491 4.143 4.143 0 00-2.359 1.365 10.928 10.928 0 00-2.385 3.65 4.723 4.723 0 00-.371 2.826 1.568 1.568 0 001.825 1.26c.031-.006.062-.012.093-.02a2.608 2.608 0 001.475-1.633c.044-.123.078-.25.101-.379a1.112 1.112 0 011.688-.734 8.473 8.473 0 011.9 1.642 29.258 29.258 0 00-2.388 5.971 11.027 11.027 0 01-6.058.9 1.626 1.626 0 01-1.281-2.31c.058-.125.111-.252.16-.38a4.593 4.593 0 00.361-2.835 2.099 2.099 0 00-2.952-1.211 5.965 5.965 0 00-2.52 3.01c-.883 1.921-1.369 4-1.431 6.114a6.807 6.807 0 00.89 4.008 2.26 2.26 0 003.207.734 3.757 3.757 0 001.182-2.946 3.395 3.395 0 00-.055-.56 1.6 1.6 0 011.922-1.825 11.107 11.107 0 015.584 2.967 29.16 29.16 0 00-.101 2.26 29.69 29.69 0 00.395 4.8 9.644 9.644 0 01-2.426.927 1.285 1.285 0 01-1.577-1.371c.009-.109.015-.217.016-.325a3.632 3.632 0 00-.5-2.205 1.659 1.659 0 00-2.521-.1 4.71 4.71 0 00-1.06 2.919 12.479 12.479 0 00.59 4.932 5.399 5.399 0 001.746 2.739 1.787 1.787 0 002.582-.322 2.97 2.97 0 00.08-2.51 2.72 2.72 0 00-.192-.4 1.267 1.267 0 01.935-1.877 9.705 9.705 0 012.827.034 29.18 29.18 0 002.021 5.567c-1.377 2.253-4.572 4.815-6.391 6.01a1.624 1.624 0 01-2.466-.946 7.2 7.2 0 00-.121-.394 4.59 4.59 0 00-1.546-2.4 2.102 2.102 0 00-3.041.971 5.952 5.952 0 000 3.926 15.76 15.76 0 002.835 5.6 6.805 6.805 0 003.258 2.5 2.258 2.258 0 002.928-1.5 3.761 3.761 0 00-.988-3.017 3.543 3.543 0 00-.4-.394 1.6 1.6 0 01.3-2.634c2.039-1.061 6.106-2.609 8.81-2.578a29.62 29.62 0 003.399 3.725 8.891 8.891 0 01-1.286 2.4 1.2 1.2 0 01-1.952-.034 3.97 3.97 0 00-.184-.243 3.378 3.378 0 00-1.681-1.279 1.551 1.551 0 00-1.867 1.443 4.401 4.401 0 001 2.725 11.627 11.627 0 003.386 3.175 5.029 5.029 0 002.895.912 1.668 1.668 0 001.654-1.781 2.782 2.782 0 00-1.45-1.845 2.577 2.577 0 00-.378-.172 1.185 1.185 0 01-.459-1.905 9 9 0 012.227-1.786 29.386 29.386 0 006.064 3.643 8.916 8.916 0 01-.224 4.547 1.3 1.3 0 01-1.991.686 4.586 4.586 0 00-.275-.178 3.666 3.666 0 00-2.178-.676 1.672 1.672 0 00-1.358 2.151 4.75 4.75 0 002.015 2.4 12.528 12.528 0 004.6 1.969c1.079.29 2.222.24 3.271-.144a1.8 1.8 0 001.021-2.416 3 3 0 00-2.149-1.335 2.795 2.795 0 00-.447-.034 1.277 1.277 0 01-1.167-1.762 8.978 8.978 0 012.815-3.773 29.446 29.446 0 007.09 1.108c.167.563.268 1.145.3 1.732a.982.982 0 01-1.243 1.005 4.068 4.068 0 00-.243-.056 2.78 2.78 0 00-1.729.083 1.268 1.268 0 00-.412 1.886 3.616 3.616 0 002.059 1.186 9.534 9.534 0 003.801.21 4.126 4.126 0 002.3-.952 1.366 1.366 0 00.155-1.927c-.019-.021-.036-.041-.056-.061a2.279 2.279 0 00-1.881-.4 1.973 1.973 0 00-.328.092.97.97 0 01-1.291-.954c.026-.625.13-1.245.309-1.845a29.617 29.617 0 005.886-.737 12.966 12.966 0 014.8 5.885 1.925 1.925 0 01-1.62 2.673 9.544 9.544 0 00-.484.06 5.443 5.443 0 00-3.127 1.311 2.49 2.49 0 00.507 3.752 7.07 7.07 0 004.587.8 18.691 18.691 0 007.13-2.158 8.071 8.071 0 003.59-3.291 2.68 2.68 0 00-1.146-3.73 4.462 4.462 0 00-3.729.534c-.19.114-.372.244-.542.389a1.9 1.9 0 01-3.015-.891 13.035 13.035 0 01-.182-7.815 29.433 29.433 0 004.334-2.7 9.576 9.576 0 012.508 1.924 1.3 1.3 0 01-.401 2.074c-.1.047-.2.1-.294.15a3.665 3.665 0 00-1.679 1.552 1.678 1.678 0 001.188 2.261 4.774 4.774 0 003.093-.549 12.625 12.625 0 004.021-3.011 5.452 5.452 0 001.516-2.914 1.806 1.806 0 00-1.587-2.1 3.008 3.008 0 00-2.239 1.2c-.095.117-.18.241-.255.371a1.28 1.28 0 01-2.115.13 9.588 9.588 0 01-1.551-2.92 29.683 29.683 0 004.045-4.57 11.02 11.02 0 016.005 1.227 1.624 1.624 0 01.413 2.609 6.032 6.032 0 00-.28.3 4.596 4.596 0 00-1.31 2.541 2.1 2.1 0 002.361 2.147 5.968 5.968 0 003.4-1.966 15.751 15.751 0 003.434-5.256 6.8 6.8 0 00.535-4.071 2.258 2.258 0 00-2.63-1.814c-.044.008-.088.018-.132.028a3.764 3.764 0 00-2.119 2.364c-.06.177-.107.36-.139.545a1.6 1.6 0 01-2.431 1.058 11.105 11.105 0 01-4.228-4.69 29.228 29.228 0 001.915-5.711 8.95 8.95 0 012.714-.084 1.2 1.2 0 01.946 1.707 3.953 3.953 0 00-.117.28 3.399 3.399 0 00-.268 2.095 1.553 1.553 0 002.183.894 4.399 4.399 0 001.86-2.224 11.644 11.644 0 001.058-4.518 5.043 5.043 0 00-.656-2.962 1.669 1.669 0 00-2.369-.542 2.779 2.779 0 00-.874 2.177c.002.139.016.277.041.413a1.184 1.184 0 01-1.42 1.348 8.975 8.975 0 01-2.656-1.034c.185-1.335.279-2.68.281-4.027 0-.606-.024-1.2-.061-1.8a12.243 12.243 0 016.172-3.415 1.815 1.815 0 012.227 1.936 7.117 7.117 0 00-.023.46 5.132 5.132 0 00.704 3.116 2.343 2.343 0 003.563.143 6.667 6.667 0 001.5-4.124 17.531 17.531 0 00-.836-6.962z"/><path id="Path_1945" fill="#AC267F" d="M719.181 152.874a2.548 2.548 0 00-.823-1.292.844.844 0 00-1.219.152c-.187.37-.201.803-.038 1.184.025.065.056.128.092.189a.6.6 0 01-.441.885 4.119 4.119 0 01-2.4-.356 9.703 9.703 0 00-.506-1.34 2.609 2.609 0 011-1.169.386.386 0 01.588.226l.029.094a1.1 1.1 0 00.368.573.5.5 0 00.723-.231 1.427 1.427 0 000-.935 3.736 3.736 0 00-.675-1.335 1.624 1.624 0 00-.775-.6.538.538 0 00-.7.357.903.903 0 00.336.813.383.383 0 01-.071.627c-.467.256-1 .364-1.529.309a9.902 9.902 0 00-1.199-1.485c.065-.691.326-1.35.751-1.9a.54.54 0 01.882.015c.026.038.054.074.083.11.185.269.451.471.76.578a.7.7 0 00.843-.652 1.985 1.985 0 00-.45-1.231 5.25 5.25 0 00-1.528-1.434 2.278 2.278 0 00-1.309-.412.753.753 0 00-.749.758l.001.041c.085.361.324.667.655.834.055.03.112.056.171.077a.535.535 0 01.208.861 3.697 3.697 0 01-1.787 1.119 9.805 9.805 0 00-1.614-.9 2.208 2.208 0 01.017-1.3.328.328 0 01.505-.174l.07.045a.93.93 0 00.552.171.423.423 0 00.344-.545 1.202 1.202 0 00-.511-.607 3.18 3.18 0 00-1.167-.5 1.373 1.373 0 00-.829.036.457.457 0 00-.269.587l.011.025a.76.76 0 00.545.339.708.708 0 00.113.009.323.323 0 01.3.447 2.225 2.225 0 01-.835 1.041 9.764 9.764 0 00-1.831-.356 3.676 3.676 0 01-.646-1.94.541.541 0 01.685-.555c.045.012.089.022.134.031.314.086.648.07.953-.046a.7.7 0 00.226-1.041 1.987 1.987 0 00-1.136-.654 5.263 5.263 0 00-2.094-.116 2.27 2.27 0 00-1.267.525.756.756 0 00-.088 1.064l.032.036c.297.222.677.302 1.038.218.062-.012.122-.029.182-.051a.535.535 0 01.712.526 3.71 3.71 0 01-.65 2.006 9.778 9.778 0 00-2.093.437 2.473 2.473 0 01-.29-.507.329.329 0 01.275-.458l.083-.01a.93.93 0 00.533-.223.424.424 0 00-.086-.639 1.202 1.202 0 00-.782-.137c-.425.04-.839.165-1.215.368-.257.12-.471.315-.611.561a.457.457 0 00.174.623l.025.014a.764.764 0 00.636-.091.736.736 0 00.092-.066.324.324 0 01.514.152c.063.198.102.404.114.611a9.789 9.789 0 00-2.178 1.192 2.987 2.987 0 01-1.286-.828.432.432 0 01.134-.693l.1-.05a1.22 1.22 0 00.561-.518.56.56 0 00-.401-.755 1.591 1.591 0 00-1.032.183 4.214 4.214 0 00-1.343 1.006 1.82 1.82 0 00-.506.973.6.6 0 00.488.694l.042.006c.296-.016.57-.163.748-.4a.97.97 0 00.085-.124.427.427 0 01.707-.044c.333.42.548.922.623 1.453a9.82 9.82 0 00-1.458 1.788 2.832 2.832 0 01-.759-.256.378.378 0 01-.1-.6c.023-.023.044-.046.065-.07.159-.16.265-.366.3-.589a.485.485 0 00-.547-.5c-.307.059-.585.22-.788.456a3.658 3.658 0 00-.801 1.219 1.572 1.572 0 00-.123.944.522.522 0 00.639.414.874.874 0 00.522-.675.372.372 0 01.564-.245c.238.15.452.334.636.548a9.807 9.807 0 00-.8 1.992 3.68 3.68 0 01-2.023.3.544.544 0 01-.428-.771l.055-.127a1.53 1.53 0 00.12-.947.7.7 0 00-.986-.4c-.386.23-.683.585-.841 1.005a5.228 5.228 0 00-.478 2.042c-.04.466.064.934.3 1.338a.755.755 0 001.032.27l.039-.025c.271-.253.415-.613.394-.984a1.172 1.172 0 00-.018-.187.535.535 0 01.641-.61 3.705 3.705 0 011.865.991c-.019.249-.032.5-.032.755a9.86 9.86 0 00.133 1.6 3.214 3.214 0 01-.811.31.428.428 0 01-.527-.458c0-.037.005-.073.005-.109a1.215 1.215 0 00-.166-.736.554.554 0 00-.842-.034c-.225.276-.35.62-.354.975a4.145 4.145 0 00.2 1.647c.096.358.299.677.583.915a.599.599 0 00.862-.107.987.987 0 00.027-.838.967.967 0 00-.064-.134.423.423 0 01.311-.627c.313-.042.632-.039.944.011.161.641.388 1.264.675 1.859a8.058 8.058 0 01-2.134 2.007.542.542 0 01-.824-.316 2.837 2.837 0 00-.04-.131 1.536 1.536 0 00-.516-.8.7.7 0 00-1.016.325 1.991 1.991 0 000 1.311c.188.681.51 1.317.947 1.871.268.384.647.675 1.088.835a.754.754 0 00.964-.456l.015-.044a1.257 1.257 0 00-.33-1.007 1.115 1.115 0 00-.135-.131.535.535 0 01.1-.88 7.663 7.663 0 012.942-.861c.342.446.722.862 1.135 1.244a2.972 2.972 0 01-.43.8.4.4 0 01-.652-.011 1.712 1.712 0 00-.061-.081 1.134 1.134 0 00-.561-.427.518.518 0 00-.623.482c.005.332.122.653.332.91a3.89 3.89 0 001.131 1.06c.284.197.621.302.967.3a.557.557 0 00.554-.561l-.001-.035a.93.93 0 00-.484-.616.886.886 0 00-.126-.057.401.401 0 01-.154-.636c.214-.239.465-.441.743-.6a9.89 9.89 0 002.025 1.217c.106.504.08 1.027-.075 1.518a.433.433 0 01-.665.229 3.562 3.562 0 00-.092-.06 1.222 1.222 0 00-.728-.226.558.558 0 00-.455.718c.128.335.365.617.673.8.463.32.986.544 1.537.658.36.097.742.08 1.093-.048a.599.599 0 00.355-.77l-.015-.037a1 1 0 00-.719-.446.923.923 0 00-.148-.012.426.426 0 01-.39-.588c.195-.496.52-.931.94-1.26.771.22 1.566.344 2.368.37.056.188.089.382.1.578a.327.327 0 01-.415.336l-.081-.019a.93.93 0 00-.576.028.424.424 0 00-.138.63 1.2 1.2 0 00.689.4c.413.108.845.132 1.268.07.282-.024.551-.136.767-.318a.456.456 0 00.053-.643l-.019-.021a.761.761 0 00-.628-.132.679.679 0 00-.109.031.325.325 0 01-.432-.319c.008-.209.042-.415.101-.616a9.94 9.94 0 001.965-.246 4.33 4.33 0 011.6 1.965.641.641 0 01-.539.9 2.866 2.866 0 00-.162.02 1.823 1.823 0 00-1.044.438.831.831 0 00.169 1.253c.466.26 1.006.354 1.532.268a6.232 6.232 0 002.381-.721 2.696 2.696 0 001.2-1.1.9.9 0 00-.345-1.225l-.038-.02a1.488 1.488 0 00-1.245.178 1.274 1.274 0 00-.181.13.635.635 0 01-1.007-.3 4.343 4.343 0 01-.061-2.609 9.848 9.848 0 001.447-.9 3.2 3.2 0 01.837.643.434.434 0 01-.135.694l-.101.05c-.237.108-.434.29-.56.518a.56.56 0 00.401.755 1.59 1.59 0 001.031-.183 4.218 4.218 0 001.344-1.006 1.82 1.82 0 00.506-.973.6.6 0 00-.488-.694l-.042-.006a1 1 0 00-.748.4c-.031.039-.06.081-.085.124a.428.428 0 01-.707.042 3.232 3.232 0 01-.518-.975 9.898 9.898 0 001.351-1.526 3.673 3.673 0 012.005.41.541.541 0 01.138.87c-.032.033-.064.066-.094.1a1.532 1.532 0 00-.437.849.699.699 0 00.787.717 1.991 1.991 0 001.136-.657 5.25 5.25 0 001.146-1.755c.198-.424.261-.898.18-1.359a.754.754 0 00-.923-.6c-.34.146-.599.435-.707.79-.02.059-.036.12-.047.182a.535.535 0 01-.812.353 3.704 3.704 0 01-1.412-1.566 9.693 9.693 0 00.648-1.911 2.96 2.96 0 01.906-.028.4.4 0 01.317.57.847.847 0 00-.039.094 1.126 1.126 0 00-.089.7.519.519 0 00.728.3c.285-.17.505-.432.622-.743.218-.474.338-.987.354-1.509.03-.344-.047-.69-.22-.989a.557.557 0 00-.791-.181.932.932 0 00-.292.727.798.798 0 00.015.138.401.401 0 01-.475.452 3.03 3.03 0 01-.887-.345c.061-.446.093-.895.094-1.345 0-.2-.008-.4-.02-.6a4.078 4.078 0 012.061-1.14.607.607 0 01.745.647c0 .051-.007.1-.008.154a1.71 1.71 0 00.236 1.039.783.783 0 001.19.049c.317-.39.494-.875.5-1.377a5.786 5.786 0 00-.278-2.324z"/><path id="Path_1948" fill="#AC267F" d="M316.181 180.874a2.543 2.543 0 00-.824-1.292.843.843 0 00-1.218.152c-.188.37-.201.803-.038 1.184.025.065.056.128.091.189a.6.6 0 01-.441.885 4.119 4.119 0 01-2.4-.356 9.833 9.833 0 00-.506-1.34 2.603 2.603 0 011-1.169.387.387 0 01.588.226c.009.032.018.063.029.094a1.1 1.1 0 00.368.573.501.501 0 00.725-.231 1.427 1.427 0 000-.935 3.752 3.752 0 00-.675-1.335 1.618 1.618 0 00-.776-.6.539.539 0 00-.7.357.9.9 0 00.336.813.382.382 0 01-.071.627c-.466.256-1 .364-1.529.309a9.847 9.847 0 00-1.2-1.485 3.68 3.68 0 01.751-1.9.54.54 0 01.882.015c.027.038.054.074.083.11.186.269.452.471.76.578a.7.7 0 00.843-.652 1.985 1.985 0 00-.45-1.231 5.242 5.242 0 00-1.529-1.434 2.275 2.275 0 00-1.308-.412.754.754 0 00-.75.758l.001.041c.085.361.324.667.655.834.055.03.112.056.171.077a.535.535 0 01.207.861 3.693 3.693 0 01-1.787 1.119 9.814 9.814 0 00-1.615-.9 2.208 2.208 0 01.017-1.3.329.329 0 01.505-.174l.07.045a.93.93 0 00.552.171.424.424 0 00.345-.545 1.207 1.207 0 00-.511-.607 3.187 3.187 0 00-1.167-.5 1.373 1.373 0 00-.829.036.457.457 0 00-.269.587l.01.025a.76.76 0 00.545.339.717.717 0 00.113.009.323.323 0 01.3.447 2.225 2.225 0 01-.835 1.041 9.764 9.764 0 00-1.831-.356 3.677 3.677 0 01-.647-1.94.542.542 0 01.685-.555c.045.012.089.022.134.031.315.086.648.07.953-.046a.701.701 0 00.227-1.041 1.987 1.987 0 00-1.136-.654 5.262 5.262 0 00-2.094-.116c-.466.04-.909.224-1.267.525a.755.755 0 00-.087 1.064l.032.036c.297.222.677.302 1.038.218.062-.012.122-.029.181-.051a.534.534 0 01.712.526 3.701 3.701 0 01-.65 2.006 9.778 9.778 0 00-2.093.437 2.52 2.52 0 01-.29-.507.33.33 0 01.275-.458l.083-.01a.932.932 0 00.533-.223.424.424 0 00-.086-.639 1.203 1.203 0 00-.782-.137c-.426.04-.839.165-1.215.368-.257.12-.471.315-.612.561a.457.457 0 00.174.623l.026.014a.762.762 0 00.635-.091.736.736 0 00.092-.066.324.324 0 01.514.152c.063.198.101.404.114.611a9.789 9.789 0 00-2.178 1.192 2.987 2.987 0 01-1.286-.828.433.433 0 01.135-.693 2.33 2.33 0 00.1-.05 1.22 1.22 0 00.561-.518.559.559 0 00-.4-.755 1.592 1.592 0 00-1.032.183 4.203 4.203 0 00-1.343 1.006 1.82 1.82 0 00-.506.973.6.6 0 00.488.694l.042.006c.296-.016.57-.163.748-.4a.878.878 0 00.085-.124.428.428 0 01.707-.044c.333.42.549.922.623 1.453a9.903 9.903 0 00-1.458 1.788 2.826 2.826 0 01-.758-.256.377.377 0 01-.1-.6l.065-.07c.16-.16.265-.366.3-.589a.485.485 0 00-.547-.5c-.307.059-.585.22-.788.456a3.656 3.656 0 00-.8 1.219 1.573 1.573 0 00-.124.944.523.523 0 00.61.42l.03-.006a.874.874 0 00.491-.548.814.814 0 00.032-.127.371.371 0 01.563-.245c.238.15.452.334.636.548a9.807 9.807 0 00-.8 1.992 3.679 3.679 0 01-2.022.3.543.543 0 01-.428-.771c.02-.042.038-.085.054-.127.14-.295.182-.627.121-.947a.701.701 0 00-.986-.4c-.385.23-.682.585-.841 1.005a5.245 5.245 0 00-.478 2.042c-.04.466.064.934.3 1.338a.755.755 0 001.032.27l.04-.025c.27-.253.415-.613.395-.984a1.172 1.172 0 00-.018-.187.535.535 0 01.642-.61 3.709 3.709 0 011.865.991c-.019.249-.032.5-.032.755 0 .536.045 1.071.132 1.6a3.222 3.222 0 01-.81.31.428.428 0 01-.527-.458c0-.037.005-.073.005-.109a1.215 1.215 0 00-.166-.736.554.554 0 00-.842-.034c-.225.276-.35.62-.354.975a4.163 4.163 0 00.2 1.647c.095.358.299.677.583.915a.6.6 0 00.844-.085l.018-.022a.995.995 0 00.027-.838.967.967 0 00-.064-.134.422.422 0 01.312-.627c.313-.042.631-.039.944.011.162.641.388 1.264.675 1.859a8.058 8.058 0 01-2.134 2.007.542.542 0 01-.824-.316 2.837 2.837 0 00-.04-.131 1.53 1.53 0 00-.516-.8.7.7 0 00-1.015.325 1.991 1.991 0 000 1.311c.187.681.509 1.317.947 1.871.268.384.648.675 1.088.835a.754.754 0 00.964-.456l.014-.044a1.257 1.257 0 00-.33-1.007 1.107 1.107 0 00-.134-.131.535.535 0 01.1-.88 7.668 7.668 0 012.942-.861c.342.446.722.862 1.135 1.244a2.97 2.97 0 01-.429.8.4.4 0 01-.652-.011 1.712 1.712 0 00-.061-.081 1.134 1.134 0 00-.561-.427.518.518 0 00-.623.482c.005.332.122.653.332.91a3.89 3.89 0 001.131 1.06c.284.197.622.302.967.3a.557.557 0 00.554-.561l-.001-.035a.93.93 0 00-.484-.616.796.796 0 00-.126-.057.4.4 0 01-.154-.636c.214-.239.465-.441.743-.6a9.89 9.89 0 002.025 1.217 2.973 2.973 0 01-.075 1.518.433.433 0 01-.665.229 2.4 2.4 0 00-.092-.06 1.221 1.221 0 00-.727-.226.56.56 0 00-.454.718c.128.335.365.617.673.8.463.32.986.544 1.537.658.36.097.742.08 1.092-.048a.6.6 0 00.356-.77l-.015-.037a.997.997 0 00-.718-.446.926.926 0 00-.149-.012.426.426 0 01-.39-.588c.196-.496.521-.931.94-1.26.771.22 1.566.344 2.368.37.056.188.089.382.1.578a.328.328 0 01-.415.336l-.081-.019a.933.933 0 00-.577.028.424.424 0 00-.137.63 1.2 1.2 0 00.688.4 3.19 3.19 0 001.268.07c.283-.024.55-.136.767-.318a.456.456 0 00.053-.643l-.019-.021a.762.762 0 00-.628-.132.69.69 0 00-.11.031.325.325 0 01-.431-.319c.008-.209.042-.415.1-.616a9.92 9.92 0 001.965-.246 4.336 4.336 0 011.6 1.965.643.643 0 01-.539.9 2.757 2.757 0 00-.162.02 1.82 1.82 0 00-1.044.438.83.83 0 00.169 1.253c.466.26 1.006.354 1.532.268a6.232 6.232 0 002.381-.721 2.701 2.701 0 001.2-1.1.9.9 0 00-.345-1.225l-.038-.02a1.488 1.488 0 00-1.245.178 1.22 1.22 0 00-.181.13.633.633 0 01-1.007-.3 4.35 4.35 0 01-.061-2.609 9.901 9.901 0 001.447-.9 3.2 3.2 0 01.837.643.434.434 0 01-.135.694l-.1.05a1.22 1.22 0 00-.561.518.56.56 0 00.4.755c.355.057.718-.007 1.032-.183a4.203 4.203 0 001.343-1.006 1.82 1.82 0 00.506-.973.6.6 0 00-.488-.694l-.042-.006c-.296.016-.57.162-.748.4a.94.94 0 00-.085.124.427.427 0 01-.707.042 3.186 3.186 0 01-.517-.975 9.891 9.891 0 001.35-1.526 3.673 3.673 0 012.005.41.542.542 0 01.139.87 1.745 1.745 0 00-.094.1 1.538 1.538 0 00-.437.849.7.7 0 00.788.717 1.989 1.989 0 001.135-.657 5.237 5.237 0 001.147-1.755 2.27 2.27 0 00.179-1.359.754.754 0 00-.875-.61l-.047.01c-.341.146-.6.435-.707.79a1.13 1.13 0 00-.047.182.536.536 0 01-.812.353 3.704 3.704 0 01-1.412-1.566c.282-.613.5-1.253.649-1.911a2.96 2.96 0 01.906-.028.4.4 0 01.316.57 1.095 1.095 0 00-.039.094 1.126 1.126 0 00-.089.7.519.519 0 00.729.3c.286-.17.505-.432.622-.743.218-.474.338-.987.353-1.509.03-.344-.046-.69-.219-.989a.558.558 0 00-.791-.181.928.928 0 00-.292.727.797.797 0 00.014.138.4.4 0 01-.474.452 2.997 2.997 0 01-.887-.345c.062-.446.093-.895.094-1.345 0-.2-.008-.4-.02-.6a4.086 4.086 0 012.061-1.14.605.605 0 01.744.647c0 .051-.007.1-.008.154-.034.363.048.727.236 1.039a.784.784 0 001.19.049c.317-.39.494-.875.5-1.377a5.935 5.935 0 00-.285-2.324z"/><path id="Path_1946" fill="#AC267F" d="M294.181 87.874a2.543 2.543 0 00-.824-1.292.843.843 0 00-1.218.152c-.188.37-.201.803-.038 1.184.025.065.056.128.091.189a.6.6 0 01-.441.885 4.111 4.111 0 01-2.4-.357 9.883 9.883 0 00-.506-1.34 2.603 2.603 0 011-1.169.387.387 0 01.588.226c.009.032.018.063.029.094a1.1 1.1 0 00.368.573.5.5 0 00.725-.231 1.427 1.427 0 000-.935 3.752 3.752 0 00-.675-1.335 1.618 1.618 0 00-.776-.6.539.539 0 00-.7.357.9.9 0 00.336.813.382.382 0 01-.071.627c-.466.256-1 .364-1.529.309a9.847 9.847 0 00-1.2-1.485 3.676 3.676 0 01.751-1.9.542.542 0 01.882.015c.027.038.054.074.083.11.186.269.452.471.76.578a.7.7 0 00.843-.652 1.985 1.985 0 00-.45-1.231 5.255 5.255 0 00-1.529-1.434 2.268 2.268 0 00-1.308-.412.754.754 0 00-.75.758l.001.042c.085.361.324.666.655.834.055.03.112.056.171.077a.535.535 0 01.207.861 3.693 3.693 0 01-1.787 1.119 9.814 9.814 0 00-1.615-.9 2.208 2.208 0 01.017-1.3.329.329 0 01.505-.174l.07.045a.93.93 0 00.552.171.424.424 0 00.345-.545 1.207 1.207 0 00-.511-.607 3.204 3.204 0 00-1.167-.5 1.373 1.373 0 00-.829.036.457.457 0 00-.269.587l.01.025a.76.76 0 00.545.339.717.717 0 00.113.009.323.323 0 01.3.447 2.225 2.225 0 01-.835 1.041 9.764 9.764 0 00-1.831-.356 3.674 3.674 0 01-.647-1.94.542.542 0 01.685-.555c.045.012.089.022.134.031.315.086.648.07.953-.046a.701.701 0 00.227-1.041 1.987 1.987 0 00-1.136-.654 5.262 5.262 0 00-2.094-.116c-.466.04-.909.224-1.267.525a.755.755 0 00-.087 1.064l.032.036c.297.222.677.302 1.038.218.062-.012.122-.029.181-.051a.534.534 0 01.712.526 3.704 3.704 0 01-.65 2.006 9.778 9.778 0 00-2.093.437 2.52 2.52 0 01-.29-.507.33.33 0 01.275-.458l.083-.01a.932.932 0 00.533-.223.424.424 0 00-.086-.64 1.203 1.203 0 00-.782-.137c-.426.04-.839.165-1.215.368-.257.12-.471.315-.612.561a.457.457 0 00.174.623l.026.014a.762.762 0 00.635-.091.856.856 0 00.092-.066.324.324 0 01.514.152c.063.198.101.404.114.611a9.87 9.87 0 00-2.178 1.192 2.987 2.987 0 01-1.286-.828.433.433 0 01.135-.693 2.33 2.33 0 00.1-.05c.238-.108.434-.289.561-.517a.559.559 0 00-.4-.755 1.592 1.592 0 00-1.032.183 4.203 4.203 0 00-1.343 1.006 1.82 1.82 0 00-.506.973.6.6 0 00.488.694l.042.006c.296-.016.57-.163.748-.4a.94.94 0 00.085-.124.427.427 0 01.707-.044c.333.42.549.922.623 1.453a9.903 9.903 0 00-1.458 1.788 2.826 2.826 0 01-.758-.256.377.377 0 01-.1-.6l.065-.07c.16-.159.265-.366.3-.589a.485.485 0 00-.547-.5c-.307.059-.585.22-.788.456a3.656 3.656 0 00-.8 1.219 1.573 1.573 0 00-.124.944.523.523 0 00.61.42l.03-.006a.874.874 0 00.491-.548.787.787 0 00.032-.127.37.37 0 01.563-.245c.238.15.452.335.636.548a9.807 9.807 0 00-.8 1.992 3.679 3.679 0 01-2.022.3.543.543 0 01-.428-.772 1.56 1.56 0 00.054-.127c.14-.295.182-.626.121-.947a.701.701 0 00-.986-.401c-.385.23-.682.585-.841 1.005a5.245 5.245 0 00-.478 2.042c-.04.466.064.934.3 1.338a.755.755 0 001.032.27l.04-.025c.27-.253.415-.613.395-.984a1.172 1.172 0 00-.018-.187.535.535 0 01.642-.61 3.709 3.709 0 011.865.991c-.019.249-.032.5-.032.755 0 .536.045 1.071.132 1.6a3.222 3.222 0 01-.81.31.428.428 0 01-.527-.458c0-.037.005-.073.005-.109a1.217 1.217 0 00-.166-.736.554.554 0 00-.842-.034c-.225.276-.35.62-.354.975a4.163 4.163 0 00.2 1.647c.095.358.299.677.583.915a.6.6 0 00.862-.107.995.995 0 00.027-.838.967.967 0 00-.064-.134.422.422 0 01.312-.627c.313-.042.631-.039.944.011.162.641.388 1.264.675 1.859a8.058 8.058 0 01-2.134 2.007.541.541 0 01-.824-.316 2.837 2.837 0 00-.04-.131 1.53 1.53 0 00-.516-.8.7.7 0 00-1.015.325 1.991 1.991 0 000 1.311c.187.681.509 1.317.947 1.871.268.384.648.675 1.088.835a.754.754 0 00.964-.456l.014-.044a1.257 1.257 0 00-.33-1.007 1.107 1.107 0 00-.134-.131.535.535 0 01.1-.879 7.668 7.668 0 012.942-.861c.342.446.722.862 1.135 1.244a2.97 2.97 0 01-.429.8.4.4 0 01-.652-.011 1.712 1.712 0 00-.061-.081 1.134 1.134 0 00-.561-.427.518.518 0 00-.623.481c.005.332.122.653.332.91a3.89 3.89 0 001.131 1.06c.284.197.622.302.967.3a.557.557 0 00.554-.561l-.001-.035a.93.93 0 00-.484-.616.796.796 0 00-.126-.057.4.4 0 01-.154-.636c.214-.239.465-.441.743-.6a9.89 9.89 0 002.025 1.217 2.973 2.973 0 01-.075 1.518.433.433 0 01-.665.229 2.4 2.4 0 00-.092-.06 1.221 1.221 0 00-.727-.226.56.56 0 00-.454.718c.128.335.365.617.673.8.463.32.986.544 1.537.658.36.097.742.08 1.092-.048a.6.6 0 00.356-.77l-.015-.037a.997.997 0 00-.718-.446.926.926 0 00-.149-.012.427.427 0 01-.39-.588c.196-.496.521-.931.94-1.26.771.22 1.566.344 2.368.37.056.188.089.382.1.578a.328.328 0 01-.415.336l-.081-.019a.926.926 0 00-.577.028.424.424 0 00-.137.63c.178.207.42.349.688.4a3.19 3.19 0 001.268.07c.283-.024.55-.136.767-.318a.456.456 0 00.053-.643l-.019-.021a.762.762 0 00-.628-.132.69.69 0 00-.11.031.325.325 0 01-.431-.319c.008-.209.042-.415.1-.616a9.92 9.92 0 001.965-.246 4.336 4.336 0 011.6 1.965.643.643 0 01-.539.9 2.757 2.757 0 00-.162.02 1.82 1.82 0 00-1.044.438.83.83 0 00.169 1.253c.466.26 1.006.354 1.532.268a6.232 6.232 0 002.381-.721 2.701 2.701 0 001.2-1.1.9.9 0 00-.345-1.225l-.038-.02a1.488 1.488 0 00-1.245.178 1.22 1.22 0 00-.181.13.633.633 0 01-1.007-.3 4.35 4.35 0 01-.061-2.609 9.901 9.901 0 001.447-.9 3.2 3.2 0 01.837.643.434.434 0 01-.135.694l-.1.05a1.22 1.22 0 00-.561.518.56.56 0 00.4.755c.355.057.718-.007 1.032-.183a4.203 4.203 0 001.343-1.006c.265-.265.441-.605.506-.973a.6.6 0 00-.488-.694l-.042-.006c-.296.016-.57.162-.748.4a.94.94 0 00-.085.124.426.426 0 01-.707.043 3.186 3.186 0 01-.517-.975 9.891 9.891 0 001.35-1.526 3.673 3.673 0 012.005.41.542.542 0 01.139.871 1.745 1.745 0 00-.094.1 1.538 1.538 0 00-.437.849.7.7 0 00.788.717 1.989 1.989 0 001.135-.657 5.237 5.237 0 001.147-1.755 2.27 2.27 0 00.179-1.359.754.754 0 00-.875-.61l-.047.01c-.341.146-.6.435-.707.79a1.13 1.13 0 00-.047.182.536.536 0 01-.812.353 3.704 3.704 0 01-1.412-1.566c.282-.613.5-1.253.649-1.911a2.96 2.96 0 01.906-.028.4.4 0 01.316.569 1.095 1.095 0 00-.039.094 1.126 1.126 0 00-.089.7.519.519 0 00.729.3c.286-.17.505-.432.622-.743.218-.474.338-.987.353-1.509.03-.344-.046-.69-.219-.989a.558.558 0 00-.791-.181.928.928 0 00-.292.727.797.797 0 00.014.138.4.4 0 01-.474.452 2.997 2.997 0 01-.887-.345c.062-.446.093-.895.094-1.345 0-.2-.008-.4-.02-.6a4.086 4.086 0 012.061-1.14.605.605 0 01.744.647c0 .051-.007.1-.008.154-.034.363.048.727.236 1.039a.784.784 0 001.19.049c.317-.39.494-.875.5-1.377a5.932 5.932 0 00-.285-2.323z"/><path id="Path_1943" fill="#AC267F" d="M503.313 292.258c-1.028-3.1-2.595-6.158-5.013-7.865-2.418-1.707-5.818-1.6-7.415.923-1.235 1.958-1.109 4.841-.232 7.207.152.398.337.784.552 1.152a3.639 3.639 0 01-2.684 5.39 25.046 25.046 0 01-14.59-2.168 59.07 59.07 0 00-3.078-8.156 15.819 15.819 0 016.11-7.118 2.355 2.355 0 013.576 1.373c.053.193.11.384.174.571a6.651 6.651 0 002.242 3.486 3.04 3.04 0 004.407-1.407c.755-1.626.522-3.744-.006-5.693a22.848 22.848 0 00-4.11-8.125 9.881 9.881 0 00-4.725-3.624 3.276 3.276 0 00-4.247 2.172 5.449 5.449 0 001.435 4.374 5 5 0 00.584.571 2.323 2.323 0 01-.434 3.819 15.976 15.976 0 01-9.301 1.878 60.067 60.067 0 00-7.284-9.038 22.376 22.376 0 014.573-11.586 3.3 3.3 0 015.367.093c.162.229.33.453.5.668 1.242 1.531 2.772 3.077 4.624 3.517a4.263 4.263 0 005.132-3.966c.217-2.5-1.105-5.181-2.736-7.493a32.006 32.006 0 00-9.309-8.73c-2.486-1.53-5.318-2.728-7.958-2.509-2.639.219-4.91 2.25-4.552 4.9.279 2.053 2.023 3.957 3.987 5.075.333.186.682.344 1.041.472a3.256 3.256 0 011.259 5.24 22.552 22.552 0 01-10.88 6.799 59.754 59.754 0 00-9.832-5.461 13.416 13.416 0 01.1-7.893 2.001 2.001 0 013.073-1.058c.14.1.283.188.425.275a5.643 5.643 0 003.36 1.044 2.58 2.58 0 002.099-3.32 7.337 7.337 0 00-3.107-3.7 19.402 19.402 0 00-7.101-3.039 8.364 8.364 0 00-5.046.221 2.781 2.781 0 00-1.637 3.576c.018.052.04.103.061.153a4.633 4.633 0 003.318 2.062c.228.036.458.054.688.053a1.971 1.971 0 011.801 2.719 13.522 13.522 0 01-5.083 6.337 59.558 59.558 0 00-11.146-2.169 22.395 22.395 0 01-3.931-11.8 3.3 3.3 0 014.172-3.379c.271.07.543.134.814.187 1.938.375 4.1.574 5.8-.279a4.265 4.265 0 001.382-6.338c-1.446-2.056-4.18-3.257-6.913-3.981a31.991 31.991 0 00-12.744-.7c-2.887.425-5.828 1.329-7.709 3.195-1.881 1.866-2.311 4.88-.338 6.678 1.531 1.394 4.093 1.73 6.315 1.326a7.158 7.158 0 001.1-.308 3.254 3.254 0 014.331 3.2 22.53 22.53 0 01-3.957 12.208 59.594 59.594 0 00-12.739 2.663 15.334 15.334 0 01-1.766-3.084 2 2 0 011.673-2.786c.168-.016.338-.036.5-.062a5.65 5.65 0 003.243-1.36 2.58 2.58 0 00-.526-3.89 7.34 7.34 0 00-4.759-.834 19.35 19.35 0 00-7.399 2.238 8.383 8.383 0 00-3.726 3.414 2.781 2.781 0 001.192 3.87 4.625 4.625 0 003.865-.554c.197-.118.385-.252.562-.4a1.971 1.971 0 013.128.926c.385 1.206.619 2.455.699 3.719a59.846 59.846 0 00-13.256 7.257c-3-.973-5.695-2.708-7.823-5.037a2.64 2.64 0 01.82-4.216c.199-.1.4-.2.6-.305a7.452 7.452 0 003.413-3.154 3.41 3.41 0 00-2.412-4.594c-1.944-.517-4.236.152-6.284 1.116a25.592 25.592 0 00-8.171 6.121 11.062 11.062 0 00-3.082 5.923c-.192 2.112 1.091 4.181 3.226 4.266a6.117 6.117 0 004.551-2.445c.191-.238.363-.49.515-.755a2.605 2.605 0 014.299-.265 18.294 18.294 0 013.794 8.845 60.305 60.305 0 00-8.875 10.884 17.187 17.187 0 01-4.612-1.559 2.29 2.29 0 01-.584-3.682c.138-.138.27-.28.4-.425a6.484 6.484 0 001.85-3.587 2.959 2.959 0 00-3.332-3.03 8.407 8.407 0 00-4.795 2.775 22.195 22.195 0 00-4.849 7.418 9.6 9.6 0 00-.755 5.744 3.188 3.188 0 003.9 2.521 5.301 5.301 0 002.988-3.337c.088-.251.154-.508.199-.77a2.26 2.26 0 013.43-1.493 17.289 17.289 0 013.869 3.338 59.514 59.514 0 00-4.852 12.121 22.406 22.406 0 01-12.31 1.827 3.299 3.299 0 01-2.6-4.699c.118-.255.227-.513.327-.772.7-1.842 1.276-3.939.734-5.763a4.262 4.262 0 00-6-2.462c-2.275 1.066-3.934 3.55-5.122 6.117a31.976 31.976 0 00-2.907 12.426c-.082 2.918.3 5.972 1.807 8.147 1.507 2.176 4.4 3.126 6.517 1.492 1.64-1.268 2.417-3.73 2.4-5.988a7.111 7.111 0 00-.112-1.138 3.256 3.256 0 013.907-3.711 22.561 22.561 0 0111.349 6.03 60.687 60.687 0 00-.193 4.593c.003 3.267.271 6.527.8 9.751a19.66 19.66 0 01-4.93 1.885 2.613 2.613 0 01-3.207-2.787c.019-.223.031-.442.033-.661a7.372 7.372 0 00-1.013-4.482 3.371 3.371 0 00-5.126-.205c-1.4 1.408-1.965 3.699-2.152 5.932a25.345 25.345 0 001.2 10.023 10.954 10.954 0 003.548 5.566c1.712 1.209 4.118 1.133 5.247-.653a6.037 6.037 0 00.163-5.101 5.452 5.452 0 00-.392-.815 2.573 2.573 0 011.9-3.814 19.724 19.724 0 015.746.068 59.405 59.405 0 004.107 11.315c-2.8 4.578-9.293 9.785-12.987 12.215a3.298 3.298 0 01-5.012-1.923 13.753 13.753 0 00-.246-.8c-.643-1.864-1.553-3.838-3.142-4.886a4.263 4.263 0 00-6.18 1.973c-1.06 2.28-.733 5.247.008 7.979a32.047 32.047 0 005.763 11.388c1.811 2.289 4.063 4.384 6.622 5.079 2.56.694 5.384-.437 5.951-3.046.44-2.025-.549-4.41-2.01-6.131a6.87 6.87 0 00-.817-.801 3.256 3.256 0 01.609-5.353c4.144-2.157 12.408-5.3 17.906-5.24a60.269 60.269 0 006.905 7.58 18.112 18.112 0 01-2.612 4.871 2.44 2.44 0 01-3.968-.069 8.838 8.838 0 00-.373-.493 6.875 6.875 0 00-3.417-2.6 3.15 3.15 0 00-3.794 2.931c-.159 1.851.819 3.83 2.022 5.538a23.626 23.626 0 006.883 6.452 10.223 10.223 0 005.883 1.854 3.394 3.394 0 003.363-3.62 5.652 5.652 0 00-2.947-3.75 5.238 5.238 0 00-.77-.35 2.407 2.407 0 01-.931-3.873 18.282 18.282 0 014.525-3.629 59.82 59.82 0 0012.322 7.4c.65 3.068.493 6.252-.455 9.241a2.63 2.63 0 01-4.046 1.393 9.892 9.892 0 00-.56-.363 7.443 7.443 0 00-4.424-1.374 3.402 3.402 0 00-2.765 4.379c.523 1.936 2.244 3.578 4.095 4.867 2.817 1.949 6 3.31 9.356 4 2.191.59 4.513.487 6.645-.293 1.917-.885 3.064-3.023 2.074-4.909a6.097 6.097 0 00-4.37-2.715 5.532 5.532 0 00-.909-.069 2.599 2.599 0 01-2.372-3.581 18.238 18.238 0 015.722-7.667 59.793 59.793 0 0014.41 2.252c.341 1.146.546 2.326.612 3.52a2 2 0 01-2.527 2.045 8.22 8.22 0 00-.494-.113 5.65 5.65 0 00-3.514.168 2.58 2.58 0 00-.836 3.836 7.341 7.341 0 004.185 2.411c2.518.658 5.142.803 7.717.426a8.365 8.365 0 004.666-1.935 2.779 2.779 0 00.201-4.041 4.636 4.636 0 00-3.821-.8 4.166 4.166 0 00-.668.188 1.974 1.974 0 01-2.625-1.939 15.54 15.54 0 01.625-3.75 60.188 60.188 0 0011.964-1.5 26.348 26.348 0 019.765 11.96 3.914 3.914 0 01-3.279 5.458 15.55 15.55 0 00-.984.123c-2.311.367-4.8 1.024-6.355 2.664a5.059 5.059 0 001.031 7.625c2.446 1.707 5.98 1.936 9.323 1.632a38.001 38.001 0 0014.491-4.385c3.047-1.646 5.959-3.845 7.3-6.689 1.341-2.845.6-6.38-2.331-7.58-2.275-.933-5.267-.27-7.578 1.085a7.836 7.836 0 00-1.1.791 3.861 3.861 0 01-6.127-1.813 26.475 26.475 0 01-.369-15.883 59.917 59.917 0 008.808-5.5 19.438 19.438 0 015.1 3.911 2.64 2.64 0 01-.818 4.215c-.2.1-.4.2-.601.305a7.46 7.46 0 00-3.412 3.154 3.41 3.41 0 002.413 4.594c1.944.518 4.236-.152 6.284-1.116a25.618 25.618 0 008.172-6.12 11.07 11.07 0 003.081-5.924c.191-2.109-1.091-4.18-3.226-4.266-1.803.1-3.469.99-4.552 2.434-.192.238-.365.49-.518.756a2.602 2.602 0 01-4.3.265 19.49 19.49 0 01-3.15-5.935 60.284 60.284 0 008.221-9.288 22.382 22.382 0 0112.205 2.492 3.301 3.301 0 01.84 5.301c-.2.199-.391.404-.57.612-1.293 1.489-2.547 3.266-2.661 5.165a4.265 4.265 0 004.8 4.365c2.5-.224 4.91-1.99 6.906-4a32.015 32.015 0 006.982-10.683c1.073-2.715 1.765-5.714 1.088-8.274-.677-2.56-3.07-4.443-5.613-3.631-1.973.63-3.545 2.678-4.306 4.806a7.06 7.06 0 00-.283 1.108 3.258 3.258 0 01-4.942 2.151 22.55 22.55 0 01-8.594-9.531 59.294 59.294 0 003.892-11.606 18.135 18.135 0 015.517-.171 2.438 2.438 0 011.922 3.469 8.823 8.823 0 00-.24.57 6.903 6.903 0 00-.543 4.258 3.152 3.152 0 004.436 1.819c1.681-.787 2.905-2.622 3.783-4.52a23.663 23.663 0 002.146-9.182 10.241 10.241 0 00-1.333-6.02 3.392 3.392 0 00-4.814-1.1 5.648 5.648 0 00-1.776 4.424c.004.282.032.563.084.84a2.407 2.407 0 01-2.884 2.743 18.25 18.25 0 01-5.4-2.1c.376-2.712.566-5.446.571-8.185 0-1.23-.051-2.447-.123-3.659a24.873 24.873 0 0112.542-6.938 3.686 3.686 0 014.526 3.937c-.025.313-.042.624-.047.935-.036 2.2.163 4.623 1.434 6.332a4.762 4.762 0 007.241.291c1.982-1.989 2.774-5.23 3.041-8.382a35.733 35.733 0 00-1.702-14.149z"/><g id="Group_739" fill="#93226D" transform="rotate(-16 707.527 333.628)"><path id="Path_1950" d="M672.041 314.752l52.357-22.572s-.237 18.648-13.288 24.12c-13.049 5.472-39.069-1.548-39.069-1.548z"/><path id="Path_1951" d="M649.4 314.751l-52.357-22.572s.238 18.648 13.288 24.12c13.049 5.473 39.069-1.548 39.069-1.548z"/></g><g id="Group_740" fill="#93226D" transform="rotate(-2 -3574.599 2672.373)"><path id="Path_1950-2" d="M623.326 300.091l18.351-7.911s-.083 6.536-4.657 8.453c-4.575 1.917-13.694-.542-13.694-.542z"/><path id="Path_1951-2" d="M615.391 300.091l-18.35-7.911s.083 6.536 4.657 8.453c4.574 1.917 13.693-.542 13.693-.542z"/></g><g id="Group_741" fill="#93226D" transform="rotate(-2 580.648 6859.426)"><path id="Path_1950-3" d="M653.887 309.287l39.684-17.108s-.18 14.134-10.071 18.282c-9.891 4.149-29.613-1.174-29.613-1.174z"/><path id="Path_1951-3" d="M636.725 309.288l-39.684-17.108s.18 14.134 10.071 18.282c9.891 4.147 29.613-1.174 29.613-1.174z"/></g><path id="Path_1952" fill="#93226D" d="M624.007 365.9s25.779 2.199 50.929-11.318c25.15-13.517 39.847-28.938 39.847-28.938s3.121 22.895-3.064 37.111c-6.185 14.217-20.434 20.749-33.01 22.321-12.576 1.572-27.665.314-39.612-6.287-11.949-6.599-15.09-12.889-15.09-12.889z"/><path id="Path_1953" fill="#93226D" d="M741 56.781V398.7l9.852 1.86-2.773-347.729-7.079 3.95z"/><path id="Path_1954" fill="#93226D" d="M242.851 56.781V398.7L233 400.56l2.773-347.73 7.078 3.951z"/><path id="Path_1955" fill="#93226D" d="M750.852 398.252l-533.758-17.145v10.672l531.114 17.813 2.644-11.34z"/><g id="Group_737" transform="translate(0 62.61)"><path id="Path_1924" fill="#37354E" d="M192.607 520.356s84.509-28.384 104.508-18.063c19.998 10.32 18.063 38.705 18.063 38.705H192.607v-20.642z"/><path id="Path_1921" fill="#D37F34" d="M473.149 491.335v45.915h-8.274v-41.365l8.274-4.55z"/><path id="Path_1922" fill="#D37F34" d="M560.181 402.203v135.685h-8.273V415.649l8.273-13.446z"/><path id="Path_1920" fill="#F09E4B" d="M456.189 496.091v41.571h12.405v-43.229l-12.405 1.658z"/><path id="Path_1923" fill="#F09E4B" d="M546.243 410.396v127.905h9.388v-133l-9.388 5.095z"/><path id="Path_1899" fill="#F09E4B" d="M564.028 401.446l-605.977 1.729-64.069 83.601 576.618 5.47 93.428-90.8z"/><path id="Path_1900" fill="#B06428" d="M564.03 409.024v-7.785l-93.318 90.659.011 7.172 93.307-90.046z"/><path id="Path_1901" fill="#D37F34" d="M470.721 499.068l-576.125-5.472v-6.839l576.125 5.111v7.2z"/><path id="Path_1898" fill="#BBA39E" d="M341.26 424.308s18.873-9.23 23.57-24.608c4.696-15.377 3.399-55.035 3.399-55.035h-6.637l-20.33 72.517-.002 7.126z"/><path id="Path_1896" fill="#F0EFEF" d="M293.965 339.883s5.224 46.97-6.797 58.067c-12.021 11.097-32.825 19.418-32.825 19.418h86.917s18.492-4.624 20.805-34.674c2.312-30.05 0-42.81 0-42.81l-68.1-.001z"/><g id="Rectangle_323" transform="translate(109 212.39)"><path fill="#5C2D91" d="M76.527-79.038h285.32c13.703 0 24.81 11.108 24.81 24.81v171.192c0 13.703-11.108 24.81-24.81 24.81H76.527c-13.703 0-24.81-11.108-24.81-24.81V-54.227c0-13.703 11.107-24.811 24.81-24.811z"/><path fill="none" stroke="#E1E1E1" stroke-width="10" d="M76.527-72.835h285.32c10.277 0 18.608 8.331 18.608 18.608v171.192c0 10.277-8.331 18.608-18.608 18.608H76.527c-10.277 0-18.608-8.331-18.608-18.608V-54.227c0-10.277 8.331-18.608 18.608-18.608z"/></g><path id="Rectangle_328" fill="#2E174D" d="M185.527 290.899h212.129c5.481 0 9.924 4.444 9.924 9.924v24.81c0 5.481-4.443 9.924-9.924 9.924H185.527c-5.481 0-9.924-4.444-9.924-9.924v-24.81c0-5.481 4.443-9.924 9.924-9.924z"/><path id="Rectangle_329" fill="#2E174D" d="M185.527 149.479h212.129c5.481 0 9.924 4.443 9.924 9.924v117.85c0 5.481-4.443 9.924-9.924 9.924H185.527c-5.481 0-9.924-4.444-9.924-9.924v-117.85c0-5.481 4.443-9.924 9.924-9.924z"/><path id="Path_1897" fill="#E0DEDE" d="M254.344 417.373v6.934h86.917v-6.934h-86.917z"/><path id="Path_1914" fill="#E0DEDE" d="M200.997 476.265h125.541v-5.405H196.035l4.962 5.405z"/><path id="Path_1915" fill="#BBA39E" d="M326.54 476.265l8.893-11.403h-8.893v11.403z"/><path id="Path_1912" fill="#FFF" d="M460.068 436.791s7.318-1.272 13.205 2.546c5.886 3.818 13.682 4.336 10.024 10.5-3.659 6.164-8.909 10.5-24.66 14.159-15.749 3.66-38.58 10.699-48.205 7.954-9.625-2.746 3.818-11.297 9.705-18.934 5.885-7.634 39.931-16.225 39.931-16.225z"/><path id="Path_1913" fill="#FFF" d="M357.656 436.592l-31.308 36.222H147.953l55.527-36.222h154.176z"/><path id="Path_1911" fill="#FBBA9A" d="M392.512 439.416s12.823-.62 18.407-3.31c5.584-2.689 11.583-4.136 15.719-2.895 4.136 1.241 22.337-3.31 29.575-1.448 7.238 1.862 12.823 10.544 14.478 12.616 1.655 2.072-3.93 11.375-12.616 14.266-8.686 2.89-16.959-3.93-26.474-2.688s-5.582 9.304-15.719 11.165c-10.136 1.861-31.023 2.895-31.023 2.895l7.653-30.601z"/><path id="Path_1908" fill="#5D8039" d="M25.505 323.378s12.606-36.242 40.18-40.969c27.574-4.728 95.332 9.454 107.15 22.848 11.819 13.391 71.696 97.694 71.696 97.694l152.845 30.728s2.364 5.514 0 18.908c-2.363 13.394-11.03 23.635-11.03 23.635s-140.883-11.315-162.3-16.545c-21.418-5.23-35.454-25.999-35.454-25.999l35.454 103.212H38.895s-11.817-81.15-13.397-141.816c-1.582-60.665.007-71.696.007-71.696z"/><path id="Path_1909" fill="#506E33" d="M188.709 434.417l-38.396-40.169s18.903 46.076 34.852 66.751c15.949 20.675 31.899 56.117 31.899 56.117l-28.355-82.699z"/><path id="Path_1910" fill="#506E33" d="M245.949 463.088l140.375 13.178a42.327 42.327 0 005.647-8.609c1.59-3.818 4.136-11.933 4.136-11.933s-18.236 6.485-74.702 6.215c-56.466-.268-75.456 1.149-75.456 1.149z"/><path id="Path_1925" fill="#DE4949" d="M-11.637 328.115s2.82-11.909 66.834-12.902c64.015-.992 108.328 37.515 112.298 45.951 3.97 8.438 2.978 54.088-9.924 87.83-12.901 33.742 0 91.799 0 91.799H-11.635l-.002-212.678z"/><path id="Intersection_45" fill="#F26E6D" d="M156.116 540.801c-2.144-8.856-12.927-54.857-10.601-74.634 2.58-21.933 14.838-72.252 10.966-89.024-3.872-16.774-10.323-29.676-54.189-47.738-43.865-18.064-97.133-6.451-97.133-6.451l-3.151-2.243c9.552-2.64 25.747-5.072 53.19-5.499 64.011-.992 108.329 37.515 112.298 45.95 3.97 8.437 2.978 54.088-9.924 87.83-12.901 33.741 0 91.799 0 91.799l-1.456.01z"/><path id="Union_5" fill="#D89270" d="M89.193 302.582c-21.143-2.348-28.19-19.085-28.19-19.085s2.977-1.763 11.709-2.525L92.57 223.71l35.231 31.261-3.016 31.488c7.509 1.737 12.565 3.203 12.565 3.203s-23.293 13.166-43.542 13.166a41.597 41.597 0 01-4.615-.246z"/><path id="Path_1932" fill="#FBBA9A" d="M164.132 166.649s-3.523 25.724-4.934 30.304c-1.411 4.582-2.818 10.572-2.818 13.39 0 2.819 4.582 13.39 2.818 16.21-1.763 2.82-5.99 7.047-7.048 10.22-1.056 3.172-4.933 19.732-10.571 26.782-5.638 7.048-11.277 7.752-11.277 7.752l-32.418-9.515-7.048-71.534 34.534-25.019 38.762 1.41z"/><path id="Path_1933" fill="#FFF" d="M150.67 241.978s-7.886-.134-10.558-1.471c-2.672-1.336-9.088 1.203-8.821 7.618.266 6.416 5.346 8.684 8.019 9.356a643.79 643.79 0 015.21 1.336 82.18 82.18 0 004.812-11.361c1.074-4.008 1.338-5.478 1.338-5.478z"/><path id="Rectangle_324" fill="#2E174D" d="M423.708 149.479h47.14c5.481 0 9.924 4.443 9.924 9.924v23.57c0 5.481-4.444 9.924-9.924 9.924h-47.14c-5.481 0-9.924-4.444-9.924-9.924v-23.57c-.001-5.481 4.442-9.924 9.924-9.924z"/><path id="Rectangle_325" fill="#2E174D" d="M423.708 197.86h47.14c5.481 0 9.924 4.444 9.924 9.924v22.329c0 5.481-4.444 9.924-9.924 9.924h-47.14c-5.481 0-9.924-4.444-9.924-9.924v-22.329c-.001-5.481 4.442-9.924 9.924-9.924z"/><path id="Rectangle_326" fill="#2E174D" d="M423.708 244.999h47.14c5.481 0 9.924 4.444 9.924 9.924v22.329c0 5.481-4.444 9.924-9.924 9.924h-47.14c-5.481 0-9.924-4.444-9.924-9.924v-22.329c-.001-5.48 4.442-9.924 9.924-9.924z"/><path id="Rectangle_327" fill="#2E174D" d="M423.708 290.899h47.14c5.481 0 9.924 4.444 9.924 9.924v24.81c0 5.481-4.444 9.924-9.924 9.924h-47.14c-5.481 0-9.924-4.444-9.924-9.924v-24.81c-.001-5.481 4.442-9.924 9.924-9.924z"/><rect id="Rectangle_330" width="76.912" height="13.646" x="184.287" y="158.163" fill="#FFF"/><rect id="Rectangle_331" width="210.889" height="6.203" x="184.287" y="175.53" fill="#FFF"/><rect id="Rectangle_336" width="210.889" height="4.962" x="184.287" y="215.227" fill="#FFF"/><rect id="Rectangle_339" width="210.889" height="4.962" x="184.287" y="254.924" fill="#FFF"/><rect id="Rectangle_332" width="210.889" height="6.203" x="184.287" y="185.454" fill="#FFF"/><rect id="Rectangle_335" width="210.889" height="6.203" x="184.287" y="223.911" fill="#FFF"/><rect id="Rectangle_338" width="210.889" height="4.962" x="184.287" y="263.607" fill="#FFF"/><rect id="Rectangle_333" width="100.482" height="4.962" x="184.287" y="195.379" fill="#FFF"/><rect id="Rectangle_334" width="157.546" height="4.962" x="184.287" y="233.835" fill="#FFF"/><rect id="Rectangle_337" width="27.292" height="3.722" x="184.287" y="273.532" fill="#FFF"/><g id="Group_730" fill="#855EA7" transform="translate(322.912 232.759)"><circle id="Ellipse_98" cx="124.365" cy="-65.911" r="8.684"/><path id="Intersection_47" d="M103.168-39.481c.496-3.259 1.737-10.827 2.986-13.317 1.604-3.207 8.018-5.213 9.355-4.679 1.337.535 4.278 3.473 9.356 3.473a13.157 13.157 0 008.553-3.473c1.771.117 3.503.571 5.105 1.337a6.1 6.1 0 013.315 3.341 63.282 63.282 0 012.9 13.317h-41.57z"/></g><g id="Group_731" fill="#855EA7" transform="translate(322.912 271.034)"><circle id="Ellipse_98-2" cx="124.365" cy="-55.806" r="8.684"/><path id="Intersection_47-2" d="M103.168-30.57c.496-3.259 1.737-10.827 2.986-13.318 1.604-3.207 8.018-5.213 9.355-4.679 1.337.534 4.278 3.473 9.356 3.473a13.157 13.157 0 008.553-3.473c1.771.117 3.503.571 5.105 1.337a6.1 6.1 0 013.315 3.341 63.263 63.263 0 012.9 13.318h-41.57z"/></g><g id="Group_732" fill="#855EA7" transform="translate(322.912 308.528)"><ellipse id="Ellipse_98-3" cx="124.365" cy="-46.781" rx="8.684" ry="9.304"/><path id="Intersection_47-3" d="M103.168-20.877c.496-3.259 1.737-10.827 2.986-13.317 1.604-3.208 8.018-5.213 9.355-4.679 1.337.534 4.278 3.473 9.356 3.473a13.167 13.167 0 008.553-3.473c1.771.117 3.503.571 5.105 1.337a6.1 6.1 0 013.315 3.341 63.268 63.268 0 012.9 13.317h-41.57z"/></g><g id="Group_733" fill="#855EA7" transform="translate(322.912 346.804)"><ellipse id="Ellipse_98-4" cx="124.365" cy="-37.916" rx="8.684" ry="9.304"/><path id="Intersection_47-4" d="M103.168-11.966c.496-3.259 1.737-10.827 2.986-13.319 1.604-3.207 8.018-5.212 9.355-4.677 1.337.534 4.278 3.473 9.356 3.473a13.167 13.167 0 008.553-3.473c1.771.116 3.503.571 5.105 1.337a6.098 6.098 0 013.315 3.34 63.286 63.286 0 012.9 13.319h-41.57z"/></g><circle id="Ellipse_99" cx="214.059" cy="314.469" r="12.405" fill="#855EA7"/><ellipse id="Ellipse_102" cx="336.251" cy="314.469" fill="#855EA7" rx="11.785" ry="12.405"/><circle id="Ellipse_100" cx="251.275" cy="314.469" r="12.405" fill="#855EA7"/><ellipse id="Ellipse_101" cx="372.846" cy="314.469" fill="#855EA7" rx="11.165" ry="12.405"/><path id="Path_1937" fill="#855EA7" d="M276.702 320.161h4.143v3.342l26.196-.535v-3.473h3.473l.669 6.682-35.284.802.803-6.818z"/><path id="Path_1938" fill="#855EA7" d="M290.469 319.493h6.549V308.4l6.817-.668s-9.891-9.356-11.093-9.223c-1.202.134-8.019 9.223-8.019 9.223l5.748.668-.002 11.093z"/><g id="Group_735" transform="translate(282.335 400.961)"><g id="Group_450"><g id="Group_435" transform="translate(13.861 5.337)"><path id="Path_1660" fill="#366B34" d="M100.826-5.524l6.421-7.071a49.65 49.65 0 001.593-1.81c.728-.883 1.396-1.816 2.053-2.752a37.733 37.733 0 003.859-6.451 9.887 9.887 0 00.993-4.218 4.856 4.856 0 00-1.835-3.8 4.664 4.664 0 00-3.779-.62 7.964 7.964 0 00-3.404 1.921 12.497 12.497 0 00-2.778 3.63c-.39.808-.737 1.636-1.038 2.481l-1.209 3.21c-1.81 4.803-3.623 9.614-4.955 14.571"/></g><g id="Group_436" transform="translate(16.15 15.9)"><path id="Path_1661" fill="#4D8A3F" d="M101.087-15.845l6.97-3.328a19.138 19.138 0 004.065-2.37 6.44 6.44 0 002.409-3.931 3.926 3.926 0 00-1.872-4.008 4.08 4.08 0 00-3.024-.167 8.727 8.727 0 00-2.699 1.504c-4.218 3.226-6.983 7.94-9.645 12.53"/></g><g id="Group_437" transform="translate(3.342 6.229)"><path id="Path_1662" fill="#366B34" d="M109.173-5.833a146.98 146.98 0 00-5.14-20.18 13.452 13.452 0 00-1.869-4.13 4.712 4.712 0 00-3.871-2.034 4.51 4.51 0 00-3.711 3.141 9.398 9.398 0 00-.038 5.086c1.116 5.044 4.017 9.488 7.004 13.704a230.743 230.743 0 005.136 6.966"/></g><g id="Group_438" transform="translate(10.638 .007)"><path id="Path_1663" fill="#4D8A3F" d="M102.338-1.078a186.543 186.543 0 001.837-6.804 98.07 98.07 0 002.215-11.277c.433-3.376 1.248-7.755.061-11.022a5.535 5.535 0 00-2.139-2.854 4.854 4.854 0 00-4.784-.032 6.75 6.75 0 00-3.058 3.823c-1.011 3.006-.271 6.057.248 9.056 1.162 6.765 2.84 13.466 4.342 20.174"/></g><g id="Group_439" transform="translate(0 17.875)"><path id="Path_1664" fill="#4D8A3F" d="M108.436-18.612a31.801 31.801 0 00-5.963-6.875 23.36 23.36 0 00-1.985-1.748 11.707 11.707 0 00-4.084-1.984 2.66 2.66 0 00-2.451.265c-.408.402-.606.97-.539 1.54.073.561.278 1.098.598 1.564a12.49 12.49 0 003.316 3.199 74.786 74.786 0 008.531 5.413"/></g><g id="Group_441" transform="translate(5.349 6.702)"><g id="Group_440"><path id="Path_1665" fill="#010101" d="M94.702-31.926c1.85 4.722 3.795 9.407 5.717 14.099.94 2.293 1.878 4.587 2.815 6.881.942 2.305 1.761 4.722 2.882 6.946a.293.293 0 00.404.098.293.293 0 00.132-.323c-.752-2.404-1.872-4.74-2.829-7.071a915.65 915.65 0 00-2.933-7.036c-1.931-4.59-3.89-9.167-5.973-13.686-.055-.124-.262-.033-.213.09l-.002.002z"/></g></g><g id="Group_443" transform="translate(.135 18.492)"><g id="Group_442"><path id="Path_1666" fill="#010101" d="M93.491-29.014c2.222 1.69 4.583 3.225 6.874 4.817 1.097.765 2.192 1.533 3.284 2.304a25.04 25.04 0 003.609 2.463.28.28 0 00.337-.437 21.41 21.41 0 00-3.321-2.377 340.134 340.134 0 00-3.474-2.341c-2.364-1.577-4.722-3.225-7.195-4.63-.134-.078-.234.113-.118.202l.004-.001z"/></g></g><g id="Group_445" transform="translate(14.467)"><g id="Group_444"><path id="Path_1667" fill="#010101" d="M98.225-33.542c-.365 2.956-.418 5.976-.566 8.947a530.728 530.728 0 00-.363 8.951 801.379 801.379 0 00-.236 8.77c-.062 3.024-.291 6.12-.097 9.139a.294.294 0 00.588 0c.248-2.958.124-5.987.184-8.955.06-2.969.135-5.97.223-8.954.087-2.924.18-5.846.28-8.768.101-3.033.339-6.095.277-9.13a.145.145 0 00-.146-.145.145.145 0 00-.146.145h.002z"/></g></g><g id="Group_447" transform="translate(15.283 5.842)"><g id="Group_446"><path id="Path_1668" fill="#010101" d="M111.226-32.189c-2.605 4.623-4.949 9.41-7.319 14.156a803.145 803.145 0 00-3.534 7.148 898.588 898.588 0 00-1.666 3.421 25.88 25.88 0 00-1.612 3.53c-.09.288.31.426.466.197a27.515 27.515 0 001.807-3.548 2056.88 2056.88 0 015.18-10.58c2.326-4.714 4.76-9.385 6.973-14.152.091-.197-.187-.372-.297-.173l.002.001z"/></g></g><g id="Group_449" transform="translate(17.118 16.703)"><g id="Group_448"><path id="Path_1669" fill="#010101" d="M112.151-29.645a41.062 41.062 0 00-3.435 3.036 321.294 321.294 0 01-3.663 3.243 216.233 216.233 0 01-5.61 4.728c-.668.466-1.286.999-1.846 1.592a.27.27 0 00.328.425 20.249 20.249 0 003.635-2.853 168.097 168.097 0 003.839-3.304 142.556 142.556 0 003.604-3.304 30.782 30.782 0 003.336-3.381c.083-.108-.079-.265-.187-.187l-.001.005z"/></g></g></g><g id="Group_451" transform="translate(3.857 24.584)"><path id="Path_1670" fill="#96533C" d="M94.36-27.769c-.01.162-.025.325-.025.495v13.442a5.492 5.492 0 005.491 5.492h15.433a5.49 5.49 0 005.49-5.492v-13.447c0-.166-.015-.327-.025-.495l-26.364.005z"/></g><path id="Path_1671" fill="#010101" d="M107.421 8.697c-2.45-1.81-5.289-4.135-6.665-6.913-.83-1.674-1.723-3.287-2.508-4.969h-.031c-.01.162-.025.325-.025.495v13.442a5.492 5.492 0 005.49 5.492h15.434a5.465 5.465 0 003.054-.928 34.59 34.59 0 01-5.989-1.996 38.061 38.061 0 01-8.76-4.623z" opacity=".11"/><g id="Group_453" opacity=".11" transform="translate(20.868 35.475)"><g id="Group_452"><path id="Path_1672" fill="#010101" d="M98.761-24.458a.346.346 0 000-.692.345.345 0 000 .692z"/></g></g><g id="Group_455" opacity=".11" transform="translate(22.898 35.922)"><g id="Group_454"><path id="Path_1673" fill="#010101" d="M99.173-24.509a.267.267 0 000-.533.267.267 0 000 .533z"/></g></g><g id="Group_457" opacity=".11" transform="translate(22.924 33.738)"><g id="Group_456"><path id="Path_1674" fill="#010101" d="M99.56-25.158c.051-.338-.391-.588-.589-.247-.248.43.523.693.589.247z"/></g></g><g id="Group_459" opacity=".11" transform="translate(6.423 36.259)"><g id="Group_458"><path id="Path_1675" fill="#010101" d="M95.39-24.652c0-.012.008-.024.012-.036.114-.363-.551-.372-.437 0l.011.036a.217.217 0 00.414 0z"/></g></g><g id="Group_461" opacity=".11" transform="translate(7.707 38.065)"><g id="Group_460"><path id="Path_1676" fill="#010101" d="M95.768-24.172l.007-.038a.26.26 0 10-.507 0l.007.038a.258.258 0 00.314.182.256.256 0 00.182-.182h-.003z"/></g></g><g id="Group_463" opacity=".11" transform="translate(8.295 36.85)"><g id="Group_462"><path id="Path_1677" fill="#010101" d="M95.72-24.161a.33.33 0 000-.658.328.328 0 000 .658z"/></g></g></g><g id="Group_736" transform="translate(299.241 406.878)"><g id="Group_450-2"><g id="Group_435-2" transform="translate(13.861 5.337)"><path id="Path_1660-2" fill="#366B34" d="M104.892-4.101l6.421-7.071c.54-.595 1.081-1.19 1.592-1.81.728-.883 1.396-1.816 2.053-2.752a37.733 37.733 0 003.859-6.451 9.886 9.886 0 00.992-4.218 4.856 4.856 0 00-1.835-3.8 4.662 4.662 0 00-3.778-.62 7.976 7.976 0 00-3.404 1.921 12.477 12.477 0 00-2.777 3.63 24.893 24.893 0 00-1.038 2.481l-1.21 3.21c-1.81 4.803-3.622 9.614-4.955 14.571"/></g><g id="Group_436-2" transform="translate(16.15 15.9)"><path id="Path_1661-2" fill="#4D8A3F" d="M105.153-14.422l6.969-3.328a19.046 19.046 0 004.065-2.37 6.441 6.441 0 002.41-3.931 3.927 3.927 0 00-1.872-4.008 4.08 4.08 0 00-3.024-.167 8.693 8.693 0 00-2.698 1.505c-4.218 3.225-6.983 7.939-9.645 12.529"/></g><g id="Group_437-2" transform="translate(3.342 6.229)"><path id="Path_1662-2" fill="#366B34" d="M113.24-4.409a147.121 147.121 0 00-5.139-20.18 13.476 13.476 0 00-1.869-4.13 4.712 4.712 0 00-3.871-2.034 4.513 4.513 0 00-3.712 3.141 9.391 9.391 0 00-.037 5.087c1.116 5.043 4.016 9.487 7.004 13.703a232.44 232.44 0 005.135 6.966"/></g><g id="Group_438-2" transform="translate(10.638 .007)"><path id="Path_1663-2" fill="#4D8A3F" d="M106.404.346a188.593 188.593 0 001.837-6.804 98.067 98.067 0 002.214-11.277c.433-3.378 1.248-7.755.061-11.022a5.532 5.532 0 00-2.14-2.854 4.852 4.852 0 00-4.783-.032 6.747 6.747 0 00-3.058 3.823c-1.012 3.006-.272 6.057.248 9.056 1.162 6.765 2.84 13.466 4.342 20.174"/></g><g id="Group_439-2" transform="translate(0 17.875)"><path id="Path_1664-2" fill="#4D8A3F" d="M112.502-17.189a31.801 31.801 0 00-5.963-6.875 23.347 23.347 0 00-1.984-1.748 11.707 11.707 0 00-4.084-1.984 2.659 2.659 0 00-2.451.265c-.408.402-.607.97-.539 1.54.072.561.277 1.098.598 1.564a12.46 12.46 0 003.316 3.199 74.786 74.786 0 008.531 5.413"/></g><g id="Group_441-2" transform="translate(5.349 6.702)"><g id="Group_440-2"><path id="Path_1665-2" fill="#010101" d="M98.768-30.503c1.849 4.722 3.794 9.407 5.717 14.099a8262.95 8262.95 0 012.815 6.881c.941 2.305 1.761 4.721 2.881 6.948a.294.294 0 00.536-.227c-.752-2.404-1.872-4.74-2.83-7.071a915.552 915.552 0 00-2.932-7.036c-1.932-4.59-3.891-9.167-5.973-13.686-.054-.124-.262-.033-.213.09l-.001.002z"/></g></g><g id="Group_443-2" transform="translate(.135 18.492)"><g id="Group_442-2"><path id="Path_1666-2" fill="#010101" d="M97.557-27.591c2.222 1.69 4.582 3.225 6.874 4.817 1.098.765 2.192 1.533 3.284 2.303a24.752 24.752 0 003.609 2.464.28.28 0 00.337-.437 21.41 21.41 0 00-3.321-2.377 351.419 351.419 0 00-3.473-2.341c-2.365-1.577-4.722-3.225-7.195-4.63-.134-.078-.234.113-.117.202l.002-.001z"/></g></g><g id="Group_445-2" transform="translate(14.467)"><g id="Group_444-2"><path id="Path_1667-2" fill="#010101" d="M102.291-32.119c-.365 2.956-.418 5.976-.566 8.947a510.49 510.49 0 00-.363 8.951 801.379 801.379 0 00-.236 8.77c-.062 3.024-.292 6.12-.097 9.139a.294.294 0 00.588 0c.248-2.958.124-5.987.183-8.955.059-2.969.135-5.97.223-8.954.087-2.924.18-5.846.28-8.768.1-3.034.339-6.095.277-9.13a.145.145 0 00-.291 0h.002z"/></g></g><g id="Group_447-2" transform="translate(15.283 5.842)"><g id="Group_446-2"><path id="Path_1668-2" fill="#010101" d="M115.292-30.766c-2.605 4.623-4.948 9.41-7.319 14.156a861.686 861.686 0 00-3.534 7.148c-.557 1.139-1.113 2.28-1.666 3.421a25.88 25.88 0 00-1.612 3.53c-.09.288.31.426.466.197a27.838 27.838 0 001.807-3.548 2153.322 2153.322 0 015.181-10.58c2.326-4.715 4.76-9.385 6.973-14.152.09-.197-.188-.372-.297-.175l.001.003z"/></g></g><g id="Group_449-2" transform="translate(17.118 16.703)"><g id="Group_448-2"><path id="Path_1669-2" fill="#010101" d="M116.217-28.221a41.221 41.221 0 00-3.435 3.036 305.01 305.01 0 01-3.663 3.243 224.171 224.171 0 01-5.609 4.728c-.668.466-1.287.999-1.846 1.592a.272.272 0 00.329.425 20.249 20.249 0 003.635-2.853 172.52 172.52 0 003.839-3.304 144.3 144.3 0 003.604-3.304 30.861 30.861 0 003.336-3.38c.083-.109-.079-.267-.188-.188l-.002.005z"/></g></g></g><g id="Group_451-2" transform="translate(3.857 24.584)"><path id="Path_1670-2" fill="#96533C" d="M98.427-26.345c-.01.162-.025.325-.025.495v13.442a5.492 5.492 0 005.49 5.492h15.433a5.492 5.492 0 005.491-5.492v-13.447c0-.166-.015-.327-.025-.495l-26.364.005z"/></g><path id="Path_1671-2" fill="#010101" d="M111.487 10.12c-2.45-1.81-5.29-4.135-6.665-6.913-.83-1.674-1.723-3.287-2.508-4.969h-.031c-.01.162-.025.325-.025.495v13.442a5.492 5.492 0 005.49 5.492h15.433a5.47 5.47 0 003.054-.928 34.59 34.59 0 01-5.989-1.996 38.096 38.096 0 01-8.759-4.623z" opacity=".11"/><g id="Group_453-2" opacity=".11" transform="translate(20.868 35.475)"><g id="Group_452-2"><path id="Path_1672-2" fill="#010101" d="M102.827-23.035a.346.346 0 000-.692.345.345 0 00-.343.349c.001.19.154.342.343.343z"/></g></g><g id="Group_455-2" opacity=".11" transform="translate(22.898 35.922)"><g id="Group_454-2"><path id="Path_1673-2" fill="#010101" d="M103.24-23.086a.267.267 0 000-.533.266.266 0 000 .533z"/></g></g><g id="Group_457-2" opacity=".11" transform="translate(22.924 33.738)"><g id="Group_456-2"><path id="Path_1674-2" fill="#010101" d="M103.627-23.735c.051-.338-.391-.588-.589-.248-.249.431.522.694.589.248z"/></g></g><g id="Group_459-2" opacity=".11" transform="translate(6.423 36.259)"><g id="Group_458-2"><path id="Path_1675-2" fill="#010101" d="M99.457-23.229c0-.012.007-.024.011-.036.115-.363-.551-.372-.437 0l.012.036a.217.217 0 00.414 0z"/></g></g><g id="Group_461-2" opacity=".11" transform="translate(7.707 38.065)"><g id="Group_460-2"><path id="Path_1676-2" fill="#010101" d="M99.834-22.749l.007-.038a.259.259 0 10-.506 0l.007.038a.257.257 0 00.496 0h-.004z"/></g></g><g id="Group_463-2" opacity=".11" transform="translate(8.295 36.85)"><g id="Group_462-2"><path id="Path_1677-2" fill="#010101" d="M99.787-22.738a.33.33 0 100-.659.33.33 0 000 .659z"/></g></g></g><path id="Path_1940" fill="#D89270" d="M163.203 173.864s-1.764 9.186-1.824 9.489c-.061.304-5.658-.912-12.107 2.069-6.448 2.98-16.243 13.809-16.243 13.809V177.71l30.174-3.846z"/><path id="Path_1931" fill="#2E2C2C" d="M177.763 145.862s-2.819 26.423-14.142 28.62c-11.323 2.196-21.495 4.229-21.495 4.229s-7.4 5.285-7.752 22.205c-.352 16.92 1.762 19.028 1.762 19.028l-4.581 2.109s-1.762-19.381-8.457-19.381-15.857 10.572-12.333 21.496c3.524 10.924 14.732 14.095 17.198 12.685 2.467-1.409.957 2.537.957 2.537s-1.489 2.659-3.25 5.831c-1.761 3.173-5.391 17.709-20.191 22.642-14.799 4.934-44.711-5.991-53.169-31.013s-20.439-75.487-6.699-90.991c4.581-10.924 15.146-19.848 22.578-22.854a68.175 68.175 0 0115.439-4.202c4.934-.704 32.066-6.37 47.924 4.202 15.858 10.571 13.431 11.661 20.832 15.531 7.401 3.871 25.379 7.326 25.379 7.326z"/><path id="Intersection_46" fill="#252222" d="M52.307 236.855a279.869 279.869 0 01-11.52-47.943 66.147 66.147 0 0025.983 9.991c28.285 4.468 75.31-20.227 75.31-20.227l.01.062c-.551.419-7.38 5.942-7.717 22.174-.354 16.913 1.761 19.028 1.761 19.028l-4.581 2.109s-1.762-19.381-8.457-19.381-15.857 10.572-12.333 21.495c3.524 10.922 14.732 14.101 17.2 12.692 2.467-1.408.956 2.539.956 2.539s-1.489 2.658-3.25 5.83c-1.762 3.173-5.392 17.706-20.191 22.644a25.265 25.265 0 01-7.94 1.158c-15.721-.005-38.1-11.082-45.231-32.171z"/></g><path id="Path_1956" fill="#93226D" d="M235.875 56.781l511.786.941V47.6l-511.786-1.2v10.381z"/></g><g fill="#FFF"><path d="M646.699 431.056h-11.853l-3.553-16.166c-.169-.677-.436-2.021-.799-4.035-.364-2.014-.631-3.697-.8-5.051-.136 1.101-.355 2.466-.66 4.099s-.604 3.135-.9 4.505c-.297 1.37-1.527 6.92-3.693 16.648H612.59l-9.187-37.104h9.669l4.035 18.603c.914 4.111 1.539 7.385 1.878 9.821.22-1.726.613-4.068 1.181-7.029.566-2.961 1.095-5.414 1.586-7.36l3.273-14.034h9.289l3.172 14.034a164.967 164.967 0 011.649 7.791c.559 2.944.931 5.144 1.117 6.599.22-1.878.82-5.135 1.802-9.771l4.111-18.653h9.669l-9.135 37.103z"/><path d="M695.35 412.453c0 6.243-1.531 10.989-4.593 14.237-3.063 3.249-7.547 4.873-13.451 4.873-5.82 0-10.282-1.633-13.388-4.898-3.104-3.265-4.656-8.02-4.656-14.263 0-6.176 1.544-10.892 4.631-14.148 3.088-3.257 7.576-4.886 13.464-4.886 5.904 0 10.38 1.616 13.426 4.848 3.044 3.231 4.567 7.977 4.567 14.237zm-25.531 0c0 7.174 2.495 10.761 7.486 10.761 2.538 0 4.42-.871 5.646-2.614 1.227-1.742 1.84-4.458 1.84-8.146 0-3.705-.621-6.441-1.865-8.21-1.243-1.768-3.101-2.652-5.57-2.652-5.025-.001-7.537 3.62-7.537 10.861z"/><path d="M712.074 417.555v13.501H702.05v-37.104h12.156c10.084 0 15.126 3.654 15.126 10.964 0 4.297-2.099 7.622-6.294 9.974l10.812 16.166h-11.37l-7.867-13.501h-2.539zm0-7.538h1.878c3.503 0 5.254-1.548 5.254-4.645 0-2.554-1.718-3.832-5.152-3.832h-1.979v8.477z"/><path d="M768.923 431.056h-11.319l-7.334-14.187-2.97 1.776v12.41h-10.075v-37.104H747.3v16.115c.508-.998 1.531-2.58 3.071-4.746l7.791-11.369h10.964l-11.7 16.623 11.497 20.482z"/><path d="M627.944 493.427h-9.872v-37.104h21.927v8.045h-12.055v7.081h11.116v8.045h-11.116v13.933z"/><path d="M656.114 479.926v13.501H646.09v-37.104h12.156c10.084 0 15.126 3.654 15.126 10.964 0 4.297-2.099 7.622-6.294 9.974l10.812 16.166h-11.37l-7.867-13.501h-2.539zm0-7.538h1.878c3.503 0 5.254-1.548 5.254-4.645 0-2.554-1.718-3.832-5.152-3.832h-1.979v8.477z"/><path d="M715.983 474.824c0 6.243-1.531 10.989-4.593 14.237-3.063 3.249-7.547 4.873-13.451 4.873-5.82 0-10.282-1.633-13.388-4.898-3.104-3.265-4.656-8.02-4.656-14.263 0-6.176 1.544-10.892 4.631-14.148 3.088-3.257 7.576-4.886 13.464-4.886 5.904 0 10.38 1.616 13.426 4.848 3.045 3.231 4.567 7.977 4.567 14.237zm-25.53 0c0 7.174 2.495 10.761 7.486 10.761 2.538 0 4.42-.871 5.646-2.614 1.227-1.742 1.84-4.458 1.84-8.146 0-3.705-.621-6.441-1.865-8.21-1.243-1.768-3.101-2.652-5.57-2.652-5.025-.001-7.537 3.62-7.537 10.861z"/><path d="M738.85 493.427l-7.588-26.724h-.229c.355 4.552.533 8.087.533 10.608v16.115h-8.883v-37.104h13.35l7.74 26.343h.203l7.588-26.343h13.375v37.104h-9.213v-16.268c0-.846.013-1.785.038-2.817.025-1.031.14-3.562.343-7.588h-.229l-7.486 26.673h-9.542z"/><path d="M644.72 555.797h-10.075v-15.126h-11.649v15.126H612.92v-37.104h10.075v13.755h11.649v-13.755h10.075v37.104z"/><path d="M687.457 537.194c0 6.243-1.531 10.989-4.593 14.237-3.063 3.249-7.547 4.873-13.451 4.873-5.82 0-10.282-1.633-13.388-4.898-3.104-3.265-4.656-8.02-4.656-14.263 0-6.176 1.544-10.892 4.631-14.148 3.088-3.257 7.576-4.886 13.464-4.886 5.904 0 10.38 1.616 13.426 4.848 3.045 3.231 4.567 7.978 4.567 14.237zm-25.53 0c0 7.174 2.495 10.761 7.486 10.761 2.538 0 4.42-.871 5.646-2.614 1.227-1.742 1.84-4.458 1.84-8.146 0-3.705-.621-6.441-1.865-8.21-1.243-1.768-3.101-2.652-5.57-2.652-5.026-.001-7.537 3.62-7.537 10.861z"/><path d="M710.323 555.797l-7.588-26.724h-.229c.355 4.552.533 8.087.533 10.608v16.115h-8.883v-37.104h13.35l7.74 26.343h.203l7.588-26.343h13.375v37.104H727.2v-16.268c0-.846.013-1.785.038-2.817.025-1.031.14-3.562.343-7.588h-.229l-7.486 26.673h-9.543z"/><path d="M766.436 555.797h-22.028v-37.104h22.028v8.045h-12.004v5.837h11.116v8.045h-11.116v7.005h12.004v8.172z"/></g></svg>